<?xml version="1.0" encoding="UTF-8"?>
<svg width="136px" height="16px" viewBox="0 0 136 16" version="1.1" xmlns="http://www.w3.org/2000/svg" xmlns:xlink="http://www.w3.org/1999/xlink">
    <!-- Generator: Sketch 64 (93537) - https://sketch.com -->
    <title>不良事件管理系统</title>
    <desc>Created with Sketch.</desc>
    <g id="通知公告" stroke="none" stroke-width="1" fill="none" fill-rule="evenodd">
        <g transform="translate(-50.000000, -17.000000)" fill="#FFFFFF" fill-rule="nonzero" id="编组">
            <g>
                <g id="分组-2" transform="translate(49.000000, 16.000000)">
                    <g id="分组-7" transform="translate(0.560000, 0.600000)">
                        <path d="M3.2825,13.936875 L6.375625,3.395 L15.655,3.395 L15.655,1.1225 L0.7575,1.1225 L0.7575,3.395 L3.724375,3.395 L0.63125,13.936875 L3.2825,13.936875 Z M9.784375,16.2725 L9.784375,6.425 L10.163125,6.425 C10.8364583,6.425 11.299375,6.76166667 11.551875,7.435 L11.551875,7.435 L13.193125,13.87375 L15.9075,13.87375 L13.76125,5.604375 C13.5929167,4.973125 13.066875,4.6575 12.183125,4.6575 L12.183125,4.6575 L7.07,4.6575 L7.07,16.2725 L9.784375,16.2725 Z M24.1349601,16.209375 L24.1349601,14.12625 L21.4205851,14.12625 C20.7893351,14.12625 20.4737101,13.87375 20.4737101,13.36875 L20.4737101,13.36875 L20.4737101,10.023125 L32.4674601,10.023125 L32.4674601,4.02625 C32.4674601,2.42708333 31.7099601,1.6275 30.1949601,1.6275 L30.1949601,1.6275 L26.7230851,1.6275 L26.7230851,0.933125 L23.6299601,0.933125 L23.6299601,1.6275 L20.3474601,1.6275 C18.5799601,1.66958333 17.6962101,2.49020833 17.6962101,4.089375 L17.6962101,4.089375 L17.6962101,14.189375 C17.6962101,15.5360417 18.4537101,16.209375 19.9687101,16.209375 L19.9687101,16.209375 L24.1349601,16.209375 Z M29.7530851,4.973125 L20.4737101,4.973125 L20.4737101,3.710625 L28.4905851,3.710625 C29.3743351,3.710625 29.7951684,3.98416667 29.7530851,4.53125 L29.7530851,4.53125 L29.7530851,4.973125 Z M29.7530851,8.06625 L20.4737101,8.06625 L20.4737101,6.866875 L28.4905851,6.866875 C29.3743351,6.866875 29.7951684,7.14041667 29.7530851,7.6875 L29.7530851,7.6875 L29.7530851,8.06625 Z M32.9724601,16.14625 L29.1218351,12.800625 L32.1518351,12.800625 L32.1518351,10.84375 L26.6599601,10.84375 C25.4395434,11.0120833 25.0818351,11.7064583 25.5868351,12.926875 L25.5868351,12.926875 L29.1218351,16.14625 L32.9724601,16.14625 Z M42.5255451,16.209375 C43.0305451,16.209375 43.3882535,16.0620833 43.5986701,15.7675 C43.8511701,15.515 43.9563785,15.2414583 43.9142951,14.946875 L43.9142951,14.946875 L43.9142951,14.315625 L49.4692951,14.315625 L49.4692951,12.10625 L50.0374201,12.10625 L50.0374201,10.465 L49.4692951,10.465 L49.4692951,9.896875 C49.4692951,8.84479167 48.8801285,8.31875 47.7017951,8.31875 L47.7017951,8.31875 L43.9142951,8.31875 L43.9142951,7.624375 L49.6586701,7.624375 L49.6586701,5.604375 C49.6586701,4.51020833 49.1115868,3.963125 48.0174201,3.963125 L48.0174201,3.963125 L43.9142951,3.963125 L43.9142951,3.205625 L49.9742951,3.205625 L49.9742951,1.564375 L43.9142951,1.564375 L43.9142951,0.933125 L41.1367951,0.933125 L41.1367951,1.564375 L34.8242951,1.564375 L34.8242951,3.205625 L40.1267951,3.205625 C40.8001285,3.205625 41.1367951,3.37395833 41.1367951,3.710625 L41.1367951,3.710625 L41.1367951,3.963125 L36.7811701,3.963125 C35.6870035,3.92104167 35.1399201,4.468125 35.1399201,5.604375 L35.1399201,5.604375 L35.1399201,7.624375 L40.1899201,7.624375 C40.8211701,7.58229167 41.1367951,7.750625 41.1367951,8.129375 L41.1367951,8.129375 L41.1367951,8.31875 L35.0767951,8.31875 L35.0767951,9.770625 L40.1267951,9.770625 C40.8001285,9.770625 41.1367951,9.93895833 41.1367951,10.275625 L41.1367951,10.275625 L41.1367951,10.465 L34.7611701,10.465 L34.7611701,12.10625 L40.1267951,12.10625 C40.8001285,12.10625 41.1367951,12.2745833 41.1367951,12.61125 L41.1367951,12.61125 L41.1367951,12.86375 L35.0767951,12.86375 L35.0767951,14.315625 L41.1367951,14.315625 L41.1367951,14.63125 C41.1367951,14.7154167 41.0947118,14.7785417 41.0105451,14.820625 C40.9263785,14.9047917 40.8211701,14.946875 40.6949201,14.946875 L40.6949201,14.946875 L37.5386701,14.946875 L37.5386701,16.209375 L42.5255451,16.209375 Z M41.1367951,6.235625 L37.7911701,6.235625 L37.7911701,5.28875 L40.2530451,5.28875 C40.8422118,5.28875 41.1367951,5.56229167 41.1367951,6.109375 L41.1367951,6.109375 L41.1367951,6.235625 Z M47.0705451,6.235625 L43.9142951,6.235625 L43.9142951,5.28875 L46.0605451,5.28875 C46.7338785,5.28875 47.0705451,5.54125 47.0705451,6.04625 L47.0705451,6.04625 L47.0705451,6.235625 Z M46.8811701,10.465 L43.9142951,10.465 L43.9142951,9.770625 L45.9342951,9.770625 C46.5655451,9.770625 46.8811701,9.93895833 46.8811701,10.275625 L46.8811701,10.275625 L46.8811701,10.465 Z M46.8811701,12.86375 L43.9142951,12.86375 L43.9142951,12.10625 L45.9342951,12.10625 C46.5655451,12.10625 46.8811701,12.2745833 46.8811701,12.61125 L46.8811701,12.61125 L46.8811701,12.86375 Z M63.6936302,16.209375 L63.6936302,12.485 L67.1023802,12.485 L67.1023802,10.33875 L63.6936302,10.33875 L63.6936302,5.604375 L66.8498802,5.604375 L66.8498802,3.52125 L63.6936302,3.52125 L63.6936302,0.933125 L61.1055052,0.933125 L61.1055052,3.52125 L59.4642552,3.52125 L59.8430052,1.75375 L57.3180052,1.75375 C57.1917552,2.80583333 56.8340468,3.77375 56.2448802,4.6575 L56.2448802,4.6575 L56.2448802,7.624375 C57.1707135,7.28770833 58.0123802,6.614375 58.7698802,5.604375 L58.7698802,5.604375 L59.7798802,5.604375 C60.6636302,5.604375 61.1055052,6.109375 61.1055052,7.119375 L61.1055052,7.119375 L61.1055052,10.33875 L56.6867552,10.33875 L56.6867552,12.485 L59.7167552,12.485 C60.6425885,12.485 61.1055052,12.99 61.1055052,14 L61.1055052,14 L61.1055052,16.209375 L63.6936302,16.209375 Z M53.7198802,16.209375 C54.8561302,16.209375 55.4242552,15.7254167 55.4242552,14.7575 L55.4242552,14.7575 L55.4242552,6.866875 L53.8461302,6.866875 C55.0665468,5.604375 55.8871718,3.66854167 56.3080052,1.059375 L56.3080052,1.059375 L53.8461302,1.059375 C53.5094635,3.079375 52.8361302,4.42604167 51.8261302,5.099375 L51.8261302,5.099375 L51.8261302,8.1925 L52.8361302,7.81375 L52.8361302,16.209375 L53.7198802,16.209375 Z M83.5992152,16.209375 L83.5992152,13.7475 C83.5992152,12.7375 83.0310902,12.2325 81.8948402,12.2325 L81.8948402,12.2325 L72.3629652,12.2325 L72.3629652,11.538125 L83.2835902,11.538125 L83.2835902,8.381875 L84.0410902,8.381875 L84.0410902,6.55125 C84.0410902,5.62541667 83.5571319,5.1625 82.5892152,5.1625 L82.5892152,5.1625 L77.8548402,5.1625 L77.8548402,4.720625 L78.7385902,4.720625 C79.3698402,4.720625 79.7485902,4.468125 79.8748402,3.963125 L79.8748402,3.963125 L79.8748402,3.01625 L80.3798402,3.01625 L81.5160902,4.720625 L84.1673402,4.720625 L83.0310902,3.01625 L84.1673402,3.01625 L84.1673402,1.059375 L78.9910902,1.059375 C77.8548402,1.059375 77.2867152,1.60645833 77.2867152,2.700625 L77.2867152,2.700625 L77.2867152,3.331875 C76.9921319,4.29979167 76.3187986,4.19458333 75.2667152,3.01625 L75.2667152,3.01625 L76.8448402,3.01625 L76.8448402,1.059375 L70.8479652,1.059375 C69.7117152,1.059375 69.1435902,1.6275 69.1435902,2.76375 L69.1435902,2.76375 L69.1435902,4.78375 L70.3429652,4.78375 C71.2687986,4.74166667 71.7317152,4.468125 71.7317152,3.963125 L71.7317152,3.963125 L71.7317152,3.01625 L72.0473402,3.01625 L73.4360902,4.468125 C73.7306736,4.63645833 74.1304652,4.720625 74.6354652,4.720625 L74.6354652,4.720625 L75.1404652,4.720625 L75.1404652,5.1625 L70.5954652,5.1625 C69.4592152,5.1625 68.8910902,5.62541667 68.8910902,6.55125 L68.8910902,6.55125 L68.8910902,8.381875 L69.7117152,8.381875 L69.7117152,16.209375 L83.5992152,16.209375 Z M81.3898402,7.56125 L71.5423402,7.56125 L71.5423402,6.866875 L80.3798402,6.866875 C81.0531736,6.866875 81.3898402,7.03520833 81.3898402,7.371875 L81.3898402,7.371875 L81.3898402,7.56125 Z M80.6323402,9.96 L72.3629652,9.96 L72.3629652,9.139375 L79.6223402,9.139375 C80.2956736,9.139375 80.6323402,9.32875 80.6323402,9.7075 L80.6323402,9.7075 L80.6323402,9.96 Z M80.8848402,14.568125 L72.3629652,14.568125 L72.3629652,13.810625 L79.8117152,13.810625 C80.5271319,13.810625 80.8848402,14 80.8848402,14.37875 L80.8848402,14.37875 L80.8848402,14.568125 Z M100.032925,16.209375 C100.832509,16.209375 101.2323,15.8516667 101.2323,15.13625 L101.2323,15.13625 L101.2323,14.063125 L97.8866753,14.063125 L97.8866753,12.7375 L100.916675,12.7375 L100.916675,10.59125 L97.8866753,10.59125 L97.8866753,9.32875 L101.042925,9.32875 L101.042925,3.079375 C101.000842,1.64854167 100.285425,0.933125 98.8966753,0.933125 L98.8966753,0.933125 L94.2885503,0.933125 C92.8156336,0.933125 92.0791753,1.66958333 92.0791753,3.1425 L92.0791753,3.1425 L92.0791753,9.32875 L93.8466753,9.32875 C94.7725086,9.32875 95.2354253,9.60229167 95.2354253,10.149375 L95.2354253,10.149375 L95.2354253,10.59125 L91.9529253,10.59125 L91.9529253,12.7375 L93.9098003,12.7375 C94.7935503,12.7375 95.2354253,13.0110417 95.2354253,13.558125 L95.2354253,13.558125 L95.2354253,14.063125 L91.7635503,14.063125 L91.7635503,16.209375 L100.032925,16.209375 Z M91.3216753,16.209375 L91.3216753,14.12625 L90.0591753,14.12625 L90.0591753,9.7075 L91.4479253,9.7075 L91.4479253,7.624375 L90.0591753,7.624375 L90.0591753,3.331875 L91.5110503,3.331875 L91.5110503,1.24875 L85.9560503,1.24875 L85.9560503,3.331875 L86.2085503,3.331875 C87.0923003,3.331875 87.5131336,3.75270833 87.4710503,4.594375 L87.4710503,4.594375 L87.4710503,7.624375 L86.0823003,7.624375 L86.0823003,9.7075 L86.2716753,9.7075 C87.0712586,9.7075 87.4710503,10.08625 87.4710503,10.84375 L87.4710503,10.84375 L87.4710503,14.12625 L85.9560503,14.12625 L85.9560503,16.209375 L91.3216753,16.209375 Z M95.2354253,4.1525 L94.0991753,4.1525 L94.0991753,2.953125 L94.6673003,2.953125 C95.0460503,2.953125 95.2354253,3.16354167 95.2354253,3.584375 L95.2354253,3.584375 L95.2354253,4.1525 Z M99.0860503,4.1525 L97.8866753,4.1525 L97.8866753,2.953125 L98.4548003,2.953125 C98.8756336,2.953125 99.0860503,3.16354167 99.0860503,3.584375 L99.0860503,3.584375 L99.0860503,4.1525 Z M95.2354253,7.371875 L94.0991753,7.371875 L94.0991753,6.1725 L94.6673003,6.1725 C95.0460503,6.1725 95.2354253,6.361875 95.2354253,6.740625 L95.2354253,6.740625 L95.2354253,7.371875 Z M99.0860503,7.371875 L97.8866753,7.371875 L97.8866753,6.1725 L98.4548003,6.1725 C98.8756336,6.1725 99.0860503,6.38291667 99.0860503,6.80375 L99.0860503,6.80375 L99.0860503,7.371875 Z M111.921635,16.209375 L111.921635,11.285625 L115.89851,11.285625 C117.245177,11.285625 117.687052,10.6333333 117.224135,9.32875 L117.224135,9.32875 L116.214135,7.371875 L113.436635,7.371875 L114.194135,8.6975 C114.320385,9.03416667 114.173094,9.2025 113.75226,9.2025 L113.75226,9.2025 L108.765385,9.2025 L117.66601,4.468125 L112.61601,4.468125 L111.164135,5.28875 L108.19726,5.28875 L111.60601,3.395 L116.340385,3.395 C117.392469,3.31083333 117.91851,2.86895833 117.91851,2.069375 L117.91851,2.069375 L117.91851,1.1225 L103.02101,1.1225 L103.02101,3.331875 L107.18726,3.331875 L104.220385,4.91 C103.673302,6.21458333 103.988927,6.95104167 105.16726,7.119375 L105.16726,7.119375 L107.81851,7.119375 L104.220385,9.013125 C103.673302,10.528125 104.15726,11.285625 105.67226,11.285625 L105.67226,11.285625 L108.007885,11.285625 C108.765385,11.285625 109.144135,11.6433333 109.144135,12.35875 L109.144135,12.35875 L109.144135,16.209375 L111.921635,16.209375 Z M117.91851,16.083125 L116.845385,12.548125 C116.719135,12.1272917 116.40351,11.916875 115.89851,11.916875 L115.89851,11.916875 L113.941635,11.916875 L115.26726,16.083125 L117.91851,16.083125 Z M106.05101,16.083125 L106.745385,11.916875 L104.15726,11.916875 L103.27351,16.083125 L106.05101,16.083125 Z M135.36222,8.760625 L133.910345,4.53125 L131.385345,4.53125 L131.95347,6.1725 C132.07972,6.50916667 131.911387,6.6775 131.44847,6.6775 L131.44847,6.6775 L128.986595,6.6775 L130.69097,3.836875 L134.85722,3.836875 L134.85722,1.75375 L131.511595,1.75375 L131.511595,0.933125 L129.04972,0.933125 L129.04972,1.75375 L125.76722,1.75375 L125.76722,3.836875 L127.66097,3.836875 L125.89347,6.866875 C125.683054,8.129375 126.209095,8.73958333 127.471595,8.6975 L127.471595,8.6975 L131.32222,8.6975 C131.95347,8.57125 132.33222,8.27666667 132.45847,7.81375 L132.45847,7.81375 L132.83722,8.760625 L135.36222,8.760625 Z M124.88347,12.926875 L124.88347,10.780625 L122.926595,10.780625 L124.946595,6.80375 L124.946595,4.973125 L122.98972,4.973125 L124.820345,1.059375 L122.169095,1.059375 L120.33847,4.6575 C119.83347,6.00416667 120.170137,6.80375 121.34847,7.05625 L121.34847,7.05625 L122.10597,7.05625 L120.275345,10.780625 C119.980762,12.1272917 120.401595,12.8427083 121.537845,12.926875 L121.537845,12.926875 L124.88347,12.926875 Z M126.840345,16.14625 C127.597845,16.14625 128.102845,15.7464583 128.355345,14.946875 L128.355345,14.946875 L129.617845,9.265625 L126.966595,9.265625 L126.082845,13.558125 C125.998679,13.8947917 125.830345,14.063125 125.577845,14.063125 L125.577845,14.063125 L120.21222,14.063125 L120.21222,16.14625 L126.840345,16.14625 Z M134.794095,16.209375 L134.794095,14.12625 L133.531595,14.12625 C133.279095,14.12625 133.152845,13.9789583 133.152845,13.684375 L133.152845,13.684375 L133.152845,9.265625 L130.754095,9.265625 L130.754095,14.694375 C130.754095,15.704375 131.259095,16.209375 132.269095,16.209375 L132.269095,16.209375 L134.794095,16.209375 Z" id="不良事件管理系统"></path>
                    </g>
                </g>
            </g>
        </g>
    </g>
</svg>