<?xml version="1.0" encoding="UTF-8"?>
<svg width="37px" height="36px" viewBox="0 0 37 36" version="1.1" xmlns="http://www.w3.org/2000/svg" xmlns:xlink="http://www.w3.org/1999/xlink">
    <!-- Generator: Sketch 64 (93537) - https://sketch.com -->
    <title>不良事件icon</title>
    <desc>Created with Sketch.</desc>
    <defs>
        <linearGradient x1="50%" y1="0%" x2="50%" y2="100%" id="linearGradient-1">
            <stop stop-color="#C0E3BF" offset="0%"></stop>
            <stop stop-color="#EFFCEF" offset="22.008975%"></stop>
            <stop stop-color="#FFFFFF" offset="100%"></stop>
        </linearGradient>
        <path d="M13.7523084,1.33528722 C14.8205442,2.18386137 16.1007574,2.93410322 17.5929481,3.58601276 C19.1569887,4.26931216 20.7787737,4.76805935 22.4583032,5.08225434 C23.6844632,5.31163681 24.5271824,6.44653936 24.3921861,7.68664453 L23.7547229,13.5425225 L23.7547229,13.5425225 C23.7587095,15.4003353 23.4443296,17.2446618 22.825704,18.9926009 C22.2209923,20.7098694 21.354101,22.3194317 20.2569315,23.7620603 C19.1564651,25.2304163 17.8293164,26.5074891 16.3271298,27.5435671 C15.5825574,28.0555478 13.9471971,28.9808699 12.3117231,28.9789656 C10.6774465,28.9770151 9.04305651,28.048214 8.29727269,27.5341167 C6.79489284,26.4983001 5.46770491,25.2211904 4.367471,23.7526097 C3.27800754,22.3131606 2.41746262,20.708528 1.81728668,18.9973565 C1.19847353,17.2494663 0.884085153,15.4050998 0.888258624,13.5472514 L0.244818096,7.63386191 C0.110471969,6.39934888 0.945196018,5.26807623 2.16440685,5.03228768 C4.04672643,4.66825762 5.67450103,4.18616214 7.04773065,3.58600123 C8.35352826,3.01531103 9.60225532,2.2622348 10.7939118,1.32677255 L10.7939019,1.32675991 C11.663112,0.644421288 12.8870463,0.647949156 13.7523084,1.33528722 Z" id="path-2"></path>
        <filter x="-1.1%" y="1.1%" width="102.2%" height="104.1%" filterUnits="objectBoundingBox" id="filter-4">
            <feOffset dx="0" dy="1" in="SourceAlpha" result="shadowOffsetOuter1"></feOffset>
            <feColorMatrix values="0 0 0 0 0.501960784   0 0 0 0 0.823529412   0 0 0 0 0.749019608  0 0 0 1 0" type="matrix" in="shadowOffsetOuter1"></feColorMatrix>
        </filter>
    </defs>
    <g id="通知公告" stroke="none" stroke-width="1" fill="none" fill-rule="evenodd">
        <g transform="translate(-10.000000, -8.000000)" id="编组">
            <g transform="translate(16.000000, 10.000000)">
                <g id="椭圆形-+-良-+-矩形-+-路径-2-蒙版" transform="translate(0.000000, 0.000000)">
                    <mask id="mask-3" fill="white">
                        <use xlink:href="#path-2"></use>
                    </mask>
                    <g id="蒙版" fill-rule="nonzero">
                        <use fill="black" fill-opacity="1" filter="url(#filter-4)" xlink:href="#path-2"></use>
                        <use fill="url(#linearGradient-1)" xlink:href="#path-2"></use>
                    </g>
                    <path d="M12.5673624,15.8809265 L17.4036393,15.8809265 C17.9428375,15.8809265 18.3059709,15.7818902 18.4930396,15.5838174 C18.6691043,15.4187567 18.7571366,15.1106435 18.7571366,14.6594778 L18.7571366,9.75717655 C18.7571366,9.361031 18.6636023,9.07492588 18.4765335,8.89886119 C18.2564527,8.70078841 17.8658092,8.60175202 17.304603,8.60175202 L7.86313395,8.60175202 C7.36795201,8.60175202 7.01582263,8.70629043 6.80674581,8.91536725 C6.60867303,9.13544811 6.50963664,9.48207547 6.50963664,9.95524933 L6.50963664,20.5191307 C6.50963664,21.4654784 6.93879433,21.8781301 7.79710969,21.7570856 C9.13960295,21.6360411 10.685671,21.3169239 12.4353139,20.7997338 C12.7984473,20.6676853 12.991018,20.4310984 13.0130261,20.089973 C13.0350342,19.7928639 12.9525039,19.5287668 12.7654352,19.2976819 C12.5563583,19.0886051 12.2537472,19.0280829 11.8576016,19.1161152 C10.6031407,19.5012567 9.48623031,19.7323416 8.50687047,19.8093699 C8.40783408,19.820374 8.34731185,19.7983659 8.32530376,19.7433457 C8.31429972,19.7213376 8.30879769,19.6388073 8.30879769,19.4957547 L8.30879769,15.8809265 L12.5673624,15.8809265 Z M16.9579756,11.3747709 L8.30879769,11.3747709 L8.30879769,10.631998 C8.30879769,10.4779414 8.37482195,10.4009131 8.50687047,10.4009131 L16.7599028,10.4009131 C16.8919513,10.4009131 16.9579756,10.4669373 16.9579756,10.5989858 L16.9579756,11.3747709 Z M8.30879769,14.0817655 L8.30879769,13.1079077 L16.9579756,13.1079077 L16.9579756,13.8836927 C16.9579756,14.0157412 16.9139594,14.0817655 16.8259271,14.0817655 L8.30879769,14.0817655 Z" id="良" fill="#00A680" fill-rule="nonzero" mask="url(#mask-3)"></path>
                    <rect id="矩形" fill="#00A680" fill-rule="nonzero" mask="url(#mask-3)" x="11.8566717" y="6.74191375" width="2.09231806" height="3.0222372" rx="0.976415094"></rect>
                    <path d="M15.0710483,13.5820852 L11.1665575,16.7114556 L15.029231,19.4101819 L20.0760387,23.2446688 L16.3135554,16.6994763 L15.0710483,13.5820852 Z" id="路径-2" stroke="#FFFFFF" stroke-width="1.08490566" fill="#00A680" mask="url(#mask-3)"></path>
                    <ellipse id="椭圆形" fill="#FFFFFF" opacity="0.549897693" mask="url(#mask-3)" cx="12.3214286" cy="-2.14285714" rx="13.3928571" ry="15"></ellipse>
                </g>
            </g>
        </g>
    </g>
</svg>