<?xml version="1.0" encoding="UTF-8"?>
<svg width="20px" height="20px" viewBox="0 0 20 20" version="1.1" xmlns="http://www.w3.org/2000/svg" xmlns:xlink="http://www.w3.org/1999/xlink">
    <!-- Generator: Sketch 59.1 (86144) - https://sketch.com -->
    <title>本科室的</title>
    <desc>Created with Sketch.</desc>
    <g id="继续教育" stroke="none" stroke-width="1" fill="none" fill-rule="evenodd">
        <g id="病区日志菜单icon" transform="translate(-6.000000, -43.000000)" fill="#000000" fill-rule="nonzero">
            <g id="科室" transform="translate(9.000000, 46.000000)">
                <path d="M13.8687615,0.894755335 C13.6202183,0.59650265 13.3219656,0.347959426 13.0734224,0.0994162022 C13.0237137,0.0497075574 12.9242967,-1.22329964e-06 12.8745873,-1.22329964e-06 C8.99731187,-1.22329964e-06 4.97090267,-1.22329964e-06 1.09362729,-1.22329964e-06 C1.04391865,-1.22329964e-06 0.94450163,0.0497074215 0.894792169,0.0994162022 C0.646248945,0.347959426 0.347996261,0.646212111 0.0994530371,0.894755335 C3.56116116e-05,0.99417276 3.56116116e-05,1.043881 3.56116116e-05,1.19300802 C3.56116116e-05,3.13165251 3.56116116e-05,5.0702834 3.56116116e-05,7.00892789 C3.56116116e-05,8.94757237 3.56116116e-05,10.8862033 3.56116116e-05,12.8248478 C3.56116116e-05,12.9242652 0.0497442564,13.0236829 0.0994530371,13.073391 C0.347996261,13.3219342 0.596539485,13.5704774 0.845082709,13.8687301 C0.944499999,13.9184388 0.994208372,13.9184388 1.14333539,13.9184388 C2.08780019,13.9184388 3.08197988,13.9184388 4.02643516,13.9184388 C6.95924167,13.9184388 9.84235503,13.9184388 12.7751615,13.9184388 C12.874579,13.9184388 12.9739967,13.8687301 13.0734142,13.8190213 C13.3219574,13.5704781 13.6202101,13.2722254 13.8687534,13.0236822 C13.918462,12.9739736 13.9681708,12.8745565 13.9681708,12.8248471 C14.0178794,8.84815821 13.9681708,5.02058957 13.9681708,1.09359386 C13.9681789,1.04388181 13.9184703,0.944464795 13.8687615,0.894755335 Z M0.94450829,12.9242572 C0.94450829,9.64348987 0.94450829,6.31300224 0.94450829,2.98251461 C4.92119716,2.98251461 8.9973131,2.98251461 12.9740156,2.98251461 C12.9740156,6.31300224 12.8745981,9.59376953 12.8745981,12.9242572 C8.89789961,12.9242572 4.92119716,12.9242572 0.94450829,12.9242572 Z M0.94449864,1.98835259 C0.94449864,1.6403918 0.94449864,1.34213912 0.94449864,0.994178333 C4.92118751,0.994178333 8.99730345,0.994178333 12.9740059,0.994178333 C12.9740059,1.34213912 12.9740059,1.6403918 12.9740059,1.98835259 C8.99731704,1.98835259 4.9212011,1.98835259 0.94449864,1.98835259 Z M7.90372794,11.9300951 C7.90372794,10.9359209 7.90372794,9.94174391 7.90372794,8.9475683 C8.8979022,8.9475683 9.89207917,8.9475683 10.8862548,8.9475683 C10.8862548,8.30135483 10.8862548,7.60543326 10.8862548,6.95921707 C9.89208053,6.95921707 8.89790356,6.95921707 7.90372794,6.95921707 C7.90372794,5.96504281 7.90372794,4.97086584 7.90372794,3.97669022 C7.25751447,3.97669022 6.61130236,3.97669022 5.91537671,3.97669022 C5.91537671,4.97086448 5.91537671,5.96504145 5.91537671,6.95921707 C4.92120246,6.95921707 3.92702548,6.95921707 2.93284987,6.95921707 C2.93284987,7.60543054 2.93284987,8.30135211 2.93284987,8.9475683 C3.92702412,8.9475683 4.9212011,8.9475683 5.91537671,8.9475683 C5.91537671,9.94174255 5.91537671,10.9359195 5.91537671,11.9300951 C6.56159018,11.9300951 7.25751175,11.9300951 7.90372794,11.9300951 Z" id="形状"></path>
            </g>
        </g>
    </g>
</svg>