<?xml version="1.0" encoding="UTF-8"?>
<svg width="20px" height="20px" viewBox="0 0 20 20" version="1.1" xmlns="http://www.w3.org/2000/svg" xmlns:xlink="http://www.w3.org/1999/xlink">
    <!-- Generator: Sketch 59.1 (86144) - https://sketch.com -->
    <title>我创建的</title>
    <desc>Created with Sketch.</desc>
    <g id="继续教育" stroke="none" stroke-width="1" fill="none" fill-rule="evenodd">
        <g id="病区日志菜单icon" transform="translate(-6.000000, -6.000000)" fill="#000000" fill-rule="nonzero">
            <g id="创建" transform="translate(9.000000, 9.000000)">
                <path d="M9.97645344,8.19059277 C9.98019242,7.86184617 10.2497256,7.59837503 10.5784723,7.60211374 C10.9019434,7.60579274 11.163273,7.86712038 11.1669515,8.19059294 L11.1669515,9.97645361 L12.9526618,9.97645361 C13.2814085,9.9764536 13.5479116,10.2429551 13.5479116,10.5717034 C13.5479116,10.9004502 13.28141,11.1669532 12.9526618,11.1669532 L11.1669515,11.1669532 L11.1669515,12.9526635 C11.166611,13.2814277 10.8998875,13.5477021 10.5711242,13.5474896 C10.2427294,13.5472337 9.97658726,13.2810577 9.97637521,12.9526629 L9.97637521,11.1669526 L8.19051454,11.1669526 C7.86173917,11.1666125 7.59544218,10.8999021 7.59561148,10.5711253 C7.59586572,10.2427027 7.86208657,9.97654706 8.19051301,9.97637712 L9.97644888,9.97637712 L9.97645344,8.19059277 Z M12.952737,8.78588015 C12.6239692,8.78588015 12.3574496,8.51936058 12.3574496,8.19059276 L12.3574496,2.41065973 C12.3574496,1.75315566 12.2067447,1.64251115 11.5493173,1.64251115 L5.2141543,1.64251115 C3.24156841,1.64251115 1.64243296,3.24157141 1.64243296,5.2141573 L1.64243296,11.5963847 C1.64243296,12.2538121 1.83867331,12.3574526 2.49617588,12.3574526 L8.19051456,12.3574526 C8.51926131,12.3574526 8.78576433,12.6239541 8.78576433,12.9527024 C8.78576435,13.2814492 8.51926281,13.5479522 8.19051454,13.5479522 L2.49625104,13.5479522 C1.18116621,13.5479522 0.452005533,12.9112395 0.452005533,11.5963035 L0.452005533,5.21407609 C0.452005533,2.58398162 2.58414102,0.451846133 5.21423549,0.451846133 L11.5493985,0.451846133 C12.8643285,0.451846133 13.5481116,1.09548617 13.5481116,2.4105725 L13.5481116,8.19058072 C13.5481116,8.51936058 13.2815048,8.78588015 12.952737,8.78588015 Z M6.40472157,0.451930364 L6.40472157,4.02357952 C6.40472157,5.33866435 5.33865533,6.4046569 4.02364419,6.4046569 L0.451922844,6.4046569 L0.451922844,5.21423551 C0.451922844,2.58406585 2.58405833,0.451930364 5.214228,0.451930364 L6.40472157,0.451930364 Z M1.64250214,5.2141543 L4.02365472,5.2141543 C4.68115878,5.2141543 5.2141528,4.68116029 5.2141528,4.02365622 L5.2142298,1.64250364 C3.24163759,1.64250364 1.64250214,3.24156841 1.64250214,5.2141543 Z" id="形状"></path>
            </g>
        </g>
    </g>
</svg>