<?xml version="1.0" encoding="UTF-8"?>
<svg width="150px" height="173px" viewBox="0 0 150 173" version="1.1" xmlns="http://www.w3.org/2000/svg" xmlns:xlink="http://www.w3.org/1999/xlink">
    <!-- Generator: Sketch 54.1 (76490) - https://sketchapp.com -->
    <title>为空</title>
    <desc>Created with Sketch.</desc>
    <defs>
        <path d="M73.65108,139.218912 L20.4996737,139.218912 C16.4526123,139.218912 16.1828082,138.949108 16.1828082,135.171851 L16.1828082,96.3200612 C16.1828082,94.7012367 16.7224164,92.812608 17.2620246,91.1937834 C22.3883023,78.5129911 27.7843842,65.8321987 33.180466,53.1514063 C34.2596824,50.7231695 35.3388988,49.6439531 38.0369397,49.6439531 L107.646396,49.6439531 C110.344437,49.6439531 111.693457,50.4533654 112.772673,52.8816022 C118.438559,65.5623946 124.104445,78.243187 129.770331,90.6541753 C130.579744,92.5428039 131.119352,94.7012367 131.119352,96.8596694 L131.119352,134.632242 C131.119352,139.218912 131.119352,139.218912 126.532682,139.218912 L73.65108,139.218912 M113.312282,93.3522162 C111.693457,88.4957425 110.344437,84.4486811 108.725612,80.4016197 C108.455808,79.5922074 106.836983,79.0525993 106.027571,79.0525993 L40.4651766,79.0525993 C39.6557643,79.0525993 38.0369397,79.5922074 37.7671356,80.1318156 C36.1483111,84.178877 35.0690947,88.4957425 33.4502701,93.3522162 L48.0196912,93.3522162 C50.9875362,93.3522162 52.3365567,93.8918244 52.3365567,97.3992776 C52.8761648,107.921637 62.049504,116.285564 73.1114718,116.285564 C83.9036355,116.285564 93.3467788,107.921637 93.6165829,97.3992776 C93.886387,94.1616285 94.9656033,93.0824121 97.9334484,93.3522162 C103.059726,93.6220203 107.646396,93.3522162 113.312282,93.3522162 M73.65108,76.8941665 L105.487963,76.8941665 C108.186004,76.8941665 109.26522,76.0847542 109.26522,73.3867133 C108.995416,67.1812192 109.26522,60.975725 109.26522,54.7702309 C109.26522,52.6117981 108.455808,51.8023859 106.297375,51.8023859 L41.2745888,51.8023859 C39.1161561,51.8023859 38.3067438,52.341994 38.3067438,54.7702309 L38.3067438,74.1961256 C38.3067438,76.6243624 39.3859602,77.1639706 41.5443929,77.1639706 C52.0667526,76.8941665 62.8589163,76.8941665 73.65108,76.8941665 M18.3412409,93.3522162 C22.9279105,93.3522162 26.7051678,93.6220203 30.212621,93.3522162 C31.0220333,93.3522162 32.3710538,91.7333916 32.6408579,90.6541753 C35.0690947,84.178877 36.4181152,77.7035788 35.878507,70.9584765 C35.6087029,66.3718069 35.878507,61.7851373 35.878507,56.9286636 C35.878507,55.8494473 35.878507,55.040035 35.6087029,53.9608186 C35.3388988,53.9608186 35.0690947,53.9608186 34.7992906,53.6910145 C29.4032087,66.641611 24.0071269,79.5922074 18.3412409,93.3522162 M129.230723,93.3522162 C123.295033,80.1318156 117.629147,67.7208273 111.963261,55.040035 C111.693457,55.040035 111.423653,55.040035 111.153849,55.3098391 C111.153849,56.1192513 110.884045,56.9286636 110.884045,58.00788 C110.884045,62.0549414 111.153849,66.3718069 110.884045,70.4188683 C110.344437,77.4337747 111.963261,83.9090729 114.121694,90.6541753 C114.931106,92.812608 115.740519,93.8918244 118.168755,93.6220203 C121.676209,93.3522162 124.913858,93.3522162 129.230723,93.3522162 M65.8267613,152.439313 C62.049504,159.454219 57.1930303,165.389909 49.9083198,169.167166 C48.8291034,169.706775 47.480083,170.246383 46.4008666,169.976579 C43.9726298,169.706775 41.814197,169.43697 39.6557643,168.897362 C37.7671356,168.357754 36.4181152,168.627558 35.0690947,170.246383 C34.2596824,171.325599 32.6408579,172.404815 31.5616415,172.404815 C25.6259514,171.865207 19.9600655,170.246383 14.5639836,167.548342 C20.7694778,167.548342 26.1655596,165.389909 30.4824251,161.073044 C33.180466,158.375003 35.6087029,155.137353 37.7671356,151.899704 C39.1161561,150.011076 39.6557643,150.011076 41.814197,150.820488 C44.782042,152.169508 48.0196912,152.978921 51.2573403,153.248725 C55.8440099,153.518529 60.7004835,152.978921 65.8267613,152.439313 M2.69260353,0 C4.31142809,2.15843274 5.66044856,4.31686549 7.54907721,5.93569005 C9.43770586,7.5545146 9.70750995,9.17333916 9.70750995,11.3317719 C9.43770586,19.9655029 11.0565304,28.0596257 16.4526123,35.0745321 L16.4526123,35.8839444 C-1.35445786,30.4878625 -1.35445786,12.1411842 2.69260353,0 M135.975825,64.4831782 C138.673866,63.94357 141.102103,63.673766 143.53034,62.8643537 C145.688773,61.7851373 147.577401,59.8965087 149.735834,58.2776841 C147.847206,65.2925905 143.800144,69.609456 138.404062,70.6886724 C137.324846,68.5302396 136.515434,66.3718069 135.975825,64.4831782 M36.4181152,26.4408011 C36.9577233,28.5992339 36.9577233,30.2180584 37.4973315,31.836883 C38.0369397,33.4557075 39.1161561,35.0745321 39.6557643,36.6933567 C39.9255684,37.772573 39.3859602,38.8517894 39.1161561,40.470614 C35.3388988,36.1537485 34.2596824,30.4878625 36.4181152,26.4408011" id="path-1"></path>
        <filter x="-1.3%" y="-1.2%" width="102.7%" height="102.3%" filterUnits="objectBoundingBox" id="filter-2">
            <feGaussianBlur stdDeviation="1.5" in="SourceAlpha" result="shadowBlurInner1"></feGaussianBlur>
            <feOffset dx="0" dy="1" in="shadowBlurInner1" result="shadowOffsetInner1"></feOffset>
            <feComposite in="shadowOffsetInner1" in2="SourceAlpha" operator="arithmetic" k2="-1" k3="1" result="shadowInnerInner1"></feComposite>
            <feColorMatrix values="0 0 0 0 0   0 0 0 0 0   0 0 0 0 0  0 0 0 0.091482736 0" type="matrix" in="shadowInnerInner1"></feColorMatrix>
        </filter>
    </defs>
    <g id="页面-2" stroke="none" stroke-width="1" fill="none" fill-rule="evenodd">
        <g id="不良事件分析报告" transform="translate(-756.000000, -317.000000)" fill-rule="nonzero">
            <g id="为空" transform="translate(756.000000, 317.000000)">
                <g id="形状">
                    <use fill="#C9CBCC" xlink:href="#path-1"></use>
                    <use fill="black" fill-opacity="1" filter="url(#filter-2)" xlink:href="#path-1"></use>
                </g>
            </g>
        </g>
    </g>
</svg>