<?xml version="1.0" encoding="UTF-8"?>
<svg width="20px" height="20px" viewBox="0 0 20 20" version="1.1" xmlns="http://www.w3.org/2000/svg" xmlns:xlink="http://www.w3.org/1999/xlink">
    <!-- Generator: Sketch 56.3 (81716) - https://sketch.com -->
    <title>护士档案</title>
    <desc>Created with Sketch.</desc>
    <g id="继续教育" stroke="none" stroke-width="1" fill="none" fill-rule="evenodd">
        <g id="档案管理icon" transform="translate(-4.000000, -5.000000)" fill="#000000" fill-rule="nonzero">
            <g id="档案" transform="translate(7.000000, 8.000000)">
                <path d="M13.2478709,3.92260948 L13.2478709,1.45725309 C13.2478709,1.0571798 12.9161225,0.731958162 12.5082626,0.731958162 L5.77403602,0.731958162 L5.64493235,0.437512414 C5.52777792,0.171342182 5.26101198,-6.10623374e-16 4.96602726,-6.10623374e-16 L0.739608283,-6.10623374e-16 C0.331748433,-6.10623374e-16 1.52655844e-15,0.32522164 1.52655844e-15,0.724470337 L1.52655844e-15,12.1171627 C1.52655844e-15,12.517236 0.331748433,12.8424577 0.739608283,12.8424577 L13.2444529,12.8424577 C13.6514514,12.8424577 13.9831999,12.517236 13.9831999,12.1171627 L13.9831999,4.64707981 C13.9831999,4.24865571 13.6531467,3.92427196 13.2478709,3.92260948 Z M12.2594479,3.92260948 L6.54184941,3.92260948 L6.05682541,1.69347202 L12.2594479,1.69347202 L12.2594479,3.92260948 Z M12.9947768,11.8809438 L0.988423025,11.8809438 L0.988423025,0.961527161 L4.80015988,0.961527161 L4.97458587,1.35973847 L5.65861791,4.50318855 C5.66225464,4.52039858 5.67250855,4.53401765 5.67807301,4.55033658 C5.68619412,4.57455564 5.69475272,4.59712551 5.70649687,4.61948259 C5.72338166,4.65192096 5.74412192,4.68024968 5.76763757,4.70754101 C5.78217079,4.72448504 5.79521377,4.74133597 5.81198918,4.75615202 C5.84191695,4.78261875 5.87557715,4.80262175 5.91106938,4.82124157 C5.92848737,4.83039187 5.94355379,4.84177656 5.96194248,4.84885209 C6.01838005,4.87042447 6.07822192,4.88414994 6.14085285,4.88414994 C6.1410716,4.88414994 6.14127668,4.88409674 6.14138605,4.88409674 C6.14149543,4.88409674 6.1416048,4.88414994 6.14170051,4.88414994 L12.9947768,4.88414994 L12.9947768,11.8809438 Z" id="形状"></path>
            </g>
        </g>
    </g>
</svg>