<?xml version="1.0" encoding="UTF-8"?>
<svg width="20px" height="20px" viewBox="0 0 20 20" version="1.1" xmlns="http://www.w3.org/2000/svg" xmlns:xlink="http://www.w3.org/1999/xlink">
    <!-- Generator: Sketch 54.1 (76490) - https://sketchapp.com -->
    <title>排班统计</title>
    <desc>Created with Sketch.</desc>
    <g id="统计查询/敏感指标" stroke="none" stroke-width="1" fill="none" fill-rule="evenodd">
        <g id="系统设置与统计查询" transform="translate(-15.000000, -75.000000)" fill-rule="nonzero">
            <g id="icon-rgb_peizhizhinengguanli" transform="translate(15.000000, 75.000000)">
                <g id="排班" transform="translate(3.000000, 2.000000)">
                    <path d="M14.4643088,1.07143045 L10.3607347,1.07143045 L10.3607347,0.535715955 L10.3607347,0.535715955 C10.3607347,0.2398494 10.1208868,1.46484545e-06 9.82502022,1.46484545e-06 C9.52915367,1.46484545e-06 9.28930573,0.2398494 9.28930573,0.535715955 L9.28930573,1.07143045 L5.71073223,1.07143045 L5.71073223,0.535715955 L5.71073223,0.535715968 C5.71073223,0.239849412 5.4708843,1.47706908e-06 5.17501774,1.47706908e-06 C4.87915119,1.47706908e-06 4.63930325,0.239849412 4.63930325,0.535715968 L4.63930325,1.07143046 L0.535729139,1.07143046 L0.535729116,1.07143046 C0.23986256,1.07143047 1.46250377e-05,1.31127839 1.46250377e-05,1.60714495 C1.46250377e-05,1.60714495 1.46250377e-05,1.60714495 1.46250377e-05,1.60714495 L1.46250377e-05,14.4642986 L1.46250377e-05,14.4642985 C1.4580363e-05,14.7601651 0.23986256,15.000013 0.535729116,15.000013 C0.535729116,15.000013 0.535729116,15.000013 0.535729116,15.000013 L14.4643147,15.000013 L14.4643146,15.000013 C14.7601812,15.000013 15.0000291,14.7601651 15.0000291,14.4642985 L15.0000291,1.60714487 L15.0000291,1.60714487 C15.0000291,1.31127831 14.7601812,1.07143038 14.4643146,1.07143038 L14.4643088,1.07143045 Z M4.63929739,2.14286089 L4.63929739,2.67857538 L4.63929739,2.67857545 C4.63929744,2.97444201 4.87914533,3.21428994 5.17501188,3.21428994 C5.47087844,3.2142899 5.71072637,2.97444201 5.71072637,2.67857545 L5.71072637,2.14286096 L9.28929987,2.14286096 L9.28929987,2.67857545 L9.28929987,2.67857553 C9.28929992,2.97444209 9.52914781,3.21429002 9.82501436,3.21429002 C10.1208809,3.21428998 10.3607289,2.97444209 10.3607289,2.67857553 L10.3607289,2.14286104 L13.9285943,2.14286089 L13.9285943,4.28572486 L1.0714407,4.28572486 L1.0714407,2.14286089 L4.63929739,2.14286089 Z M1.07143191,13.9285826 L1.07143191,5.35714198 L13.9285855,5.35714198 L13.9285855,13.9285826 L1.07143191,13.9285826 Z" id="形状" fill="#FFFFFF"></path>
                    <path d="M4.66072808,6.62143544 L3.46072668,7.81072296 L3.05358314,7.40357942 L3.05358318,7.40357945 C2.84351701,7.19351329 2.50293312,7.19351329 2.29286842,7.40357938 C2.08280226,7.61364554 2.08280226,7.95422943 2.29286835,8.16429413 C2.29286835,8.16429413 2.29286835,8.16429413 2.29286835,8.16429413 L3.07501233,8.9464381 L3.07501231,8.94643809 C3.28336314,9.15650425 3.62255543,9.15789439 3.83262159,8.94954436 C3.83366125,8.9485132 3.83469667,8.94747777 3.83572784,8.94643812 L5.41072967,7.3821443 L5.4107297,7.38214427 C5.62079587,7.17207811 5.62079587,6.83149422 5.41072963,6.62142952 C5.20066347,6.41136336 4.86007957,6.41136336 4.65001488,6.62142959 L4.66072808,6.62143544 Z" id="路径" fill="#F6C235"></path>
                    <path d="M9.69644195,6.62143544 L9.69644194,6.62143543 C9.48809111,6.41136927 9.14889882,6.40997913 8.93883266,6.61832921 C8.93779301,6.61936037 8.93675759,6.62039579 8.93572643,6.62143545 L7.74643891,7.81072296 L7.33929537,7.40357942 L7.33929541,7.40357946 C7.12922924,7.1935133 6.78864535,7.1935133 6.57858065,7.40357939 C6.36851449,7.61364555 6.36851449,7.95422944 6.57858058,8.16429414 C6.57858058,8.16429414 6.57858058,8.16429414 6.57858058,8.16429414 L7.36072456,8.94643811 L7.36072453,8.94643809 C7.56907536,9.15650425 7.90826765,9.15789439 8.11833381,8.94954437 C8.11937346,8.94851321 8.12040888,8.94747779 8.12144004,8.94643813 L9.69644188,7.38214432 L9.6964419,7.3821443 C9.90650806,7.17379347 9.9078982,6.83460118 9.6995481,6.62453502 C9.69851694,6.62349536 9.69748151,6.62245993 9.69644185,6.62142877 L9.69644195,6.62143544 Z" id="路径" fill="#F6C235"></path>
                    <path d="M11.9464446,10.3500091 L10.7143001,11.5500105 L10.3071565,11.142867 L10.3071566,11.142867 C10.0970904,10.9328008 9.75650651,10.9328008 9.54644181,11.1428669 C9.33637565,11.3529331 9.33637565,11.693517 9.54644174,11.9035817 C9.54644174,11.9035817 9.54644174,11.9035817 9.54644174,11.9035817 L10.3285857,12.6857257 L10.3285857,12.6857256 C10.5369365,12.8957918 10.8761288,12.8971819 11.086195,12.6888319 C11.0872346,12.6878008 11.08827,12.6867653 11.0893012,12.6857257 L12.664303,11.1107239 L12.6643031,11.1107238 C12.8743692,10.9006577 12.8743692,10.5600738 12.664303,10.3500091 C12.4542368,10.1399429 12.1136529,10.1399429 11.9035882,10.3500091 L11.9464446,10.3500091 Z" id="路径" fill="#F6C235"></path>
                </g>
            </g>
        </g>
    </g>
</svg>