<?xml version="1.0" encoding="UTF-8"?>
<svg width="55px" height="55px" viewBox="0 0 55 55" version="1.1" xmlns="http://www.w3.org/2000/svg" xmlns:xlink="http://www.w3.org/1999/xlink">
    <!-- Generator: Sketch 55.2 (78181) - https://sketchapp.com -->
    <title>敏感指标</title>
    <desc>Created with Sketch.</desc>
    <g id="首页确定" stroke="none" stroke-width="1" fill="none" fill-rule="evenodd">
        <g id="菜单导航修改备份-2" transform="translate(-783.000000, -83.000000)" fill="#D15948" fill-rule="nonzero">
            <g id="指标" transform="translate(783.000000, 83.000000)">
                <path d="M40.1091333,27.7547922 L40.1091333,46.7379022 L48.2869808,46.7379022 L48.2869808,22.33252 L47.3257925,21.4295327 L40.1091333,27.7562538 L40.1091333,27.7547922 Z M27.6013158,34.9874355 L27.6013158,46.7379022 L35.7791506,46.7379022 L35.7791506,30.9196262 L29.0446476,36.3433719 L27.6013158,34.9874355 Z M15.0934728,30.9196262 L15.0934728,46.7364686 L23.2713203,46.7364686 L23.2713203,31.8226413 L18.9413248,28.2077812 L15.0934728,30.9196541 L15.0934728,30.9196262 Z M3.06624308,46.7364686 L11.2440778,46.7364686 L11.2440778,34.5345142 L3.06624308,41.3141963 L3.06624308,46.7379421 L3.06624308,46.7364686 Z M38.1837004,6.06271647 L43.9570277,11.9379897 L29.0431216,24.1399441 L18.9413672,16.005799 L3.06628547,28.6607145 L3.06628547,34.0829867 L18.9413672,21.4295049 L29.04469,29.56365 L47.3243215,14.6498227 L52.1349048,19.6206073 L52.1349048,6.06271647 L38.1837004,6.06271647 Z" id="形状"></path>
            </g>
        </g>
    </g>
</svg>