<?xml version="1.0" encoding="UTF-8"?>
<svg width="20px" height="20px" viewBox="0 0 20 20" version="1.1" xmlns="http://www.w3.org/2000/svg" xmlns:xlink="http://www.w3.org/1999/xlink">
    <!-- Generator: Sketch 56.3 (81716) - https://sketch.com -->
    <title>退休护士查询</title>
    <desc>Created with Sketch.</desc>
    <g id="继续教育" stroke="none" stroke-width="1" fill="none" fill-rule="evenodd">
        <g id="档案管理icon" transform="translate(-4.000000, -31.000000)" fill="#000000" fill-rule="nonzero">
            <g id="查询" transform="translate(7.000000, 34.000000)">
                <path d="M2.9140405,3.44244541 C2.61497199,3.44244541 2.37009338,3.68724335 2.37009338,3.98639253 C2.37009338,4.28559639 2.61497336,4.53033965 2.9140405,4.53033965 L9.07877814,4.53033965 C9.37802302,4.53033965 9.62272526,4.28558272 9.62272526,3.98639253 C9.62272526,3.68724335 9.37802302,3.44244541 9.07877814,3.44244541 L2.9140405,3.44244541 L2.9140405,3.44244541 Z M5.99640932,6.38665978 L2.9140405,6.38665978 C2.61497199,6.38665978 2.37009338,6.63145772 2.37009338,6.93060689 C2.37009338,7.22981076 2.61497336,7.47455401 2.9140405,7.47455401 L5.99640932,7.47455401 C6.2956542,7.47455401 6.54035644,7.22979708 6.54035644,6.93060689 C6.54035644,6.63145772 6.2956542,6.38665978 5.99640932,6.38665978 Z M4.45521807,10.4187328 C4.75446295,10.4187328 4.99916519,10.1739759 4.99916519,9.87478571 C4.99916519,9.57563653 4.75446295,9.33083859 4.45521807,9.33083859 L2.91402683,9.33083859 C2.61495832,9.33083859 2.37007971,9.57563653 2.37007971,9.87478571 C2.37007971,10.1739759 2.61495968,10.4187328 2.91402683,10.4187328 L4.45521807,10.4187328 Z M13.8150219,13.0720777 L12.499246,11.7563428 C13.3780314,10.5109073 13.2678934,8.78122994 12.1534305,7.66677943 C10.9072432,6.42059204 8.88672362,6.42059204 7.64054444,7.66677943 C6.39426271,8.9130215 6.39426271,10.9335684 7.64054444,12.1798023 C8.75499359,13.2942514 10.4846669,13.4043894 11.7300668,12.5256177 L13.0457607,13.8413526 C13.2572717,14.0529046 13.6034289,14.0529046 13.8150219,13.8413526 C14.026615,13.6298006 14.0266286,13.2836297 13.8150219,13.0720777 L13.8150219,13.0720777 Z M11.3842691,11.4105328 C10.5628523,12.2318949 9.23113769,12.2318949 8.40973049,11.4105328 C7.58831371,10.589116 7.58831371,9.25744241 8.40973049,8.43603521 C9.23114727,7.61467312 10.5628619,7.61467312 11.3842691,8.43603521 C12.2055902,9.25745198 12.2055902,10.5891256 11.3842691,11.4105328 Z M5.85891111,12.6921359 L1.83356463,12.6921359 C1.43463936,12.6921359 1.10830637,12.3657619 1.10830637,11.9668776 L1.10830637,1.81317438 C1.10830637,1.41424911 1.43463936,1.08791611 1.83356463,1.08791611 L10.1592267,1.08791611 C10.5581519,1.08791611 10.8844849,1.41424911 10.8844849,1.81317438 L10.8844849,5.28956709 C10.8844849,5.59000006 11.1280401,5.83351421 11.428432,5.83351421 C11.7289197,5.83351421 11.9723792,5.59000006 11.9723792,5.28956709 L11.9723792,1.45055481 C11.9723792,0.652743924 11.3197132,2.18750255e-05 10.5218462,2.18750255e-05 L1.4709314,2.18750255e-05 C0.673067189,2.18750255e-05 0.0203984612,0.652728885 0.0203984612,1.45055481 L0.0203984612,12.3295108 C0.0203984612,13.1272807 0.673064455,13.7800438 1.4709314,13.7800438 L5.85891111,13.7800438 C6.15922103,13.7800438 6.4026805,13.5364886 6.4026805,13.2360967 C6.40266684,12.9357457 6.15920736,12.6922316 5.85889744,12.6921359 L5.85891111,12.6921359 Z" id="形状"></path>
            </g>
        </g>
    </g>
</svg>