<?xml version="1.0" encoding="UTF-8"?>
<svg width="20px" height="20px" viewBox="0 0 20 20" version="1.1" xmlns="http://www.w3.org/2000/svg" xmlns:xlink="http://www.w3.org/1999/xlink">
    <!-- Generator: Sketch 56.3 (81716) - https://sketch.com -->
    <title>查询统计</title>
    <desc>Created with Sketch.</desc>
    <g id="继续教育" stroke="none" stroke-width="1" fill="none" fill-rule="evenodd">
        <g id="档案管理icon" transform="translate(-4.000000, -57.000000)" fill="#000000" fill-rule="nonzero">
            <g id="统计" transform="translate(7.000000, 60.000000)">
                <path d="M12.5130985,11.0273573 L0.939454218,11.0273573 L0.939454218,4.60921075 C0.939454218,4.35317686 0.734577027,4.14561177 0.482422436,4.14561177 C0.230267846,4.14561177 0.0253906545,4.35317686 0.0253906545,4.60921075 L0.0253906545,11.4918844 C0.0253906545,11.7479183 0.231943629,11.9554834 0.48409822,11.9554834 L12.5131112,11.9554834 C12.7652785,11.9554834 12.9696987,11.7474542 12.9696987,11.4914203 C12.9696987,11.2353864 12.7652785,11.0273573 12.5130985,11.0273573 Z M4.7480524,3.42010077 C4.7480524,2.98680769 4.40211743,2.63555064 3.97538939,2.63555064 L2.5373135,2.63555064 C2.11058546,2.63555064 1.76465049,2.98680769 1.76465049,3.42010077 L1.76465049,9.4822465 C1.76465049,9.91555247 2.11058546,10.2668095 2.5373135,10.2668095 L3.9753767,10.2668095 C4.40211743,10.2668095 4.7480524,9.91555247 4.7480524,9.48225939 L4.7480524,3.42010077 L4.7480524,3.42010077 Z M2.53906545,3.40898904 L3.97363744,3.40898904 L3.97363744,9.48048048 L2.53906545,9.48048048 L2.53906545,3.40898904 Z M8.53125993,0.829082132 C8.53125993,0.395789049 8.18533765,0.044532 7.75860961,0.044532 L6.32050833,0.044532 C5.89379299,0.044532 5.54785802,0.395789049 5.54785802,0.829082132 L5.54785802,9.4822465 C5.54785802,9.91555247 5.89379299,10.2668095 6.32050833,10.2668095 L7.75859692,10.2668095 C8.18533765,10.2668095 8.53125993,9.91555247 8.53125993,9.48225939 L8.53125993,0.829082132 Z M6.32227298,0.83086104 L7.76954029,0.83086104 L7.76954029,9.48048048 L6.32227298,9.48048048 L6.32227298,0.83086104 Z M12.3271628,3.27830373 C12.3271628,2.84501065 11.9812405,2.4937536 11.5545125,2.4937536 L10.1164112,2.4937536 C9.68968315,2.4937536 9.34376087,2.84501065 9.34376087,3.27830373 L9.34376087,9.4822465 C9.34376087,9.91555247 9.68968315,10.2668095 10.1164112,10.2668095 L11.5544998,10.2668095 C11.9812405,10.2668095 12.3271628,9.91555247 12.3271628,9.48225939 L12.3271628,3.27830373 Z M10.1181758,3.267192 L11.5654431,3.267192 L11.5654431,9.48048048 L10.1181758,9.48048048 L10.1181758,3.267192 Z" id="形状"></path>
            </g>
        </g>
    </g>
</svg>