<svg xmlns="http://www.w3.org/2000/svg" width="14" height="14" viewBox="0 0 14 14">
  <g id="毒麻使用登记本" transform="translate(-323.916 -193)">
    <path id="路径_240" data-name="路径 240" d="M337.241,200.63a.466.466,0,0,0,.659-.659l-1.955-1.955a.466.466,0,1,0-.659.66l.648.647-.807.807-1.87-1.869a.475.475,0,0,0-.658,0,.464.464,0,0,0,0,.66l.647.647-3.58,3.581a.466.466,0,0,0,0,.659l.4.4-.4.4a.466.466,0,0,0,0,.659l.159.16-.892.892a.466.466,0,0,0,.659.659l.892-.892.16.158a.475.475,0,0,0,.658,0l.4-.4.4.4a.47.47,0,0,0,.66,0l3.58-3.581.648.648a.475.475,0,0,0,.659,0,.465.465,0,0,0,0-.659l-1.869-1.869.807-.808Zm-5.779,2.04.647.648a.466.466,0,0,0,.66-.659l-.648-.648.073-.073.649.647a.475.475,0,0,0,.659,0,.466.466,0,0,0,0-.659l-.648-.648.074-.074.648.648a.476.476,0,0,0,.658,0,.464.464,0,0,0,0-.66l-.647-.648.318-.318,1.784,1.784-3.25,3.251-1.784-1.784Zm-.415,2.518-.074.074-.319-.318.075-.074Z" transform="translate(-0.12 -0.12)"/>
    <path id="路径_241" data-name="路径 241" d="M332.516,195.013a.379.379,0,0,0,.413-.335v-1.342c0-.206-.158-.334-.413-.334a.38.38,0,0,0-.414.334v1.341A.38.38,0,0,0,332.516,195.013Z" transform="translate(-0.074)"/>
    <path id="路径_242" data-name="路径 242" d="M327.555,195.013a.378.378,0,0,0,.412-.335v-1.342h0a.375.375,0,0,0-.413-.333.379.379,0,0,0-.413.334v1.341A.38.38,0,0,0,327.555,195.013Z" transform="translate(-0.029)"/>
    <path id="路径_243" data-name="路径 243" d="M328.794,194.552h2.481a.409.409,0,0,0,.371-.418l0-.023a.386.386,0,0,0-.373-.4h-2.481a.416.416,0,0,0-.371.42v.023A.384.384,0,0,0,328.794,194.552Z" transform="translate(-0.05)"/>
    <path id="路径_244" data-name="路径 244" d="M333.754,194.513H334a1.479,1.479,0,0,1,1.485,1.463v1.311a.738.738,0,0,1,.572.21l.3.3v-1.778A2.381,2.381,0,0,0,334,193.676h-.248a.419.419,0,1,0,0,.837Z" transform="translate(-0.12)"/>
    <path id="路径_245" data-name="路径 245" d="M329.152,205.255a.728.728,0,0,1-.1-.842h-2.822a1.508,1.508,0,0,1-1.485-1.452V196a1.468,1.468,0,0,1,1.447-1.452.415.415,0,0,0,.413-.415.329.329,0,0,0,0-.045.393.393,0,0,0-.413-.371h-.072a2.246,2.246,0,0,0-2.2,2.282V203a2.321,2.321,0,0,0,2.316,2.322h2.848Z"/>
    <path id="路径_246" data-name="路径 246" d="M327.028,197.278h6.222a.389.389,0,1,0,0-.778h-6.222a.389.389,0,1,0,0,.778Z" transform="translate(-0.046 -0.032)"/>
    <path id="路径_247" data-name="路径 247" d="M327.028,199.611h3.889a.389.389,0,0,0,0-.778h-3.889a.389.389,0,1,0,0,.778Z" transform="translate(-0.035 -0.053)"/>
    <path id="路径_248" data-name="路径 248" d="M327.028,201.944h2.333a.388.388,0,1,0,0-.777h-2.333a.388.388,0,1,0,0,.777Z" transform="translate(-0.03 -0.074)"/>
  </g>
</svg>
