<?xml version="1.0" encoding="UTF-8"?>
<svg width="14px" height="14px" viewBox="0 0 14 14" version="1.1" xmlns="http://www.w3.org/2000/svg" xmlns:xlink="http://www.w3.org/1999/xlink">
    <!-- Generator: Sketch 60.1 (88133) - https://sketch.com -->
    <title>急救车使用登记本</title>
    <desc>Created with Sketch.</desc>
    <g id="页面-3" stroke="none" stroke-width="1" fill="none" fill-rule="evenodd">
        <g id="icon" transform="translate(-9.000000, -7.000000)" fill="#333333" fill-rule="nonzero">
            <g id="急救车使用登记本" transform="translate(9.000000, 7.000000)">
                <path d="M10.402,5.011 C10.8990563,5.011 11.302,5.41394373 11.302,5.911 L11.302,5.911 L11.302,7.258 L13.102,7.258 C13.5982755,7.25855111 14.0004489,7.66072447 14.001,8.157 L14.001,8.157 L14.001,11.752 C14.001,12.2490563 13.5980563,12.652 13.101,12.652 C13.101,13.3975844 12.4965844,14.002 11.751,14.002 C11.0054156,14.002 10.401,13.3975844 10.401,12.652 L10.401,12.652 L9.27,12.652 C9.06782594,13.4448746 8.35374473,13.9997221 7.5355,13.9997221 C6.71725527,13.9997221 6.00317406,13.4448746 5.801,12.652 C5.36303819,12.652 5.008,12.2969618 5.008,11.859 L5.008,11.859 L5.008,5.911 C5.008,5.41394373 5.41094373,5.011 5.908,5.011 L5.908,5.011 Z M11.7536674,12.2020012 C11.5059522,12.2021853 11.3051853,12.4029522 11.3050012,12.6506674 C11.3048171,12.8983826 11.5052854,13.0994477 11.753,13.1 L11.753,13.1 C11.8725209,13.1010003 11.987132,13.0534525 12.0715521,12.9688447 C12.1559723,12.8842369 12.2032656,12.7695206 12.203,12.65 C12.2024477,12.4022854 12.0013826,12.2018171 11.7536674,12.2020012 Z M7.68617378,11.3384704 C7.25460621,11.2793707 6.84573553,11.5481799 6.7289101,11.9678168 C6.61208467,12.3874538 6.8232302,12.8288733 7.22325209,13.0012851 C7.62327398,13.1736969 8.08915903,13.0240816 8.314,12.651 C8.39436941,12.5149057 8.43748173,12.3600462 8.4390002,12.202 C8.4392918,11.7664047 8.11774134,11.3975701 7.68617378,11.3384704 Z M2.273,0.714 C2.48988058,0.705988916 2.67358362,0.872386599 2.687,1.089 C2.68800559,1.10398315 2.68800559,1.11901685 2.687,1.134 C2.68756001,1.36369156 2.50268173,1.55080267 2.273,1.553 C1.47266825,1.56925938 0.831173592,2.22051399 0.827,3.021 L0.827,3.021 L0.827,10.064 C0.851869032,10.8709707 1.50480722,11.5168739 2.312,11.533 L2.312,11.533 L4.29,11.533 L4.291,11.78 C4.29338548,12.022389 4.36979882,12.2582584 4.51,12.456 L4.51,12.456 L2.318,12.456 C1.03052384,12.446094 -0.00576098772,11.3954909 0.002,10.108 L0.002,10.108 L0.002,3.022 C-0.0248518286,1.77830046 0.958441444,0.746736431 2.202,0.714 L2.202,0.714 Z M9.96,5.909 L6.36,5.909 C6.11202415,5.909 5.91097791,6.11002415 5.91097791,6.358 L5.91097791,6.358 L5.91097791,10.753 C5.90974022,10.8425961 5.96246661,10.9241655 6.0446788,10.9598053 C6.12689099,10.9954452 6.22246878,10.9781672 6.287,10.916 C6.7435603,10.4668703 7.40546858,10.2962321 8.02226319,10.4686537 C8.6390578,10.6410754 9.11652714,11.1302206 9.274,11.751 L9.274,11.751 L10.405,11.751 L10.41,6.358 C10.4089012,6.11009063 10.2079112,5.90954726 9.96,5.909 L9.96,5.909 Z M13.102,10.853 L11.302,10.853 L11.302,11.385 C11.4456814,11.3313618 11.5976384,11.3032718 11.751,11.302 C12.1331864,11.3018606 12.4971619,11.4652856 12.751,11.751 L12.751,11.751 L13.102,11.751 L13.102,10.853 Z M12.65,8.151 L11.302,8.151 L11.302,9.951 L13.102,9.951 L13.1,8.6 C13.0989012,8.35209063 12.8979112,8.15154726 12.65,8.151 L12.65,8.151 Z M8.154,6.807 C8.40252814,6.807 8.604,7.00847186 8.604,7.257 L8.604,7.257 L8.604,7.707 L9.054,7.707 C9.30252814,7.707 9.504,7.90847186 9.504,8.157 C9.504,8.40552814 9.30252814,8.607 9.054,8.607 L9.054,8.607 L8.604,8.607 L8.604,9.057 C8.604,9.30552814 8.40252814,9.507 8.154,9.507 C7.90547186,9.507 7.704,9.30552814 7.704,9.057 L7.704,9.057 L7.704,8.607 L7.255,8.607 C7.00647186,8.607 6.805,8.40552814 6.805,8.157 C6.805,7.90847186 7.00647186,7.707 7.255,7.707 L7.255,7.707 L7.704,7.707 L7.704,7.257 C7.704,7.00847186 7.90547186,6.807 8.154,6.807 Z M10.093,0.676 C11.3824128,0.68879815 12.4273176,1.72572316 12.45,3.015 L12.45,3.015 L12.45,6.615 L11.594,6.615 L11.594,5.607 C11.5917489,5.55638763 11.5864056,5.50596023 11.578,5.456 L11.578,5.456 L11.578,2.976 C11.5692121,2.1630824 10.9059582,1.50965447 10.093,1.513 L10.093,1.513 L9.844,1.513 C9.61286883,1.513 9.4255,1.32563117 9.4255,1.0945 C9.4255,0.863368832 9.61286883,0.676 9.844,0.676 L9.844,0.676 Z M8.605,0.002 C8.861,0.002 9.019,0.13 9.019,0.336 L9.019,0.336 L9.019,1.678 C8.99541822,1.88386552 8.81125531,2.03288624 8.605,2.013 L8.52892009,2.01271116 C8.35511538,1.99452407 8.21175282,1.85735456 8.192,1.677 L8.192,1.677 L8.192,0.336 C8.21608317,0.130963416 8.39946156,-0.0173377501 8.605,0.002 Z M3.71389166,0.00236933347 C3.78713424,0.00899268554 3.85740665,0.0370776442 3.91550263,0.0839201658 C3.99296393,0.146376861 4.04242672,0.237059115 4.053,0.336 L4.053,0.336 L4.053,1.678 C4.03042829,1.88356834 3.84685024,2.03283689 3.641,2.013 L3.56496033,2.0127587 C3.39121305,1.99474286 3.24763406,1.85813233 3.227,1.678 L3.227,1.678 L3.227,0.337 C3.25057862,0.131685683 3.43429551,-0.0168892278 3.64,0.003 Z M7.361,0.71 C7.46357287,0.71338684 7.56057426,0.757482171 7.63056631,0.832540665 C7.70055836,0.90759916 7.73777819,1.0074408 7.734,1.11 L7.734,1.11 L7.734,1.133 C7.73966333,1.3482765 7.57742643,1.53106632 7.363,1.551 L7.363,1.551 L7.363,1.553 L4.882,1.553 C4.77933614,1.54987846 4.68217575,1.5058638 4.61212741,1.43074494 C4.54207908,1.35562608 4.50495082,1.25563146 4.509,1.153 L4.509,1.153 L4.509,1.13 C4.50567673,0.915209542 4.66644156,0.733211618 4.88,0.71 L4.88,0.71 Z" id="形状结合"></path>
            </g>
        </g>
    </g>
</svg>