<?xml version="1.0" encoding="UTF-8"?>
<svg width="14px" height="14px" viewBox="0 0 14 14" version="1.1" xmlns="http://www.w3.org/2000/svg" xmlns:xlink="http://www.w3.org/1999/xlink">
    <!-- Generator: Sketch 60.1 (88133) - https://sketch.com -->
    <title>静脉治疗登记</title>
    <desc>Created with Sketch.</desc>
    <g id="页面-3" stroke="none" stroke-width="1" fill="none" fill-rule="evenodd">
        <g id="icon" transform="translate(-34.000000, -27.000000)" fill="#000000" fill-rule="nonzero">
            <g id="静脉治疗登记" transform="translate(34.000000, 27.000000)">
                <path d="M13.5613002,3.77475983 C13.8075551,3.78736641 13.9996151,3.98613142 14,4.22864162 L14,4.22864162 L14,13.5501216 C14,13.7985826 13.7986659,14 13.5503077,14 C13.3019496,14 13.1006155,13.7985826 13.1006155,13.5501216 L13.1006155,13.5501216 L13.1006155,4.67852 L10.7812028,4.68651784 L10.7911959,4.68651784 C10.9910325,4.68678281 11.182579,4.76645462 11.3236973,4.90800636 C11.4648157,5.0495581 11.5439462,5.24139454 11.543681,5.44131378 L11.543681,5.44131378 L11.543681,5.6502573 L11.7025722,5.6502573 C12.3349904,5.65191065 12.8467914,6.1652649 12.8467892,6.79794703 L12.8467892,6.79794703 L12.8467892,10.3329914 C12.8451512,10.9644417 12.3347542,11.4763889 11.7035715,11.4796814 L11.7035715,11.4796814 L10.8721405,11.4796814 C10.8538258,11.5031565 10.8330553,11.5246059 10.8101829,11.5436641 C10.7346911,11.6052987 10.6813608,11.6898904 10.6582869,11.7845989 C10.6582869,11.8145908 10.6942623,11.8755743 10.7941939,11.9505541 C11.0666219,12.1575468 11.2395871,12.4695208 11.2708677,12.8103216 C11.2856327,13.1926505 11.1287471,13.5615576 10.8431604,13.8160497 C10.7587282,13.8998133 10.6442802,13.9462595 10.5253778,13.9450149 C10.3439502,13.9461755 10.1798433,13.8374384 10.1101243,13.669868 C10.0404053,13.5022977 10.0789255,13.309186 10.2075953,13.1812214 C10.3009164,13.104448 10.3607577,12.9943947 10.3744811,12.8743043 C10.3619668,12.7927188 10.3186983,12.7190248 10.2535638,12.66836 C9.95994729,12.4750195 9.77646331,12.1528607 9.75990168,11.8015943 C9.75809697,11.6920545 9.77430204,11.5829628 9.80786885,11.4786816 L9.80786885,11.4786816 L9.32919643,11.4786816 C9.0128252,11.4767689 8.71155043,11.3430953 8.49776541,11.1097814 C8.41786704,11.1199391 8.33746279,11.1256131 8.25693023,11.1267768 C7.01745026,11.1223807 6.01420742,10.1173826 6.01146689,8.87738487 C6.01146689,7.84166487 7.44248759,5.63126243 7.88118736,4.97843892 C7.9659776,4.85650715 8.10546332,4.78430371 8.25393228,4.78549108 L8.25393228,4.78549108 L8.34121232,4.79346672 C8.45515951,4.81532077 8.55745115,4.88103904 8.62467856,4.97843892 C8.676643,5.0584173 8.85452127,5.32134622 9.07636945,5.67824973 C9.14538481,5.66044256 9.21603557,5.64972332 9.28722515,5.64625838 L9.28722515,5.64625838 L9.28722515,5.43631514 C9.28759881,5.08220589 9.53336784,4.77569809 9.8788203,4.6985146 L9.8788203,4.6985146 L9.8788203,4.22364297 C9.87828592,4.10442987 9.92538718,3.98994496 10.0096495,3.90564772 C10.0939119,3.82135047 10.2083495,3.77422973 10.3275132,3.77475983 L10.3275132,3.77475983 L13.5613002,3.77475983 Z M2.27002732,0.712592163 C2.37438294,0.707434803 2.47649122,0.744090606 2.55375985,0.814449164 C2.63102847,0.884807722 2.67708735,0.983068626 2.68174557,1.08749081 C2.68275348,1.10246981 2.68275348,1.11749965 2.68174557,1.13247865 C2.68286026,1.36155959 2.49899977,1.54862131 2.27002732,1.55136541 C1.47135192,1.56816499 0.831631368,2.21879456 0.828014153,3.01796892 L0.828014153,3.01796892 L0.828014153,10.053067 C0.852819442,10.8579593 1.50324278,11.5025008 2.30800133,11.5196705 L2.30800133,11.5196705 L7.19865445,11.5196705 C7.60852573,11.7507527 8.07342439,11.8661616 8.54373396,11.8535803 L8.54373396,11.8535803 L8.54873054,12.4434208 L2.30800133,12.4434208 C1.0238419,12.431326 -0.00829137768,11.3817723 0.00058040093,10.0970551 L0.00058040093,10.0970551 L0.00058040093,3.01796892 C-0.0273492007,1.77451959 0.956202555,0.743151829 2.19907588,0.712592163 L2.19907588,0.712592163 Z M11.948406,9.88311297 L10.2595597,9.88311297 C10.1266717,10.1499548 9.94224321,10.3878063 9.71693109,10.5829238 L9.71693109,10.5829238 L11.7025722,10.585923 C11.7680361,10.5856584 11.8307135,10.5593881 11.8768161,10.5128916 C11.9229186,10.466395 11.9486696,10.4034809 11.948406,10.33799 L11.948406,10.33799 L11.948406,9.88311297 Z M8.25393228,6.05814703 C7.64129666,6.91193326 7.18611415,7.86838146 6.90985171,8.88238351 C6.90929778,9.62604555 7.51058097,10.2298138 8.25393228,10.2320186 C8.99659838,10.2281726 9.59692379,9.62536615 9.59801247,8.88238351 C9.32070679,7.86876908 8.86560921,6.91249935 8.25393228,6.05814703 Z M11.9424081,8.14958162 L10.3435023,8.14958162 C10.4321454,8.38461224 10.4824203,8.63237763 10.4924004,8.88338324 L10.4924004,8.88338324 L10.4924004,8.98335622 L11.9424081,8.98435595 L11.9424081,8.14958162 Z M4.7163532,8.16457757 C4.87424514,8.16457757 5.00215761,8.33853054 5.00215761,8.55347243 C5.00215761,8.76841432 4.87424514,8.9423673 4.7163532,8.9423673 L4.7163532,8.9423673 L3.00352536,8.9423673 C2.84563341,8.9423673 2.71772095,8.76841432 2.71772095,8.55347243 C2.71772095,8.33853054 2.84563341,8.16457757 3.00352536,8.16457757 L3.00352536,8.16457757 Z M11.7025722,6.54901432 L9.59101726,6.54901432 C9.71992904,6.77795243 9.84384423,7.01288892 9.96176354,7.24882514 L9.96176354,7.24882514 L11.948404,7.25182432 L11.948404,6.7969473 C11.948404,6.66079475 11.838664,6.55011233 11.7025722,6.54901432 L11.7025722,6.54901432 Z M5.67269873,5.83220811 C5.86356049,5.86292059 6.00390211,6.02770796 6.00390211,6.22110297 C6.00390211,6.41449798 5.86356049,6.57928536 5.67269873,6.60999784 L5.67269873,6.60999784 L3.04549663,6.60999784 C2.8568445,6.57672227 2.71930557,6.41274419 2.71930557,6.22110297 C2.71930557,6.02946175 2.8568445,5.86548368 3.04549663,5.83220811 L3.04549663,5.83220811 Z M8.64966147,3.49883892 C8.84914811,3.51910204 9.00092425,3.68713851 9.00092425,3.88773378 C9.00092425,4.08832906 8.84914811,4.25636553 8.64966147,4.27662865 L8.64966147,4.27662865 L3.06648227,4.27662865 C2.86699563,4.25636553 2.71521949,4.08832906 2.71521949,3.88773378 C2.71521949,3.68713851 2.86699563,3.51910204 3.06648227,3.49883892 L3.06648227,3.49883892 Z M10.0546999,0.675602163 C11.3429098,0.690111051 12.3847471,1.72927487 12.4030928,3.01796892 L12.4030928,3.01796892 L12.4030928,3.49983865 L11.5346871,3.49983865 L11.5346871,2.97498054 C11.5264574,2.16361636 10.8657684,1.51068721 10.0546999,1.51237595 L10.0546999,1.51237595 L9.80686954,1.51237595 C9.58383629,1.50146578 9.40860547,1.3173812 9.40860547,1.09398905 C9.40860547,0.870596914 9.58383629,0.686512327 9.80686954,0.675602163 L9.80686954,0.675602163 Z M8.57371344,0.00178432506 C8.82753974,0.00178432506 8.98543168,0.12974973 8.98543168,0.335694055 L8.98543168,0.335694055 L8.98543168,1.67733135 C8.96236588,1.88256607 8.77925474,2.0315166 8.57371344,2.01224081 C8.36745335,2.03206948 8.18355509,1.88239541 8.16099588,1.67633162 L8.16099588,1.67633162 L8.16099588,0.335694055 C8.18455838,0.130435229 8.36814962,-0.0180995273 8.57371344,0.00178432506 Z M3.62959691,0.00371495628 C3.82770282,0.00371495628 3.99896802,0.141978329 4.0408155,0.335694055 L4.0408155,0.335694055 L4.0408155,1.67733135 C4.01876632,1.88269558 3.83560492,2.03204951 3.63009657,2.01224081 C3.4240375,2.03204669 3.24043033,1.88224683 3.21837832,1.67633162 L3.21837832,1.67633162 L3.21837832,0.335694055 C3.2602258,0.141978329 3.431491,0.00371495628 3.62959691,0.00371495628 Z M7.33556076,0.710592703 C7.43797847,0.713974251 7.53481605,0.758090717 7.60460178,0.833160194 C7.67438751,0.908229672 7.7113546,1.00804874 7.70730636,1.1104846 L7.70730636,1.1104846 L7.70730636,1.13347838 C7.71296581,1.34869669 7.55083986,1.53143711 7.33656008,1.55136541 L7.33656008,1.55136541 L4.8652513,1.55136541 C4.76345462,1.5477203 4.6672834,1.50373452 4.59792826,1.4291 C4.52857311,1.35446548 4.49172543,1.25530685 4.49550433,1.15347297 L4.49550433,1.15347297 L4.49550433,1.13047919 C4.49165883,0.915916106 4.65200357,0.733827833 4.8652513,0.710592703 L4.8652513,0.710592703 Z" id="形状结合"></path>
            </g>
        </g>
    </g>
</svg>