<svg xmlns="http://www.w3.org/2000/svg" width="14" height="14" viewBox="0 0 14 14">
  <g id="实习_进修_新职工" data-name="实习、进修、新职工" transform="translate(-323.917 -277.018)">
    <path id="路径_268" data-name="路径 268" d="M328.489,288.536h-2.81a.86.86,0,0,1-.875-.842v-8.981a.86.86,0,0,1,.875-.842h9.336a.86.86,0,0,1,.875.842V281a.444.444,0,0,0,.887,0v-2.286a1.732,1.732,0,0,0-1.762-1.7h-9.336a1.731,1.731,0,0,0-1.761,1.7v8.981a1.731,1.731,0,0,0,1.761,1.7h2.81a.427.427,0,1,0,0-.853Z"/>
    <path id="路径_269" data-name="路径 269" d="M334.35,279.943a.457.457,0,0,0-.465-.448h-6.627a.448.448,0,1,0,0,.9h6.627A.457.457,0,0,0,334.35,279.943Z" transform="translate(-0.254 -0.113)"/>
    <path id="路径_270" data-name="路径 270" d="M328.941,284.388h-1.822c-.18,0-.326.2-.326.448s.146.448.326.448h1.822c.18,0,.326-.2.326-.448S329.121,284.388,328.941,284.388Z" transform="translate(-0.148 -0.336)"/>
    <path id="路径_271" data-name="路径 271" d="M327.2,281.86a.45.45,0,0,0,0,.9h4.048a.45.45,0,0,0,0-.9Z" transform="translate(-0.184 -0.221)"/>
    <path id="路径_272" data-name="路径 272" d="M338.114,287.417c-.287-.1-.568-.177-.844-.245a2.5,2.5,0,1,0-3.695.014,4.73,4.73,0,0,0-.886.388A5.34,5.34,0,0,0,330.3,290.9a.624.624,0,0,0,.491.735.571.571,0,0,0,.123.013.624.624,0,0,0,.612-.5,4.086,4.086,0,0,1,1.788-2.484,5.318,5.318,0,0,1,4.4-.052.626.626,0,1,0,.4-1.187Zm-2.7-3.168a1.255,1.255,0,1,1-1.249,1.255A1.253,1.253,0,0,1,335.417,284.249Z" transform="translate(-0.625 -0.626)"/>
  </g>
</svg>
