<?xml version="1.0" encoding="UTF-8"?>
<svg width="14px" height="14px" viewBox="0 0 14 14" version="1.1" xmlns="http://www.w3.org/2000/svg" xmlns:xlink="http://www.w3.org/1999/xlink">
    <!-- Generator: Sketch 60.1 (88133) - https://sketch.com -->
    <title>消毒隔离工作登记本</title>
    <desc>Created with Sketch.</desc>
    <g id="页面-3" stroke="none" stroke-width="1" fill="none" fill-rule="evenodd">
        <g id="icon" transform="translate(-34.000000, -7.000000)" fill="#333333" fill-rule="nonzero">
            <g id="消毒隔离工作登记本" transform="translate(33.000000, 7.000000)">
                <path d="M10.868,6.758 C10.9595975,6.74927306 11.0503192,6.78182085 11.1154783,6.84678662 C11.1806374,6.91175239 11.2134547,7.00237697 11.205,7.094 C11.2093304,7.18463624 11.1752179,7.27289266 11.1110553,7.33705527 C11.0468927,7.40121788 10.9586362,7.43533039 10.868,7.431 L10.868,7.431 L9.981,7.431 L9.981,8.006 L10.256,8.006 C10.3466362,8.00166961 10.4348927,8.03578212 10.4990553,8.09994473 C10.5632179,8.16410734 10.5973304,8.25236376 10.593,8.343 L10.593,8.343 L10.593,8.83 L10.681,8.83 C11.1980655,8.8244361 11.6223203,9.23796156 11.63,9.755 L11.63,9.755 L11.63,13.663 C11.6343304,13.7536362 11.6002179,13.8418927 11.5360553,13.9060553 C11.4718927,13.9702179 11.3836362,14.0043304 11.293,14 L11.293,14 L8.019,14 C7.92845004,14.0040177 7.84037852,13.9698045 7.77628703,13.905713 C7.71219555,13.8416215 7.67798228,13.75355 7.682,13.663 L7.682,13.663 L7.682,9.778 C7.68900879,9.25697632 8.10996922,8.83645947 8.631,8.83 L8.631,8.83 L8.718,8.83 L8.718,8.343 C8.71369136,8.25254567 8.7476707,8.16445808 8.81160887,8.10032962 C8.87554704,8.03620115 8.96353327,8.00196018 9.054,8.006 L9.054,8.006 L9.33,8.006 L9.33,7.431 L8.607,7.431 C8.20450984,7.42890942 7.84048582,7.6697496 7.685,8.041 C7.62388072,8.15144048 7.51092818,8.2233536 7.385,8.232 C7.33862441,8.23193454 7.29321187,8.21876143 7.254,8.194 C7.18859571,8.16712308 7.13622886,8.11583226 7.108,8.051 C7.06647218,7.96123706 7.06647218,7.85776294 7.108,7.768 C7.37325708,7.16054263 7.97019234,6.76519535 8.633,6.758 L8.633,6.758 Z M7.9965,-0.000308936419 C8.6137579,-0.000308936419 9.20353293,0.254967898 9.626,0.705 L9.626,0.705 L14.493,5.851 C14.9254403,6.18573019 15.1007749,6.75616787 14.931,7.276 C14.82,7.542 14.479,7.976 13.479,7.976 L13.479,7.976 L13.338,7.976 L13.338,12.261 C13.3172999,13.1021348 12.6655757,13.7922464 11.827,13.861 C11.8491102,13.7992771 11.8615896,13.7345192 11.864,13.669 L11.864,13.669 L11.864,12.948 C12.1960867,12.8812552 12.438449,12.5945633 12.449,12.256 L12.449,12.256 L12.449,7.089 L13.449,7.089 C13.931,7.089 14.079,6.97 14.101,6.927 C14.123,6.884 14.079,6.707 13.842,6.457 L13.842,6.457 L8.975,1.312 C8.72256906,1.03987871 8.36817566,0.885233156 7.997,0.885233156 C7.62582434,0.885233156 7.27143094,1.03987871 7.019,1.312 L7.019,1.312 L2.152,6.457 C1.915,6.714 1.878,6.897 1.893,6.927 C1.908,6.957 2.063,7.089 2.53,7.089 L2.53,7.089 L3.56,7.089 L3.56,12.265 C3.56,12.707 3.945,13.007 4.493,13.007 L4.493,13.007 L5.225,13.007 C5.3869924,13.3108095 5.66338137,13.5375348 5.993,13.637 L5.993,13.637 L5.993,13.889 L4.482,13.889 C4.0213494,13.9300774 3.56427507,13.7784045 3.21956745,13.4700816 C2.87485984,13.1617588 2.67334991,12.7243626 2.663,12.262 L2.663,12.262 L2.663,7.977 L2.5,7.977 C1.522,7.977 1.174,7.527 1.07,7.277 C0.966,7.027 0.878,6.512 1.5,5.851 L1.5,5.851 L6.367,0.705 C6.78946707,0.254967898 7.3792421,-0.000308936419 7.9965,-0.000308936419 Z M6.393,11.467 C6.91419254,11.4739968 7.33500319,11.8948075 7.342,12.416 C7.342,12.9401182 6.91711823,13.365 6.393,13.365 C5.86888177,13.365 5.444,12.9401182 5.444,12.416 C5.444,11.8918818 5.86888177,11.467 6.393,11.467 Z M10.68,9.47898331 L8.632,9.47898331 C8.55855444,9.47818837 8.4878802,9.50700616 8.43594318,9.55894318 C8.38400616,9.6108802 8.35518837,9.68155444 8.35598331,9.755 L8.35598331,9.755 L8.35598331,13.302 L10.9560167,13.302 L10.9560167,9.755 C10.9568116,9.68155444 10.9279938,9.6108802 10.8760568,9.55894318 C10.8241198,9.50700616 10.7534456,9.47818837 10.68,9.47898331 L10.68,9.47898331 Z M6.393,12.14 C6.24112169,12.14 6.118,12.2631217 6.118,12.415 C6.118,12.5668783 6.24112169,12.69 6.393,12.69 C6.47598939,12.6926524 6.55636659,12.6607911 6.615,12.602 C6.65753478,12.5546624 6.67726051,12.4911017 6.669,12.428 L6.669,12.428 C6.67501095,12.3522998 6.64688489,12.2786698 6.59417139,12.2242558 C6.54145789,12.1698419 6.46875765,12.1393931 6.393,12.14 Z M9.629,10.656 C9.81511996,10.656 9.966,10.80688 9.966,10.993 L9.966,10.993 L9.966,11.08 L10.053,11.08 C10.2391199,11.0800001 10.3899999,11.2308801 10.3899999,11.417 C10.3899999,11.6031199 10.2391199,11.7539999 10.053,11.754 L10.053,11.754 L9.966,11.754 L9.966,11.841 C9.966,12.02712 9.81511996,12.178 9.629,12.178 C9.44288004,12.178 9.292,12.02712 9.292,11.841 L9.292,11.841 L9.292,11.754 L9.228,11.754 C9.05537609,11.7395488 8.91167162,11.6156239 8.872,11.447 C8.86349682,11.2540189 9.01210324,11.0902395 9.205,11.08 L9.205,11.08 L9.292,11.08 L9.292,10.993 C9.292,10.80688 9.44288004,10.656 9.629,10.656 Z M5.996,8.217 C6.18211996,8.217 6.333,8.36788004 6.333,8.554 L6.333,8.554 L6.333,8.592 C6.43577181,8.61959297 6.53457851,8.66025832 6.627,8.713 L6.627,8.713 C6.76673993,8.61811233 6.94748792,8.62467008 7.074,8.729 C7.13248775,8.79074747 7.16444005,8.87296182 7.163,8.958 C7.16396141,9.03831821 7.13550652,9.11621345 7.083,9.177 C7.1427384,9.26508177 7.18484747,9.36390226 7.207,9.468 L7.207,9.468 L7.22,9.468 C7.33259507,9.46031316 7.44700418,9.52084923 7.50931525,9.62431525 C7.57162631,9.72778126 7.57162631,9.85721874 7.50931525,9.96068475 C7.44700418,10.0641508 7.33259507,10.1246868 7.212,10.118 L7.212,10.118 L7.186,10.118 C7.15162698,10.2136171 7.11017896,10.3065409 7.062,10.396 L7.062,10.396 L7.10086009,10.4455496 C7.13451092,10.4984215 7.15220653,10.5604214 7.151,10.624 C7.15248289,10.7098282 7.12015711,10.7927977 7.061,10.855 C6.93479585,10.9699038 6.74319468,10.9741711 6.612,10.865 C6.52375778,10.924231 6.4249729,10.9659855 6.321,10.988 L6.321,10.988 L6.321,11.001 C6.321,11.18712 6.17011996,11.338 5.984,11.338 C5.79788004,11.338 5.647,11.18712 5.647,11.001 L5.647,11.001 L5.647,10.975 C5.55096981,10.9416624 5.45796467,10.9001781 5.369,10.851 L5.369,10.851 L5.30904821,10.8924732 C5.18293761,10.9615951 5.02396632,10.9477707 4.911,10.851 C4.79456428,10.7216805 4.79456428,10.5253195 4.911,10.396 C4.85371201,10.3080351 4.81083886,10.2114861 4.784,10.11 L4.784,10.11 L4.768,10.11 C4.64760147,10.11 4.53634862,10.0457682 4.47614934,9.94150003 C4.41595007,9.83723185 4.41595007,9.70876815 4.47614934,9.60449997 C4.53634862,9.50023179 4.64760147,9.43599996 4.768,9.436 L4.768,9.436 L4.795,9.436 C4.82871817,9.34012086 4.87018856,9.2471469 4.919,9.158 L4.919,9.158 L4.87978088,9.10829805 C4.84580212,9.05523362 4.82787714,8.99292818 4.829,8.929 C4.82751711,8.84317176 4.85984289,8.76020226 4.919,8.698 C5.04966335,8.58511948 5.24333665,8.58511948 5.374,8.698 C5.46285493,8.64328603 5.55873184,8.60089834 5.659,8.572 L5.659,8.572 L5.659,8.554 C5.659,8.36788004 5.80988004,8.217 5.996,8.217 Z M5.99533448,9.22499999 C5.67458753,9.22536826 5.41481725,9.48558565 5.41500086,9.80633276 C5.41518466,10.1270799 5.67525284,10.387 5.996,10.387 C6.31703913,10.3864484 6.577,10.1260396 6.577,9.805 C6.57644794,9.48425331 6.31608143,9.2246325 5.99533448,9.22499999 Z" id="形状结合"></path>
            </g>
        </g>
    </g>
</svg>