<svg id="医嘱核对登记本" xmlns="http://www.w3.org/2000/svg" width="14" height="14" viewBox="0 0 14 14">
  <path id="路径_139" data-name="路径 139" d="M175.333,186.218h-6.222a.48.48,0,0,0,0,.958h6.222a.48.48,0,0,0,0-.958Z" transform="translate(-166.229 -180.294)"/>
  <path id="路径_140" data-name="路径 140" d="M169.111,184.311h6.222a.479.479,0,0,0,0-.956h-6.222a.479.479,0,0,0,0,.956Z" transform="translate(-166.229 -180.159)"/>
  <path id="路径_141" data-name="路径 141" d="M170.927,181.436h2.247a.7.7,0,0,0,.606-.63.712.712,0,0,0-.582-.8h-2.274a.723.723,0,0,0,0,1.436Z" transform="translate(-166.249 -180)"/>
  <path id="路径_142" data-name="路径 142" d="M167.779,191.847a.9.9,0,0,1-.89-.911V182.3a.9.9,0,0,1,.89-.91h.444a.455.455,0,0,0,0-.909h-.444A1.8,1.8,0,0,0,166,182.3v8.639a1.8,1.8,0,0,0,1.779,1.818h4.4l-.886-.907Z" transform="translate(-166 -180)"/>
  <path id="路径_143" data-name="路径 143" d="M176.187,181.435h.479a.927.927,0,0,1,.891.958v6.8l.786-.847a1.088,1.088,0,0,1,.1-.071v-5.879a1.852,1.852,0,0,0-1.773-1.915h-.464a.48.48,0,0,0-.02.957Z" transform="translate(-166.529 -180)"/>
  <path id="路径_144" data-name="路径 144" d="M180.441,188.14a.646.646,0,0,0-.916.034L175,193.047l-2.525-2.719a.648.648,0,0,0-.95.882l3,3.231a.649.649,0,0,0,.95,0l5-5.384A.648.648,0,0,0,180.441,188.14Z" transform="translate(-166.649 -180.648)"/>
</svg>
