<?xml version="1.0" encoding="UTF-8"?>
<svg width="14px" height="14px" viewBox="0 0 14 14" version="1.1" xmlns="http://www.w3.org/2000/svg" xmlns:xlink="http://www.w3.org/1999/xlink">
    <!-- Generator: Sketch 60.1 (88133) - https://sketch.com -->
    <title>中医护理登记本</title>
    <desc>Created with Sketch.</desc>
    <g id="页面-3" stroke="none" stroke-width="1" fill="none" fill-rule="evenodd">
        <g id="icon" transform="translate(-54.000000, -8.000000)" fill="#000000" fill-rule="nonzero">
            <g id="中医护理登记本" transform="translate(54.000000, 8.000000)">
                <path d="M10.5422895,9.38186176 C11.3257592,8.39342774 12.4290134,7.92646166 13.5239356,8.11984291 L13.5239356,8.11984291 C13.8055024,8.11156851 13.9809716,8.13535739 13.9809716,8.13535739 C13.9809716,8.13535739 14.2209154,10.9476164 12.996712,12.499065 C12.1675396,13.3790362 11.1079971,13.8326553 10.0276105,13.7702185 L10.0276105,13.7702185 L10.0063909,13.7971102 L9.62852013,14.2759907 L9.05722517,15 L8.56754378,14.3794206 L9.13883874,13.6605828 L8.89399804,13.3502931 C8.06277179,13.3993096 7.24729221,13.0512525 6.60881822,12.3749491 C6.0240227,11.4236901 5.75337765,10.2219206 5.85389274,9.02278595 C5.85389274,9.02278595 5.98773899,9.00416857 6.20156653,9.00416857 C7.04249965,8.85551759 7.88988782,9.21394729 8.49179397,9.97289289 C9.09370012,10.7318385 9.38081933,11.8039132 9.26778817,12.8703783 L9.26778817,12.8703783 L9.51262886,13.180668 L9.53303226,13.1548105 C9.38537933,11.7663439 9.75881979,10.3702958 10.5422895,9.38186176 Z M2.44977085,0.760037109 C2.68404246,0.748565391 2.8833653,0.92708245 2.89498485,1.15877865 C2.89607212,1.17475288 2.89607212,1.19078134 2.89498485,1.20675557 C2.89618729,1.45164592 2.69736744,1.65161373 2.44977085,1.65454019 C1.58718073,1.67072279 0.895013884,2.36427211 0.88990485,3.21752172 L0.88990485,3.21752172 L0.88990485,10.7200463 C0.917275404,11.5799841 1.6209847,12.267993 2.49073485,12.2851602 L2.49073485,12.2851602 L4.76531485,12.2851602 C4.81598085,12.3437986 4.86556885,12.4045694 4.92378085,12.4600094 C5.30341979,12.8230918 5.75951334,13.098692 6.25942285,13.2670879 L6.25942285,13.2670879 L2.49720285,13.2670879 C1.10990007,13.2571113 -0.00721239044,12.1379634 0.000554850448,10.765891 L0.000554850448,10.765891 L0.000554850448,3.21752172 C-0.0277762158,1.89232553 1.03236932,0.793788111 2.37215485,0.760037109 L2.37215485,0.760037109 Z M13.1787102,9.15931342 C12.411189,9.07582974 11.6537368,9.42603303 11.1089433,10.1162572 C10.5641499,10.8064813 10.2875957,11.7663089 10.3532486,12.7390223 C11.1207698,12.822506 11.878222,12.4723027 12.4230155,11.7820786 C12.9678089,11.0918544 13.2443631,10.1320269 13.1787102,9.15931342 Z M6.6724768,10.0612222 C6.66420347,10.6543278 6.84652723,11.2262164 7.17758373,11.6455735 C7.50864023,12.0649305 7.95998583,12.2957258 8.42798458,12.2849651 C8.43602728,11.6919456 8.2536294,11.120228 7.92262386,10.7009355 C7.59161832,10.2816431 7.14040762,10.0507538 6.6724768,10.0612222 Z M10.8689509,0.719523263 C12.2605846,0.733222973 13.3876547,1.84128667 13.4097969,3.21752172 L13.4097969,3.21752172 L13.4097969,7.38191865 C13.0931543,7.41823752 12.7791777,7.47450261 12.4697809,7.55037096 L12.4697809,7.55037096 L12.4697809,3.17167711 C12.4597223,2.30522794 11.7450798,1.60890954 10.8689509,1.61189403 L10.8689509,1.61189403 L10.6005289,1.61189403 C10.3513695,1.61189403 10.1493859,1.41213003 10.1493859,1.16570865 C10.1493859,0.919287264 10.3513695,0.719523263 10.6005289,0.719523263 L10.6005289,0.719523263 Z M10.0604509,6.2187448 C10.292047,6.2187448 10.4797929,6.40442747 10.4797929,6.63347865 C10.4797929,6.86252983 10.292047,7.04821249 10.0604509,7.04821249 L10.0604509,7.04821249 L3.35313485,7.04821249 C3.12153866,7.04821249 2.93379285,6.86252983 2.93379285,6.63347865 C2.93379285,6.40442747 3.12153866,6.2187448 3.35313485,6.2187448 L3.35313485,6.2187448 Z M10.0604509,3.73140788 C10.2917494,3.73140788 10.4792539,3.91685188 10.4792539,4.14560865 C10.4792539,4.37436542 10.2917494,4.55980942 10.0604509,4.55980942 L10.0604509,4.55980942 L3.35313485,4.55980942 C3.12183634,4.55980942 2.93433185,4.37436542 2.93433185,4.14560865 C2.93433185,3.91685188 3.12183634,3.73140788 3.35313485,3.73140788 L3.35313485,3.73140788 Z M9.26919885,0.00200172475 C9.54408885,0.00200172475 9.71441285,0.138469417 9.71441285,0.358097109 L9.71441285,0.358097109 L9.71441285,1.78887557 C9.68953526,2.00820147 9.49132328,2.16721195 9.26919885,2.14603711 C9.04632108,2.16715594 8.84777622,2.00692751 8.82398485,1.78674326 L8.82398485,1.78674326 L8.82398485,0.358097109 C8.84885317,0.13890226 9.04726949,-0.0197970034 9.26919885,0.00200172475 Z M3.92070185,0.000975992289 C4.13495697,0.000975992289 4.32017109,0.148834405 4.36537685,0.355964802 L4.36537685,0.355964802 L4.36537685,1.78887557 C4.34104454,2.00804305 4.14314741,2.16718629 3.92124085,2.14603711 C3.69760522,2.16710567 3.49872408,2.00565332 3.47602685,1.78461096 L3.47602685,1.78461096 L3.47602685,0.355964802 C3.52123261,0.148834405 3.70644673,0.000975992289 3.92070185,0.000975992289 Z M7.93571285,0.756838648 C8.046483,0.759881146 8.1513951,0.806720711 8.22696863,0.886874123 C8.30254216,0.967027534 8.34246676,1.073802 8.33780685,1.18330019 L8.33780685,1.18330019 L8.33780685,1.20782172 C8.34391017,1.43792665 8.16853817,1.63328521 7.93679085,1.65454019 L7.93679085,1.65454019 L5.26335085,1.65454019 C5.152869,1.65093396 5.04840666,1.60388631 4.97312616,1.52382906 C4.89784566,1.44377181 4.85796787,1.33732056 4.86233485,1.22807865 L4.86233485,1.22807865 L4.86233485,1.20355711 C4.85885688,0.974407975 5.03287403,0.78055867 5.26335085,0.756838648 L5.26335085,0.756838648 Z" id="形状结合"></path>
            </g>
        </g>
    </g>
</svg>