<?xml version="1.0" encoding="UTF-8"?>
<svg width="20px" height="20px" viewBox="0 0 20 20" version="1.1" xmlns="http://www.w3.org/2000/svg" xmlns:xlink="http://www.w3.org/1999/xlink">
    <!-- Generator: Sketch 54.1 (76490) - https://sketchapp.com -->
    <title>患者查询统计</title>
    <desc>Created with Sketch.</desc>
    <g id="统计查询/敏感指标" stroke="none" stroke-width="1" fill="none" fill-rule="evenodd">
        <g id="系统设置与统计查询" transform="translate(-14.000000, -486.000000)" fill-rule="nonzero">
            <g id="icon-rgb_dmv" transform="translate(14.000000, 486.000000)">
                <g id="查询统计" transform="translate(2.000000, 2.000000)">
                    <path d="M5.5000064,9.00001047 L7.5000064,9.00001047 L7.5000064,12.0000105 L5.5000064,12.0000105 L5.5000064,9.00001047 Z M8.50000989,10.0000116 L10.5000099,10.0000116 L10.5000099,12.0000116 L8.50000989,12.0000116 L8.50000989,10.0000116 Z M14.9500174,2.00000233 L12.5375146,2.00000233 C12.6750147,2.31250269 12.7875149,2.65000308 12.850015,3.00000349 L15.0000175,3.00000349 L15.0000175,13.0000151 L1.00000116,13.0000151 L1,3.00000233 L3.05000355,3.00000349 C3.12500364,2.65000308 3.22500375,2.31250269 3.36250391,2.00000233 L0.950001105,2.00000233 C0.387500451,2.00000233 0,2.45000285 0,3.00000233 L0,13.0000151 C0,13.5500158 0.387500451,14.0000163 0.950001105,14.0000163 L7.50000873,14.0000163 L7.50000873,15.0000175 L5.45000634,15.0000175 C5.17500602,15.0000175 4.95000576,15.2250177 4.95000576,15.500018 C4.95000576,15.7750184 5.17500602,16.0000186 5.45000634,16.0000186 L10.4500122,16.0000186 C10.7250125,16.0000186 10.9500127,15.7750184 10.9500127,15.500018 C10.9500127,15.2250177 10.7250125,15.0000175 10.4500122,15.0000175 L8.50000989,15.0000175 L8.50000989,14.0000163 L14.9500174,14.0000163 C15.500018,14.0000163 16.0000186,13.5500158 16.0000186,13.0000151 L16.0000186,3.00000349 C16.0000186,2.45000285 15.500018,2.00000233 14.9500174,2.00000233 Z M2.50000291,12.0000081 L4.50000291,12.0000081 L4.50000524,7.57500881 C4.25000495,7.40000861 4.10000477,7.21250839 3.9500046,7.00000815 L2.50000291,7.00000815 L2.50000291,12.0000081 Z" id="形状" fill="#FFFFFF"></path>
                    <path d="M7.95000925,8.00000931 C5.73750668,8.00000931 3.93750458,6.21250723 3.93750458,4 C3.93750458,1.78750208 5.72500666,-1.77635684e-15 7.93750458,-1.77635684e-15 C10.1500118,-1.77635684e-15 11.9375139,1.78750208 11.9375046,4 C11.9375139,4.92500573 11.6250135,5.77500672 11.1000129,6.45000751 L13.8375161,9.17501068 C14.0375163,9.37501091 14.0375163,9.68751127 13.8375161,9.88751151 C13.6375159,10.0875117 13.3250155,10.0875117 13.1250153,9.88751151 L10.4000121,7.16250833 C9.72501132,7.68750895 8.87501033,8.00000931 7.95000925,8.00000931 Z M7.95000576,1.00000116 C6.28750732,1.00000116 4.95000576,2.33750272 4.95000576,4.00000116 C4.95000576,5.66250659 6.28750732,7.00000815 7.95000576,7.00000116 C9.61251119,7.00000815 10.9500127,5.66250659 10.9500058,4.00000116 C10.9500127,2.33750272 9.61251119,1.00000116 7.95000576,1.00000116 Z" id="形状结合" fill="#F6C235"></path>
                </g>
            </g>
        </g>
    </g>
</svg>