<?xml version="1.0" encoding="UTF-8"?>
<svg width="20px" height="20px" viewBox="0 0 20 20" version="1.1" xmlns="http://www.w3.org/2000/svg" xmlns:xlink="http://www.w3.org/1999/xlink">
    <!-- Generator: Sketch 54.1 (76490) - https://sketchapp.com -->
    <title>节假日</title>
    <desc>Created with Sketch.</desc>
    <g id="统计查询/敏感指标" stroke="none" stroke-width="1" fill="none" fill-rule="evenodd">
        <g id="系统设置与统计查询" transform="translate(-257.000000, -523.000000)" fill-rule="nonzero">
            <g id="icon-rgb_dmv复制-2" transform="translate(257.000000, 523.000000)">
                <g id="节假日" transform="translate(1.000000, 1.000000)">
                    <g id="编组" transform="translate(0.878908, 0.492189)">
                        <path d="M3.76331922,2.39170356 C2.45061637,3.21219409 1.63524214,4.73524125 1.63524214,6.36669354 C1.63524214,6.56630059 1.79689869,6.72813484 1.99668344,6.72813484 C2.19646838,6.72813484 2.35812474,6.5663002 2.35812474,6.36669354 C2.35812474,4.98252111 3.04323647,3.69417383 4.14663529,3.00480818 C4.31571183,2.89891035 4.36723539,2.67601372 4.26135806,2.50676026 C4.15581639,2.33734728 3.93307793,2.28582371 3.76331013,2.39170105 L3.76331922,2.39170356 Z" id="路径" fill="#F6C235"></path>
                        <path d="M9.70841149,7.43301373 C9.51673857,7.37070572 9.31414353,7.47502071 9.25236901,7.66455605 C8.75044229,9.20385508 7.40598206,10.2380563 5.90761531,10.2380563 C5.70783037,10.2380563 5.54617401,10.3998909 5.54617401,10.5994976 C5.54617401,10.7991047 5.70783057,10.9609389 5.90761531,10.9609389 C7.71977182,10.9609389 9.34025095,9.72623538 9.9396077,7.88866756 C10.0017179,7.69897328 9.89795688,7.49495454 9.70840182,7.43300213 L9.70841149,7.43301373 Z" id="路径" fill="#F6C235"></path>
                        <path d="M14.4103369,5.99519174 C14.2140924,5.94930654 14.0213708,6.07055887 13.9761788,6.26504053 C13.7319135,7.31194935 13.0411634,8.18503368 12.1287226,8.60010907 C11.9469431,8.68269837 11.8668267,8.89712488 11.9494164,9.07874756 C12.0101216,9.2119905 12.1410893,9.29052272 12.2787445,9.29052272 C12.3285079,9.29052272 12.3796958,9.28011497 12.4280543,9.25805281 C13.5430895,8.75066562 14.3852788,7.6931491 14.6800169,6.42916319 C14.7255459,6.23483873 14.6044914,6.0405336 14.410346,5.99518304 L14.4103369,5.99519174 Z" id="路径" fill="#F6C235"></path>
                        <path d="M16.2309529,5.86511874 C16.2309529,2.79938294 13.9080467,0.305121449 11.0528601,0.305121449 C10.2851993,0.305121449 9.52462126,0.490165813 8.83363333,0.842427172 C7.97158982,0.312442043 6.97658066,0.00509695906 5.91429009,0.00509695906 C2.65919723,0.00509695906 0.0111955208,2.85127293 0.0111955208,6.34957348 C0.0111955208,9.3261705 1.93083289,11.8236998 4.50781169,12.5044803 L4.15717339,12.9409721 C4.06999354,13.0495016 4.05270004,13.198297 4.11304931,13.3235863 C4.17306214,13.449073 4.29977552,13.5288337 4.4388351,13.5288337 L5.38410058,13.5288337 C4.9870231,14.3438637 5.40042453,14.8061981 5.71378449,15.1556685 C5.83802461,15.2943924 5.95557681,15.4255193 6.02934156,15.5741161 C6.11652141,15.7488318 6.1380491,15.8969145 6.09394474,16.0142683 C6.03217099,16.1780421 5.84544479,16.2848306 5.77767611,16.3127092 C5.59342317,16.385425 5.50165335,16.5935002 5.57294504,16.7788025 C5.62836731,16.9224532 5.76531038,17.0105227 5.91038654,17.0105227 C5.95379829,17.0105227 5.99756639,17.0025883 6.04028571,16.9861654 C6.09463948,16.9653498 6.57644288,16.7676826 6.76635488,16.2795057 C6.85072502,16.0624266 6.90365412,15.7078709 6.67670177,15.2520063 C6.55916929,15.0158736 6.39608865,14.8337366 6.25208022,14.6731302 C5.92205985,14.3051591 5.78545323,14.1526835 6.20512651,13.5623295 C6.21248713,13.5519218 6.21389199,13.5396738 6.22002584,13.5287913 L6.87860283,13.5287913 C7.01414115,13.5287913 7.13838146,13.4530878 7.20015405,13.3325468 C7.2619278,13.2120068 7.25134194,13.0669307 7.17227469,12.9567988 L6.91364462,12.5959511 C7.95681386,12.4035858 8.90851628,11.9216637 9.68899297,11.2220287 C9.80777203,11.2571894 9.92720426,11.286454 10.0471104,11.3123744 L9.89687078,11.4813916 C9.80227095,11.587804 9.77898214,11.7397645 9.83721412,11.8696635 C9.89544611,11.9995625 10.0246329,12.0830416 10.166898,12.0830416 L10.6976547,12.0830416 C10.2145844,13.0557119 10.6060823,13.572479 10.9275554,13.9929646 C11.0486296,14.1516333 11.1629958,14.3012803 11.2367606,14.4756598 C11.4986565,15.0931807 11.117111,15.3367326 10.992851,15.3972599 C10.8131886,15.4805616 10.7337646,15.6932278 10.8156618,15.8739397 C10.8760109,16.0075388 11.007671,16.0866063 11.1453264,16.0866063 C11.1950898,16.0866063 11.2455654,16.0761985 11.2939239,16.0543144 C11.6200674,15.9069439 12.3651902,15.2851899 11.902442,14.1936208 C11.7926659,13.93507 11.6384095,13.7328101 11.5018222,13.5542173 C11.1908555,13.1470678 11.0193068,12.9225695 11.454176,12.2042754 C11.4774055,12.1659488 11.490069,12.1246145 11.4978055,12.083023 L11.9091491,12.083023 C12.046112,12.083023 12.1714007,12.0055386 12.2328176,11.8827025 C12.293879,11.7600452 12.2801075,11.6133874 12.1978744,11.5039671 L12.0575676,11.3179136 C14.4332997,10.8140668 16.2309446,8.56163051 16.2309446,5.86511487 L16.2309529,5.86511874 Z M5.19282675,12.8059357 L5.30935007,12.6608405 C5.5082649,12.6827046 5.71008785,12.6940425 5.91430652,12.6940425 C5.97287495,12.6940425 6.02964262,12.6864246 6.08779552,12.6846043 L6.17479729,12.8059357 L5.19282675,12.8059357 L5.19282675,12.8059357 Z M9.52622808,9.81984463 C9.51851131,9.82942134 9.51047793,9.83860233 9.50270182,9.84808016 C9.4011569,9.97220155 9.29383478,10.0914155 9.18105006,10.2053275 C8.34955737,11.0454073 7.24946113,11.5693364 6.0370423,11.6029152 C6.03581553,11.6028558 6.03480641,11.602005 6.03357964,11.6019457 L5.44835167,11.5724635 C5.42571583,11.5709796 5.40464312,11.573631 5.3834714,11.5760251 C2.97542895,11.2863879 1.09550958,9.05409388 1.09550958,6.34955382 C1.09550958,3.44902447 3.25709588,1.08939926 5.91428218,1.08939926 C6.87328005,1.08939926 7.76553792,1.40028669 8.51709575,1.92947905 C8.84228793,2.15829113 9.13493188,2.42580607 9.39518617,2.72195176 C9.43192991,2.76395875 9.46713025,2.80758822 9.50260767,2.85092088 C9.58885746,2.9558492 9.67035854,3.06451749 9.74825751,3.17609372 C9.78577295,3.2299726 9.82404017,3.28313933 9.85969568,3.33864069 C9.94165172,3.4659676 10.0171178,3.59772709 10.0881906,3.73219709 C10.1076409,3.76903982 10.1301779,3.80366628 10.1488365,3.84108271 C10.2325931,4.00891266 10.3060609,4.18267951 10.3725246,4.35972923 C10.3957144,4.42136454 10.4146899,4.48525538 10.4357627,4.54803847 C10.4780071,4.67427696 10.5169273,4.80186162 10.5502282,4.9317606 C10.5679175,5.00059816 10.5842019,5.0699899 10.5993781,5.13993541 C10.6286029,5.27517692 10.6519907,5.41229788 10.6714013,5.5506254 C10.6801865,5.61323021 10.6909703,5.6751426 10.6977175,5.73840039 C10.7191661,5.93994684 10.7330366,6.14347135 10.7330366,6.34956948 C10.7330762,7.62647761 10.2980084,8.86289623 9.526231,9.81985223 L9.52622808,9.81984463 Z M11.052864,10.3406084 C10.8767236,10.3406084 10.7002476,10.3277274 10.5244625,10.3019651 C10.5296268,10.2950002 10.5339403,10.2874418 10.5390848,10.2804572 C10.8387129,9.8741197 11.0921396,9.42783221 11.2929939,8.94994589 C11.2948934,8.9454939 11.2970897,8.94116064 11.2989694,8.93666909 C11.3550249,8.80245645 11.4045507,8.66491957 11.4519793,8.5259791 C11.4663444,8.48407111 11.4813228,8.44249938 11.4948568,8.40027486 C11.5338364,8.27815184 11.5686214,8.15438719 11.6007349,8.02903797 C11.6180284,7.96209997 11.6338775,7.89486497 11.6491131,7.82727302 C11.6734901,7.71811031 11.6966009,7.60868966 11.7156555,7.49743055 C11.7329292,7.39788419 11.7455926,7.29756633 11.7584144,7.19708895 C11.7692179,7.11060172 11.7821781,7.02496526 11.7896971,6.93743021 C11.8068521,6.74255274 11.8173984,6.54660599 11.8173984,6.34954935 C11.8173984,6.12453678 11.8056254,5.9025503 11.7842558,5.68353188 C11.7772711,5.61182524 11.7631831,5.5420379 11.7539822,5.47090593 C11.7350662,5.32517756 11.7166845,5.17927131 11.6886865,5.0368465 C11.6709972,4.94661949 11.6460068,4.85908367 11.6247163,4.77004312 C11.5961049,4.65069036 11.5690763,4.53076448 11.5342519,4.41420151 C11.5046313,4.31475396 11.4682834,4.21843265 11.434191,4.12088467 C11.3986146,4.01949811 11.3644433,3.91757672 11.3242369,3.81874289 C11.2825464,3.71593166 11.2351575,3.6164056 11.1884611,3.51624533 C11.1468697,3.42716611 11.1059312,3.3379877 11.0606199,3.25134268 C11.0082844,3.15128179 10.9515956,3.05424737 10.8942146,2.95727367 C10.8452229,2.87446664 10.7958553,2.79231279 10.7434208,2.71213817 C10.683408,2.62044704 10.6205856,2.5312491 10.5559625,2.44290232 C10.4956925,2.36035266 10.4338198,2.27970238 10.369909,2.20049706 C10.3069084,2.12261704 10.2428195,2.04612204 10.1760989,1.97136787 C10.097744,1.88325815 10.0162825,1.79898701 9.93339585,1.71582382 C9.89485155,1.6773586 9.86058107,1.63499545 9.82098818,1.59749993 C10.2184427,1.46037878 10.6345932,1.38942373 11.0528629,1.38942373 C13.3101235,1.38942373 15.1466336,3.39713446 15.1466336,5.86509905 C15.1466138,8.33292829 13.3101003,10.3406197 11.0528629,10.3406197 L11.052864,10.3406084 Z" id="形状" fill="#FFFFFF"></path>
                    </g>
                </g>
            </g>
        </g>
    </g>
</svg>