<?xml version="1.0" encoding="UTF-8"?>
<svg width="20px" height="20px" viewBox="0 0 20 20" version="1.1" xmlns="http://www.w3.org/2000/svg" xmlns:xlink="http://www.w3.org/1999/xlink">
    <!-- Generator: Sketch 54.1 (76490) - https://sketchapp.com -->
    <title>健康字典设置</title>
    <desc>Created with Sketch.</desc>
    <g id="统计查询/敏感指标" stroke="none" stroke-width="1" fill="none" fill-rule="evenodd">
        <g id="系统设置与统计查询" transform="translate(-256.000000, -447.000000)" fill-rule="nonzero">
            <g id="icon-rgb_dcv复制" transform="translate(256.000000, 447.000000)">
                <g id="字典项管理" transform="translate(4.000000, 2.000000)">
                    <g id="编组" transform="translate(0.487503, 0.403126)">
                        <path d="M8.02817028,3.90087954 L8.02817028,6.58488266 L8.52867086,6.58488266 L8.52867086,7.10738327 L3.27066474,7.10738327 L3.27066474,6.58488266 L3.79316535,6.58488266 L3.79316535,3.90087954 L5.02333288,3.90087954 L5.02333288,3.1767126 L5.54033348,3.1767126 L5.54033348,3.90087954 L6.28650044,3.90087954 L6.28650044,3.1767126 L6.80350104,3.1767126 L6.80350104,3.90087954 L8.02816856,3.90087954 L8.02817028,3.90087954 Z M5.41382817,7.56204474 C4.9224937,7.95621129 4.31749299,8.28987949 3.596987,8.56121199 L3.36232063,8.0552114 C4.05898754,7.82604504 4.6309882,7.53087689 5.07465653,7.16971037 L5.41382302,7.56204474 L5.41382817,7.56204474 Z M4.3156608,5.21170294 L5.02332772,5.21170294 L5.02332772,4.40136809 L4.3156608,4.40136809 L4.3156608,5.21170294 Z M4.3156608,6.58487063 L5.02332772,6.58487063 L5.02332772,5.71220352 L4.3156608,5.71220352 L4.3156608,6.58487063 Z M5.54032832,4.40136809 L5.54032832,5.21170294 L6.28649528,5.21170294 L6.28649528,4.40136809 L5.54032832,4.40136809 L5.54032832,4.40136809 Z M5.54032832,6.58487063 L6.28649528,6.58487063 L6.28649528,5.71220352 L5.54032832,5.71220352 L5.54032832,6.58487063 L5.54032832,6.58487063 Z M6.71182969,7.16970522 C7.36266435,7.42637161 7.94933113,7.73253978 8.46999267,8.0900402 L8.18399234,8.55020682 C7.61382558,8.13954025 7.0308249,7.81687206 6.43682937,7.5785396 L6.71182969,7.16970522 L6.71182969,7.16970522 Z M6.8034964,4.40136293 L6.8034964,5.21169778 L7.50383112,5.21169778 L7.50383112,4.40136293 L6.8034964,4.40136293 Z M6.8034964,6.58486547 L7.50383112,6.58486547 L7.50383112,5.71219837 L6.8034964,5.71219837 L6.8034964,6.58486547 Z" id="形状" fill="#F6C235"></path>
                        <path d="M11.3941742,12.3617284 L2.22932447,12.3617284 C2.00015811,12.3617284 1.81315789,12.5688948 1.81315789,12.8218951 C1.81315789,13.0748954 2.00015811,13.2820617 2.22932447,13.2820617 L11.3941742,13.2820617 C11.6233406,13.2820617 11.8103408,13.0748954 11.8103408,12.8218951 C11.8121741,12.5688948 11.6233406,12.3617284 11.3941742,12.3617284 Z" id="路径" fill="#F6C235"></path>
                        <path d="M2.1505025,11.5458884 L11.3153522,11.5458884 C11.5738525,11.5458884 11.7846867,11.3148882 11.7846867,11.0325539 L11.7846867,1.43870371 C11.7846867,0.648536692 11.1998521,0.00686813299 10.4811852,0.00686813299 L1.31633544,0.00686813299 C0.597668508,0.00686813299 0.0128339212,0.650368882 0.0128339212,1.43870371 L0.0128339212,12.8713779 C0.0128339212,14.1675455 0.971668943,15.2235416 2.14867547,15.2235416 L11.3135252,15.2235416 C11.5720255,15.2235416 11.7828596,14.9925414 11.7828596,14.7102071 C11.7828596,14.4278729 11.5720255,14.1968726 11.3135252,14.1968726 L2.15051453,14.1968726 C1.49051377,14.1968726 0.953347047,13.6028719 0.953347047,12.8713711 C0.953347047,12.1398702 1.49051377,11.5458695 2.15051453,11.5458695 L2.1505025,11.5458884 Z M10.8478517,2.43787784 L10.8478517,5.08521998 C10.8460183,5.10538661 10.844185,5.12372002 10.844185,5.14022004 L10.844185,10.5210654 L2.15051397,10.5210654 C1.73251348,10.5210654 1.33101301,10.6585655 0.95334648,10.9280658 L0.95334648,1.43871574 C0.95334648,1.21504938 1.11651328,1.03171526 1.3163469,1.03171526 L10.4811966,1.03171526 C10.6810308,1.03171526 10.8441971,1.21321547 10.8441971,1.43871574 L10.8441971,2.38105074 C10.8441971,2.39938415 10.8460304,2.41771739 10.8478637,2.4378842 L10.8478517,2.43787784 Z" id="形状" fill="#FFFFFF"></path>
                    </g>
                </g>
            </g>
        </g>
    </g>
</svg>