<?xml version="1.0" encoding="UTF-8"?>
<svg width="20px" height="20px" viewBox="0 0 20 20" version="1.1" xmlns="http://www.w3.org/2000/svg" xmlns:xlink="http://www.w3.org/1999/xlink">
    <!-- Generator: Sketch 54.1 (76490) - https://sketchapp.com -->
    <title>护理诊断字典</title>
    <desc>Created with Sketch.</desc>
    <g id="统计查询/敏感指标" stroke="none" stroke-width="1" fill="none" fill-rule="evenodd">
        <g id="系统设置与统计查询" transform="translate(-258.000000, -75.000000)" fill-rule="nonzero">
            <g id="icon-rgb_peizhizhinengguanli复制" transform="translate(258.000000, 75.000000)">
                <g id="字典表" transform="translate(3.000000, 2.000000)">
                    <path d="M13.5250176,0.30000128 C13.8287726,0.30000128 14.0750182,0.546246879 14.0750182,0.85000192 L14.0750182,0.90156448 C14.0750182,1.1768398 13.8518555,1.40000256 13.5765802,1.40000256 L2.70815501,1.40000256 C2.0058042,1.40000256 1.42500352,2.00995327 1.42500352,2.77500416 C1.42500352,3.54005505 2.0058042,4.15000576 2.70815501,4.15000576 L13.868768,4.15000576 C13.9826697,4.15000576 14.0750182,4.2423543 14.0750182,4.356256 L14.0750182,15.493769 C14.0750182,15.6076707 13.9826697,15.7000192 13.868768,15.7000192 L2.97050532,15.7000192 C1.50310361,15.7000192 0.32500224,14.4630678 0.32500224,12.950016 L0.32500224,3.05000448 C0.315652229,2.95870437 0.32500224,2.86905427 0.32500224,2.77500416 C0.32500224,1.41375258 1.38595347,0.30000128 2.70815501,0.30000128 L13.5250176,0.30000128 Z M6.6500096,5.25000704 L6.6500096,8.20956048 L7.82261096,7.28665941 C8.0221237,7.12937641 8.30344902,7.12937641 8.50296176,7.28665941 L9.67501312,8.20956048 L9.67501312,5.25000704 L6.6500096,5.25000704 Z M2.70815501,5.25000704 C2.23350446,5.25000704 1.79515395,5.10205687 1.42500352,4.85510658 L1.42500352,12.950016 C1.42500352,13.8668671 2.12295433,14.6000179 2.97050532,14.6000179 L12.975017,14.6000179 L12.975017,5.25000704 L10.7750144,5.25000704 L10.7750144,9.3425618 L10.7750144,9.34256793 C10.7751961,9.64632469 10.5291005,9.89271638 10.225342,9.89289685 C10.1017091,9.89297079 9.98165739,9.85138779 9.88455821,9.77485795 L8.16250621,8.41855981 L6.4404542,9.77486139 L6.4404542,9.77486139 C6.20188627,9.9628877 5.85606305,9.92191437 5.66803846,9.68334644 C5.59150965,9.58624623 5.54992805,9.46619415 5.55000334,9.34256089 L5.55000334,5.25000612 L2.70815003,5.25000612 L2.70815501,5.25000704 Z" id="形状" fill="#FFFFFF"></path>
                    <polygon id="路径" fill="#F6C235" points="3.07115544 2.22500352 12.975017 2.22500352 12.975017 3.3250048 3.07115544 3.3250048"></polygon>
                </g>
            </g>
        </g>
    </g>
</svg>