<?xml version="1.0" encoding="UTF-8"?>
<svg width="20px" height="20px" viewBox="0 0 20 20" version="1.1" xmlns="http://www.w3.org/2000/svg" xmlns:xlink="http://www.w3.org/1999/xlink">
    <!-- Generator: Sketch 54.1 (76490) - https://sketchapp.com -->
    <title>护理评估设置</title>
    <desc>Created with Sketch.</desc>
    <g id="统计查询/敏感指标" stroke="none" stroke-width="1" fill="none" fill-rule="evenodd">
        <g id="系统设置与统计查询" transform="translate(-257.000000, -486.000000)" fill-rule="nonzero">
            <g id="icon-rgb_dmv复制" transform="translate(257.000000, 486.000000)">
                <g id="评估" transform="translate(2.000000, 2.000000)">
                    <path d="M14.3395167,12.7245148 C14.0335163,12.7245148 13.787016,12.973849 13.787016,13.2770154 L13.787016,15.1583565 L11.956675,15.1583565 C11.6506747,15.1583565 11.4041744,15.4076907 11.4041744,15.7108571 C11.4041744,16.0168575 11.6535086,16.2633578 11.956675,16.2633578 L14.3395167,16.2633578 C14.645517,16.2633578 14.8920173,16.0140236 14.8920173,15.7108571 L14.8920173,13.2770154 C14.8948507,12.9710151 14.645517,12.7245148 14.3395167,12.7245148 L14.3395167,12.7245148 Z M3.68616542,15.1583565 L1.66316307,15.1583565 L1.66316307,1.830341 L13.787016,1.830341 L13.787016,3.60400419 C13.787016,3.91000455 14.0363502,4.15650484 14.3395167,4.15650484 C14.645517,4.15650484 14.8920173,3.90717066 14.8920173,3.60400419 L14.8920173,1.27784035 C14.8920173,0.971839998 14.6426832,0.725339711 14.3395167,0.725339711 L1.10784016,0.725339711 C0.8018398,0.725339711 0.555339513,0.974673888 0.555339513,1.27784035 L0.555339513,15.713696 C0.555339513,16.0196964 0.80467369,16.2661967 1.10784016,16.2661967 L3.68618202,16.2661967 C3.99218238,16.2661967 4.23868267,16.0168625 4.23868267,15.713696 C4.24151601,15.4048618 3.99501627,15.1583615 3.68618202,15.1583615 L3.68616542,15.1583565 Z M7.89650919,8.17418725 L11.8121749,4.25852156 C12.027509,4.04318742 12.027509,3.69185478 11.8121749,3.47652065 C11.5968407,3.26118651 11.2455081,3.26118651 11.030174,3.47652065 L7.50550873,6.99836361 L6.04917315,5.54202803 C5.83383902,5.32669389 5.48250638,5.32669389 5.26717224,5.54202803 L3.29800882,7.51119146 C3.08267468,7.72652559 3.08267468,8.07785823 3.29800882,8.29319237 C3.40567555,8.4008591 3.547343,8.45469255 3.68900927,8.45469255 C3.83067605,8.45469255 3.97234349,8.4008591 4.08000973,8.29319237 L5.65534545,6.71785665 L7.11168103,8.17419223 C7.3298474,8.38952636 7.68118169,8.38952636 7.89651583,8.17419223 L7.89650919,8.17418725 Z" id="形状" fill="#FFFFFF"></path>
                    <path d="M15.8043573,6.24750727 L15.8043428,6.24750236 C16.2095094,6.65266894 16.4333435,7.19666957 16.4333435,7.77750414 C16.4333435,8.35550481 16.2095094,8.89950544 15.8043428,9.30467203 L9.56817442,15.5408404 C9.49167434,15.6173405 9.39250695,15.6711738 9.28484021,15.6910072 L6.44867578,16.2548417 C6.41467574,16.2633417 6.37784247,16.2661751 6.34100904,16.2661751 C6.19367498,16.2661751 6.05484209,16.2095084 5.95000858,16.1046749 C5.81967521,15.9743409 5.76300837,15.7845084 5.7998418,15.6031743 L6.36650857,12.7670099 C6.38634182,12.659342 6.43734188,12.5630091 6.51667536,12.4836757 L12.7500215,6.24750727 C13.158022,5.84234069 13.6991887,5.61850654 14.2771894,5.61850654 C14.85519,5.61850654 15.3991907,5.84234069 15.8043573,6.24750727 Z M15.0223563,7.02950818 C14.6115236,6.62150771 13.945689,6.62150771 13.5376885,7.02950818 L13.398855,7.16834173 L14.8835228,8.65300957 L15.0223563,8.51417602 C15.4303568,8.10334332 15.4303568,7.43750865 15.0223563,7.02950818 Z M8.90234259,14.6341715 L14.0986875,9.43500434 L12.6140197,7.9503365 L7.41767474,13.1466814 L7.0465082,15.0053447 L8.90234923,14.6341782 Z" id="形状结合" fill="#F6C235"></path>
                </g>
            </g>
        </g>
    </g>
</svg>