<?xml version="1.0" encoding="UTF-8"?>
<svg width="20px" height="20px" viewBox="0 0 20 20" version="1.1" xmlns="http://www.w3.org/2000/svg" xmlns:xlink="http://www.w3.org/1999/xlink">
    <!-- Generator: Sketch 54.1 (76490) - https://sketchapp.com -->
    <title>护理人员统计</title>
    <desc>Created with Sketch.</desc>
    <g id="统计查询/敏感指标" stroke="none" stroke-width="1" fill="none" fill-rule="evenodd">
        <g id="系统设置与统计查询" transform="translate(-13.000000, -447.000000)" fill-rule="nonzero">
            <g id="icon-rgb_dcv" transform="translate(13.000000, 447.000000)">
                <g id="人员统计" transform="translate(2.000000, 2.000000)">
                    <g id="编组" transform="translate(0.000000, 0.619630)">
                        <path d="M6.44651238,7.83968442 C4.29767492,7.83968442 2.53255959,6.07456908 2.53255959,3.92573162 C2.53255959,1.77689416 4.29767492,0.0117788223 6.44651238,0.0117788223 C8.59534985,0.0117788384 10.3604652,1.77689416 10.3604652,3.92573162 C10.3604652,6.07456908 8.59534985,7.83968442 6.44651238,7.83968442 Z M6.44651238,1.16292909 C4.9116271,1.16292909 3.68372597,2.39083828 3.68372597,3.92571551 C3.68372595,5.46060079 4.91163516,6.68850192 6.44651238,6.68850192 C7.98139767,6.68850192 9.2092988,5.46059273 9.2092988,3.92571551 C9.2092988,2.39083022 7.98138961,1.16292909 6.44651238,1.16292909 Z" id="形状" fill="#F6C235"></path>
                        <path d="M3.45349914,13.7489955 L0.767444252,13.7489955 C0.537210977,13.7489955 0.383722126,13.6722512 0.230234887,13.5187622 C0.0767463588,13.3652737 1.61133e-06,13.2117845 1.61133e-06,12.9815528 C0.0767458754,9.45132218 2.91628333,6.7652673 6.446514,6.7652673 C9.97674467,6.7652673 12.8162948,9.52805371 12.8930264,12.9815528 C12.8930264,13.2117861 12.8162821,13.365275 12.6627931,13.5187622 C12.5093046,13.6722507 12.3558154,13.7489955 12.1255837,13.7489955 L3.45348625,13.7489955 L3.45349914,13.7489955 Z M1.15115027,12.5978307 L11.6651269,12.5978307 C11.3581492,9.91177584 9.13256727,7.91643367 6.36976474,7.91643367 C3.68370985,7.83968941 1.45812474,9.91179195 1.15115027,12.5978307 L1.15115027,12.5978307 Z M15.8860702,4.07921241 L11.8953698,4.07921241 C11.5883921,4.07921241 11.281416,3.84897914 11.281416,3.46525862 C11.281416,3.0815365 11.5116493,2.85130483 11.8953698,2.85130483 L15.8860702,2.85130483 C16.1930479,2.85130483 16.500024,3.08153811 16.500024,3.46525862 C16.500024,3.84898075 16.2697908,4.07921241 15.8860702,4.07921241 L15.8860702,4.07921241 Z M15.8860702,7.3024686 L11.8953698,7.3024686 C11.5883921,7.3024686 11.281416,7.07223533 11.281416,6.68851481 C11.281416,6.30479269 11.5116493,6.07456102 11.8953698,6.07456102 L15.8860702,6.07456102 C16.1930479,6.07456102 16.500024,6.3047943 16.500024,6.68851481 C16.500024,7.07223694 16.2697908,7.3024686 15.8860702,7.3024686 L15.8860702,7.3024686 Z M15.8860702,10.4489771 L13.2000154,10.4489771 C12.8930377,10.4489771 12.5860616,10.2187439 12.5860616,9.83502336 C12.5860616,9.45130123 12.8162948,9.22106957 13.2000154,9.22106957 L15.8860702,9.22106957 C16.1930479,9.22106957 16.500024,9.45130284 16.500024,9.83502336 C16.500024,10.2187455 16.2697908,10.4489771 15.8860702,10.4489771 L15.8860702,10.4489771 Z" id="形状" fill="#FFFFFF"></path>
                    </g>
                </g>
            </g>
        </g>
    </g>
</svg>