<?xml version="1.0" encoding="UTF-8"?>
<svg width="20px" height="20px" viewBox="0 0 20 20" version="1.1" xmlns="http://www.w3.org/2000/svg" xmlns:xlink="http://www.w3.org/1999/xlink">
    <!-- Generator: Sketch 54.1 (76490) - https://sketchapp.com -->
    <title>物理平台设置</title>
    <desc>Created with Sketch.</desc>
    <g id="统计查询/敏感指标" stroke="none" stroke-width="1" fill="none" fill-rule="evenodd">
        <g id="系统设置与统计查询" transform="translate(-257.000000, -560.000000)" fill-rule="nonzero">
            <g id="icon-rgb_dmv复制-3" transform="translate(257.000000, 560.000000)">
                <g id="物流" transform="translate(1.000000, 3.000000)">
                    <path d="M16.7631155,12.7348507 L15.3826203,12.7348507 L15.3826202,12.7348507 C15.0833493,13.9953289 13.8189236,14.7745347 12.5584469,14.4752765 C11.6960921,14.27053 11.0227804,13.5972126 10.8180211,12.7348507 L7.18253513,12.7348507 L7.18253513,12.7348507 C6.8832642,13.9953289 5.61883852,14.7745347 4.35836177,14.4752765 C3.49600699,14.27053 2.82269532,13.5972126 2.617936,12.7348507 L1.23861933,12.7348507 L1.23861933,12.7348507 C0.968277395,12.7348507 0.749121031,12.5156944 0.749121031,12.2453524 C0.749121043,11.9750105 0.968277395,11.7558541 1.23861933,11.7558541 L2.56372306,11.7558541 L2.56372298,11.7558545 C2.86393109,10.4953763 4.12912355,9.71692313 5.3896003,10.0171327 C6.25079781,10.2222441 6.9232078,10.8946555 7.12832211,11.7558545 L10.7638081,11.7558545 L10.7638081,11.7558544 C11.0635604,10.4952683 12.3284703,9.71635503 13.5890465,10.0161102 C14.4509128,10.2210527 15.1238467,10.8939866 15.3287906,11.7558544 L16.2205743,11.7558544 L16.2205743,8.68764538 L10.8042644,8.68764538 L10.8042644,8.68764538 C10.5376258,8.69048601 10.3191694,8.47663537 10.3163281,8.20999671 C10.3162888,8.20630891 10.3162918,8.20262079 10.316337,8.19893305 L10.316337,0.977844522 L3.53485621,0.977844522 L3.53485619,0.977844522 C3.26494735,0.977890521 3.04610622,0.759124088 3.04606078,0.489215245 C3.04601478,0.219306403 3.26478121,0.000465271613 3.53469006,0.000419832653 C3.53474559,0.000419823188 3.53480113,0.00041982319 3.53485666,0.000419832658 L10.8580835,0.000419832658 L10.8580835,0.000419832638 C11.1255883,-0.00262852519 11.3449151,0.211755016 11.3479623,0.479259853 C11.3479998,0.482550514 11.3480038,0.485841488 11.3479742,0.489132234 L11.3479742,2.29626807 L13.209722,2.29626807 L13.209722,2.29626807 C13.3436286,2.2812407 13.4772339,2.32692858 13.5738996,2.42080348 L17.1964213,7.52792959 L17.1964213,7.54482238 L17.1964213,7.54482237 C17.1999858,7.56542724 17.2074529,7.58516166 17.2184213,7.60296507 L17.2184213,7.60296508 C17.2381232,7.63474239 17.2495997,7.67092671 17.2518141,7.70825041 L17.2518141,12.2465233 L17.2518141,12.2465279 C17.2528996,12.5151332 17.036033,12.7337599 16.7674277,12.7348447 C16.765984,12.7348506 16.7645403,12.73485 16.7630966,12.734843 L16.7631155,12.7348507 Z M4.90121819,10.9842864 L4.90121817,10.9842864 C4.17437514,10.9832017 3.58427215,11.5715452 3.58318871,12.2983882 C3.58210402,13.0252312 4.17044751,13.6153342 4.89729054,13.6164177 C5.62413356,13.6175024 6.21423656,13.0291589 6.21531999,12.3023158 C6.21532136,12.3013998 6.21532177,12.3004837 6.21532122,12.2995676 L6.21532127,12.2995629 C6.22272744,11.580568 5.64587028,10.9917033 4.92687542,10.9842967 C4.91832155,10.9842086 4.90976708,10.9842048 4.90121306,10.9842853 L4.90121819,10.9842864 Z M13.1005081,10.9842864 L13.1005081,10.9842864 C12.3736651,10.9836356 11.7839142,11.5723319 11.7832625,12.2991749 C11.7826117,13.0260179 12.3713079,13.6157687 13.098151,13.6164205 C13.824994,13.6170713 14.4147448,13.028375 14.4153966,12.301532 C14.4153972,12.3008775 14.4153973,12.300223 14.4153969,12.2995685 L14.4153969,12.2995633 C14.4230262,11.5807871 13.8465281,10.9919194 13.127752,10.9842914 C13.118669,10.984195 13.1095852,10.9841937 13.1005022,10.9842874 L13.1005081,10.9842864 Z M12.9649728,3.27488524 L11.3479706,3.27488524 L11.3479706,7.71022473 L16.1168463,7.71022473 L12.9649728,3.27488524 Z" id="形状" fill="#FFFFFF"></path>
                    <path d="M9.05252214,2.78617219 L9.05252215,2.78617346 C9.05448689,3.05412275 8.8388639,3.2729298 8.57091603,3.27489503 C8.56815404,3.27491529 8.56539191,3.27491195 8.56262997,3.27488503 L2.16654256,3.27488503 L2.16654255,3.27488503 C1.89231133,3.27180679 1.67249894,3.04700297 1.67557743,2.77277317 C1.67573484,2.75874991 1.67648625,2.7447396 1.67782964,2.7307799 L1.67782964,2.73077986 C1.65937375,2.50567099 1.82689925,2.30822309 2.05200811,2.28976635 C2.09366996,2.28635064 2.13560927,2.28934251 2.17636432,2.2986377 L8.56262556,2.2986377 L8.56262554,2.2986377 C8.83013037,2.29559438 9.04945287,2.50998282 9.05249586,2.77748766 C9.0525288,2.78038239 9.05253578,2.78327738 9.05251681,2.78617224 L9.05252214,2.78617219 Z" id="路径" fill="#F6C235"></path>
                    <path d="M1.25039711,7.76641 L7.63391781,7.76641 L7.63391779,7.76641 C7.90382663,7.76640999 8.12263084,7.98521422 8.12263084,8.25512306 C8.12263085,8.5250319 7.90382663,8.74383611 7.63391779,8.74383611 L1.23743279,8.74383611 L1.23743275,8.74383611 C0.956124413,8.72037555 0.742220509,8.48111372 0.750291604,8.19894488 L0.750291594,8.1989453 C0.75583962,7.96557364 0.937123818,7.77427278 1.16986075,7.75619659 L1.16986076,7.75619659 C1.19700103,7.75661205 1.2240115,7.76003776 1.2503962,7.76641084 L1.25039711,7.76641 Z" id="路径" fill="#F6C235"></path>
                    <path d="M8.12340901,5.51966643 L8.12340902,5.5196678 C8.1255907,5.78739841 7.91032159,6.00620404 7.64259098,6.00838653 C7.639697,6.00841011 7.63680288,6.00840778 7.63390895,6.00837953 L1.23742395,6.00837953 L1.23742392,6.00837953 C0.956798588,5.98514517 0.743073599,5.74694647 0.750282774,5.46545212 L0.750282777,5.46545202 C0.756013169,5.23172111 0.93755235,5.04017317 1.1706386,5.02191807 L1.17063861,5.02191807 C1.19804994,5.02215888 1.2253403,5.02558666 1.25195972,5.03213232 L7.63548041,5.03213232 L7.6354804,5.03213232 C7.9027765,5.02995543 8.12122714,5.24487753 8.12340395,5.51217364 C8.12342429,5.51467137 8.1234253,5.51716924 8.12340697,5.51966699 L8.12340901,5.51966643 Z" id="路径" fill="#F6C235"></path>
                </g>
            </g>
        </g>
    </g>
</svg>