<?xml version="1.0" encoding="UTF-8"?>
<svg width="20px" height="20px" viewBox="0 0 20 20" version="1.1" xmlns="http://www.w3.org/2000/svg" xmlns:xlink="http://www.w3.org/1999/xlink">
    <!-- Generator: Sketch 64 (93537) - https://sketch.com -->
    <title>晋升管理</title>
    <desc>Created with Sketch.</desc>
    <g id="页面-1" stroke="none" stroke-width="1" fill="none" fill-rule="evenodd">
        <g id="学习培训icon" transform="translate(-20.000000, -43.000000)" fill="#333333" fill-rule="nonzero">
            <g id="6_3职场晋升" transform="translate(24.000000, 45.000000)">
                <path d="M6.38570883,1.08333905 L6.38570899,1.08333905 C8.05636816,1.08608537 9.4084835,2.44264737 9.40573233,4.11330009 C9.40396825,5.18388064 8.83646458,6.17378833 7.91348831,6.71625869 L6.37500654,7.62375974 L4.847224,6.71472792 L4.84722392,6.71472788 C3.40859949,5.86367655 2.93227101,4.00753235 3.78332878,2.5689047 C4.32757966,1.64889972 5.31677354,1.0842204 6.3857073,1.08333905 M6.3857073,7.80556526 L8.09987238,8.37083996 L8.09987204,8.37083985 C9.82233547,8.9400889 11.1322823,10.3532753 11.5694523,12.1139111 L11.57709,12.1459766 L11.5877892,12.1765435 L11.5877892,12.1765434 C11.8147643,12.8746521 11.4328359,13.6245812 10.7347269,13.8515532 C10.6007234,13.8951216 10.4606445,13.9171048 10.3197369,13.9166853 L2.4302785,13.9166853 L2.43027851,13.9166853 C1.69620007,13.9152486 1.10227028,13.3189999 1.10369856,12.5849215 C1.10397038,12.4467697 1.1257762,12.3095049 1.16833287,12.1780703 L1.17903211,12.1475195 L1.18666981,12.1154379 L1.1866698,12.115438 C1.62306791,10.3531586 2.93568794,8.93952264 4.66084229,8.37389747 L6.38415973,7.80556526 M6.38415973,0.166667767 L6.38415989,0.166667767 C4.20639906,0.170206226 2.44382962,1.93850326 2.44737455,4.1162641 C2.44963081,5.50525634 3.1825068,6.79062072 4.37668441,7.50000876 L4.37668494,7.50000858 C2.34980905,8.16391844 0.807766238,9.82489996 0.295991717,11.8954268 L0.295991609,11.8954271 C-0.0862448709,13.0754041 0.560452757,14.3418289 1.74042972,14.7240686 C1.96473813,14.7967297 2.19908835,14.833615 2.43487105,14.833371 L10.3197533,14.833371 L10.3197532,14.833371 C11.5600954,14.8349368 12.5668657,13.8307126 12.5684305,12.5903655 C12.5687276,12.3538755 12.5316721,12.1188243 12.458632,11.8938955 L12.4586319,11.8938953 C11.9457327,9.82691344 10.4078117,8.16785585 8.38557641,7.5000079 L8.38557651,7.50000784 C10.2587476,6.39085851 10.8781107,3.97320931 9.76896455,2.10003818 C9.06089459,0.904221848 7.77542707,0.169648728 6.38570329,0.166667767 L6.38415973,0.166667767 Z M4.82278096,12.4576522 L6.37500738,13.8845977 L7.92723379,12.4576522 L6.61335531,9.37002167 L6.61335532,9.3700217 C6.57394557,9.27623375 6.59438996,9.16797219 6.66528848,9.095016 L6.66528843,9.09501607 C6.92261622,8.79221655 7.12901309,8.44959945 7.27640144,8.08057104 L7.27640149,8.08057108 C7.03196273,7.89506832 6.73526048,7.79135507 6.42848742,7.78418304 L6.31084421,7.78418304 L6.31084414,7.78418304 C6.00212459,7.79408421 5.70437175,7.90099722 5.45986854,8.08973955 L5.45986856,8.08973961 C5.60941916,8.45936743 5.81842977,8.80204093 6.07861928,9.10418464 L6.07861928,9.10418464 C6.14872793,9.17698679 6.16857372,9.28462621 6.1290378,9.37764346 L4.81515932,12.4652901 L4.82278096,12.4576522 Z" id="形状"></path>
            </g>
        </g>
    </g>
</svg>