<?xml version="1.0" encoding="UTF-8"?>
<svg width="20px" height="20px" viewBox="0 0 20 20" version="1.1" xmlns="http://www.w3.org/2000/svg" xmlns:xlink="http://www.w3.org/1999/xlink">
    <!-- Generator: Sketch 55.2 (78181) - https://sketchapp.com -->
    <title>教学计划</title>
    <desc>Created with Sketch.</desc>
    <g id="页面5" stroke="none" stroke-width="1" fill="none" fill-rule="evenodd">
        <g id="在教育icon" transform="translate(-26.000000, -113.000000)">
            <path d="M-609,275 L660.864185,275" id="直线-6复制" transform="translate(26.000000, 275.000000) rotate(-270.000000) translate(-26.000000, -275.000000) "></path>
            <path d="M36.3992426,127.878735 L36.3992551,127.878738 C36.3675143,127.972596 36.3061213,128.044033 36.2352463,128.103337 C36.2672284,128.267266 36.2889249,128.43457 36.2889249,128.605891 C36.2889249,129.101294 36.1492634,129.5709 35.9005577,129.992214 C35.8864952,130.0479 35.847763,130.137017 35.7903076,130.266794 C35.684878,130.543063 35.4937894,130.850831 35.258101,130.850831 L29.0000458,130.850831 C28.8292066,130.850831 28.6032415,130.470579 28.4914645,130.155821 C28.1785532,129.694088 28,129.166463 28,128.605971 C28,127.305471 28.95826,126.185048 30.3437789,125.654208 C29.9636892,125.252101 29.7269571,124.713145 29.7269571,124.116171 C29.7269571,122.876425 30.7319797,121.871316 31.9718118,121.871316 C33.2117177,121.871316 34.216745,122.876419 34.216745,124.116171 C34.216745,124.668949 34.0093433,125.168531 33.6777896,125.559629 C34.4966252,125.818057 35.185045,126.277379 35.6494298,126.860612 L36.523073,124.275354 C36.5230944,124.27529 36.5231158,124.275227 36.5231371,124.275164 C36.6147067,124.004094 36.9086839,123.85858 37.1797531,123.950148 C37.45075,124.041872 37.5960927,124.335902 37.5043963,124.606909 L36.3992426,127.878735 Z M31.9717943,122.6396 C31.1564101,122.6396 30.4951497,123.300379 30.4952301,124.116165 C30.4952301,124.931469 31.1564901,125.592809 31.9717943,125.592809 C32.7870985,125.592809 33.4483585,124.931469 33.4483585,124.116165 C33.4483585,123.300379 32.7871786,122.6396 31.9717943,122.6396 Z M32.1444861,126.223047 C30.2908063,126.223047 28.788206,127.308354 28.788206,128.647026 C28.788206,129.129973 28.9859664,129.579411 29.3236269,129.95709 C29.3319037,129.956689 29.3392966,129.952349 29.3476537,129.952349 L34.9413963,129.952349 C34.9498338,129.952349 34.9567445,129.956689 34.9654231,129.95709 C35.3030035,129.579411 35.5007624,129.129973 35.5007624,128.647026 C35.5007624,127.308351 33.9980821,126.223047 32.1444823,126.223047 Z M38.8142914,118.971526 C39.0933099,118.976462 39.3182984,119.201486 39.3231913,119.480505 C39.3282089,119.766624 39.1003318,120.002636 38.814213,120.007653 L32.9429868,120.007653 C32.6639699,120.00274 32.4389623,119.777734 32.4340477,119.498715 C32.4290081,119.212598 32.6568664,118.976568 32.9429853,118.971526 L38.8142899,118.971526 Z M38.7339326,122.079831 C39.0113393,122.085817 39.2347949,122.309272 39.2407796,122.586679 C39.2469524,122.872774 39.0200295,123.109705 38.7339327,123.115877 L36.6615949,123.115877 C36.380525,123.112376 36.1535245,122.885376 36.1500237,122.604306 C36.146461,122.318209 36.375498,122.083394 36.6615949,122.079831 L38.7339327,122.079831 Z M39.3084006,116 C40.834226,116 42.0712456,117.23702 42.0712456,118.762923 L42.0712456,127.742531 C42.0712456,129.268353 40.8341459,130.505533 39.3083221,130.505533 L36.9303914,130.505533 C36.6444813,130.505533 36.4124089,130.273382 36.4124089,129.98747 C36.4124089,129.70156 36.6443996,129.469408 36.9303914,129.469408 L38.9631312,129.469408 C40.1074921,129.469408 41.0352964,128.54153 41.0352964,127.397243 L41.0352964,119.108315 C41.0352964,117.963538 40.1074983,117.036056 38.9631312,117.036056 L32.1445843,117.036056 C31.0001293,117.036056 30.072325,117.963626 30.072325,119.108315 L30.072325,121.698628 C30.0722371,121.984709 29.8403437,122.216601 29.5542626,122.21669 C29.2681814,122.216612 29.0361812,121.984726 29.0361812,121.698645 L29.0361812,121.698627 L29.0361812,118.762935 C29.0361812,117.237191 30.2732809,116 31.7991047,116 L39.30841,116 Z" id="形状结合" fill="#333333" fill-rule="nonzero"></path>
        </g>
    </g>
</svg>