<?xml version="1.0" encoding="UTF-8"?>
<svg width="20px" height="20px" viewBox="0 0 20 20" version="1.1" xmlns="http://www.w3.org/2000/svg" xmlns:xlink="http://www.w3.org/1999/xlink">
    <!-- Generator: Sketch 55.2 (78181) - https://sketchapp.com -->
    <title>考试管理</title>
    <desc>Created with Sketch.</desc>
    <g id="页面5" stroke="none" stroke-width="1" fill="none" fill-rule="evenodd">
        <g id="在教育icon" transform="translate(-26.000000, -165.000000)">
            <path d="M-609,275 L660.864185,275" id="直线-6复制" transform="translate(26.000000, 275.000000) rotate(-270.000000) translate(-26.000000, -275.000000) "></path>
            <path d="M38.5310756,182.355026 C38.5310756,182.611055 38.3214201,182.829588 38.0627837,182.829588 L30.5701733,182.829588 C29.2791941,182.829588 28,181.960931 28,180.683925 L28,170.493248 C28,169.216227 29.2791941,168 30.5701884,168 L39.4676444,168 C40.7586537,168 41.5728002,169.216257 41.5728002,170.493233 L41.5728002,170.956451 C41.5728002,171.212495 41.3716402,171.419669 41.113049,171.419669 C40.8544578,171.419669 40.6532676,171.212495 40.6532676,170.956451 L40.6532676,170.493233 C40.6532676,169.72694 40.2423314,168.909555 39.4676444,168.909555 L30.5701884,168.909555 C29.7955013,168.909555 28.9195175,169.72697 28.9195175,170.493233 L28.9195175,180.683925 C28.9195175,181.450218 29.7955013,181.880464 30.5701733,181.880464 L38.0627837,181.880464 C38.321405,181.880464 38.5310756,182.098998 38.5310756,182.355026 Z M38.0627837,172.172052 C38.0627837,171.917262 37.8520568,171.717267 37.5944918,171.717267 L31.5067722,171.717267 C31.2492373,171.717267 31.0384803,171.917262 31.0384803,172.172052 C31.0384803,172.426796 31.2492071,172.626821 31.5067722,172.626821 L37.5944918,172.626821 C37.8520418,172.626821 38.0627837,172.426826 38.0627837,172.172052 Z M36.3955745,175.394995 C36.3955745,175.143802 36.1897216,174.940225 35.9357931,174.940225 L31.258276,174.940225 C31.0043174,174.940225 30.7985248,175.143817 30.7985248,175.394995 C30.7985248,175.646172 31.0043475,175.849779 31.258276,175.849779 L35.9357781,175.849779 C36.1897216,175.849779 36.3955745,175.646172 36.3955745,175.394995 L36.3955745,175.394995 Z M31.5067873,178.202752 C31.2492524,178.202752 31.0384954,178.402732 31.0384954,178.657522 C31.0384954,178.912266 31.2492222,179.112291 31.5067873,179.112291 L34.3164785,179.112291 C34.5740587,179.112291 34.7847855,178.912266 34.7847855,178.657522 C34.7847855,178.402717 34.5740738,178.202722 34.3164936,178.202722 L31.5067722,178.202722 L31.5067873,178.202752 Z M42.9920564,174.198933 L42.9920564,180.83862 C42.9920564,181.038122 43.0364652,181.235804 42.9152803,181.395036 L41.8009556,182.629055 C41.6221433,182.865187 41.3766349,183 41.0789162,183 C40.7812278,183 40.5218369,182.865187 40.3430397,182.629503 L40.3499809,182.629055 L39.0708773,181.394589 C38.9499037,181.235819 38.7743206,181.038122 38.7743206,180.83862 L38.7743206,174.198963 C38.7743206,173.432654 39.6295713,172.626821 40.4042433,172.626821 L41.8090889,172.626821 C42.5837911,172.626821 42.9920413,173.432669 42.9920413,174.198963 L42.9920564,174.198933 Z M39.6938079,174.940225 L42.0325665,174.940225 L42.0325665,174.198933 C42.0325665,173.943352 42.0672425,173.536361 41.8090889,173.536361 L40.4042433,173.536361 C40.1461048,173.536361 39.6938079,173.943352 39.6938079,174.198933 L39.6938079,174.940225 L39.6938079,174.940225 Z M42.0325665,180.839082 L42.0325665,175.889319 L39.6937928,175.889319 L39.6937928,180.83862 L40.9848776,182.073101 L40.9239154,182.07446 L42.0325665,180.839082 L42.0325665,180.839082 Z" id="形状" fill="#333333" fill-rule="nonzero"></path>
        </g>
    </g>
</svg>