<?xml version="1.0" encoding="UTF-8"?>
<svg width="20px" height="20px" viewBox="0 0 20 20" version="1.1" xmlns="http://www.w3.org/2000/svg" xmlns:xlink="http://www.w3.org/1999/xlink">
    <!-- Generator: Sketch 55.2 (78181) - https://sketchapp.com -->
    <title>练习管理</title>
    <desc>Created with Sketch.</desc>
    <g id="页面5" stroke="none" stroke-width="1" fill="none" fill-rule="evenodd">
        <g id="在教育icon" transform="translate(-26.000000, -141.000000)">
            <path d="M-609,275 L660.864185,275" id="直线-6复制" transform="translate(26.000000, 275.000000) rotate(-270.000000) translate(-26.000000, -275.000000) "></path>
            <path d="M38.2928691,148.305364 L35.6476279,145.660123 L30.4357171,150.872034 L29.859526,154.093466 L33.0809583,153.517275 L38.2928691,148.305364 Z M36.3809621,144.926789 L39.0262033,147.57203 L40.8333483,145.764885 L38.1881071,143.119644 L36.3809621,144.926789 Z M39.507713,148.583379 C39.4842108,148.623999 39.4546601,148.662623 39.4190609,148.698222 C39.3834617,148.733821 39.3448383,148.763372 39.3042183,148.786874 L33.945245,154.145847 L33.7095305,154.381562 C33.6309589,154.460134 33.5261969,154.512515 33.4214349,154.538705 L29.3095253,155.272039 L29.2047633,155.272039 C29.0738108,155.272039 28.9428582,155.219658 28.8380962,155.114896 C28.7071437,154.983944 28.6547627,154.826801 28.6809532,154.643467 L29.4142874,150.505367 C29.4404779,150.400605 29.4928589,150.295843 29.5714304,150.217271 L37.5857254,142.255357 C37.926202,141.914881 38.4762027,141.914881 38.8166793,142.255357 L41.7238255,145.162504 C41.8809685,145.319647 41.9857306,145.555361 41.9857306,145.764885 C41.9857306,146.0006 41.907159,146.210124 41.7238255,146.367267 L39.507713,148.583379 Z M41.4357299,157.576804 L28.5238101,157.576804 C28.2357146,157.576804 28,157.341089 28,157.052994 C28,156.764898 28.2357146,156.529184 28.5238101,156.529184 L41.4357299,156.529184 C41.7238255,156.529184 41.9595401,156.764898 41.9595401,157.052994 C41.9595401,157.341089 41.7238255,157.576804 41.4357299,157.576804 Z" id="形状结合" fill="#333333" fill-rule="nonzero"></path>
        </g>
    </g>
</svg>