<?xml version="1.0" encoding="UTF-8"?>
<svg width="20px" height="20px" viewBox="0 0 20 20" version="1.1" xmlns="http://www.w3.org/2000/svg" xmlns:xlink="http://www.w3.org/1999/xlink">
    <!-- Generator: Sketch 55.2 (78181) - https://sketchapp.com -->
    <title>培训管理</title>
    <desc>Created with Sketch.</desc>
    <g id="页面5" stroke="none" stroke-width="1" fill="none" fill-rule="evenodd">
        <g id="在教育icon" transform="translate(-25.000000, -248.000000)">
            <path d="M-609,275 L660.864185,275" id="直线-6复制" transform="translate(26.000000, 275.000000) rotate(-270.000000) translate(-26.000000, -275.000000) "></path>
            <path d="M41.9948791,255.064355 C41.9948791,254.200233 42.0603549,253.482505 41.7230562,252.946155 C41.4833082,252.564761 41.1015812,252.310672 40.6132735,252.175913 C40.4293839,252.125179 40.1924557,252.14195 39.9677465,252.14195 L35.4378794,252.14195 L35.4378794,250.918628 C35.4378794,250.724288 35.397664,250.466069 35.3376767,250.322698 C35.2669473,250.153708 35.1658047,250.018244 34.9849027,250.001137 C34.7898347,249.990644 34.7380046,250.054691 34.6631631,250.114424 C34.4819254,250.301209 34.4479874,250.541112 34.4479874,250.929977 L34.4479874,252.142034 L29.9907295,252.142034 C29.8738599,252.142034 29.7263085,252.132062 29.6283549,252.153383 L29.4471004,252.164732 C29.1522661,252.238567 28.9310649,252.342318 28.7223177,252.493243 C28.6388825,252.553597 28.5345509,252.615814 28.473204,252.697136 C28.2875688,252.942966 28.1381376,253.178924 28.0428359,253.524022 C27.9928185,253.705133 28.0088811,253.937045 28.0088811,254.15838 L28.0088811,258.598673 C28.0088811,259.372877 27.9413408,260.258219 28.1787725,260.79613 C28.357694,261.201497 28.7363326,261.509376 29.1526858,261.679659 L29.4471004,261.758899 C29.507692,261.77379 29.5821139,261.753325 29.6283549,261.781597 L32.6360137,261.781597 C32.6109211,261.873579 32.5521422,261.9524 32.5114065,262.030784 C32.4245306,262.197977 32.3466679,262.366783 32.2622929,262.529158 C31.9963109,263.040862 31.7557741,263.562774 31.4922259,264.069643 C31.3179369,264.404802 31.2665432,264.789705 31.5987731,264.94184 C31.8674909,265.064931 32.0877522,264.919411 32.2036818,264.749313 C32.2718264,264.649255 32.3051602,264.530126 32.362227,264.420785 C32.6538051,263.861822 32.9170345,263.285063 33.211617,262.721702 C33.3717231,262.415435 33.5490836,262.101445 33.6872861,261.781513 L36.2826368,261.781513 C36.3196632,261.80181 36.3412311,261.911739 36.3618591,261.95146 C36.4464187,262.113818 36.523929,262.282808 36.6109895,262.449817 C36.9261161,263.054427 37.2255157,263.679754 37.5396185,264.2848 C37.6673979,264.530898 37.7655361,265.092094 38.2124033,264.98705 C38.4721918,264.926025 38.6939973,264.675377 38.5794439,264.296048 C38.5196244,264.098115 38.3887399,263.907637 38.2962916,263.729699 C38.1082562,263.367745 37.9383648,262.999412 37.7526457,262.642277 C37.6462664,262.437696 37.5507801,262.230463 37.4468848,262.030616 C37.4077772,261.955405 37.3875856,261.864732 37.3336239,261.804042 L37.3336239,261.781345 L39.5372945,261.781345 C39.8862919,261.781345 40.3177678,261.828352 40.6131392,261.747399 C40.9586791,261.652579 41.1939792,261.502594 41.4398367,261.316933 C41.5211234,261.255555 41.5833431,261.151116 41.6436829,261.067746 C41.7946583,260.859136 41.89805,260.637196 41.9721195,260.342798 C42.0070142,260.204144 41.994812,260.040913 41.994812,259.87837 L41.9948959,255.064355 L41.9948791,255.064355 Z M40.9694043,260.446801 C40.9044488,260.552348 40.783702,260.666156 40.6649358,260.716268 C40.4933995,260.788642 40.2100793,260.763107 39.9739232,260.763107 L30.0418715,260.763107 C29.6007614,260.763107 29.2640668,260.768446 29.0814529,260.51711 C28.9519447,260.33892 28.9526328,260.083891 28.9526328,259.767316 L28.9526328,254.964298 C28.9526328,254.56865 28.8891208,253.71304 29.0346077,253.476494 C29.09958,253.370947 29.2203268,253.257224 29.3390762,253.207027 L29.538206,253.160188 L39.8215546,253.160188 C40.2000254,253.160188 40.5888858,253.1319 40.8053538,253.289021 C41.1078418,253.50856 41.0512952,253.970302 41.0512952,254.483971 L41.0512952,259.521402 C41.0513959,259.837641 41.0929876,260.246014 40.9694043,260.446801 L40.9694043,260.446801 Z M38.9145943,255.345171 C38.790927,255.296435 38.5872654,255.313358 38.4163334,255.313442 L31.1232047,255.313442 C31.0889142,255.334427 31.0395849,255.329172 30.9985975,255.345171 C30.8959946,255.385396 30.7942477,255.471872 30.7381208,255.55687 C30.5259495,255.87818 30.7889942,256.230077 31.0665742,256.308377 C31.2274524,256.353772 31.4831119,256.318954 31.6667498,256.318954 L38.359619,256.318954 C38.5452374,256.318954 38.7785569,256.340443 38.9145104,256.287241 C39.0834618,256.221062 39.1968067,256.077774 39.242947,255.895623 C39.2801579,255.748558 39.2030841,255.618768 39.1523785,255.546311 C39.0914512,255.45923 39.0212422,255.387192 38.9145943,255.345171 L38.9145943,255.345171 Z M38.9145943,257.530843 C38.790927,257.482963 38.5872654,257.499734 38.4163334,257.499734 L31.1232047,257.499734 C31.0889142,257.52035 31.0395849,257.515112 30.9985975,257.530843 C30.8959946,257.570295 30.7942477,257.655143 30.7381208,257.738513 C30.5259495,258.053795 30.7889942,258.398994 31.0665742,258.475934 C31.2274524,258.520457 31.4831119,258.486326 31.6667498,258.486326 L38.359619,258.486326 C38.5452374,258.486326 38.7785569,258.507479 38.9145104,258.455218 C39.0834618,258.390314 39.1968067,258.249697 39.242947,258.070986 C39.2801579,257.926675 39.2030841,257.79937 39.1523785,257.728289 C39.0914512,257.642753 39.0212422,257.572108 38.9145943,257.53086 L38.9145943,257.530843 Z" id="形状" fill="#333333" fill-rule="nonzero"></path>
        </g>
    </g>
</svg>