<?xml version="1.0" encoding="UTF-8"?>
<svg width="20px" height="20px" viewBox="0 0 20 20" version="1.1" xmlns="http://www.w3.org/2000/svg" xmlns:xlink="http://www.w3.org/1999/xlink">
    <!-- Generator: Sketch 55.2 (78181) - https://sketchapp.com -->
    <title>人员管理</title>
    <desc>Created with Sketch.</desc>
    <g id="页面5" stroke="none" stroke-width="1" fill="none" fill-rule="evenodd">
        <g id="在教育icon" transform="translate(-26.000000, -61.000000)">
            <path d="M-609,275 L660.864185,275" id="直线-6复制" transform="translate(26.000000, 275.000000) rotate(-270.000000) translate(-26.000000, -275.000000) "></path>
            <path d="M38.1135674,70.0673109 C38.913842,69.4447911 39.4301642,68.4805446 39.4301642,67.3968732 C39.4301642,65.5237666 37.8920404,64 36.001052,64 C34.1101792,64 32.5720297,65.5236776 32.5720297,67.3968732 C32.5720297,68.4805535 33.088873,69.4448025 33.8886265,70.0673109 C31.7811809,70.9016241 30.2860148,72.9412293 30.2860148,75.3229871 L30.2860148,77 L41.7161919,77 L41.7161919,75.3229871 C41.7161919,72.9406317 40.2215521,70.9016279 38.1135545,70.0673109 M36.001129,65.1322911 C37.2618692,65.1322911 38.2871182,66.1479469 38.2871182,67.3968605 C38.2871182,68.6458695 37.2618731,69.661519 36.001129,69.661519 C34.740299,69.661519 33.7150371,68.6458632 33.7150371,67.3968605 C33.7150371,66.1479405 34.7403054,65.1322911 36.001129,65.1322911 M40.5731459,75.8891581 L31.4290223,75.8891581 L31.4290223,75.3229757 C31.4290223,72.8256188 33.4800722,70.7937986 36.0016424,70.7937986 C38.5226351,70.7937986 40.5731459,72.8256188 40.5731459,75.3229757 L40.5731459,75.8891581 M32.175232,70.2641548 C32.1908824,70.2299092 32.1908824,70.1934013 32.1986739,70.1580246 C32.2042266,70.1364881 32.2104061,70.1159718 32.2132272,70.0933041 C32.2176603,70.0485676 32.2149288,70.0059825 32.2087269,69.9623105 C32.2065327,69.9390883 32.2120853,69.9169529 32.2065327,69.8937528 C32.2031742,69.8804449 32.1937258,69.8710851 32.1897629,69.8577551 C32.1808742,69.8323814 32.1686271,69.8096916 32.1563127,69.7859592 C32.1328035,69.7372969 32.1071898,69.6930705 32.0719931,69.6538124 C32.0669555,69.6483118 32.0608655,69.644386 32.0552904,69.6388632 L32.0552904,69.6388632 C32.0043771,69.5860692 31.9432657,69.5439577 31.8755905,69.5150336 C31.2571874,69.2419124 30.8575764,68.6336988 30.8575764,67.9636514 C30.8575764,67.1752282 31.3966968,66.4962604 32.1690778,66.3121944 C32.4760852,66.2386464 32.664695,65.9328764 32.5910777,65.628769 C32.5162739,65.3247289 32.2064679,65.1400603 31.9011623,65.2108133 C30.6136233,65.5182468 29.7145137,66.6505506 29.7145137,67.9636527 C29.7145137,68.6801915 29.9896603,69.3519095 30.4573582,69.8627475 C28.9700085,70.6263079 28,72.1533433 28,73.8811374 L28,74.7568601 C28,75.0698167 28.2556224,75.3230425 28.5714511,75.3230425 C28.8873696,75.3230425 29.142992,75.0698167 29.142992,74.7568601 L29.142992,73.8811374 C29.142992,72.3153117 30.2056504,70.9718349 31.7304043,70.591459 C31.9201115,70.5649099 32.0926471,70.4504617 32.1752205,70.264153 M41.5426295,69.8627653 C42.0103274,69.351921 42.2854072,68.6801406 42.2854072,67.9635815 C42.2854072,66.6847827 41.4158817,65.5602093 40.170787,65.229038 C39.8666238,65.1483037 39.5529218,65.3269173 39.4702817,65.6287842 C39.3882683,65.9312273 39.5691097,66.2413665 39.8738779,66.3227003 C40.6206177,66.5211208 41.1424101,67.1962501 41.1424101,67.9636425 C41.1424101,68.6336709 40.7434266,69.2407503 40.1255614,69.5144907 C40.0564221,69.5443668 39.9955227,69.5857764 39.9431083,69.6399616 C39.938608,69.6449521 39.933033,69.648279 39.9285326,69.6532695 C39.8928435,69.6924833 39.8671849,69.7378409 39.8431608,69.7870577 C39.8314958,69.8107901 39.8186665,69.8329476 39.8102703,69.8578112 C39.8063745,69.870498 39.7968365,69.8804789 39.7935676,69.8937203 C39.7879926,69.9169203 39.7935676,69.9390556 39.7912615,69.9622779 C39.7851715,70.0059499 39.7823952,70.048535 39.7868283,70.0933606 C39.7896494,70.1159618 39.7957618,70.1364558 39.8013368,70.1580145 C39.8091284,70.193369 39.8091284,70.2298992 39.8247564,70.2642112 C39.9073966,70.4504551 40.0798641,70.5649913 40.2695726,70.5914295 C41.7943483,70.9719008 42.8569849,72.3153076 42.8569849,73.8811079 L42.8569849,74.7569425 C42.8569849,75.0698101 43.1126304,75.3230359 43.4285258,75.3230359 C43.7443545,75.3230359 44,75.0698101 44,74.7569425 L44,73.8811308 C44,72.153324 43.0299903,70.6262898 41.5426161,69.8627536" id="形状" fill="#333333" fill-rule="nonzero"></path>
        </g>
    </g>
</svg>