<?xml version="1.0" encoding="UTF-8"?>
<svg width="20px" height="20px" viewBox="0 0 20 20" version="1.1" xmlns="http://www.w3.org/2000/svg" xmlns:xlink="http://www.w3.org/1999/xlink">
    <!-- Generator: Sketch 55.2 (78181) - https://sketchapp.com -->
    <title>视频学习</title>
    <desc>Created with Sketch.</desc>
    <g id="页面5" stroke="none" stroke-width="1" fill="none" fill-rule="evenodd">
        <g id="在教育icon" transform="translate(-26.000000, -196.000000)">
            <path d="M-609,275 L660.864185,275" id="直线-6复制" transform="translate(26.000000, 275.000000) rotate(-270.000000) translate(-26.000000, -275.000000) "></path>
            <path d="M38.4377916,206.778112 L35.6266984,205.143933 C35.5517359,205.061475 35.4467878,205.009001 35.3268479,205.009001 C35.1094563,205.009001 34.9295472,205.188912 34.9295472,205.406302 L34.9295472,205.42879 L34.9220509,205.42879 L34.9295472,208.772117 L34.9295472,208.817095 C34.9295472,209.034486 35.1094578,209.214395 35.3268479,209.214395 C35.4018104,209.214395 35.4692767,209.191906 35.5292468,209.161921 L38.4003107,207.490258 C38.5352431,207.430288 38.6251978,207.287859 38.6251978,207.130438 C38.6326941,206.980513 38.5577315,206.845581 38.4377916,206.778114 L38.4377916,206.778112 Z M38.0779719,211.920528 C37.7781213,211.920528 37.5382415,212.160408 37.5382415,212.460258 C37.5382415,212.760109 37.7781213,212.999988 38.0779719,212.999988 C38.3778224,212.999988 38.6177022,212.760109 38.6177022,212.460258 C38.6177022,212.160408 38.3778224,211.920528 38.0779719,211.920528 Z M41.8485815,198 L31.1439302,198 C29.9670193,198 29,198.967016 29,200.143929 L29,210.848571 C29,212.025481 29.9670164,212.9925 31.1439302,212.9925 L35.9265416,212.9925 C36.2263921,212.9925 36.466272,212.75262 36.466272,212.45277 C36.466272,212.15292 36.2263921,211.91304 35.9265416,211.91304 L31.1439302,211.91304 C30.5517263,211.91304 30.0719666,211.418288 30.0719666,210.826085 L30.0719666,202.28037 L42.9280334,202.28037 L42.9280334,210.833585 C42.9280334,211.425788 42.4482737,211.92054 41.8560698,211.92054 L40.2518757,211.92054 C39.9520252,211.92054 39.7121454,212.16042 39.7121454,212.46027 C39.7121454,212.76012 39.9520252,213 40.2518757,213 L41.8560698,213 C43.0329807,213 44,212.032984 44,210.856071 L44,200.143943 C43.9925038,198.967033 43.025488,198 41.8485698,198 L41.8485815,198 Z M30.1019578,201.215886 L30.0719727,201.215886 L30.0719727,200.136426 C30.0719727,199.694147 30.3493335,199.304342 30.731643,199.146922 L31.9235466,201.215886 L30.1019552,201.215886 L30.1019578,201.215886 Z M33.2129045,201.215886 L31.9685273,199.064457 L33.5802213,199.064457 L34.8171029,201.208386 L33.2129088,201.208386 L33.2129045,201.215886 Z M36.0989537,201.215886 L34.8620721,199.064457 L36.3838101,199.064457 L37.6206917,201.215886 L36.0989537,201.215886 Z M38.9025469,201.215886 L37.6656653,199.071957 L39.1874033,199.071957 L40.4242849,201.215886 L38.9025469,201.215886 Z M42.9280393,201.215886 L41.7136474,201.215886 L40.4692702,199.064457 L41.84858,199.064457 C42.440784,199.064457 42.9205437,199.544216 42.9205437,200.13642 L42.9205437,201.215886 L42.9280393,201.215886 Z" id="形状" fill="#333333" fill-rule="nonzero"></path>
        </g>
    </g>
</svg>