<?xml version="1.0" encoding="UTF-8"?>
<svg width="20px" height="20px" viewBox="0 0 20 20" version="1.1" xmlns="http://www.w3.org/2000/svg" xmlns:xlink="http://www.w3.org/1999/xlink">
    <!-- Generator: Sketch 64 (93537) - https://sketch.com -->
    <title>通知管理</title>
    <desc>Created with Sketch.</desc>
    <g id="页面-1" stroke="none" stroke-width="1" fill="none" fill-rule="evenodd">
        <g id="学习培训icon" transform="translate(-20.000000, -13.000000)" fill="#333333" fill-rule="nonzero">
            <g id="通知" transform="translate(22.000000, 16.000000)">
                <path d="M8.46269589,0.357441154 C9.0540679,0.377869649 9.52267427,0.856955754 9.5223206,1.44076477 L9.5223206,1.44076477 L9.5223206,1.45313743 L9.49984488,11.8580584 C9.49929929,12.0969404 9.41874052,12.3289467 9.2707027,12.5179784 C8.89992531,12.9914295 8.21033357,13.0786887 7.73045556,12.7128771 L7.73045556,12.7128771 L4.07207632,9.92447543 L2.09903481,9.92447543 C1.11405989,9.92334131 0.315864007,9.13582816 0.314736168,8.16403979 L0.314736168,8.16403979 L0.314736168,5.22973849 C0.315868536,4.25795012 1.11407192,3.47043912 2.09905198,3.46931978 L2.09905198,3.46931978 L4.04773071,3.46931978 L7.73646049,0.595944036 C7.92427517,0.446612795 8.15687617,0.362757653 8.39802988,0.357441154 L8.39802988,0.357441154 Z M10.914773,0.609485711 C10.9919268,0.609485711 11.068112,0.626441082 11.1378125,0.659082123 L11.1378125,0.659082123 C13.7302175,1.45668722 15.6102687,3.84357802 15.6102687,6.66431046 C15.6102687,9.46473039 13.7568107,11.8374024 11.1940871,12.65532 C11.1295794,12.6823917 11.0601927,12.6962837 10.9900917,12.6962837 L10.9900917,12.6962837 L10.9033946,12.6891632 C10.649356,12.6470004 10.454797,12.4226739 10.454797,12.1524158 C10.4525391,11.9165993 10.6051874,11.7064395 10.8322484,11.6327537 L10.8322484,11.6327537 L11.0436503,11.5614387 C13.0675708,10.8308253 14.5122282,8.91420458 14.5122282,6.66431047 C14.5122282,4.3315864 12.958844,2.35636275 10.8168072,1.69095833 L10.8168072,1.69095833 C10.5676893,1.64153119 10.3789635,1.41995541 10.3789635,1.15352281 C10.3789635,0.853066732 10.6186452,0.60965499 10.9142583,0.60965499 L10.9142583,0.60965499 Z M8.4242816,1.44077501 L4.4296446,4.5528229 L2.09905365,4.5528229 C1.72050419,4.55393839 1.41390856,4.85642573 1.41277662,5.22990533 L1.41277662,5.22990533 L1.41277662,8.1640518 C1.41390726,8.5375314 1.72050247,8.84002049 2.09905193,8.84113592 L2.09905193,8.84113592 L4.44748776,8.84113518 L8.40180609,11.855683 L8.4242816,1.44077501 Z M10.2943801,3.30343406 L10.4745186,3.35417052 C11.8997042,3.79671314 12.9337948,5.11011117 12.9337948,6.66312547 C12.9337948,8.28084871 11.8117347,9.63958727 10.29438,10.0241711 C10.1452403,9.96048113 10.0262953,9.84312857 9.9617406,9.69598668 C9.82153284,9.37640467 9.97045973,9.00519499 10.29438,8.86686502 L10.29438,8.86686502 L10.4762597,8.78693113 C11.0096034,8.52609043 11.4291607,8.07898218 11.6505457,7.52886216 C12.1437375,6.30330605 11.5365691,4.91534115 10.2943799,4.42874788 L10.2943799,4.42874788 C10.1495949,4.36505973 10.0341229,4.25113356 9.97145673,4.10828743 C9.83535805,3.79805426 9.97993566,3.43770958 10.2943801,3.30343406 L10.2943801,3.30343406 Z" id="形状结合"></path>
            </g>
        </g>
    </g>
</svg>