<?xml version="1.0" encoding="UTF-8"?>
<svg width="20px" height="20px" viewBox="0 0 20 20" version="1.1" xmlns="http://www.w3.org/2000/svg" xmlns:xlink="http://www.w3.org/1999/xlink">
    <!-- Generator: Sketch 55.2 (78181) - https://sketchapp.com -->
    <title>院内学习班</title>
    <desc>Created with Sketch.</desc>
    <g id="页面5" stroke="none" stroke-width="1" fill="none" fill-rule="evenodd">
        <g id="在教育icon" transform="translate(-26.000000, -87.000000)">
            <path d="M-609,275 L660.864185,275" id="直线-6复制" transform="translate(26.000000, 275.000000) rotate(-270.000000) translate(-26.000000, -275.000000) "></path>
            <path d="M44,94.1302408 C44,93.3968269 43.4924572,92.7695929 42.7638365,92.6050634 L35.8533392,91.0381482 C35.7368043,91.0131056 35.618995,91 35.5,91 C35.3809951,91 35.2631854,91.0131056 35.1418048,91.0393169 L28.2361552,92.605063 C27.5075361,92.7695926 27,93.3969097 27,94.1302405 C27,94.8635713 27.5075345,95.4920574 28.2361552,95.655418 L29.656845,95.9785507 L29.656845,100.390809 C29.656845,101.77533 31.269379,103 35.5011903,103 C39.7329934,103 41.3455357,101.776503 41.3455357,100.390809 L41.3455357,95.9786322 L42.7662255,95.6554995 C43.4924655,95.4921389 44,94.8636528 44,94.1302389 L44,94.1302408 Z M40.2818408,100.390891 C40.2818408,100.966871 38.6874971,101.956637 35.499995,101.956637 C32.3124963,101.956637 30.7193445,100.966871 30.7193445,100.390891 L30.7193445,96.2183795 L35.1466475,97.2236736 L35.1466473,97.2236736 C35.262821,97.2478976 35.381229,97.2602897 35.4999915,97.2606532 C35.6189915,97.2606532 35.7368011,97.2475475 35.8581817,97.2213363 L40.2818408,96.2184633 L40.2818408,100.390893 L40.2818408,100.390891 Z M35.6214686,96.2040159 C35.5801586,96.2135321 35.5401236,96.2182902 35.5000037,96.2182902 C35.4598837,96.2182902 35.4198487,96.2135321 35.3785387,96.2040159 L28.4753461,94.6394371 L28.4753461,94.6394371 C28.2338216,94.5847626 28.0626563,94.3736497 28.0625019,94.1302376 C28.0625019,93.8881591 28.2336922,93.6770497 28.4753461,93.621038 L35.3785387,92.0576282 C35.4198487,92.048112 35.4598836,92.0433539 35.5000036,92.0433539 C35.5401236,92.0433539 35.5801586,92.048112 35.6214686,92.0576282 L42.5259229,93.622207 C42.7675785,93.678219 42.9387671,93.8893281 42.9387671,94.1314066 L42.9387671,94.1313906 C42.9387671,94.3748027 42.7674606,94.5859203 42.5259379,94.6406032 L35.6214835,96.204013 L35.6214686,96.2040159 Z" id="形状" fill="#333333" fill-rule="nonzero"></path>
        </g>
    </g>
</svg>