<?xml version="1.0" encoding="UTF-8"?>
<svg width="20px" height="20px" viewBox="0 0 20 20" version="1.1" xmlns="http://www.w3.org/2000/svg" xmlns:xlink="http://www.w3.org/1999/xlink">
    <!-- Generator: Sketch 55.2 (78181) - https://sketchapp.com -->
    <title>晋级设置</title>
    <desc>Created with Sketch.</desc>
    <g id="页面5" stroke="none" stroke-width="1" fill="none" fill-rule="evenodd">
        <g id="在教育icon" transform="translate(-25.000000, -274.000000)">
            <path d="M-609,275 L660.864185,275" id="直线-6复制" transform="translate(26.000000, 275.000000) rotate(-270.000000) translate(-26.000000, -275.000000) "></path>
            <path d="M34.5,291 C30.3214307,291 27,287.678569 27,283.5 C27,279.321431 30.3214307,276 34.5,276 C38.6785693,276 42,279.321431 42,283.5 C42,287.678569 38.6785693,291 34.5,291 Z M34.5,277.071431 C30.964292,277.071431 28.0714307,279.964292 28.0714307,283.5 C28.0714307,287.035708 30.964292,289.928569 34.5,289.928569 C38.035708,289.928569 40.9285693,287.035708 40.9285693,283.5 C40.9285693,279.964292 38.035708,277.071431 34.5,277.071431 Z M32.035708,288.321435 C31.8214219,288.321435 31.7142788,288.321435 31.4999941,288.214288 C31.285708,288.000002 31.0714233,287.678574 31.1785649,287.357145 L31.4999941,285.000006 L29.8928555,283.178575 C29.6785693,282.964289 29.5714263,282.642861 29.6785693,282.321432 C29.7857123,282.000003 29.9999985,281.785718 30.3214263,281.785718 L32.5714263,281.357148 L33.6428555,279.214286 C33.9642847,278.678572 34.8214263,278.678572 35.1428555,279.214286 L36.2142847,281.357148 L38.4642847,281.785718 C38.7857139,281.892861 38.9999985,282.107148 39.1071416,282.321432 C39.2142845,282.642861 39.1071416,282.964289 38.8928555,283.178575 L37.4999985,284.892867 L37.8214277,287.250006 C37.8214277,287.571435 37.7142848,287.892863 37.4999985,288.107149 C37.2857124,288.321435 36.8571416,288.321435 36.6428555,288.214292 L34.6071475,287.142863 L32.5714395,288.214292 C32.3571533,288.321435 32.1428687,288.321435 32.0357256,288.321435 L32.035708,288.321435 Z M34.5,286.071431 C34.6071429,286.071431 34.7142861,286.071431 34.9285708,286.178574 L36.6428628,287.14286 L36.3214336,284.999998 C36.3214336,284.785712 36.3214336,284.46429 36.5357197,284.249998 L37.9285767,282.64286 L36.107146,282.321431 C35.7857168,282.214288 35.5714321,282.107144 35.4642905,281.89286 L34.5000029,279.96429 L33.5357168,281.89286 C33.4285739,282.107146 33.2142876,282.214289 32.8928599,282.321431 L30.9642905,282.64286 L32.3571475,284.249998 C32.5714336,284.46429 32.5714336,284.678569 32.5714336,284.999998 L32.2500044,287.14286 L34.0714351,286.285717 C34.2857212,286.178574 34.3928643,286.071431 34.5000059,286.071431 L34.5,286.071431 Z" id="形状" fill="#333333" fill-rule="nonzero"></path>
        </g>
    </g>
</svg>