<?xml version="1.0" encoding="UTF-8"?>
<svg width="20px" height="20px" viewBox="0 0 20 20" version="1.1" xmlns="http://www.w3.org/2000/svg" xmlns:xlink="http://www.w3.org/1999/xlink">
    <!-- Generator: Sketch 55.2 (78181) - https://sketchapp.com -->
    <title>题库管理</title>
    <desc>Created with Sketch.</desc>
    <g id="页面5" stroke="none" stroke-width="1" fill="none" fill-rule="evenodd">
        <g id="在教育icon" transform="translate(-26.000000, -225.000000)">
            <path d="M-609,275 L660.864185,275" id="直线-6复制" transform="translate(26.000000, 275.000000) rotate(-270.000000) translate(-26.000000, -275.000000) "></path>
            <path d="M43.0823174,240.723062 C43.3267024,240.723062 43.5259702,240.924209 43.5240903,241.172354 C43.5240903,241.420499 43.3248225,241.621647 43.0804375,241.621647 C43.0522392,241.621647 43.0240409,241.619767 42.9958426,241.617887 L42.9939628,241.617887 C42.9826834,241.619767 42.9676444,241.621647 42.9507254,241.621647 L30.272781,241.621647 C29.0188977,241.621647 28,240.58771 28,239.316908 L28,238.78678 C28,238.044226 28.3496586,237.361827 28.9286632,236.931334 C28.3477787,236.50084 28,235.818442 28,235.075887 L28,234.54576 C28,233.803205 28.3496586,233.120807 28.9305431,232.690313 C28.3496586,232.259819 28.0018799,231.577421 28.0018799,230.834867 L28.0018799,230.304739 C28.0018799,229.033937 29.0207776,228 30.2746608,228 L42.9977225,228.00376 C43.0259208,228.00188 43.0541191,228 43.0823174,228 C43.3267024,228 43.5259702,228.201148 43.5259702,228.449293 C43.5259702,228.697437 43.3267024,228.898585 43.0823174,228.898585 C42.3172042,228.898585 41.6949622,229.530226 41.6949622,230.304739 L41.6949622,230.834867 C41.6949622,231.609379 42.3172042,232.241021 43.0823174,232.241021 C43.3267024,232.241021 43.5259702,232.442168 43.5259702,232.690313 C43.5259702,232.938458 43.3267024,233.139606 43.0823174,233.139606 C42.3172042,233.139606 41.6949622,233.771247 41.6949622,234.54576 L41.6949622,235.075887 C41.6949622,235.8504 42.3172042,236.482041 43.0823174,236.482041 L43.1725518,236.482041 C43.4169369,236.482041 43.6162047,236.683189 43.6162047,236.931334 C43.6162047,237.179478 43.4169369,237.380626 43.1725518,237.380626 L43.0823174,237.380626 C42.3172042,237.380626 41.6949622,238.012268 41.6949622,238.78678 L41.6949622,239.316908 C41.6949622,240.09142 42.3172042,240.723062 43.0823174,240.723062 Z M40.9730864,232.25418 C40.6835841,231.870683 40.5237939,231.396952 40.5237939,230.898783 L40.5237939,230.387454 C40.5237939,229.889284 40.685464,229.415553 40.9749663,229.032057 L30.5152861,229.032057 C29.7877706,229.032057 29.1974867,229.64114 29.1974867,230.387454 L29.1974867,230.898783 C29.1974867,231.646977 29.7896505,232.25418 30.5152861,232.25418 L31.0266148,232.25418 C31.2597206,232.25418 31.4477091,232.447808 31.4477091,232.686553 C31.4477091,232.925299 31.2578407,233.118927 31.0266148,233.118927 L30.5152861,233.118927 C29.7877706,233.118927 29.1974867,233.72801 29.1974867,234.474324 L29.1974867,234.985653 C29.1974867,235.733847 29.7896505,236.34105 30.5152861,236.34105 L31.0266148,236.34105 C31.2597206,236.34105 31.4477091,236.534678 31.4477091,236.773423 C31.4477091,237.012169 31.2578407,237.205797 31.0266148,237.205797 L30.5134062,237.205797 C29.7858907,237.205797 29.1956069,237.813 29.1956069,238.561194 L29.1956069,239.072523 C29.1956069,239.820717 29.7877706,240.42792 30.5134062,240.42792 L40.9749663,240.42792 C40.6835841,240.042543 40.5237939,239.570692 40.5237939,239.072523 L40.5237939,238.561194 C40.5237939,238.063024 40.685464,237.589293 40.9749663,237.205797 L35.4894618,237.205797 C35.2563561,237.205797 35.0683676,237.012169 35.0683676,236.773423 C35.0683676,236.534678 35.258236,236.34105 35.4894618,236.34105 L40.9749663,236.34105 C40.6835841,235.955673 40.5237939,235.483822 40.5237939,234.985653 L40.5237939,234.474324 C40.5237939,233.976154 40.685464,233.504303 40.9749663,233.118927 L35.536459,233.118927 C35.3033532,233.118927 35.1153647,232.925299 35.1153647,232.686553 C35.1153647,232.447808 35.3052331,232.25418 35.536459,232.25418 L40.9730864,232.25418 Z M32.4684866,237.844958 L32.9553769,237.350548 C33.1226866,237.181358 33.4140688,237.181358 33.5813786,237.350548 L34.0663889,237.843078 L34.0663889,231.193925 L32.4684866,231.193925 L32.4684866,237.844958 Z M31.857524,239.343226 C31.7484907,239.298109 31.662016,239.207874 31.6168987,239.100721 C31.5943401,239.046204 31.5830608,238.987928 31.5830608,238.929651 L31.5830608,230.746512 C31.5830608,230.498367 31.7823286,230.297219 32.0267137,230.297219 L34.5100418,230.297219 C34.7544268,230.297219 34.9536946,230.498367 34.9536946,230.746512 L34.9536946,238.927772 C34.9536946,238.986048 34.9424153,239.044324 34.9198567,239.098841 C34.8747394,239.209754 34.7901446,239.296229 34.6811113,239.341346 C34.6265946,239.363905 34.5701981,239.375184 34.5119216,239.375184 C34.4536452,239.375184 34.3972487,239.363905 34.342732,239.341346 C34.2882153,239.318788 34.2393383,239.28495 34.1979808,239.243592 L33.2693177,238.30365 L32.3406545,239.245472 C32.299297,239.28683 32.25042,239.320667 32.1959033,239.343226 C32.0887499,239.388343 31.9665573,239.388343 31.857524,239.343226 Z" id="形状结合" fill="#333333" fill-rule="nonzero"></path>
        </g>
    </g>
</svg>