<?xml version="1.0" encoding="UTF-8"?>
<svg width="20px" height="20px" viewBox="0 0 20 20" version="1.1" xmlns="http://www.w3.org/2000/svg" xmlns:xlink="http://www.w3.org/1999/xlink">
    <!-- Generator: Sketch 58 (84663) - https://sketch.com -->
    <title>目录</title>
    <desc>Created with Sketch.</desc>
    <g id="页面-1" stroke="none" stroke-width="1" fill="none" fill-rule="evenodd" opacity="0.5">
        <g id="护理制度" transform="translate(-419.000000, -341.000000)" fill="#000000" fill-rule="nonzero">
            <g id="编组-5" transform="translate(419.000000, 341.000000)">
                <g id="目录" transform="translate(1.000000, 2.000000)">
                    <path d="M17.16002,2.04760424 C17.16002,2.18664441 17.0552998,2.30016454 16.9254997,2.30016454 L5.14403911,2.30016454 C5.01467896,2.30016454 4.90951884,2.18708441 4.90951884,2.04760424 L4.90951884,0.632122597 C4.90951884,0.493082436 5.01467896,0.380002304 5.14403911,0.380002304 L16.9254997,0.380002304 C17.0552998,0.380002304 17.16002,0.492642435 17.16002,0.632122597 L17.16002,2.04760424 Z M17.16002,8.13501133 C17.16002,8.27405149 17.0552998,8.38757162 16.9254997,8.38757162 L5.14403911,8.38757162 C5.01467896,8.38757162 4.90951884,8.27405149 4.90951884,8.13501133 L4.90951884,6.71952968 C4.90951884,6.58048952 5.01467896,6.46740939 5.14403911,6.46740939 L16.9254997,6.46740939 C17.0552998,6.46740939 17.16002,6.58048952 17.16002,6.71952968 L17.16002,8.13501133 Z M17.16002,13.7678944 C17.16002,13.9069346 17.0552998,14.0200147 16.9254997,14.0200147 L5.14403911,14.0200147 C5.01467896,14.0200147 4.90951884,13.9069346 4.90951884,13.7678944 L4.90951884,12.3528528 C4.90951884,12.2133726 5.01467896,12.1002925 5.14403911,12.1002925 L16.9254997,12.1002925 C17.0552998,12.1002925 17.16002,12.2133726 17.16002,12.3528528 L17.16002,13.7678944 Z M2.24487917,8.12093475 L2.24487918,8.12093482 C2.24807709,8.25686456 2.14056451,8.36969324 2.0046389,8.37305512 L0.680237356,8.37305512 L0.680237355,8.37305512 C0.544311572,8.36969351 0.436798478,8.25686456 0.439997076,8.12093482 L0.439997076,6.73449321 C0.439997076,6.59501305 0.547797201,6.48149292 0.680677356,6.48149292 L2.0046389,6.48149292 C2.13751905,6.48149292 2.24487918,6.59501305 2.24487918,6.73449321 L2.24487918,8.12093482 L2.24487917,8.12093475 Z M2.24487917,13.7542647 L2.24487918,13.7542648 C2.24807709,13.8901946 2.14056451,14.0030232 2.0046389,14.0063851 L0.680237356,14.0063851 L0.680237355,14.0063851 C0.544311572,14.0030235 0.436798478,13.8901946 0.439997076,13.7542648 L0.439997076,12.3669432 L0.439997071,12.366943 C0.436802323,12.2308974 0.544499255,12.1180213 0.680545007,12.114823 C0.680589256,12.114823 0.680633506,12.114823 0.680677757,12.114823 L2.0046393,12.114823 L2.00463929,12.114823 C2.14056508,12.1181846 2.24807817,12.2310136 2.24487957,12.3669433 L2.24487957,13.7542649 L2.24487917,13.7542647 Z M2.24487917,2.03352767 L2.24487918,2.03352774 C2.24807709,2.16945748 2.14056451,2.28228616 2.0046389,2.28564803 L0.680237356,2.28564803 L0.680237355,2.28564803 C0.544311572,2.28228643 0.436798478,2.16945748 0.439997076,2.03352774 L0.439997076,0.645766127 L0.439997071,0.645765902 C0.436802323,0.509720322 0.544499255,0.396844207 0.680545007,0.393645965 C0.680589256,0.393645965 0.680633506,0.393645965 0.680677757,0.393645965 L2.0046393,0.393645965 L2.00463929,0.393645965 C2.14056508,0.397007534 2.24807817,0.509836522 2.24487957,0.645766258 L2.24487957,2.03352787 L2.24487917,2.03352767 Z" id="形状"></path>
                </g>
            </g>
        </g>
    </g>
</svg>