<?xml version="1.0" encoding="UTF-8"?>
<svg width="20px" height="20px" viewBox="0 0 20 20" version="1.1" xmlns="http://www.w3.org/2000/svg" xmlns:xlink="http://www.w3.org/1999/xlink">
    <!-- Generator: Sketch 58 (84663) - https://sketch.com -->
    <title>收藏</title>
    <desc>Created with Sketch.</desc>
    <g id="页面-1" stroke="none" stroke-width="1" fill="none" fill-rule="evenodd">
        <g id="护理制度" transform="translate(-448.000000, -400.000000)" fill="#F5A200" fill-rule="nonzero">
            <g id="编组-4备份" transform="translate(448.000000, 400.000000)">
                <g id="收-藏" transform="translate(1.000000, 1.000000)">
                    <path d="M13.2938248,17.2808994 C13.046273,17.2808994 12.7680242,17.2098294 12.5100911,17.0808199 L8.82694308,15.2386271 L5.12098721,17.0778292 C4.88629162,17.2027825 4.6176335,17.2684388 4.34368162,17.2684388 L4.34368153,17.2684388 C3.98770221,17.2698248 3.64078759,17.1562422 3.35455694,16.9445916 C2.83588915,16.5554661 2.57011853,15.8815435 2.69280305,15.26776 L3.45075549,11.3357366 L0.545600548,8.62806629 L0.54560034,8.62806608 C0.0968685676,8.17341664 -0.075307414,7.51395385 0.0938951267,6.89797032 L0.0997045084,6.87799842 C0.310904754,6.24501643 0.834849114,5.80149248 1.47013423,5.71639707 L5.50643424,4.98248996 L7.31808478,1.30300287 C7.60910387,0.720431878 8.20100769,0.346087692 8.82694279,0.346087692 C9.47989667,0.346087692 10.0870974,0.734525644 10.3416789,1.31357319 L12.1475373,4.98138996 L16.184456,5.68717828 L16.1844561,5.6871783 C16.8250591,5.77999881 17.3516125,6.24000628 17.5296202,6.8623406 L17.5296202,6.86234075 C17.7289405,7.47398615 17.566164,8.14575006 17.1089729,8.59831465 L17.0990385,8.60826622 L14.202082,11.3362694 L14.934236,15.2753224 C15.0521424,15.9052278 14.8016171,16.5415614 14.2800446,16.9380775 L14.2800447,16.9380774 C14.0006787,17.1626616 13.6522602,17.2837597 13.2938248,17.2808994 L13.2938248,17.2808994 Z" id="已收藏"></path>
                </g>
            </g>
        </g>
    </g>
</svg>