<?xml version="1.0" encoding="UTF-8"?>
<svg width="20px" height="20px" viewBox="0 0 20 20" version="1.1" xmlns="http://www.w3.org/2000/svg" xmlns:xlink="http://www.w3.org/1999/xlink">
    <!-- Generator: Sketch 58 (84663) - https://sketch.com -->
    <title>收藏</title>
    <desc>Created with Sketch.</desc>
    <g id="页面-1" stroke="none" stroke-width="1" fill="none" fill-rule="evenodd" opacity="0.5">
        <g id="护理制度" transform="translate(-419.000000, -400.000000)" fill-rule="nonzero" stroke="#000000" stroke-width="1.6">
            <g id="编组-4" transform="translate(419.000000, 400.000000)">
                <g id="收-藏" transform="translate(1.000000, 1.000000)">
                    <path d="M13.2938248,16.4808994 L13.3002085,16.4809249 C13.474176,16.4823131 13.6432559,16.423541 13.7958843,16.3012189 C14.0783364,16.0864898 14.2096942,15.7526799 14.1477071,15.421515 L13.3357637,11.0531882 L13.6536351,10.7538555 L16.5328644,8.04306993 L16.5461715,8.0297598 C16.7883461,7.79003588 16.8745691,7.43420113 16.7604657,7.08234362 C16.6690607,6.762782 16.3986809,6.52657278 16.0466791,6.47522494 L11.6093597,5.69943319 L11.4298134,5.334763 L9.60933398,1.63555281 C9.4835717,1.3495056 9.16523517,1.14608769 8.82694279,1.14608769 C8.50703393,1.14608769 8.1905464,1.34664683 8.03580503,1.65638318 L6.04611093,5.69747918 L5.64954908,5.76958471 L1.57634435,6.50931535 C1.24727065,6.55339424 0.97415465,6.78480862 0.867867193,7.10143989 L0.865321181,7.10987087 C0.771802325,7.45032719 0.866964663,7.81481313 1.09104509,8.04283962 L4.32010146,11.0523934 L4.2362941,11.4871602 L3.47728533,15.4245641 C3.41562335,15.7330555 3.55979746,16.098456 3.8301988,16.3013461 C3.9778883,16.4105537 4.15688929,16.46916 4.34368162,16.4684388 C4.48802822,16.4684388 4.62742818,16.4342852 4.76534893,16.3612252 L8.82833408,14.3448355 L12.8679573,16.3653258 C13.0188999,16.4408222 13.175866,16.4808994 13.2938248,16.4808994 Z M13.2906331,18.0808973 C13.2895692,18.0808902 13.2885052,18.0808824 13.2874411,18.080874 L13.2938248,18.0808994 C13.2927612,18.0808994 13.2916974,18.0808986 13.2906335,18.080897 Z" id="路径"></path>
                </g>
            </g>
        </g>
    </g>
</svg>