<?xml version="1.0" encoding="UTF-8"?>
<svg width="20px" height="20px" viewBox="0 0 20 20" version="1.1" xmlns="http://www.w3.org/2000/svg" xmlns:xlink="http://www.w3.org/1999/xlink">
    <!-- Generator: Sketch 55.2 (78181) - https://sketchapp.com -->
    <title>分析报告</title>
    <desc>Created with Sketch.</desc>
    <g id="继续教育" stroke="none" stroke-width="1" fill="none" fill-rule="evenodd">
        <g id="护理质量检查" transform="translate(-4.000000, -54.000000)" fill="#333333" fill-rule="nonzero">
            <g id="分析报告" transform="translate(7.000000, 56.000000)">
                <path d="M11.1867516,0.576212054 L2.07642518,0.576212054 C0.957897566,0.576212054 0.0501070363,1.48400258 0.0501070363,2.6025302 L0.0501070363,11.7209619 C0.0501070363,12.8394895 0.957897566,13.74728 2.07642518,13.74728 L11.1948568,13.74728 C12.3133845,13.74728 13.221175,12.8394895 13.221175,11.7209619 L13.221175,2.6025302 C13.2130697,1.48400258 12.3133845,0.576212054 11.1867516,0.576212054 Z M12.050107,11.5769388 C12.050107,12.1285376 11.602107,12.5762121 11.050107,12.5762121 L2.05010704,12.5762121 C1.49810704,12.5762121 1.05010704,12.1285376 1.05010704,11.5769388 L1.05010704,2.57548531 C1.05010704,2.02388647 1.49810704,1.57621205 2.05010704,1.57621205 L11.050107,1.57621205 C11.602107,1.57621205 12.050107,2.02388647 12.050107,2.57548531 L12.050107,11.5769388 Z M10.1816978,10.5132762 L3.08147898,10.5132762 C2.79779444,10.5132762 2.57895208,10.7402239 2.57895208,11.0158031 C2.57895208,11.2994877 2.80589972,11.5183301 3.08147898,11.5183301 L10.1735925,11.5183301 C10.457277,11.5183301 10.6761194,11.2913824 10.6761194,11.0158031 C10.6842247,10.7321186 10.457277,10.5132762 10.1816978,10.5132762 L10.1816978,10.5132762 Z M10.1816978,8.38158956 L3.08147898,8.38158956 C2.79779444,8.38158956 2.57895208,8.60853719 2.57895208,8.88411646 C2.57895208,9.167801 2.80589972,9.38664336 3.08147898,9.38664336 L10.1735925,9.38664336 C10.457277,9.38664336 10.6761194,9.15969573 10.6761194,8.88411646 C10.6842247,8.60853719 10.457277,8.38158956 10.1816978,8.38158956 L10.1816978,8.38158956 Z M10.1816978,2.30263512 C9.62243396,2.30263512 9.1685387,2.75653038 9.1685387,3.31579419 C9.1685387,3.40495219 9.20095979,3.47789964 9.21717033,3.55895237 L7.8960109,4.8801118 C7.81495818,4.85579598 7.73390545,4.83148016 7.64474745,4.83148016 C7.5718,4.83148016 7.50695782,4.85579598 7.44211564,4.87200653 L6.59106202,4.02905818 C6.60727256,3.964216 6.63158838,3.89937382 6.63158838,3.82642636 C6.63158838,3.26716255 6.17769311,2.81326729 5.61842931,2.81326729 C5.0591655,2.81326729 4.60527023,3.25905728 4.60527023,3.81832109 C4.60527023,3.90747909 4.62958605,3.98042654 4.65390187,4.06147927 L3.33274244,5.39074397 C3.25168971,5.36642815 3.17063698,5.34211234 3.08958426,5.34211234 C2.53032045,5.34211234 2.07642518,5.7960076 2.07642518,6.35527141 C2.07642518,6.91453522 2.53032045,7.36843048 3.08958426,7.36843048 C3.64884807,7.36843048 4.10274333,6.91453522 4.10274333,6.35527141 C4.10274333,6.26611341 4.07842751,6.19316596 4.0541117,6.11211323 L5.37527113,4.7909538 C5.45632385,4.81526962 5.53737658,4.83958544 5.62653458,4.83958544 C5.7075873,4.83958544 5.78053476,4.81526962 5.86158748,4.7909538 L6.68832529,5.6176916 C6.67211474,5.69874433 6.63969365,5.77169178 6.63969365,5.85274451 C6.63969365,6.41200832 7.09358892,6.86590358 7.65285273,6.86590358 C8.21211653,6.86590358 8.65790653,6.41200832 8.65790653,5.84463924 C8.65790653,5.75548124 8.63359071,5.68253379 8.60927489,5.60148106 L9.93043432,4.28032163 C10.011487,4.30463745 10.0925398,4.32895326 10.1816978,4.32895326 C10.7409616,4.32895326 11.1948568,3.875058 11.1948568,3.31579419 C11.1948568,2.75653038 10.7409616,2.30263512 10.1816978,2.30263512 L10.1816978,2.30263512 Z" id="形状"></path>
            </g>
        </g>
    </g>
</svg>