<?xml version="1.0" encoding="UTF-8"?>
<svg width="20px" height="20px" viewBox="0 0 20 20" version="1.1" xmlns="http://www.w3.org/2000/svg" xmlns:xlink="http://www.w3.org/1999/xlink">
    <!-- Generator: Sketch 55.2 (78181) - https://sketchapp.com -->
    <title>质控记录</title>
    <desc>Created with Sketch.</desc>
    <g id="继续教育" stroke="none" stroke-width="1" fill="none" fill-rule="evenodd">
        <g id="护理质量检查" transform="translate(-4.000000, -2.000000)" fill="#333333" fill-rule="nonzero">
            <g id="记录" transform="translate(7.000000, 5.000000)">
                <path d="M3.72076764,4.78074306 L10.2792503,4.78074306 L10.2792503,4.78074306 C10.5378608,4.76901524 10.7379994,4.5498616 10.7262719,4.29125109 C10.7152888,4.04906325 10.5214381,3.85521251 10.2792503,3.84422947 L3.72076764,3.84422947 L3.72076762,3.84422947 C3.46215711,3.84422947 3.25251083,4.05387575 3.25251083,4.31248627 C3.25251083,4.57109678 3.46215711,4.78074306 3.72076762,4.78074306 L3.72076764,4.78074306 Z M10.2792503,6.64703273 L3.72076762,6.64703273 L3.72076761,6.64703273 C3.4618909,6.64703273 3.25202956,6.85689407 3.25202956,7.11577078 C3.25202956,7.37464749 3.4618909,7.58450883 3.72076761,7.58450883 L10.2792502,7.58450883 L10.2792502,7.58450883 C10.5381269,7.58450883 10.7479883,7.37464749 10.7479883,7.11577078 C10.7479883,6.85689407 10.5381269,6.64703273 10.2792502,6.64703273 L10.2792503,6.64703273 Z M10.2792502,9.45753601 L3.72076758,9.45753601 L3.72076755,9.45753601 C3.46268792,9.45753601 3.25347326,9.66675066 3.25347326,9.9248303 C3.25347326,10.1829099 3.46268792,10.3921246 3.72076755,10.3921246 C3.72076756,10.3921246 3.72076756,10.3921246 3.72076757,10.3921246 L10.2792502,10.3921246 L10.2792502,10.3921246 C10.5373298,10.3921246 10.7465445,10.1829099 10.7465445,9.9248303 C10.7465445,9.66675066 10.5373298,9.45753601 10.2792502,9.45753601 C10.2792502,9.45753601 10.2792502,9.45753601 10.2792502,9.45753601 L10.2792502,9.45753601 Z M5.63518227,1.96542729 L7.97598499,1.96542729 L7.97598497,1.96542729 C8.36376915,1.9797872 8.68977128,1.67706797 8.7041306,1.28928378 C8.71849051,0.901499603 8.41577128,0.575497466 8.0279871,0.561138152 C8.01065907,0.560496484 7.99331329,0.560496483 7.97598527,0.56113815 L5.63518254,0.56113815 L5.63518251,0.561138151 C5.24739833,0.575498066 4.9446797,0.901499602 4.95903901,1.28928378 C4.97265288,1.65692161 5.26754619,1.95181391 5.63518251,1.96542729 L5.63518227,1.96542729 Z M11.6835396,1.0289137 L11.2167265,1.0289137 L11.2167265,1.0289137 C10.958116,1.01718587 10.738962,1.21732479 10.7272345,1.47593531 C10.7155067,1.73454582 10.9156456,1.95369981 11.1742561,1.96542728 C11.1884056,1.96606895 11.2025768,1.96606895 11.2167264,1.96542728 L11.6835394,1.96542728 C12.201365,1.96542728 12.6229405,2.38604027 12.6229405,2.90290338 L12.6229405,11.8041137 L12.6229405,11.80411 C12.621882,12.3223312 12.2017651,12.7420208 11.6835424,12.7425516 L2.31551902,12.7425516 L2.31551902,12.7425516 C1.79798518,12.74149 1.37900393,12.3216469 1.37900543,11.804113 L1.37900543,2.90290268 C1.37900543,2.38603958 1.79961842,1.96542659 2.31551902,1.96542659 L2.78425707,1.96542659 L2.78425705,1.96542659 C3.04286756,1.9654266 3.25251384,1.75578031 3.25251384,1.4971698 C3.25251385,1.23855928 3.04286756,1.028913 2.78425705,1.028913 L2.315519,1.028913 L2.31551892,1.028913 C1.28054297,1.02891305 0.441529238,1.86792673 0.441529238,2.90290268 C0.441529238,2.90290268 0.441529238,2.90290268 0.441529238,2.90290268 L0.441529238,11.804113 C0.441529238,12.8378392 1.28083021,13.6771405 2.31551892,13.6771405 L11.6835423,13.6771405 L11.6835424,13.6771405 C12.7185183,13.6776719 13.5579682,12.839089 13.5584946,11.804113 C13.5584946,11.8041129 13.5584946,11.8041127 13.5584946,11.8041125 L13.5584946,2.90290219 L13.5584946,2.90294919 C13.5579891,1.86781683 12.7187214,1.02894447 11.6835875,1.02891439 L11.6835396,1.0289137 Z" id="形状"></path>
            </g>
        </g>
    </g>
</svg>