<?xml version="1.0" encoding="UTF-8"?>
<svg width="20px" height="20px" viewBox="0 0 20 20" version="1.1" xmlns="http://www.w3.org/2000/svg" xmlns:xlink="http://www.w3.org/1999/xlink">
    <!-- Generator: Sketch 55.2 (78181) - https://sketchapp.com -->
    <title>查询统计</title>
    <desc>Created with Sketch.</desc>
    <g id="继续教育" stroke="none" stroke-width="1" fill="none" fill-rule="evenodd">
        <g id="护理质量检查" transform="translate(-4.000000, -28.000000)" fill="#333333" fill-rule="nonzero">
            <g id="查询统计" transform="translate(7.000000, 30.000000)">
                <path d="M4.8125056,7.87500916 L6.56250764,7.87500916 L6.56250764,10.5000122 L4.8125056,10.5000122 L4.8125056,7.87500916 Z M7.43750865,8.75001018 L9.18751069,8.75001018 L9.18751069,10.5000122 L7.43750865,10.5000122 L7.43750865,8.75001018 Z M6.95625809,7 C7.76563404,7 8.5093849,6.72657033 9.10001059,6.26719479 L11.4843884,8.65157257 C11.6593886,8.82657277 11.9328264,8.82657277 12.1078266,8.65157257 C12.2828268,8.47657236 12.2828268,8.20313455 12.1078266,8.02813434 L9.7125113,5.64375657 C10.1718868,5.05313088 10.4453165,4.30938001 10.4453165,3.5 C10.4453165,1.56406432 8.88126033,-1.22124675e-15 6.94531651,-1.22124675e-15 C5.00938083,-1.22124675e-15 3.44531651,1.56406432 3.44531651,3.5 C3.44531651,5.43594383 5.02031834,7 6.95625809,7 Z M6.95625809,0.875001018 C8.41094729,0.875001018 9.58126115,2.04531488 9.58126115,3.50000407 C9.58126115,4.95469327 8.41094729,6.12500713 6.95625809,6.12500713 C5.5015689,6.12500713 4.33125504,4.95469327 4.33125504,3.50000407 C4.33125504,2.04531488 5.5015689,0.875001018 6.95625809,0.875001018 Z M13.0812652,1.75000204 L10.9703253,1.75000204 C11.0906379,2.02343985 11.1890755,2.3187527 11.2437631,2.62500305 L13.1250153,2.62500305 L13.1250153,11.3750132 L0.875001018,11.3750132 L0.875001018,2.62500305 L2.66875311,2.62500305 C2.73437818,2.3187527 2.82187828,2.02343985 2.94219092,1.75000204 L0.831250967,1.75000204 C0.339062895,1.75000204 -3.05311687e-16,2.14375249 -3.05311687e-16,2.62500305 L-3.05311687e-16,11.3750132 C-3.05311687e-16,11.8562638 0.339062895,12.2500143 0.831250967,12.2500143 L6.56250764,12.2500143 L6.56250764,13.1250153 L4.76875555,13.1250153 C4.52813027,13.1250153 4.33125504,13.3218905 4.33125504,13.5625158 C4.33125504,13.8031411 4.52813027,14.0000163 4.76875555,14.0000163 L9.14376064,14.0000163 C9.38438592,14.0000163 9.58126115,13.8031411 9.58126115,13.5625158 C9.58126115,13.3218905 9.38438592,13.1250153 9.14376064,13.1250153 L7.43750865,13.1250153 L7.43750865,12.2500143 L13.0812652,12.2500143 C13.5625158,12.2500143 14.0000163,11.8562638 14.0000163,11.3750132 L14.0000163,2.62500305 C14.0000163,2.14375249 13.5625158,1.75000204 13.0812652,1.75000204 Z M2.18750255,10.5000122 L3.93750458,10.5000122 L3.93750458,6.62813271 C3.71875433,6.47500753 3.58750417,6.31094484 3.45625402,6.12500713 L2.18750255,6.12500713 L2.18750255,10.5000122 Z" id="形状"></path>
            </g>
        </g>
    </g>
</svg>