<svg xmlns="http://www.w3.org/2000/svg" width="14" height="14" viewBox="0 0 14 14">
  <g id="健康教育授课登记本" transform="translate(-324 -248.964)">
    <path id="路径_264" data-name="路径 264" d="M337.453,261.047a.441.441,0,0,0,.152-.1.446.446,0,0,0,.128-.31v-2.427a.438.438,0,0,0-.127-.309.421.421,0,0,0-.237-.122.981.981,0,0,0,.632-.915.964.964,0,0,0-.751-.952l-3.483-.81a.956.956,0,0,0-.429,0l-3.478.807a.978.978,0,0,0,0,1.9l.587.137V260.1c0,.456.3,1.516,3.108,1.516s3.108-1.06,3.108-1.516v-2.147l.374-.087c-.014.012-.028.023-.041.036a.443.443,0,0,0-.128.31v2.428a.439.439,0,0,0,.279.408c-.354.178-.546.936-.546,1.209a.7.7,0,1,0,1.4,0C338,261.984,337.807,261.225,337.453,261.047ZM335.8,260.1c-.005.154-.691.641-2.243.641s-2.237-.487-2.243-.641v-1.945l2.03.472a.975.975,0,0,0,.43,0l2.026-.47Zm1.259-3.135-3.477.808a.13.13,0,0,1-.048,0l-3.482-.81a.1.1,0,0,1-.074-.121.1.1,0,0,1,.077-.077l3.477-.808a.115.115,0,0,1,.026,0l.023,0,3.478.809a.1.1,0,0,1,.063.046.1.1,0,0,1,.013.076A.1.1,0,0,1,337.056,256.965Z"/>
    <path id="路径_265" data-name="路径 265" d="M328.738,261.128h-2.912a.9.9,0,0,1-.907-.89v-9.484a.9.9,0,0,1,.907-.889H335.5a.9.9,0,0,1,.906.889v2.414a.46.46,0,0,0,.92,0v-2.414a1.811,1.811,0,0,0-1.826-1.79h-9.675a1.81,1.81,0,0,0-1.826,1.79v9.484a1.81,1.81,0,0,0,1.826,1.791h2.912a.451.451,0,1,0,0-.9Z"/>
    <path id="路径_266" data-name="路径 266" d="M334.31,251.9a.455.455,0,0,0-.459-.451H327.3a.451.451,0,1,0,0,.9h6.549A.455.455,0,0,0,334.31,251.9Z"/>
    <path id="路径_267" data-name="路径 267" d="M327.25,253.831a.453.453,0,0,0,0,.9h4a.453.453,0,0,0,0-.9Z"/>
  </g>
</svg>
