<svg xmlns="http://www.w3.org/2000/svg" width="14" height="14" viewBox="0 0 14 14">
  <g id="库房物品登记本" transform="translate(-323.917 -137.007)">
    <path id="路径_221" data-name="路径 221" d="M328.847,138.342H331.1a.671.671,0,0,0,.024-1.334h-2.275a.668.668,0,0,0,0,1.334Z"/>
    <path id="路径_222" data-name="路径 222" d="M334.11,138.341h.479a.892.892,0,0,1,.892.89v7.141h.888v-7.141a1.781,1.781,0,0,0-1.775-1.779h-.464a.445.445,0,0,0-.02.889Z"/>
    <path id="路径_223" data-name="路径 223" d="M324.806,147.688v-8.456a.891.891,0,0,1,.89-.891h.445a.445.445,0,0,0,0-.89H325.7a1.78,1.78,0,0,0-1.779,1.78v8.456a1.781,1.781,0,0,0,1.779,1.779h2.5v-.888h-2.5A.893.893,0,0,1,324.806,147.688Z"/>
    <path id="路径_224" data-name="路径 224" d="M332.592,146.9H331.26v1.171h-.586V146.9h-1.332a.422.422,0,0,0-.425.423V151h4.1v-3.677A.422.422,0,0,0,332.592,146.9Zm-.781,2.894h-1.689v-.517h1.689Z" transform="translate(0 0.007)"/>
    <path id="路径_225" data-name="路径 225" d="M331.047,142.373a.422.422,0,0,0-.425.423v3.677h4.1V142.8a.422.422,0,0,0-.425-.423h-1.332v1.171h-.586v-1.171Zm1.918,2.377h.551v.518h-1.688v-.518h1.137Z" transform="translate(0 0.004)"/>
    <path id="路径_226" data-name="路径 226" d="M337.491,146.9h-1.332v1.171h-.586V146.9h-1.331a.423.423,0,0,0-.426.423V151h4.1v-3.677A.423.423,0,0,0,337.491,146.9Zm-.78,2.894h-1.689v-.517h1.689Z" transform="translate(0 0.007)"/>
    <path id="路径_227" data-name="路径 227" d="M327.03,140.881h6.226a.367.367,0,0,0,.366-.368v-.007a.366.366,0,0,0-.366-.367H327.03a.373.373,0,0,0-.367.374A.367.367,0,0,0,327.03,140.881Z" transform="translate(0 0.002)"/>
    <path id="路径_228" data-name="路径 228" d="M326.925,143.623h1.707c.157,0,.285-.174.285-.389s-.128-.39-.285-.39h-1.707c-.157,0-.285.174-.285.39S326.768,143.623,326.925,143.623Z" transform="translate(0 0.003)"/>
    <path id="路径_229" data-name="路径 229" d="M328.632,145.568h-1.707c-.157,0-.285.174-.285.39s.128.389.285.389h1.707c.157,0,.285-.174.285-.389S328.789,145.568,328.632,145.568Z" transform="translate(0 0.005)"/>
  </g>
</svg>
