<svg xmlns="http://www.w3.org/2000/svg" width="14" height="14.002" viewBox="0 0 14 14.002">
  <g id="物品交换登记本" transform="translate(-166 -96)">
    <path id="路径_198" data-name="路径 198" d="M171.488,97.746h2.791a.46.46,0,0,0,.418-.471l0-.026a.434.434,0,0,0-.42-.446h-2.791a.468.468,0,0,0-.418.472V97.3A.432.432,0,0,0,171.488,97.746Z"/>
    <path id="路径_199" data-name="路径 199" d="M175.675,98.265a.427.427,0,0,0,.465-.377v-1.51c0-.232-.178-.376-.465-.376a.427.427,0,0,0-.465.376v1.508A.427.427,0,0,0,175.675,98.265Z"/>
    <path id="路径_200" data-name="路径 200" d="M170.093,98.265a.425.425,0,0,0,.464-.377v-1.51h0a.422.422,0,0,0-.465-.375.427.427,0,0,0-.464.376v1.508A.427.427,0,0,0,170.093,98.265Z"/>
    <path id="路径_201" data-name="路径 201" d="M177.348,96.76h-.28a.471.471,0,0,0,0,.942h.28a1.666,1.666,0,0,1,1.671,1.646v1.9h-4.525l1.441-1.44a.438.438,0,0,0-.619-.62l-2.188,2.188a.439.439,0,0,0,0,.619l2.188,2.188a.438.438,0,0,0,.619,0,.441.441,0,0,0,0-.62l-1.441-1.44H180V99.4A2.68,2.68,0,0,0,177.348,96.76Z"/>
    <path id="路径_202" data-name="路径 202" d="M166.93,99.4a1.66,1.66,0,0,1,1.627-1.65.468.468,0,0,0,.465-.472.413.413,0,0,0,0-.05.445.445,0,0,0-.466-.422h-.08A2.54,2.54,0,0,0,166,99.4v4.481h.929Z"/>
    <path id="路径_203" data-name="路径 203" d="M179.019,107.314a1.666,1.666,0,0,1-1.675,1.651H168.6a1.706,1.706,0,0,1-1.67-1.651v-1.687h4.577l-1.441,1.44a.437.437,0,1,0,.618.619l2.188-2.187a.438.438,0,0,0,0-.619l-2.187-2.188a.438.438,0,0,0-.619.62l1.441,1.44H166v.875h0v1.735a2.626,2.626,0,0,0,2.6,2.64H177.4a2.627,2.627,0,0,0,2.6-2.64V103h-.981Z"/>
  </g>
</svg>
