<svg xmlns="http://www.w3.org/2000/svg" width="14" height="14" viewBox="0 0 14 14">
  <g id="重点患者评估登记本" transform="translate(-166 -152)">
    <path id="路径_204" data-name="路径 204" d="M171.686,160.331a.5.5,0,0,0-.505.5v2.524h1.254v-2.524a.5.5,0,0,0-.5-.5Z" transform="translate(-0.05 -0.64)"/>
    <path id="路径_205" data-name="路径 205" d="M167.025,163.262v-1.927l3.206-2.625a.449.449,0,0,0-.022-.72,3.378,3.378,0,0,1-.529-.59,5.126,5.126,0,0,0,1.5-.261,8.192,8.192,0,0,0,3.412-2.158,3.674,3.674,0,0,1,.007.991,3.1,3.1,0,0,1-1.153,2.041.462.462,0,0,0-.2.356.454.454,0,0,0,.171.369l1.177.962a3.354,3.354,0,0,1,1.065-.385l-1.148-.938a4.115,4.115,0,0,0,1.094-2.269,3.8,3.8,0,0,0-.831-3.039,3.9,3.9,0,0,0-2.968-1.07,3.782,3.782,0,0,0-2.849,1.015,3.9,3.9,0,0,0-.887,3.08,4.364,4.364,0,0,0,1.069,2.251l-2.8,2.3a.913.913,0,0,0-.345.7v1.928a.908.908,0,0,0,.3.665,1.052,1.052,0,0,0,.717.274h6.773a2.939,2.939,0,0,1-.583-.951Zm2.692-9.62a2.8,2.8,0,0,1,2.091-.7,4.547,4.547,0,0,1,.828.078,5.148,5.148,0,0,1-3.514,1.866A2.352,2.352,0,0,1,169.717,153.642ZM169.09,156c0-.047-.011-.107-.015-.169a6.086,6.086,0,0,0,4.524-2.476,2.013,2.013,0,0,1,.412.324,1.927,1.927,0,0,1,.179.234,6.7,6.7,0,0,1-3.338,2.344,3.24,3.24,0,0,1-1.66.16A3.3,3.3,0,0,1,169.09,156Z" transform="translate(0 0)"/>
    <path id="路径_206" data-name="路径 206" d="M179.962,165.967l-1.261-1.262a2.919,2.919,0,0,0,.519-1.657,2.96,2.96,0,1,0-2.96,2.96,2.919,2.919,0,0,0,1.657-.519l1.262,1.261a.554.554,0,1,0,.783-.783Zm-3.7-.907a2.011,2.011,0,1,1,2.012-2.012A2.014,2.014,0,0,1,176.26,165.06Z" transform="translate(-0.125 -0.913)"/>
  </g>
</svg>
