<svg xmlns="http://www.w3.org/2000/svg" width="14" height="14" viewBox="0 0 14 14">
  <g id="紫外线空气消毒登记本" transform="translate(-166 -236)">
    <path id="路径_155" data-name="路径 155" d="M174.576,246.261c0,.378-.159.547-.515.547a.517.517,0,0,1-.39-.137.541.541,0,0,1-.126-.4V244.04h-.787v2.221a1.155,1.155,0,0,0,.363.9,1.354,1.354,0,0,0,.94.324,1.369,1.369,0,0,0,.939-.324,1.16,1.16,0,0,0,.363-.888V244.04h-.787Z" transform="translate(-0.065 -0.09)"/>
    <path id="路径_156" data-name="路径 156" d="M175.495,240.888a4.616,4.616,0,1,0,4.615,4.616A4.622,4.622,0,0,0,175.495,240.888Zm3.667,4.616a3.667,3.667,0,1,1-3.667-3.668A3.671,3.671,0,0,1,179.162,245.5Z" transform="translate(-0.111 -0.119)"/>
    <path id="路径_157" data-name="路径 157" d="M176.94,246.24l-.7-2.2h-.866l1.218,3.4h.705l1.218-3.4h-.865Z" transform="translate(-0.111 -0.089)"/>
    <path id="路径_158" data-name="路径 158" d="M174.6,238.014a.38.38,0,0,0,.413-.335v-1.343c0-.206-.158-.334-.413-.334a.379.379,0,0,0-.413.334v1.341A.38.38,0,0,0,174.6,238.014Z" transform="translate(-0.068)"/>
    <path id="路径_159" data-name="路径 159" d="M169.638,238.014a.38.38,0,0,0,.413-.335v-1.343h0a.422.422,0,0,0-.826,0v1.341A.381.381,0,0,0,169.638,238.014Z" transform="translate(-0.027)"/>
    <path id="路径_160" data-name="路径 160" d="M170.878,237.552h2.481a.41.41,0,0,0,.372-.418v-.023a.385.385,0,0,0-.373-.4h-2.481a.416.416,0,0,0-.371.42l0,.023A.385.385,0,0,0,170.878,237.552Z" transform="translate(-0.046)"/>
    <path id="路径_161" data-name="路径 161" d="M175.838,237.513h.249a1.479,1.479,0,0,1,1.485,1.463v1.85a5.061,5.061,0,0,1,.872.553v-2.36a2.381,2.381,0,0,0-2.357-2.343h-.249a.419.419,0,0,0,0,.837Z" transform="translate(-0.111)"/>
    <path id="路径_162" data-name="路径 162" d="M168.311,247.414a1.509,1.509,0,0,1-1.485-1.452V239a1.469,1.469,0,0,1,1.447-1.452.416.416,0,0,0,.414-.415c0-.015,0-.03,0-.045a.393.393,0,0,0-.414-.371H168.2A2.246,2.246,0,0,0,166,239V246a2.324,2.324,0,0,0,2.317,2.323h3.043a4.94,4.94,0,0,1-.575-.913Z" transform="translate(0 0)"/>
    <path id="路径_163" data-name="路径 163" d="M169.112,240.28h6.221a.389.389,0,1,0,0-.778h-6.221a.389.389,0,0,0,0,.778Z" transform="translate(-0.042 -0.031)"/>
    <path id="路径_164" data-name="路径 164" d="M169.112,242.613h1.555a.389.389,0,0,0,0-.778h-1.555a.389.389,0,0,0,0,.778Z" transform="translate(-0.026 -0.052)"/>
  </g>
</svg>
