<?xml version="1.0" encoding="UTF-8"?>
<svg width="20px" height="20px" viewBox="0 0 20 20" version="1.1" xmlns="http://www.w3.org/2000/svg" xmlns:xlink="http://www.w3.org/1999/xlink">
    <!-- Generator: Sketch 54.1 (76490) - https://sketchapp.com -->
    <title>护理工作质量</title>
    <desc>Created with Sketch.</desc>
    <g id="页面1" stroke="none" stroke-width="1" fill="none" fill-rule="evenodd">
        <g id="统计分析（调整）" transform="translate(-13.000000, -597.000000)" fill-rule="nonzero">
            <g id="icon-rgb_yunyingguanlishuju" transform="translate(17.000000, 588.000000)">
                <path d="M12.0267857,18.2057143 L12.0267857,15.2614286 C12.0267857,14.9458373 11.7709484,14.69 11.4553571,14.69 C11.1397659,14.69 10.8839286,14.9458373 10.8839286,15.2614286 L10.8839286,18.2142857 C10.8839855,18.2521907 10.8878139,18.289996 10.8953571,18.3271429 C10.8839286,19.0114286 8.99107143,20 6.02678571,20 C3.06249999,20 1.16964286,19.0114286 1.15821429,18.3271429 C1.1657575,18.289996 1.16958589,18.2521907 1.16964286,18.2142857 L1.16964286,15.2614286 C1.16964286,14.9458373 0.913805576,14.69 0.598214289,14.69 C0.282623001,14.69 0.0267857143,14.9458373 0.0267857143,15.2614286 L0.0267857143,18.2057143 C0.0190515313,18.2437968 0.0152221856,18.2825689 0.0153571373,18.3214286 C0.0153571373,20.1542857 3.1125,21.1428571 6.02678571,21.1428571 C8.94107143,21.1428571 12.0382143,20.1542857 12.0382143,18.3214286 C12.0383492,18.2825689 12.0345199,18.2437968 12.0267857,18.2057143 Z" id="路径" fill="#FFFFFF"></path>
                <path d="M6.02678571,12 C3.11107143,12 0.0139285714,12.9885714 0.0139285714,14.8214286 C0.0139285714,16.6542857 3.11107143,17.6428571 6.02678571,17.6428571 C8.94249999,17.6428571 12.0382143,16.6542857 12.0382143,14.8214286 C12.0382143,12.9885714 8.94249999,12 6.02678571,12 Z M6.02678571,16.5 C3.05392857,16.5 1.15678572,15.5 1.15678572,14.8214286 C1.15678572,14.1428571 3.05392857,13.1428571 6.02678571,13.1428571 C8.99964286,13.1428571 10.8953571,14.1428571 10.8953571,14.8214286 C10.8953571,15.5 8.99964286,16.5 6.02678571,16.5 Z" id="形状" fill="#F6C235"></path>
                <path d="M12.0267857,21.1514286 C12.0342997,21.0893291 12.038116,21.026838 12.0382143,20.9642857 C12.0382143,20.7601339 11.9293006,20.5714899 11.7525,20.469414 C11.5756994,20.3673381 11.357872,20.3673381 11.1810714,20.469414 C11.0042708,20.5714899 10.8953571,20.7601339 10.8953571,20.9642857 C10.8953571,21.6428571 8.99964286,22.6428571 6.02678571,22.6428571 C3.05392857,22.6428571 1.15821429,21.6428571 1.15821429,20.9642857 C1.15821429,20.6486944 0.902376999,20.3928571 0.586785711,20.3928571 C0.271194424,20.3928571 0.0153571373,20.6486944 0.0153571373,20.9642857 C0.0154554435,21.026838 0.0192716986,21.0893291 0.0267857143,21.1514286 L0.0267857143,24.0628571 C0.0190515313,24.1009396 0.0152221856,24.1397117 0.0153571373,24.1785714 C0.0153571373,26.0114286 3.1125,27 6.02678571,27 C8.94107143,27 12.0382143,26.0114286 12.0382143,24.1785714 C12.0383492,24.1397117 12.0345199,24.1009396 12.0267857,24.0628571 L12.0267857,21.1514286 Z M6.02678571,25.8571429 C3.06249999,25.8571429 1.16964286,24.8685714 1.15821429,24.1842857 C1.1657575,24.1471388 1.16958589,24.1093336 1.16964286,24.0714286 L1.16964286,22.6742857 C2.33535715,23.4042857 4.21535714,23.7857143 6.02678571,23.7857143 C7.83821429,23.7857143 9.71821428,23.4042857 10.8839286,22.6742857 L10.8839286,24.0714286 C10.8839855,24.1093336 10.8878139,24.1471388 10.8953571,24.1842857 C10.8839286,24.8685714 8.99107143,25.8571429 6.02678571,25.8571429 Z" id="形状" fill="#FFFFFF"></path>
                <path d="M5.25392858,15.8785714 C5.2377693,15.8799929 5.22151642,15.8799929 5.20535714,15.8785714 C4.28392857,15.72 3.72964286,15.33 3.72392858,14.8342857 C3.72392859,14.6764901 3.85184722,14.5485714 4.00964285,14.5485714 C4.16743849,14.5485714 4.29535713,14.6764901 4.29535714,14.8342857 C4.29535714,14.9442857 4.59392858,15.2014286 5.29535714,15.3228571 C5.39743302,15.3315336 5.4871262,15.3940078 5.53065012,15.4867463 C5.57417403,15.5794849 5.56491637,15.6883985 5.5063644,15.7724606 C5.44781244,15.8565227 5.3488616,15.9029622 5.24678571,15.8942857 L5.25392858,15.8785714 Z M6.80392857,15.8785714 C6.70185268,15.8872479 6.60290185,15.8408084 6.54434988,15.7567463 C6.48579792,15.6726842 6.47654026,15.5637706 6.52006417,15.471032 C6.56358809,15.3782935 6.65328126,15.3158193 6.75535714,15.3071429 C7.46964286,15.1842857 7.75535714,14.9285714 7.75535714,14.8185714 C7.75535714,14.7427953 7.78545909,14.6701227 7.83904092,14.6165409 C7.89262274,14.5629591 7.96529529,14.5328571 8.04107143,14.5328571 C8.19240779,14.5325845 8.31770577,14.6503646 8.32678572,14.8014286 L8.32678572,14.8242857 C8.32678572,15.3228571 7.77392858,15.7157143 6.84964286,15.8757143 L6.80392857,15.8785714 Z M5.24392857,14.3371429 C5.14185268,14.3458193 5.04290185,14.2993798 4.98434988,14.2153178 C4.92579792,14.1312557 4.91654026,14.022342 4.96006417,13.9296035 C5.00358809,13.8368649 5.09328126,13.7743907 5.19535714,13.7657143 C5.74116909,13.6753869 6.29811663,13.6753869 6.84392858,13.7657143 C7.00014626,13.7941175 7.10376036,13.9437823 7.07535714,14.1 C7.04695392,14.2562177 6.89728912,14.3598318 6.74107143,14.3314286 C6.25955122,14.2521455 5.76830592,14.2521455 5.28678571,14.3314286 L5.24392857,14.3371429 Z" id="形状" fill="#F6C235"></path>
            </g>
        </g>
    </g>
</svg>