<?xml version="1.0" encoding="UTF-8"?>
<svg width="20px" height="20px" viewBox="0 0 20 20" version="1.1" xmlns="http://www.w3.org/2000/svg" xmlns:xlink="http://www.w3.org/1999/xlink">
    <!-- Generator: Sketch 54.1 (76490) - https://sketchapp.com -->
    <title>护理敏感质量</title>
    <desc>Created with Sketch.</desc>
    <g id="页面1" stroke="none" stroke-width="1" fill="none" fill-rule="evenodd">
        <g id="统计分析（调整）" transform="translate(-15.000000, -148.000000)" fill-rule="nonzero">
            <g id="icon-rgb_peizhizhinengguanli" transform="translate(15.000000, 149.000000)">
                <path d="M10.0546798,5.74137932 L12.6493596,10.2339902 L10.0546798,14.726601 L4.86689655,14.726601 L2.27379311,10.2339902 L4.86689655,5.74137932 L10.0546798,5.74137932 L10.0546798,5.74137932 Z M10.0546798,4.48029557 L4.86689655,4.48029557 C4.41625354,4.48019436 3.99980426,4.72056912 3.77448276,5.11083743 L1.17980295,9.60344827 C0.954532035,9.99362894 0.954532035,10.4743513 1.17980295,10.864532 L3.77290641,15.3571429 C3.99822791,15.7474112 4.41467719,15.9877859 4.8653202,15.9876847 L10.0546798,15.9876847 C10.5053228,15.9877859 10.9217721,15.7474112 11.1470936,15.3571429 L13.7417734,10.864532 C13.9670443,10.4743513 13.9670443,9.99362894 13.7417734,9.60344827 L11.1470936,5.11083743 C10.9217721,4.72056912 10.5053228,4.48019436 10.0546798,4.48029557 Z" id="形状" fill="#F6C235"></path>
                <path d="M7.46945812,12.0799015 L7.4458128,12.0799015 C7.09013762,12.0781095 6.74274794,11.9723584 6.44640394,11.775665 C6.3456328,11.7008434 6.32087881,11.560325 6.39001577,11.455572 C6.45915273,11.350819 6.59808799,11.3183355 6.70650246,11.3815763 C6.93038863,11.5298614 7.19303697,11.6088204 7.46157636,11.6085714 C7.59268555,11.6085601 7.69945714,11.7139268 7.70118226,11.8450246 C7.70160175,11.9069002 7.67742336,11.966408 7.63396635,12.0104562 C7.59050934,12.0545045 7.5313337,12.0794848 7.46945812,12.0799015 L7.46945812,12.0799015 Z M8.80147783,11.3626601 C8.71432881,11.3626926 8.63422664,11.3147849 8.59302728,11.2379892 C8.55182791,11.1611936 8.55621103,11.0679611 8.60443349,10.9953695 C8.75493842,10.7700069 8.83504767,10.5049879 8.83458128,10.2339902 L8.83458128,10.2071921 C8.83276964,10.0789897 8.93346325,9.97270201 9.06157635,9.9675862 C9.19094449,9.9675747 9.29630466,10.0715301 9.29802956,10.2008867 L9.29802956,10.2339902 C9.29677725,10.5987361 9.18703111,10.9548623 8.98275861,11.2570443 C8.94211311,11.3185981 8.87507064,11.3576577 8.80147783,11.3626601 L8.80147783,11.3626601 Z M5.85054187,10.4783251 C5.78922969,10.480018 5.72977815,10.457167 5.68538387,10.4148445 C5.6409896,10.372522 5.61532563,10.3142295 5.61408867,10.2529064 L5.61408867,10.2339902 C5.61214427,9.87618994 5.71458558,9.52558863 5.90886699,9.22512315 C5.9536444,9.15124921 6.03514392,9.10767333 6.12144582,9.11146225 C6.20774773,9.11525117 6.28511481,9.16580177 6.32324583,9.24331564 C6.36137685,9.32082952 6.35420226,9.41296829 6.30453202,9.48364532 C6.16119448,9.70747583 6.08615168,9.96820849 6.08857142,10.2339902 C6.08949571,10.3656544 5.98529274,10.4740534 5.85369459,10.4783251 L5.85054187,10.4783251 Z M8.33330049,9.11793104 C8.28799333,9.11781362 8.24367376,9.1046819 8.20561576,9.08009853 C7.98396705,8.93674013 7.72554542,8.86063715 7.46157636,8.86098522 L7.44423645,8.86098522 C7.31364696,8.86359701 7.20566598,8.75985058 7.20305419,8.62926108 C7.2004424,8.49867158 7.30418883,8.3906906 7.43477833,8.38807881 L7.46157636,8.38807881 C7.81669624,8.38766279 8.16434612,8.49004157 8.46256157,8.68285715 C8.55077151,8.73983321 8.5908363,8.84815912 8.56092946,8.94882116 C8.53102262,9.04948321 8.4383104,9.11836087 8.33330049,9.11793104 L8.33330049,9.11793104 Z" id="形状" fill="#F6C235"></path>
                <path d="M17.4257143,13.0714286 L13.957734,13.0714286 C13.957734,12.3749513 14.5223404,11.8103448 15.2188177,11.8103448 L16.7951724,11.8103448 L16.7951724,2.27339901 L6.15477832,2.27339901 C6.15477832,2.48954392 6.0689151,2.69683609 5.91607757,2.84967363 C5.76324004,3.00251116 5.55594786,3.08837439 5.33980296,3.08837439 L4.89369459,3.08837439 L4.89369459,1.64285714 C4.89369459,1.29461849 5.1759978,1.01231528 5.52423645,1.01231528 L17.4257143,1.01231528 C17.7739529,1.01231528 18.0562562,1.29461849 18.0562562,1.64285714 L18.0562562,12.4408867 C18.0562562,12.6081168 17.9898243,12.7684976 17.8715747,12.8867471 C17.7533252,13.0049967 17.5929444,13.0714286 17.4257143,13.0714286 L17.4257143,13.0714286 Z" id="路径" fill="#FFFFFF"></path>
            </g>
        </g>
    </g>
</svg>