<?xml version="1.0" encoding="UTF-8"?>
<svg width="20px" height="20px" viewBox="0 0 20 20" version="1.1" xmlns="http://www.w3.org/2000/svg" xmlns:xlink="http://www.w3.org/1999/xlink">
    <!-- Generator: Sketch 54.1 (76490) - https://sketchapp.com -->
    <title>临床护理</title>
    <desc>Created with Sketch.</desc>
    <g id="页面1" stroke="none" stroke-width="1" fill="none" fill-rule="evenodd">
        <g id="统计分析（调整）" transform="translate(-13.000000, -520.000000)" fill-rule="nonzero">
            <g id="icon-rgb_dcv" transform="translate(13.000000, 520.000000)">
                <path d="M16.3280872,3.25651332 L16.3280872,6.55569008 C16.3280872,6.89802639 16.0505688,7.17554479 15.7082324,7.17554479 C15.3658961,7.17554479 15.0883777,6.89802639 15.0883777,6.55569008 L15.0883777,3.25651332 L4.24092009,3.25651332 L4.24092009,6.55569008 C4.24092009,6.89802639 3.96340168,7.17554479 3.62106538,7.17554479 C3.27872907,7.17554479 3.00121066,6.89802639 3.00121066,6.55569008 L3.00121066,3.25651332 C3.00121066,2.5718407 3.55624747,2.01680388 4.24092009,2.01680387 L15.0883777,2.01680387 C15.7730503,2.01680388 16.3280872,2.5718407 16.3280872,3.25651332 L16.3280872,3.25651332 Z" id="路径" fill="#F6C235"></path>
                <path d="M15.7082324,10.1198547 C15.5438368,10.1198547 15.3861743,10.1851607 15.269929,10.301406 C15.1536837,10.4176513 15.0883777,10.5753138 15.0883777,10.7397094 L15.0883777,12.2397579 C15.0713665,12.2382178 15.0542509,12.2382178 15.0372397,12.2397579 L4.24092009,12.2397579 L4.24092009,10.7397094 C4.24092009,10.3973731 3.96340168,10.1198547 3.62106538,10.1198547 C3.27872907,10.1198547 3.00121066,10.3973731 3.00121066,10.7397094 L3.00121066,15.7496852 C3.00121066,16.4343578 3.55624747,16.9893947 4.24092009,16.9893947 L15.0883777,16.9893947 C15.7730503,16.9893947 16.3280872,16.4343578 16.3280872,15.7496852 L16.3280872,10.7397094 C16.3280872,10.5753138 16.2627812,10.4176513 16.1465359,10.301406 C16.0302906,10.1851607 15.8726281,10.1198547 15.7082324,10.1198547 Z M15.0883777,15.7496852 L4.24092009,15.7496852 L4.24092009,13.4701695 L15.0372397,13.4701695 C15.0542509,13.4717096 15.0713665,13.4717096 15.0883777,13.4701695 L15.0883777,15.7496852 Z" id="形状" fill="#FFFFFF"></path>
                <path d="M4.18978208,9.38997578 L15.0372397,9.38997578 C15.379576,9.38997578 15.6570944,9.11245737 15.6570944,8.77012107 C15.6570944,8.42778476 15.379576,8.15026635 15.0372397,8.15026635 L4.18978208,8.15026635 C3.84744577,8.15026635 3.56992736,8.42778476 3.56992736,8.77012107 C3.56992736,9.11245737 3.84744577,9.38997578 4.18978208,9.38997578 Z M12.8677482,5.2261017 L11.6280387,5.2261017 C11.4996626,5.2261017 11.3955932,5.33017111 11.3955932,5.45854722 C11.3955932,5.58692334 11.4996626,5.69099274 11.6280387,5.69099274 L12.8677482,5.69099274 C12.9961243,5.69099274 13.1001937,5.58692334 13.1001937,5.45854722 C13.1001937,5.33017111 12.9961243,5.2261017 12.8677482,5.2261017 L12.8677482,5.2261017 Z M10.3108475,5.45854722 C10.3108475,5.58692334 10.2067781,5.69099274 10.0784019,5.69099274 L8.83869249,5.69099274 C8.71031637,5.69099274 8.60624697,5.58692334 8.60624697,5.45854722 C8.60624697,5.33017111 8.71031637,5.2261017 8.83869249,5.2261017 L10.0784019,5.2261017 C10.2067781,5.2261017 10.3108475,5.33017111 10.3108475,5.45854722 L10.3108475,5.45854722 Z" id="形状" fill="#F6C235"></path>
                <path d="M5.81535109,5.47714286 C5.81530612,5.78886761 5.98158346,6.07693239 6.25153751,6.23280774 C6.52149156,6.3886831 6.85410165,6.3886831 7.12405571,6.23280774 C7.39400976,6.07693239 7.5602871,5.78886761 7.56024212,5.47714286 C7.5602871,5.16541812 7.39400976,4.87735334 7.12405571,4.72147798 C6.85410165,4.56560263 6.52149156,4.56560263 6.25153751,4.72147798 C5.98158346,4.87735334 5.81530612,5.16541812 5.81535109,5.47714286 L5.81535109,5.47714286 Z" id="路径" fill="#F6C235"></path>
            </g>
        </g>
    </g>
</svg>