<?xml version="1.0" encoding="UTF-8"?>
<svg width="20px" height="20px" viewBox="0 0 20 20" version="1.1" xmlns="http://www.w3.org/2000/svg" xmlns:xlink="http://www.w3.org/1999/xlink">
    <!-- Generator: Sketch 54.1 (76490) - https://sketchapp.com -->
    <title>专科护理</title>
    <desc>Created with Sketch.</desc>
    <g id="页面1" stroke="none" stroke-width="1" fill="none" fill-rule="evenodd">
        <g id="统计分析（调整）" transform="translate(-14.000000, -559.000000)" fill-rule="nonzero">
            <g id="icon-rgb_dmv" transform="translate(16.000000, 559.000000)">
                <path d="M8.87470167,11.2779475 L7.65274462,11.2779475 C7.52620683,11.2779475 7.42362768,11.1753683 7.42362768,11.0488305 C7.42362768,10.9222928 7.52620683,10.8197136 7.65274462,10.8197136 L8.87470167,10.8197136 C9.00123947,10.8197136 9.10381862,10.9222928 9.10381862,11.0488305 C9.10381862,11.1753683 9.00123947,11.2779475 8.87470167,11.2779475 Z M6.12529833,11.2779475 C5.99876053,11.2779475 5.89618138,11.1753683 5.89618138,11.0488305 L5.89618138,9.8268735 C5.89618138,9.70033571 5.99876053,9.59775656 6.12529833,9.59775656 C6.25183612,9.59775656 6.35441527,9.70033571 6.35441527,9.8268735 L6.35441527,11.0488305 C6.35441527,11.1753683 6.25183612,11.2779475 6.12529833,11.2779475 L6.12529833,11.2779475 Z M8.87470167,9.7505012 C8.74816388,9.7505012 8.64558473,9.64792205 8.64558473,9.52138425 L8.64558473,8.29942721 C8.64558473,8.17288941 8.74816388,8.07031026 8.87470167,8.07031026 C9.00123947,8.07031026 9.10381862,8.17288941 9.10381862,8.29942721 L9.10381862,9.52138425 C9.10381862,9.64792205 9.00123947,9.7505012 8.87470167,9.7505012 L8.87470167,9.7505012 Z M7.34725538,8.52854415 L6.12529833,8.52854415 C5.99876053,8.52854415 5.89618138,8.425965 5.89618138,8.29942721 C5.89618138,8.17288941 5.99876053,8.07031026 6.12529833,8.07031026 L7.34725538,8.07031026 C7.47379317,8.07031026 7.57637232,8.17288941 7.57637232,8.29942721 C7.57637232,8.425965 7.47379317,8.52854415 7.34725538,8.52854415 Z" id="形状" fill="#F6C235"></path>
                <path d="M11.624105,11.5574702 L11.624105,6.59785203 C11.624105,5.92298379 11.0770162,5.37589499 10.402148,5.37589499 L1.23747016,5.37589499 C0.562601926,5.375895 0.0155131325,5.9229838 0.0155131325,6.59785203 L0.0155131325,15.7625298 C0.0155131423,16.4373981 0.562601933,16.9844869 1.23747016,16.9844869 L10.402148,16.9844869 C11.0770162,16.9844869 11.624105,16.4373981 11.624105,15.7625298 C11.624105,15.0876616 11.0770162,14.5405728 10.402148,14.5405728 L10.402148,15.7625298 L1.23747016,15.7625298 L1.23747016,6.59785203 L10.402148,6.59785203 L10.402148,10.3400955 C10.402148,11.0149637 10.9492368,11.5620525 11.624105,11.5620525 L11.624105,11.5574702 Z" id="路径" fill="#FFFFFF"></path>
                <path d="M3.37589499,7.44252983 L3.37589499,12.402148 C3.37589499,13.0770162 3.92298379,13.624105 4.59785203,13.624105 L13.7625298,13.624105 C14.4373981,13.624105 14.9844869,13.0770162 14.9844869,12.402148 L14.9844869,3.23747016 C14.9844869,2.56260193 14.4373981,2.01551314 13.7625298,2.01551313 L4.59785203,2.01551313 C3.9229838,2.01551313 3.375895,2.56260193 3.37589499,3.23747016 C3.37589499,3.9123384 3.92298379,4.45942721 4.59785203,4.45942721 L4.59785203,3.23747016 L13.7625298,3.23747016 L13.7625298,12.402148 L4.59785203,12.402148 L4.59785203,8.66448688 C4.59785203,7.98961864 4.05076323,7.44252983 3.37589499,7.44252983 Z" id="路径" fill="#F6C235"></path>
            </g>
        </g>
    </g>
</svg>