<?xml version="1.0" encoding="UTF-8"?>
<svg width="55px" height="55px" viewBox="0 0 55 55" version="1.1" xmlns="http://www.w3.org/2000/svg" xmlns:xlink="http://www.w3.org/1999/xlink">
    <!-- Generator: Sketch 55.2 (78181) - https://sketchapp.com -->
    <title>不良事件</title>
    <desc>Created with Sketch.</desc>
    <g id="首页确定" stroke="none" stroke-width="1" fill="none" fill-rule="evenodd">
        <g id="菜单导航修改备份-2" transform="translate(-999.000000, -83.000000)" fill="#2C699D" fill-rule="nonzero">
            <g id="不良总额" transform="translate(999.000000, 83.000000)">
                <path d="M24.3796317,43.8754727 L24.3796317,43.8754727 C24.0416244,44.5449557 23.8803027,45.2861069 23.9102866,46.0317556 L8.36839375,46.0317556 L8.36839375,39.5802908 C8.36839375,30.0873162 16.1844924,22.3636431 25.7983466,22.3636431 C28.840183,22.3636431 31.6990469,23.1411099 34.1930905,24.5025422 L24.3796229,43.8754684 L24.3796317,43.8754727 Z M25.7983643,20.2120039 C20.9908419,20.2120039 17.0827926,16.3478456 17.0827926,11.6030996 C17.0827926,6.86065408 20.9920236,3 25.7995548,3 C30.6070772,3 34.513936,6.85836232 34.513936,11.6089043 C34.513936,16.3525108 30.604705,20.2120039 25.7995548,20.2120039 L25.7983643,20.2120039 Z M51.0170775,45.3180368 C51.4127535,46.1036129 50.8340919,47.0293907 49.9453072,47.0293907 L28.3779723,47.0293907 C27.4891876,47.0293907 26.9093385,46.1036172 27.306202,45.3180368 L38.0916332,24.0171053 L38.0916332,24.0171054 C38.3794835,23.4399035 39.0926811,23.1995349 39.6846031,23.4802265 C39.924593,23.5940304 40.1184689,23.7830854 40.2351737,24.0171054 L51.0158428,45.3180369 L51.0170775,45.3180368 Z M37.9645103,43.4803907 L40.3587648,43.4803907 L40.3587648,41.1120745 L37.9645103,41.1120745 L37.9645103,43.4803907 Z M37.9645103,38.7449107 L40.3587648,38.7449107 L40.3587648,32.8276031 L37.9645103,32.8276031 L37.9645103,38.7449107 Z" id="形状"></path>
            </g>
        </g>
    </g>
</svg>