<?xml version="1.0" encoding="UTF-8"?>
<svg width="55px" height="55px" viewBox="0 0 55 55" version="1.1" xmlns="http://www.w3.org/2000/svg" xmlns:xlink="http://www.w3.org/1999/xlink">
    <!-- Generator: Sketch 55.2 (78181) - https://sketchapp.com -->
    <title>护士排班</title>
    <desc>Created with Sketch.</desc>
    <g id="首页确定" stroke="none" stroke-width="1" fill="none" fill-rule="evenodd">
        <g id="菜单导航修改备份-2" transform="translate(-569.000000, -83.000000)" fill="#CF8510" fill-rule="nonzero">
            <g id="排班" transform="translate(569.000000, 83.000000)">
                <path d="M12.9068217,21.6712499 L19.8970212,21.6712499 L19.8970212,28.4392846 L12.9068217,28.4392846 L12.9068217,21.6712499 Z M12.9068217,31.4473 L19.8970212,31.4473 L19.8970212,38.2153348 L12.9068217,38.2153348 L12.9068217,31.4473 Z M42.6798934,8.13518039 C42.6798934,9.1378522 41.9032046,10.140524 40.6087232,10.140524 C39.5731381,10.140524 38.537553,9.38852015 38.537553,8.13518039 L38.537553,2.87115337 C38.537553,1.86848156 39.3142419,0.865809749 40.6087232,0.865809749 C41.9032046,0.865809749 42.6798934,1.61781361 42.6798934,2.87115337 L42.6798934,8.13518039 Z M14.2013031,2.87115337 C14.2013031,1.86848156 13.4246143,0.865809749 12.1301329,0.865809749 C11.0945478,0.865809749 10.0589627,1.61781361 10.0589627,2.87115337 L10.0589627,8.13518039 C10.0589627,9.1378522 10.8356515,10.140524 12.1301329,10.140524 C13.165718,10.140524 14.2013031,9.38852015 14.2013031,8.13518039 L14.2013031,2.87115337 Z M32.3240424,29.4419564 C32.3240424,33.2019757 35.4307977,36.2099911 39.3142419,36.2099911 C43.197686,36.2099911 46.3044413,33.2019757 46.3044413,29.4419564 C46.3044413,25.6819371 43.197686,22.6739217 39.3142419,22.6739217 C35.4307977,22.6739217 32.3240424,25.6819371 32.3240424,29.4419564 Z M49.9289892,41.7246861 C49.6700929,41.2233502 49.4111966,40.7220143 48.8934041,40.4713463 L48.6345078,40.2206784 C48.3756115,39.9700104 48.1167152,39.7193425 47.857819,39.7193425 C47.857819,39.7193425 47.5989227,39.7193425 47.5989227,39.4686745 L47.3400264,39.2180066 C47.0811301,38.9673386 46.8222339,38.9673386 46.5633376,38.9673386 L46.3044413,38.9673386 C46.045545,38.9673386 46.045545,38.7166707 45.7866488,38.7166707 L45.5277525,38.7166707 C45.2688562,38.7166707 45.0099599,38.4660027 44.7510636,38.4660027 L43.7154785,38.4660027 C43.4565823,38.4660027 42.9387897,38.4660027 42.6798934,38.2153348 L41.1265158,38.2153348 L37.7608642,38.2153348 L36.2074865,38.2153348 L35.9485903,38.2153348 C35.4307977,38.2153348 35.1719014,38.2153348 34.9130052,38.4660027 L33.8774201,38.4660027 C33.6185238,38.4660027 33.3596275,38.7166707 33.1007312,38.7166707 L32.841835,38.7166707 C32.5829387,38.7166707 32.5829387,38.9673386 32.3240424,38.9673386 L32.0651461,38.9673386 C31.8062499,38.9673386 31.5473536,39.2180066 31.2884573,39.2180066 L31.029561,39.4686745 C31.029561,39.4686745 30.7706647,39.4686745 30.7706647,39.7193425 C30.5117685,39.9700104 30.2528722,40.2206784 29.9939759,40.2206784 L29.7350796,40.4713463 C29.4761834,40.9726822 28.9583908,41.2233502 28.6994945,41.7246861 C27.4050132,43.7300297 27.4050132,47.740717 27.4050132,47.740717 L50.9645743,47.740717 C50.9645743,47.490049 51.2234705,43.7300297 49.9289892,41.7246861 L49.9289892,41.7246861 Z M20.9326063,41.975354 L7.21110364,41.975354 L7.21110364,16.6578908 L45.5277525,16.6578908 L45.5277525,20.1672421 L50.1878854,20.1672421 L50.1878854,5.62850086 L45.5277525,5.62850086 L45.5277525,7.63384448 C45.5277525,10.140524 43.4565823,12.1458676 40.8676195,12.1458676 C38.2786568,12.1458676 36.2074865,10.140524 36.2074865,7.63384448 L36.2074865,5.62850086 L16.7902658,5.62850086 L16.7902658,7.63384448 C16.7902658,10.140524 14.7190956,12.1458676 12.1301329,12.1458676 C9.54117012,12.1458676 7.46999992,10.391192 7.46999992,7.88451243 L7.46999992,5.62850086 L2.55097067,5.62850086 L2.55097067,46.4873772 L21.1915025,46.4873772 L21.1915025,41.975354 L20.9326063,41.975354 Z" id="形状"></path>
            </g>
        </g>
    </g>
</svg>