<?xml version="1.0" encoding="UTF-8"?>
<svg width="55px" height="55px" viewBox="0 0 55 55" version="1.1" xmlns="http://www.w3.org/2000/svg" xmlns:xlink="http://www.w3.org/1999/xlink">
    <!-- Generator: Sketch 55.2 (78181) - https://sketchapp.com -->
    <title>护士档案</title>
    <desc>Created with Sketch.</desc>
    <g id="首页确定" stroke="none" stroke-width="1" fill="none" fill-rule="evenodd">
        <g id="菜单导航修改备份-2" transform="translate(-354.000000, -83.000000)" fill="#028D4D" fill-rule="nonzero">
            <g id="档案查询" transform="translate(354.000000, 83.000000)">
                <path d="M46.2133005,12.6664087 C46.2133005,9.99316708 43.5532126,9.99316708 43.5532126,9.99316708 L11.6159501,9.99316708 C11.6159501,9.99316708 8.95574467,9.99316708 8.95574467,12.6664087 L8.95574467,15.3398851 L46.2133005,15.3398851 L46.2133005,12.6664087 L46.2133005,12.6664087 Z M38.2281628,4.64621414 L16.9392969,4.64621414 C16.9392969,4.64621414 14.2793264,4.64621414 14.2793264,7.31969061 L40.8898949,7.31969061 C40.8898949,4.64621414 38.2263424,4.64621414 38.2263424,4.64621414 L38.2281628,4.64621414 L38.2281628,4.64621414 Z M51.5333003,15.3398264 L49.9594442,13.7575732 L49.9594442,18.0132442 L5.20977711,18.0132442 L5.20977711,13.7575732 L3.63592111,15.3398264 C2.06183021,16.9220796 0.932379184,17.3481047 1.56903864,20.6900678 C2.19718347,24.0182899 5.25340725,42.2777091 5.70438905,44.7471867 C6.20410977,47.4573642 8.95762376,47.4206886 8.95762376,47.4206886 L46.2149447,47.4206886 C46.2149447,47.4206886 48.9684,47.4573055 49.4682382,44.7471867 C49.9227433,42.2777091 52.975385,24.0182312 53.6069357,20.6900678 C54.2401893,17.348046 53.1123238,16.9238413 51.5350619,15.3398264 L51.5333003,15.3398264 Z M38.2281628,29.7762353 C38.2281628,29.7762353 38.2281628,32.4497117 35.5646103,32.4497117 L19.6010291,32.4497117 C16.9411173,32.4497117 16.9411173,29.7762353 16.9411173,29.7762353 L16.9411173,24.4295172 L20.6672957,24.4295172 L20.6672957,28.7069151 L34.4971692,28.7069151 L34.4971692,24.4295172 L38.2296896,24.4295172 L38.2296896,29.7762353 L38.2281628,29.7762353 Z" id="形状"></path>
            </g>
        </g>
    </g>
</svg>