<?xml version="1.0" encoding="UTF-8"?>
<svg width="55px" height="55px" viewBox="0 0 55 55" version="1.1" xmlns="http://www.w3.org/2000/svg" xmlns:xlink="http://www.w3.org/1999/xlink">
    <!-- Generator: Sketch 55.2 (78181) - https://sketchapp.com -->
    <title>病区白板</title>
    <desc>Created with Sketch.</desc>
    <g id="首页确定" stroke="none" stroke-width="1" fill="none" fill-rule="evenodd">
        <g id="菜单导航修改备份-2" transform="translate(-139.000000, -83.000000)" fill="#02A3CC" fill-rule="nonzero">
            <g id="白板" transform="translate(139.000000, 83.000000)">
                <path d="M46.0839143,10.5576169 L8.37751206,10.5576169 L8.37751207,10.5576169 C7.92480014,10.5576169 7.55780785,10.9246114 7.55780785,11.3773213 L7.55780785,39.2472563 C7.55780785,39.7030111 7.92503532,40.0669605 8.37751207,40.0669605 L12.4760331,40.0669605 L12.4760331,38.4275521 L12.4760331,38.4275519 C12.4760333,37.5221322 13.2100219,36.7881434 14.1154416,36.7881434 L20.6730587,36.7881434 L20.6730586,36.7881434 C21.5784783,36.7881434 22.312467,37.5221322 22.312467,38.4275519 L22.312467,40.0669605 L46.0839018,40.0669605 C46.5396565,40.0669605 46.903606,39.7030117 46.903606,39.2472561 L46.903606,11.3773211 L46.903606,11.3773211 C46.903606,10.9246092 46.5366116,10.5576169 46.0839018,10.5576169 L46.0839143,10.5576169 Z M50.1824354,41.7064023 L50.1824354,41.7064023 C50.1824354,42.611822 49.4484467,43.3458107 48.543027,43.3458107 C48.543027,43.3458107 48.543027,43.3458107 48.5430269,43.3458107 L5.91839105,43.3458107 L5.91839097,43.3458107 C5.01297128,43.3458107 4.27898254,42.611822 4.27898254,41.7064023 L4.27898254,8.91823362 C4.27898254,8.01656023 5.01671759,7.27882519 5.91839097,7.27882519 L48.5430269,7.27882519 C49.4447003,7.27882519 50.1824354,8.01656023 50.1824354,8.91823362 L50.1824354,41.7064023 L50.1824354,41.7064023 Z M48.543027,4 L5.91839109,4 L5.91839087,4 C3.20212763,4 1.00015725,6.20196621 1.00015725,8.91823362 L1.00015725,41.7064023 L1.00015725,41.7064028 C1.00015725,44.422666 3.20212346,46.6246364 5.91839087,46.6246364 L48.5430268,46.6246364 L48.5430266,46.6246364 C51.2592898,46.6246364 53.4612602,44.4226702 53.4612602,41.7064028 L53.4612602,8.91823415 L53.4612602,8.91823394 C53.4612602,6.20197069 51.259294,4 48.5430266,4 C48.5430263,4 48.5430261,4 48.5430258,4 L48.543027,4 Z" id="形状"></path>
            </g>
        </g>
    </g>
</svg>