<?xml version="1.0" encoding="UTF-8"?>
<svg width="11px" height="17px" viewBox="0 0 11 17" version="1.1" xmlns="http://www.w3.org/2000/svg" xmlns:xlink="http://www.w3.org/1999/xlink">
    <!-- Generator: Sketch 55.2 (78181) - https://sketchapp.com -->
    <title>手机</title>
    <desc>Created with Sketch.</desc>
    <g id="页面1" stroke="none" stroke-width="1" fill="none" fill-rule="evenodd" opacity="0.501929874">
        <g id="手机电脑模式" transform="translate(-19.000000, -17.000000)" fill-rule="nonzero">
            <g id="手机备份" transform="translate(15.000000, 16.000000)">
                <rect id="矩形" fill="#000000" opacity="0" x="0" y="0" width="19" height="19"></rect>
                <path d="M13.015,2.565 C13.3285,2.565 13.585,2.8215 13.585,3.135 L13.585,15.865 C13.585,16.1785 13.3285,16.435 13.015,16.435 L5.985,16.435 C5.6715,16.435 5.415,16.1785 5.415,15.865 L5.415,3.135 C5.415,2.8215 5.6715,2.565 5.985,2.565 L13.015,2.565 L13.015,2.565 Z M13.015,1.425 L5.985,1.425 C5.0445,1.425 4.275,2.1945 4.275,3.135 L4.275,15.865 C4.275,16.8055 5.0445,17.575 5.985,17.575 L13.015,17.575 C13.9555,17.575 14.725,16.8055 14.725,15.865 L14.725,3.135 C14.725,2.1945 13.9555,1.425 13.015,1.425 Z M13.6325,14.0315 L5.3675,14.0315 C4.769,14.0315 4.275,14.516 4.275,15.124 L4.275,15.9505 C4.275,16.549 4.7595,17.043 5.3675,17.043 L13.6325,17.043 C14.231,17.043 14.725,16.5585 14.725,15.9505 L14.725,15.124 C14.725,14.516 14.231,14.0315 13.6325,14.0315 Z M9.481,16.264 C9.006,16.264 8.6165,15.8745 8.6165,15.3995 C8.6165,14.9245 9.006,14.535 9.481,14.535 C9.956,14.535 10.3455,14.9245 10.3455,15.3995 C10.3455,15.8745 9.956,16.264 9.481,16.264 Z" id="形状" fill="#6A6F7A"></path>
            </g>
        </g>
    </g>
</svg>