<?xml version="1.0" encoding="UTF-8"?>
<svg width="17px" height="15px" viewBox="0 0 17 15" version="1.1" xmlns="http://www.w3.org/2000/svg" xmlns:xlink="http://www.w3.org/1999/xlink">
    <!-- Generator: Sketch 55.2 (78181) - https://sketchapp.com -->
    <title>电脑</title>
    <desc>Created with Sketch.</desc>
    <g id="页面1" stroke="none" stroke-width="1" fill="none" fill-rule="evenodd">
        <g id="手机电脑模式" transform="translate(-339.000000, -18.000000)" fill-rule="nonzero">
            <g id="电脑" transform="translate(337.000000, 15.000000)">
                <rect id="矩形" fill="#000000" opacity="0" x="0" y="0" width="21" height="21"></rect>
                <path d="M16.8287109,15.177832 L12.6041016,15.177832 L12.6041016,17.0501953 L13.5392578,17.0501953 C13.7094727,17.044043 13.8714844,17.1322266 13.9576172,17.2798828 C14.0458008,17.4275391 14.0458008,17.6100586 13.9576172,17.7577148 C13.8694336,17.9053711 13.7094727,17.9935547 13.5392578,17.9874023 L7.92421875,17.9874023 C7.66582031,17.9874023 7.45664062,17.7782227 7.45664062,17.5198242 C7.45664062,17.2614258 7.66582031,17.0522461 7.92421875,17.0522461 L8.859375,17.0522461 L8.859375,15.1798828 L4.1671875,15.1798828 C3.13359375,15.1798828 2.29482422,14.3411133 2.29482422,13.3075195 L2.29482422,4.88291016 C2.29482422,3.84931641 3.13359375,3.01259766 4.1671875,3.01259766 L16.8307617,3.01259766 C17.8643555,3.01259766 18.7010742,3.84931641 18.703125,4.88291016 L18.703125,13.3054687 C18.7010742,14.3390625 17.8623047,15.177832 16.8287109,15.177832 Z M3.22998047,12.3703125 L3.22998047,13.3075195 C3.22998047,13.8243164 3.64833984,14.2426758 4.16513672,14.2426758 L16.8287109,14.2426758 C17.3455078,14.2426758 17.765918,13.8222656 17.765918,13.3075195 L17.765918,12.3703125 L3.22998047,12.3703125 Z" id="形状" fill="#1db38b"></path>
            </g>
        </g>
    </g>
</svg>