<svg xmlns="http://www.w3.org/2000/svg" width="14" height="14" viewBox="0 0 14 14">
  <g id="备用药品使用登记本" transform="translate(-166.044 -320.111)">
    <path id="路径_145" data-name="路径 145" d="M174.644,322.124a.38.38,0,0,0,.414-.335v-1.342c0-.206-.159-.334-.414-.334a.38.38,0,0,0-.413.334v1.34A.379.379,0,0,0,174.644,322.124Z" transform="translate(-0.075)"/>
    <path id="路径_146" data-name="路径 146" d="M169.683,322.124a.378.378,0,0,0,.412-.335v-1.344a.422.422,0,0,0-.825,0v1.34A.378.378,0,0,0,169.683,322.124Z" transform="translate(-0.029)"/>
    <path id="路径_147" data-name="路径 147" d="M170.923,321.663H173.4a.41.41,0,0,0,.371-.419v-.023a.384.384,0,0,0-.372-.4h-2.481a.415.415,0,0,0-.372.419v.023A.385.385,0,0,0,170.923,321.663Z" transform="translate(-0.05)"/>
    <path id="路径_148" data-name="路径 148" d="M175.883,321.624h.248a1.481,1.481,0,0,1,1.486,1.463v1.3h.872v-1.261a2.383,2.383,0,0,0-2.358-2.343h-.248a.419.419,0,1,0,0,.838Z" transform="translate(-0.122)"/>
    <path id="路径_149" data-name="路径 149" d="M166.871,330.07V323.1a1.468,1.468,0,0,1,1.447-1.451.416.416,0,0,0,.413-.416.334.334,0,0,0,0-.045.393.393,0,0,0-.413-.37h-.072a2.245,2.245,0,0,0-2.2,2.281v7.007a2.32,2.32,0,0,0,2.316,2.322h5.072v-.911h-5.077A1.508,1.508,0,0,1,166.871,330.07Z" transform="translate(0 0)"/>
    <path id="路径_150" data-name="路径 150" d="M180.031,328.321l-.81-1.418a1.026,1.026,0,0,0-.385-1.978h-3.627a1.029,1.029,0,0,0-1.028,1.027,1.018,1.018,0,0,0,.644.951l-.81,1.418a1.033,1.033,0,0,0-.137.512V333.2a1.03,1.03,0,0,0,1.029,1.028h4.231a1.029,1.029,0,0,0,1.028-1.028v-4.372A1.036,1.036,0,0,0,180.031,328.321Zm-5-2.37a.181.181,0,0,1,.181-.18h3.626a.18.18,0,1,1,0,.361h-3.626A.181.181,0,0,1,175.028,325.951Zm-.3,2.881a.181.181,0,0,1,.024-.09l1.007-1.763h2.53l1.009,1.765a.174.174,0,0,1,.022.088V333.2a.183.183,0,0,1-.18.182h-4.231a.182.182,0,0,1-.181-.182Z" transform="translate(-0.122 -0.122)"/>
    <path id="路径_151" data-name="路径 151" d="M176.311,332.059h1.245A1.06,1.06,0,0,0,178.614,331v-1.244a1.06,1.06,0,0,0-1.058-1.059h-1.245a1.06,1.06,0,0,0-1.058,1.059V331A1.06,1.06,0,0,0,176.311,332.059ZM176.125,331v-1.244a.187.187,0,0,1,.186-.187h1.245a.187.187,0,0,1,.186.187V331a.187.187,0,0,1-.186.187h-1.245A.187.187,0,0,1,176.125,331Z" transform="translate(-0.122 -0.097)"/>
    <path id="路径_152" data-name="路径 152" d="M169.156,324.39h6.222a.389.389,0,0,0,.388-.389v-.008a.388.388,0,0,0-.388-.388h-6.222a.4.4,0,0,0-.389.4A.389.389,0,0,0,169.156,324.39Z" transform="translate(-0.046 -0.032)"/>
    <path id="路径_153" data-name="路径 153" d="M169.156,326.723h3.889a.388.388,0,0,0,0-.777h-3.889a.388.388,0,1,0,0,.777Z" transform="translate(-0.035 -0.053)"/>
    <path id="路径_154" data-name="路径 154" d="M169.156,329.056h3.889a.389.389,0,0,0,0-.777h-3.889a.389.389,0,1,0,0,.777Z" transform="translate(-0.035 -0.075)"/>
  </g>
</svg>
