<svg xmlns="http://www.w3.org/2000/svg" width="14" height="14" viewBox="0 0 14 14">
  <g id="出院患者登记本" transform="translate(-204 -203.999)">
    <path id="路径_284" data-name="路径 284" d="M217.914,214.321l-4.152-3.273a.23.23,0,0,0-.239-.026.229.229,0,0,0-.128.205v1.467h-4.35a.227.227,0,0,0-.227.227v3.158a.227.227,0,0,0,.227.227H213.4v1.466a.227.227,0,0,0,.128.2.235.235,0,0,0,.1.023.23.23,0,0,0,.141-.049l4.146-3.273a.227.227,0,0,0,0-.356Z"/>
    <path id="路径_285" data-name="路径 285" d="M212.6,206.012a.379.379,0,0,0,.413-.335v-1.342c0-.206-.158-.334-.413-.334a.379.379,0,0,0-.413.334v1.34A.378.378,0,0,0,212.6,206.012Z"/>
    <path id="路径_286" data-name="路径 286" d="M207.639,206.012a.378.378,0,0,0,.412-.335v-1.342h0a.375.375,0,0,0-.413-.333.379.379,0,0,0-.413.334v1.34A.38.38,0,0,0,207.639,206.012Z"/>
    <path id="路径_287" data-name="路径 287" d="M208.879,205.551h2.48a.41.41,0,0,0,.372-.419v-.023a.384.384,0,0,0-.373-.4h-2.48a.415.415,0,0,0-.372.419v.024A.384.384,0,0,0,208.879,205.551Z"/>
    <path id="路径_288" data-name="路径 288" d="M213.838,205.512h.249a1.479,1.479,0,0,1,1.485,1.463v5l.872.688v-5.651a2.38,2.38,0,0,0-2.357-2.342h-.249a.418.418,0,0,0,0,.837Z"/>
    <path id="路径_289" data-name="路径 289" d="M208.429,215.522h-2.117a1.518,1.518,0,0,1-1.486-1.468v-7.037a1.476,1.476,0,0,1,1.447-1.466.419.419,0,0,0,.414-.42.321.321,0,0,0,0-.044.4.4,0,0,0-.414-.375H206.2a2.258,2.258,0,0,0-2.2,2.3v7.08a2.333,2.333,0,0,0,2.316,2.346h2.245a.6.6,0,0,1-.133-.364Z"/>
    <path id="路径_290" data-name="路径 290" d="M207.111,208.278h6.222a.389.389,0,1,0,0-.778h-6.222a.389.389,0,0,0,0,.778Z"/>
    <path id="路径_291" data-name="路径 291" d="M207.111,210.611h6.222a.389.389,0,1,0,0-.778h-6.222a.389.389,0,0,0,0,.778Z"/>
  </g>
</svg>
