<svg xmlns="http://www.w3.org/2000/svg" width="14" height="13.997" viewBox="0 0 14 13.997">
  <g id="护患沟通记录表" transform="translate(-323.917 -221.003)">
    <path id="路径_259" data-name="路径 259" d="M337.333,227.737h-5.616a.584.584,0,0,0-.584.583v2.259a.583.583,0,0,0,.584.583h3.541a.584.584,0,0,0,0-1.167H332.3V228.9h4.45v3.642h-2.159a.586.586,0,0,0-.347.114l-.924.683-.036-.334a.582.582,0,0,0-.58-.521h-.4v-.015a.583.583,0,0,0-1.167,0v.6a.583.583,0,0,0,.584.583h.463l.088.826a.584.584,0,0,0,.927.407l1.589-1.174h2.549a.584.584,0,0,0,.584-.584V228.32A.584.584,0,0,0,337.333,227.737Z"/>
    <path id="路径_260" data-name="路径 260" d="M328.711,233.1h-2.947a.9.9,0,0,1-.918-.885v-9.436a.9.9,0,0,1,.918-.884h9.79a.9.9,0,0,1,.918.884v2.4a.465.465,0,0,0,.93,0v-2.4A1.818,1.818,0,0,0,335.554,221h-9.79a1.817,1.817,0,0,0-1.847,1.781v9.435A1.817,1.817,0,0,0,325.764,234h2.947a.448.448,0,1,0,0-.9Z"/>
    <path id="路径_261" data-name="路径 261" d="M334.35,223.928a.458.458,0,0,0-.465-.449h-6.627a.449.449,0,1,0,0,.9h6.627A.458.458,0,0,0,334.35,223.928Z"/>
    <path id="路径_262" data-name="路径 262" d="M328.941,228.372h-1.822c-.18,0-.326.2-.326.448s.146.449.326.449h1.822c.18,0,.326-.2.326-.449S329.121,228.372,328.941,228.372Z"/>
    <path id="路径_263" data-name="路径 263" d="M327.2,225.844a.45.45,0,0,0,0,.9h4.048a.45.45,0,0,0,0-.9Z"/>
  </g>
</svg>
