<svg xmlns="http://www.w3.org/2000/svg" width="14" height="14" viewBox="0 0 14 14">
  <g id="特殊交班登记本" transform="translate(-166 -124.028)">
    <path id="路径_207" data-name="路径 207" d="M174.6,126.041a.379.379,0,0,0,.413-.335v-1.342c0-.206-.158-.334-.413-.334a.379.379,0,0,0-.413.334v1.341A.378.378,0,0,0,174.6,126.041Z" transform="translate(-0.074)"/>
    <path id="路径_208" data-name="路径 208" d="M169.638,126.041a.377.377,0,0,0,.412-.335v-1.342h0a.422.422,0,0,0-.825,0v1.341A.378.378,0,0,0,169.638,126.041Z" transform="translate(-0.029)"/>
    <path id="路径_209" data-name="路径 209" d="M173.358,125.579a.41.41,0,0,0,.372-.418v-.023a.385.385,0,0,0-.373-.4h-2.48a.416.416,0,0,0-.372.42v.023a.384.384,0,0,0,.373.4h2.48Z" transform="translate(-0.049)"/>
    <path id="路径_210" data-name="路径 210" d="M171.866,133.415l0-.009s.043-.169.046-.2A3.625,3.625,0,0,1,175.5,129.9a3.578,3.578,0,0,1,2.524,1.045H177.3a.506.506,0,1,0,0,1.011h1.8a.505.505,0,0,0,.507-.5v-1.806a.507.507,0,0,0-1.012.006v.431A4.6,4.6,0,0,0,170.924,133c0,.011-.006.035-.011.065-.009.047-.019.1-.024.146a.325.325,0,0,0,.029.208.5.5,0,0,0,.948,0Z" transform="translate(-0.12 -0.049)"/>
    <path id="路径_211" data-name="路径 211" d="M180.12,133.5a.692.692,0,0,0-.033-.17.507.507,0,0,0-.473-.335.5.5,0,0,0-.468.326.342.342,0,0,0-.039.149v.03a3.595,3.595,0,0,1-6.127,2.563h.724a.506.506,0,0,0,0-1.012h-1.8a.507.507,0,0,0-.506.506v1.8a.506.506,0,0,0,1.012,0v-.437a4.609,4.609,0,0,0,7.708-3.417h0Z" transform="translate(-0.12 -0.093)"/>
    <path id="路径_212" data-name="路径 212" d="M166.826,134.009v-6.98a1.47,1.47,0,0,1,1.447-1.455.415.415,0,0,0,.413-.416c0-.015,0-.03,0-.045a.394.394,0,0,0-.414-.372H168.2a2.247,2.247,0,0,0-2.2,2.288v7.023a2.323,2.323,0,0,0,2.316,2.327h2.35v-.914h-2.356A1.511,1.511,0,0,1,166.826,134.009Z"/>
    <path id="路径_213" data-name="路径 213" d="M175.837,125.541h.249A1.479,1.479,0,0,1,177.571,127V128.5a4.731,4.731,0,0,1,.872.632v-2.081a2.381,2.381,0,0,0-2.357-2.343h-.249a.418.418,0,0,0,0,.837Z" transform="translate(-0.12)"/>
  </g>
</svg>
