<?xml version="1.0" encoding="UTF-8"?>
<svg width="14px" height="14px" viewBox="0 0 14 14" version="1.1" xmlns="http://www.w3.org/2000/svg" xmlns:xlink="http://www.w3.org/1999/xlink">
    <!-- Generator: Sketch 60.1 (88133) - https://sketch.com -->
    <title>仪器设备使用登记本</title>
    <desc>Created with Sketch.</desc>
    <g id="页面-3" stroke="none" stroke-width="1" fill="none" fill-rule="evenodd">
        <g id="icon" transform="translate(-9.000000, -27.000000)" fill="#000000" fill-rule="nonzero">
            <g id="仪器设备使用登记本" transform="translate(9.000000, 27.000000)">
                <path d="M5.323,4.939 L6.804,5.795 C6.93528504,5.87033656 7.03114199,5.99487802 7.07036499,6.14107281 C7.10958798,6.2872676 7.088944,6.4430654 7.013,6.574 L6.90221018,6.76616019 C8.21070582,7.7147069 8.83281535,9.3788826 8.42755514,10.978594 C7.97958165,12.7469104 6.39017256,13.9868112 4.566,13.991 L4.563,13.991 C3.242699,13.9897722 2.01600477,13.3379033 1.27441814,12.2628001 L0.57,12.262 C0.264205975,12.2491945 0.0228903746,11.997562 0.0228903746,11.6915 C0.0228903746,11.385438 0.264205975,11.1338055 0.57,11.121 L3.422,11.121 C3.63151758,11.1122262 3.82898616,11.2190032 3.93636,11.3991294 C4.04373383,11.5792557 4.04373383,11.8037443 3.93636,11.9838706 C3.82898616,12.1639968 3.63151758,12.2707738 3.422,12.262 L2.8273082,12.26184 C3.45246363,12.740488 4.26349091,12.9505504 5.07137514,12.8038375 C6.26203051,12.5876129 7.18660209,11.6435285 7.37791624,10.4486175 C7.54313275,9.41670727 7.13043067,8.3917753 6.32973085,7.75963582 L4.794,10.417 C4.69272492,10.5940816 4.50399411,10.7029647 4.3,10.7020064 C4.20000174,10.7019245 4.10175807,10.6757262 4.015,10.626 L2.533,9.77 C2.40191875,9.69447323 2.30623883,9.56993506 2.26703705,9.42381933 C2.22783526,9.2777036 2.24832763,9.12199725 2.324,8.991 L4.543,5.148 C4.70067746,4.8748954 5.04989516,4.78132296 5.323,4.939 Z M11.643,0.676 C12.9347054,0.688874084 13.980533,1.72937717 14.0000268,3.021 L14.0000268,3.021 L14.0000268,10.102 C14.0060983,11.3881576 12.9701381,12.4366424 11.684,12.446 L11.684,12.446 L8.327,12.446 C8.52500943,12.1592332 8.6884739,11.850094 8.814,11.525 L8.814,11.525 L11.639,11.525 C12.4550004,11.5294392 13.1208492,10.8729811 13.128,10.057 L13.128,10.057 L13.128,2.976 C13.1192121,2.1630824 12.4559582,1.50965447 11.643,1.513 L11.643,1.513 L11.394,1.513 C11.1628688,1.513 10.9755,1.32563117 10.9755,1.0945 C10.9755,0.863368832 11.1628688,0.676 11.394,0.676 L11.394,0.676 Z M3.828,0.713 C4.04526243,0.70443175 4.22957943,0.870983255 4.243,1.088 L4.243,1.088 L4.243,1.133 C4.24356001,1.36269156 4.05868173,1.54980267 3.829,1.552 C3.02911289,1.56875988 2.38777889,2.2189582 2.382,3.019 L2.382,3.019 L2.382,8.096 L1.557,9.363 L1.557,3.019 C1.53015997,1.77564444 2.51375771,0.744655168 3.757,0.713 L3.757,0.713 Z M5.249,6.212 L3.6,9.068 L4.093,9.353 L5.742,6.497 L5.249,6.212 Z M10.889,8.169 C11.1038388,8.169 11.278,8.34316123 11.278,8.558 C11.278,8.77283877 11.1038388,8.947 10.889,8.947 L10.889,8.947 L9.333,8.947 C9.11816123,8.947 8.944,8.77283877 8.944,8.558 C8.944,8.34316123 9.11816123,8.169 9.333,8.169 L9.333,8.169 Z M10.889,5.835 C10.9920775,5.83499966 11.0909187,5.87601535 11.1637116,5.94899589 C11.2365045,6.02197643 11.2772657,6.12092285 11.2770013,6.224 C11.2772657,6.32707715 11.2365045,6.42602357 11.1637116,6.49900411 C11.0909187,6.57198465 10.9920775,6.61300034 10.889,6.613 L10.889,6.613 L7.777,6.613 C7.56216123,6.613 7.388,6.43883877 7.388,6.224 C7.388,6.00916123 7.56216123,5.835 7.777,5.835 L7.777,5.835 Z M10.889,3.502 C10.9920775,3.50199966 11.0909187,3.54301535 11.1637116,3.61599589 C11.2365045,3.68897643 11.2772657,3.78792285 11.2770013,3.891 C11.2772657,3.99407715 11.2365045,4.09302357 11.1637116,4.16600411 C11.0909187,4.23898465 10.9920775,4.28000034 10.889,4.28 L10.889,4.28 L4.667,4.28 C4.45216123,4.28 4.278,4.10583877 4.278,3.891 C4.278,3.67616123 4.45216123,3.502 4.667,3.502 L4.667,3.502 Z M10.156,0.002 C10.411,0.002 10.569,0.13 10.569,0.336 L10.569,0.336 L10.569,1.679 C10.5454152,1.88443906 10.3618851,2.0333073 10.156,2.014 L10.0797884,2.01351899 C9.90570043,1.99492173 9.76220167,1.85759369 9.742,1.677 L9.742,1.677 L9.742,0.336 C9.76608117,0.130537116 9.95009162,-0.0179157541 10.156,0.002 Z M5.193,0.003 C5.29193304,-0.00764644654 5.39104132,0.0214634703 5.46850263,0.0839201658 C5.54596393,0.146376861 5.59542672,0.237059115 5.606,0.336 L5.606,0.336 L5.606,1.679 C5.58291841,1.8842902 5.39968196,2.033281 5.194,2.014 L5.11790874,2.0135538 C4.94407615,1.99509033 4.80063943,1.85824158 4.78,1.678 L4.78,1.678 L4.78,0.337 C4.80357862,0.131685683 4.98729551,-0.0168892278 5.193,0.003 Z M8.913,0.711 C9.01557287,0.71438684 9.11257426,0.758482171 9.18256631,0.833540665 C9.25255836,0.90859916 9.28977819,1.0084408 9.286,1.111 L9.286,1.111 L9.286,1.134 C9.29166333,1.3492765 9.12942643,1.53206632 8.915,1.552 L8.915,1.552 L6.434,1.552 C6.33142983,1.54939746 6.23416703,1.50585497 6.16390505,1.4310842 C6.09364307,1.35631343 6.05622625,1.25653376 6.06,1.154 L6.06,1.154 L6.06,1.131 C6.0567269,0.915864889 6.21804424,0.733732411 6.432,0.711 L6.432,0.711 Z" id="形状结合"></path>
            </g>
        </g>
    </g>
</svg>