<?xml version="1.0" encoding="UTF-8"?>
<svg width="20px" height="20px" viewBox="0 0 20 20" version="1.1" xmlns="http://www.w3.org/2000/svg" xmlns:xlink="http://www.w3.org/1999/xlink">
    <!-- Generator: Sketch 55.2 (78181) - https://sketchapp.com -->
    <title>人员管理备份</title>
    <desc>Created with Sketch.</desc>
    <g id="继续教育" stroke="none" stroke-width="1" fill="none" fill-rule="evenodd">
        <g id="科室共享icon" transform="translate(-3.000000, -1.000000)" fill="#333333" fill-rule="nonzero">
            <g id="共享" transform="translate(6.000000, 4.000000)">
                <path d="M11.0464328,7.79748271 L11.0464327,7.79748271 C10.6622442,7.79834284 10.2864244,7.68528052 9.96648185,7.4725877 L7.76824784,8.74162785 C7.76434911,8.76891899 7.7539524,8.79361102 7.74875417,8.82025242 L9.52397987,9.844971 L9.52397994,9.8449709 C10.1921515,9.00446153 11.4151775,8.86475453 12.2556843,9.53292611 C13.0961937,10.2010977 13.2359007,11.4241236 12.5677291,12.2646305 C11.8995575,13.1051398 10.6765316,13.2448468 9.83602474,12.5766753 C9.38508798,12.2181986 9.11634314,11.6782016 9.10226529,11.1023161 L7.09311549,9.94179182 L7.09311555,9.94179177 C6.74517598,10.2362332 6.30392196,10.3974436 5.84811781,10.396645 L5.84811779,10.396645 C4.77151341,10.3991946 3.89668095,9.52850174 3.8941363,8.45189863 C3.89159229,7.37529425 4.76228518,6.50046179 5.83888829,6.49792272 C6.50663838,6.49634138 7.12873354,6.83665944 7.48754157,7.39982035 L9.19129258,6.41668786 L9.1912926,6.41668795 C8.88015806,5.38901898 9.46102387,4.30370307 10.4886916,3.99256599 C11.5163605,3.68143144 12.6016765,4.26229726 12.9128135,5.28996496 C13.2239481,6.31763393 12.6430823,7.40294984 11.6154146,7.71408692 C11.4309413,7.76993785 11.2391873,7.79804632 11.0464443,7.79749014 L11.0464328,7.79748271 Z M11.0464328,11.6962177 L11.0464327,11.6962177 C11.4053017,11.6962177 11.6962228,11.4052967 11.6962228,11.0464277 C11.6962228,10.6875587 11.4053017,10.3966377 11.0464327,10.3966377 C10.6875638,10.3966377 10.3966427,10.6875587 10.3966427,11.0464277 L10.3966427,11.0464276 C10.3966427,11.4052966 10.6875638,11.6962177 11.0464327,11.6962177 L11.0464328,11.6962177 Z M5.8481152,7.79748271 L5.84811518,7.79748271 C5.4892462,7.79748271 5.19832516,8.08840375 5.19832516,8.44727272 C5.19832516,8.80614169 5.4892462,9.09706273 5.84811518,9.09706273 C6.20698415,9.09706273 6.49790519,8.80614169 6.49790519,8.44727272 L6.49790519,8.44727272 C6.49790519,8.08840375 6.20698415,7.79748271 5.84811518,7.79748271 L5.8481152,7.79748271 Z M11.0464328,5.19831757 L11.0464327,5.19831757 C10.6875638,5.19831757 10.3966427,5.48923861 10.3966427,5.84810759 C10.3966427,6.20697656 10.6875638,6.4978976 11.0464327,6.4978976 C11.4053017,6.4978976 11.6962228,6.20697656 11.6962228,5.84810759 L11.6962228,5.84810759 C11.6962228,5.48923861 11.4053017,5.19831757 11.0464327,5.19831757 L11.0464328,5.19831757 Z M11.6962228,1.29958257 L1.29958765,1.29958257 L1.29958765,11.6962177 L5.19832265,11.6962177 L5.19832265,12.9958003 L1.29958765,12.9958003 L1.29958759,12.9958003 C0.581849644,12.9958003 5.02132453e-06,12.4139582 5.02132453e-06,11.6962177 C5.02132453e-06,11.6962177 5.02132453e-06,11.6962177 5.02132453e-06,11.6962177 L5.02132453e-06,1.29958257 L5.02132453e-06,1.29958276 C5.02132453e-06,0.581844819 0.581847105,1.96231673e-07 1.29958759,1.96231673e-07 L11.6962227,1.96231673e-07 L11.6962227,1.96231673e-07 C12.4139606,1.96231673e-07 12.9958052,0.58184228 12.9958052,1.29958276 C12.9958052,1.29958276 12.9958052,1.29958276 12.9958052,1.29958276 L12.9958052,2.59916533 L11.6962227,2.59916533 L11.6962227,1.29958276 L11.6962228,1.29958257 Z" id="形状"></path>
            </g>
        </g>
    </g>
</svg>