<?xml version="1.0" encoding="UTF-8"?>
<svg width="20px" height="20px" viewBox="0 0 20 20" version="1.1" xmlns="http://www.w3.org/2000/svg" xmlns:xlink="http://www.w3.org/1999/xlink">
    <!-- Generator: Sketch 54.1 (76490) - https://sketchapp.com -->
    <title>绩效参数设置</title>
    <desc>Created with Sketch.</desc>
    <g id="统计查询/敏感指标" stroke="none" stroke-width="1" fill="none" fill-rule="evenodd">
        <g id="系统设置与统计查询" transform="translate(-257.000000, -597.000000)" fill-rule="nonzero">
            <g id="icon-rgb_dmv复制-4" transform="translate(257.000000, 597.000000)">
                <g id="绩效" transform="translate(2.000000, 2.000000)">
                    <g id="编组" transform="translate(0.523810, 0.105656)">
                        <path d="M2.61905067,11.8924543 L2.61905066,11.8924543 C2.32975851,11.8343073 2.14237853,11.5526521 2.20052473,11.26336 C2.24295466,11.0522629 2.40795354,10.8872643 2.61905066,10.844834 L13.0952533,10.844834 L13.0952533,10.8448341 C13.3845455,10.9029811 13.5719255,11.1846362 13.5137793,11.4739284 C13.4713494,11.6850255 13.3063505,11.8500241 13.0952533,11.8924543 L2.61905068,11.8924543 L2.61905067,11.8924543 Z M5.26952994,7.46102059 L3.00667017,9.97530923 L3.00667017,9.97530922 C2.78326842,10.1680861 2.4458905,10.1432608 2.253112,9.91985999 C2.09290942,9.73420859 2.07965064,9.46333818 2.22095448,9.26292679 L5.20667224,5.95244674 L8.34953304,8.86483109 L11.9114419,4.91530268 L9.95239205,4.91530268 L9.95239204,4.91530268 C9.66309989,4.85715566 9.47571991,4.5755005 9.53386611,4.28620835 C9.57629604,4.07511123 9.74129492,3.91011267 9.95239204,3.86768241 L13.2838245,3.86768241 L13.3781103,3.92006343 L13.4514437,3.92006343 L13.5038247,3.99339685 L13.5038247,4.07720647 L13.5038247,4.07720644 C13.5071229,4.10504564 13.5071229,4.13317686 13.5038248,4.16101606 L13.5038248,4.16101616 C13.5091963,4.20274877 13.5091963,4.24499799 13.5038247,4.28673059 L13.5038247,7.86959191 L13.5038247,7.86959191 C13.5619718,8.15888406 13.3745914,8.44054005 13.0852988,8.49868624 C12.7960067,8.55683326 12.5143507,8.36945295 12.4562045,8.08016031 C12.4422362,8.0106656 12.4422362,7.93908597 12.4562045,7.86959191 L12.4562045,5.77435138 L8.26572341,10.3838806 L5.26952994,7.46102059 Z" id="形状" fill="#F6C235"></path>
                        <path d="M14.6666837,0.0124404907 L1.04762027,0.0124404907 L1.04762022,0.0124404907 C0.469035917,0.012440516 -4.57929551e-08,0.481476453 -4.57929551e-08,1.06006076 C-4.57929551e-08,1.06006076 -4.57929551e-08,1.06006076 -4.57929551e-08,1.06006076 L-4.57929551e-08,14.6791242 L-4.57929439e-08,14.6791241 C-1.33156781e-07,15.2577084 0.469035917,15.7267443 1.04762022,15.7267443 L14.6666837,15.7267443 L14.6666836,15.7267443 C15.2452679,15.7267444 15.7143039,15.2577084 15.7143039,14.6791241 L15.7143039,1.0600606 L15.7143039,1.0600606 C15.7143039,0.481476295 15.2452679,0.0124403325 14.6666836,0.0124403325 L14.6666837,0.0124404907 Z M14.6666837,13.7991232 L14.6666837,13.7991232 C14.6666837,14.3024916 14.2586225,14.7105528 13.7552541,14.7105528 L1.9590499,14.7105528 L1.95904986,14.7105528 C1.45568142,14.7105528 1.04762023,14.3024916 1.04762023,13.7991232 L1.04762023,1.97149039 L1.04762023,1.97149053 C1.04762015,1.46812208 1.45568142,1.06006089 1.95904986,1.06006089 L13.7552541,1.06006089 L13.755254,1.06006089 C14.2586225,1.06006087 14.6666837,1.46812208 14.6666837,1.97149053 L14.6666837,13.7991233 L14.6666837,13.7991232 Z" id="形状" fill="#FFFFFF"></path>
                    </g>
                </g>
            </g>
        </g>
    </g>
</svg>