<?xml version="1.0" encoding="UTF-8"?>
<svg width="20px" height="20px" viewBox="0 0 20 20" version="1.1" xmlns="http://www.w3.org/2000/svg" xmlns:xlink="http://www.w3.org/1999/xlink">
    <!-- Generator: Sketch 58 (84663) - https://sketch.com -->
    <title>查房计划报告</title>
    <desc>Created with Sketch.</desc>
    <g id="继续教育" stroke="none" stroke-width="1" fill="none" fill-rule="evenodd">
        <g id="质控icon" transform="translate(-47.000000, -323.000000)" fill="#333333" fill-rule="nonzero">
            <path d="M60.992,327 L52,327 C50.896,327 50,327.896 50,329 L50,338 C50,339.104 50.896,340 52,340 L61,340 C62.104,340 63,339.104 63,338 L63,329 C62.992,327.896 62.104,327 60.992,327 Z M61.8441421,337.857848 C61.8441421,338.402282 61.4019608,338.844142 60.8571302,338.844142 L51.9740237,338.844142 C51.4291931,338.844142 50.9870118,338.402282 50.9870118,337.857848 L50.9870118,328.973306 C50.9870118,328.428872 51.4291931,327.987012 51.9740237,327.987012 L60.8571302,327.987012 C61.4019608,327.987012 61.8441421,328.428872 61.8441421,328.973306 L61.8441421,337.857848 Z M60,336.808 L52.992,336.808 C52.712,336.808 52.496,337.032 52.496,337.304 C52.496,337.584 52.72,337.8 52.992,337.8 L59.992,337.8 C60.272,337.8 60.488,337.576 60.488,337.304 C60.496,337.024 60.272,336.808 60,336.808 L60,336.808 Z M60,334.704 L52.992,334.704 C52.712,334.704 52.496,334.928 52.496,335.2 C52.496,335.48 52.72,335.696 52.992,335.696 L59.992,335.696 C60.272,335.696 60.488,335.472 60.488,335.2 C60.496,334.928 60.272,334.704 60,334.704 L60,334.704 Z M60,328.704 C59.448,328.704 59,329.152 59,329.704 C59,329.792 59.032,329.864 59.048,329.944 L57.744,331.248 C57.664,331.224 57.584,331.2 57.496,331.2 C57.424,331.2 57.36,331.224 57.296,331.24 L56.456,330.408 C56.472,330.344 56.496,330.28 56.496,330.208 C56.496,329.656 56.048,329.208 55.496,329.208 C54.944,329.208 54.496,329.648 54.496,330.2 C54.496,330.288 54.52,330.36 54.544,330.44 L53.24,331.752 C53.16,331.728 53.08,331.704 53,331.704 C52.448,331.704 52,332.152 52,332.704 C52,333.256 52.448,333.704 53,333.704 C53.552,333.704 54,333.256 54,332.704 C54,332.616 53.976,332.544 53.952,332.464 L55.256,331.16 C55.336,331.184 55.416,331.208 55.504,331.208 C55.584,331.208 55.656,331.184 55.736,331.16 L56.552,331.976 C56.536,332.056 56.504,332.128 56.504,332.208 C56.504,332.76 56.952,333.208 57.504,333.208 C58.056,333.208 58.496,332.76 58.496,332.2 C58.496,332.112 58.472,332.04 58.448,331.96 L59.752,330.656 C59.832,330.68 59.912,330.704 60,330.704 C60.552,330.704 61,330.256 61,329.704 C61,329.152 60.552,328.704 60,328.704 L60,328.704 Z" id="形状"></path>
        </g>
    </g>
</svg>