<?xml version="1.0" encoding="UTF-8"?>
<svg width="20px" height="20px" viewBox="0 0 20 20" version="1.1" xmlns="http://www.w3.org/2000/svg" xmlns:xlink="http://www.w3.org/1999/xlink">
    <!-- Generator: Sketch 58 (84663) - https://sketch.com -->
    <title>查房记录</title>
    <desc>Created with Sketch.</desc>
    <g id="继续教育" stroke="none" stroke-width="1" fill="none" fill-rule="evenodd">
        <g id="质控icon" transform="translate(-47.000000, -262.000000)" fill="#333333" fill-rule="nonzero">
            <path d="M53.2499971,269.182609 L59.7499971,269.182609 L59.7499971,269.182609 C60.0063015,269.170985 60.2046554,268.953778 60.1930325,268.697464 C60.1821474,268.457427 59.9900253,268.265298 59.7499971,268.254412 L53.2499971,268.254412 L53.2499971,268.254412 C52.9936926,268.254412 52.7859158,268.462197 52.7859158,268.71851 C52.7859158,268.974824 52.9936926,269.182609 53.2499971,269.182609 L53.2499971,269.182609 Z M59.749997,271.032324 L53.2499971,271.032324 L53.2499971,271.032324 C52.9934288,271.032324 52.7854388,271.240322 52.7854388,271.4969 C52.7854388,271.753477 52.9934288,271.961475 53.2499971,271.961475 L59.749997,271.961475 L59.749997,271.961475 C60.0065653,271.961475 60.2145553,271.753477 60.2145553,271.4969 C60.2145553,271.240322 60.0065653,271.032324 59.749997,271.032324 L59.749997,271.032324 Z M59.749997,273.817868 L53.249997,273.817868 L53.249997,273.817868 C52.9942187,273.817868 52.7868696,274.025225 52.7868696,274.281013 C52.7868696,274.5368 52.9942187,274.744157 53.249997,274.744157 C53.249997,274.744157 53.249997,274.744157 53.249997,274.744157 L59.749997,274.744157 L59.749997,274.744157 C60.0057753,274.744157 60.2131244,274.5368 60.2131244,274.281013 C60.2131244,274.025225 60.0057753,273.817868 59.749997,273.817868 C59.749997,273.817868 59.749997,273.817868 59.749997,273.817868 L59.749997,273.817868 Z M55.1473407,266.392295 L57.4672702,266.392295 L57.4672702,266.392295 C57.8515965,266.406527 58.1746916,266.106497 58.1889229,265.722156 C58.2031548,265.337816 57.9031349,265.014709 57.5188086,265.000477 C57.5016351,264.999841 57.484444,264.999841 57.4672705,265.000477 L55.147341,265.000477 L55.1473409,265.000477 C54.7630147,265.014709 54.4629954,265.337816 54.4772267,265.722156 C54.4907191,266.086529 54.7829829,266.378803 55.1473409,266.392295 L55.1473407,266.392295 Z M61.1417641,265.464098 L60.6791137,265.464098 L60.6791137,265.464098 C60.4228093,265.452475 60.2056095,265.650836 60.1939866,265.90715 C60.1823634,266.163464 60.3807176,266.380672 60.6370221,266.392295 C60.6510454,266.392931 60.6650902,266.392931 60.6791136,266.392295 L61.141764,266.392295 C61.6549721,266.392295 62.0727884,266.809173 62.0727884,267.321446 L62.0727884,276.143607 L62.0727884,276.143603 C62.0717393,276.657222 61.6553686,277.073185 61.141767,277.073711 L51.8572792,277.073711 L51.8572792,277.073711 C51.3443603,277.072659 50.9291151,276.656544 50.9291166,276.143606 L50.9291166,267.321445 C50.9291166,266.809172 51.345979,266.392294 51.8572792,266.392294 L52.3218375,266.392294 L52.3218375,266.392294 C52.5781419,266.392294 52.7859188,266.18451 52.7859188,265.928196 C52.7859188,265.671882 52.5781419,265.464098 52.3218375,265.464098 L51.8572792,265.464098 L51.8572791,265.464098 C50.8315322,265.464098 50,266.29566 50,267.321445 C50,267.321445 50,267.321445 50,267.321445 L50,276.143606 C50,277.168152 50.8318168,278 51.8572791,278 L61.1417669,278 L61.1417669,278 C62.1675139,278.000526 62.9994783,277.169391 63,276.143606 C63,276.143606 63,276.143606 63,276.143606 L63,267.321444 L63,267.321491 C62.9994991,266.295551 62.1677151,265.464129 61.1418117,265.464099 L61.1417641,265.464098 Z" id="形状"></path>
        </g>
    </g>
</svg>