<?xml version="1.0" encoding="UTF-8"?>
<svg width="20px" height="20px" viewBox="0 0 20 20" version="1.1" xmlns="http://www.w3.org/2000/svg" xmlns:xlink="http://www.w3.org/1999/xlink">
    <!-- Generator: Sketch 58 (84663) - https://sketch.com -->
    <title>三级质控汇总报告</title>
    <desc>Created with Sketch.</desc>
    <g id="继续教育" stroke="none" stroke-width="1" fill="none" fill-rule="evenodd">
        <g id="质控icon" transform="translate(-47.000000, -112.000000)" fill="#000000" fill-rule="nonzero">
            <path d="M62.9789621,115 C63.4894811,115 63.9153476,115.389401 63.9893022,115.885222 L64,116.001403 L64,127.998597 C64,128.509116 63.6105991,128.934983 63.114778,128.993216 L62.9985975,129 L51.0014025,129 C50.4908836,129 50.065017,128.610599 50.0067836,128.114778 L50,127.998597 L50,116.001403 C50,115.490884 50.3724704,115.065017 50.8658729,115.006784 L50.9817672,115 L62.9789621,115 Z M62.9789621,116.001403 L50.9817672,116.001403 L50.9817672,127.998597 L62.9789621,127.998597 L62.9789621,116.001403 Z M54.2412342,122.500701 C55.4782609,122.500701 56.4796634,123.502104 56.4796634,124.73913 C56.4796634,125.976157 55.4782609,126.97756 54.2412342,126.97756 C53.0042076,126.97756 52.002805,125.976157 52.002805,124.73913 C52.002805,123.502104 53.0042076,122.500701 54.2412342,122.500701 Z M61.486676,125.112202 C61.7615708,125.112202 61.9775596,125.328191 61.9775596,125.603086 C61.9775596,125.847436 61.8069018,126.045244 61.5759104,126.086185 L61.486676,126.093969 L58.1879383,126.093969 C57.9130435,126.093969 57.6970547,125.87798 57.6970547,125.603086 C57.6970547,125.358735 57.8677125,125.160927 58.0987039,125.119986 L58.1879383,125.112202 L61.486676,125.112202 Z M54.2412342,123.482468 C53.5539972,123.482468 52.9845722,124.051893 52.9845722,124.73913 C52.9845722,125.426367 53.5539972,125.995792 54.2412342,125.995792 C54.9284712,125.995792 55.4782609,125.426367 55.4978962,124.73913 C55.4978962,124.051893 54.9284712,123.482468 54.2412342,123.482468 Z M61.486676,122.991585 C61.7615708,122.991585 61.9775596,123.227209 61.9775596,123.482468 C61.9775596,123.726819 61.8069018,123.924627 61.5759104,123.965568 L61.486676,123.973352 L58.1879383,123.973352 C57.9130435,123.973352 57.6970547,123.757363 57.6970547,123.482468 C57.6970547,123.238118 57.8677125,123.04031 58.0987039,122.999369 L58.1879383,122.991585 L61.486676,122.991585 Z M56.5385694,117.631136 C56.7103787,117.785764 56.7619215,118.030593 56.6668895,118.234079 L56.6213326,118.312592 C56.6101983,118.391963 56.5763856,118.469729 56.5189341,118.534362 L55.348,119.878 L54.7321178,120.635344 C54.6707104,120.71722 54.5950775,120.787242 54.5101623,120.843762 L54.398317,120.969144 C54.365407,121.006168 54.3281878,121.036297 54.2882844,121.05935 L54.3197756,121.02805 C54.1626928,121.204769 53.887798,121.204769 53.7307153,121.02805 L53.6598489,120.959301 C53.5331435,120.917995 53.413267,120.851207 53.3089275,120.761113 L53.2201964,120.674614 L52.1206171,119.417952 C51.9242637,119.201964 51.9635344,118.887798 52.1598878,118.71108 C52.3518778,118.553997 52.6214396,118.552058 52.8030867,118.691472 L52.8667602,118.750351 L52.9008551,118.786541 L52.9134769,118.797595 L52.9134769,118.797595 L54.017,119.901 L54.536,119.305 L55.8513324,117.690042 C56.0280505,117.474053 56.342216,117.454418 56.5385694,117.631136 Z M61.486676,120.007013 C61.7615708,120.007013 61.9775596,120.223001 61.9775596,120.497896 C61.9775596,120.742247 61.8069018,120.940055 61.5759104,120.980996 L61.486676,120.98878 L58.1879383,120.98878 C57.9130435,120.98878 57.6970547,120.772791 57.6970547,120.497896 C57.6970547,120.253545 57.8677125,120.055737 58.0987039,120.014797 L58.1879383,120.007013 L61.486676,120.007013 Z M61.486676,118.004208 C61.7615708,118.004208 61.9775596,118.220196 61.9775596,118.495091 C61.9775596,118.739442 61.8069018,118.93725 61.5759104,118.978191 L61.486676,118.985975 L58.1879383,118.985975 C57.9130435,118.985975 57.6970547,118.769986 57.6970547,118.495091 C57.6970547,118.25074 57.8677125,118.052932 58.0987039,118.011992 L58.1879383,118.004208 L61.486676,118.004208 Z" id="形状结合"></path>
        </g>
    </g>
</svg>