<?xml version="1.0" encoding="UTF-8"?>
<svg width="20px" height="20px" viewBox="0 0 20 20" version="1.1" xmlns="http://www.w3.org/2000/svg" xmlns:xlink="http://www.w3.org/1999/xlink">
    <!-- Generator: Sketch 58 (84663) - https://sketch.com -->
    <title>检查表单统计表</title>
    <desc>Created with Sketch.</desc>
    <g id="继续教育" stroke="none" stroke-width="1" fill="none" fill-rule="evenodd">
        <g id="质控icon" transform="translate(-47.000000, -202.000000)" fill="#333333" fill-rule="nonzero">
            <path d="M54.8125,211.875 L56.5625,211.875 L56.5625,214.5 L54.8125,214.5 L54.8125,211.875 Z M57.4375,212.75 L59.1875,212.75 L59.1875,214.5 L57.4375,214.5 L57.4375,212.75 Z M56.95625,211 C57.765625,211 58.509375,210.726562 59.1,210.267188 L61.484375,212.651563 C61.659375,212.826562 61.9328125,212.826562 62.1078125,212.651563 C62.2828125,212.476562 62.2828125,212.203125 62.1078125,212.028125 L59.7125,209.64375 C60.171875,209.053125 60.4453125,208.309375 60.4453125,207.5 C60.4453125,205.564063 58.88125,204 56.9453125,204 C55.009375,204 53.4453125,205.564063 53.4453125,207.5 C53.4453125,209.435937 55.0203125,211 56.95625,211 Z M56.95625,204.875 C58.4109375,204.875 59.58125,206.045312 59.58125,207.5 C59.58125,208.954688 58.4109375,210.125 56.95625,210.125 C55.5015625,210.125 54.33125,208.954688 54.33125,207.5 C54.33125,206.045312 55.5015625,204.875 56.95625,204.875 Z M63.08125,205.75 L60.9703125,205.75 C61.090625,206.023438 61.1890625,206.31875 61.24375,206.625 L63.125,206.625 L63.125,215.375 L50.875,215.375 L50.875,206.625 L52.66875,206.625 C52.734375,206.31875 52.821875,206.023438 52.9421875,205.75 L50.83125,205.75 C50.3390625,205.75 50,206.14375 50,206.625 L50,215.375 C50,215.85625 50.3390625,216.25 50.83125,216.25 L56.5625,216.25 L56.5625,217.125 L54.76875,217.125 C54.528125,217.125 54.33125,217.321875 54.33125,217.5625 C54.33125,217.803125 54.528125,218 54.76875,218 L59.14375,218 C59.384375,218 59.58125,217.803125 59.58125,217.5625 C59.58125,217.321875 59.384375,217.125 59.14375,217.125 L57.4375,217.125 L57.4375,216.25 L63.08125,216.25 C63.5625,216.25 64,215.85625 64,215.375 L64,206.625 C64,206.14375 63.5625,205.75 63.08125,205.75 Z M52.1875,214.5 L53.9375,214.5 L53.9375,210.628125 C53.71875,210.475 53.5875,210.310937 53.45625,210.125 L52.1875,210.125 L52.1875,214.5 Z" id="形状"></path>
        </g>
    </g>
</svg>