<?xml version="1.0" encoding="UTF-8"?>
<svg width="20px" height="20px" viewBox="0 0 20 20" version="1.1" xmlns="http://www.w3.org/2000/svg" xmlns:xlink="http://www.w3.org/1999/xlink">
    <!-- Generator: Sketch 58 (84663) - https://sketch.com -->
    <title>三级质控</title>
    <desc>Created with Sketch.</desc>
    <g id="继续教育" stroke="none" stroke-width="1" fill="none" fill-rule="evenodd">
        <g id="质控icon" transform="translate(-46.000000, -21.000000)" fill="#333333" fill-rule="nonzero">
            <path d="M56,24 L63,26.3333379 L63,31 C63,34.8659961 59.8659961,38 56,38 C52.1340039,38 49,34.8659961 49,31 L49,26.3333379 L56,24 Z M56.0000041,25.2308388 L50.1666662,27.1745009 L50.1666662,31.0000009 C50.1666662,34.2216552 52.7783361,36.8333388 56.0000041,36.8333388 C59.2216584,36.8333388 61.833342,34.2216688 61.833342,31.0000009 L61.833342,27.1733388 L56.0000041,25.2308388 Z M59.6946684,27.3594881 L59.6946684,28.1446883 L58.9089182,28.1446883 L58.9089182,32.8580916 L59.6941184,32.8580916 L59.6941184,33.6438418 L52.310594,33.6438418 L52.310594,32.8580916 L53.0957963,32.8575438 L53.0957963,28.1446883 L52.310594,28.1446883 L52.310594,27.3594881 L59.6946684,27.3594881 Z M57.3374221,28.1446883 L54.6667531,28.1446883 L54.6667531,32.8580916 L57.3379699,32.8580916 L57.3374221,28.1446883 Z M56.7958077,28.145784 L56.8007565,32.857533 L55.2325582,32.857533 L55.2287092,28.145784 L56.7958077,28.145784 Z" id="形状结合"></path>
        </g>
    </g>
</svg>