<?xml version="1.0" encoding="UTF-8"?>
<svg width="20px" height="20px" viewBox="0 0 20 20" version="1.1" xmlns="http://www.w3.org/2000/svg" xmlns:xlink="http://www.w3.org/1999/xlink">
    <!-- Generator: Sketch 58 (84663) - https://sketch.com -->
    <title>三级质控问题汇总</title>
    <desc>Created with Sketch.</desc>
    <g id="继续教育" stroke="none" stroke-width="1" fill="none" fill-rule="evenodd">
        <g id="质控icon" transform="translate(-47.000000, -143.000000)" fill="#231815" fill-rule="nonzero">
            <path d="M60.0847458,146 C61.1355932,146 62,146.87931 62,147.948276 L62,154.672414 C62,155.293103 61.5084746,155.793103 60.8983051,155.793103 L59.7966102,155.793103 C59.6440678,155.793103 59.5084746,155.931034 59.5084746,156.086207 L59.508,157.707 L60.8474576,156.344828 C61,156.189655 61.2372881,156.189655 61.3898305,156.344828 L61.4745763,156.431034 C61.6271186,156.586207 61.6271186,156.827586 61.4745763,156.982759 L59.508,158.983 L59.5084746,159 L59.492,158.999 L59.4915254,159 L59.49,158.999 L52.9152542,159 C51.8644068,159 51,158.137931 51,157.051724 L51,147.948276 C51,146.862069 51.8644068,146 52.9152542,146 L60.0847458,146 Z M60.0847458,146.896552 L52.9152542,146.896552 C52.3559322,146.896552 51.8813559,147.362069 51.8813559,147.948276 L51.8813559,157.068966 C51.8813559,157.637931 52.3389831,158.12069 52.9152542,158.12069 L58.6271186,158.12069 L58.6271186,156.086207 C58.6271186,155.431034 59.1525424,154.896552 59.7966102,154.896552 L60.8983051,154.896552 C61.0169492,154.896552 61.1186441,154.793103 61.1186441,154.672414 L61.1186441,147.948276 C61.1186441,147.37931 60.6610169,146.896552 60.0847458,146.896552 Z M56.1358058,154.894078 C56.3391954,154.894078 56.5135293,154.953191 56.6491224,155.091122 C56.7847154,155.2192 56.852512,155.386688 56.852512,155.593584 C56.852512,155.800481 56.7750302,155.967968 56.6394372,156.105899 C56.5038441,156.233978 56.3295102,156.302943 56.1358058,156.302943 C55.9421014,156.302943 55.7677675,156.233978 55.6321744,156.096047 C55.4965813,155.958116 55.4287848,155.790628 55.4287848,155.593584 C55.4287848,155.386688 55.4965813,155.2192 55.6321744,155.091122 C55.7677675,154.953191 55.9421014,154.894078 56.1358058,154.894078 Z M56.3101397,149.130538 C56.9299937,149.130538 57.4336251,149.298025 57.8210338,149.652704 C58.2084426,149.997532 58.402147,150.470438 58.402147,151.06157 C58.402147,151.544328 58.2762391,151.948268 58.0341087,152.263539 C57.9953678,152.311705 57.9202774,152.389063 57.8088376,152.495613 L57.7184423,152.580999 L57.2205503,153.032011 C57.0365311,153.189646 56.9009381,153.366986 56.8137711,153.544326 C56.7285412,153.701961 56.6805025,153.872207 56.6646962,154.055064 L56.6588076,154.194571 L56.6588076,154.362059 L55.6224892,154.362059 L55.6224892,154.194571 C55.6224892,153.83004 55.6806005,153.514769 55.8161936,153.258612 C55.9295106,153.010336 56.2389534,152.658317 56.7374613,152.195371 L56.9106233,152.036938 L57.075272,151.849746 C57.2496059,151.623146 57.3464581,151.386693 57.3464581,151.130538 C57.3464581,150.785708 57.2496059,150.519699 57.0655868,150.322654 C56.8718824,150.12561 56.5910111,150.027088 56.2423432,150.027088 C55.8065083,150.027088 55.4868961,150.165019 55.2931918,150.450733 C55.1437627,150.653407 55.0583746,150.928465 55.0370276,151.275906 L55.0316908,151.455658 L54.0147429,151.455658 C54.0147429,150.736447 54.2181325,150.174871 54.6249117,149.761079 C55.0316908,149.337434 55.5934335,149.130538 56.3101397,149.130538 Z" id="形状结合"></path>
        </g>
    </g>
</svg>