<?xml version="1.0" encoding="UTF-8"?>
<svg width="20px" height="20px" viewBox="0 0 20 20" version="1.1" xmlns="http://www.w3.org/2000/svg" xmlns:xlink="http://www.w3.org/1999/xlink">
    <!-- Generator: Sketch 58 (84663) - https://sketch.com -->
    <title>三级质控月度报告</title>
    <desc>Created with Sketch.</desc>
    <g id="继续教育" stroke="none" stroke-width="1" fill="none" fill-rule="evenodd">
        <g id="质控icon" transform="translate(-46.000000, -82.000000)" fill="#333333" fill-rule="nonzero">
            <path d="M54.4882356,86.7434178 L57.2792757,86.7434178 C57.5117779,86.7434178 57.6976417,86.5076782 57.6976417,86.2719386 C57.6976417,85.988681 57.5117779,85.8003908 57.2792757,85.8003908 L54.4882356,85.8003908 C54.2556523,85.8003908 54.0698832,86.0361304 54.0698832,86.2719386 C54.0699643,86.5551962 54.2556523,86.7434178 54.4882356,86.7434178 Z M58.674762,87.2623191 C58.9542271,87.2623191 59.1400097,87.0741934 59.1400097,86.8858895 L59.1400097,85.3764296 C59.1400097,85.1406899 58.9542135,85 58.674762,85 C58.3953105,85 58.2096901,85.1882216 58.2096901,85.3764296 L58.2096901,86.8841077 C58.2096901,87.1199296 58.4420976,87.2623191 58.674762,87.2623191 Z M60.348023,85.7529414 L60.068558,85.7529414 C59.7891876,85.7529414 59.6033914,85.988681 59.6033914,86.2245028 C59.6033914,86.5077604 59.8359747,86.695982 60.068558,86.695982 L60.348023,86.695982 C61.2315421,86.695982 62.0230555,87.4031872 62.0230555,88.3461319 L62.0230555,96.3120202 C62.0230555,97.2074469 61.2785185,97.962266 60.348023,97.962266 L51.6034996,97.962266 C50.7200752,97.962266 49.9285618,97.2074469 49.9285618,96.3120202 L49.9285618,88.3935677 C49.9285618,87.4981409 50.6730988,86.7434178 51.5566178,86.7434178 C51.8360829,86.7434178 52.0218655,86.5076782 52.0218655,86.2719386 C52.0218655,85.988681 51.8360829,85.8003908 51.5566178,85.8003908 C50.162903,85.7529414 49,86.9315435 49,88.3934854 L49,96.3593737 C49,97.8212334 50.1629841,99 51.605271,99 L60.3946614,99 C61.8371106,99 63,97.8212334 63,96.3593737 L63,88.3935677 C62.9532264,86.9316257 61.7904046,85.7529414 60.3480366,85.7529414 L60.348023,85.7529414 Z M53.0927629,87.2623191 C53.3722279,87.2623191 53.5579159,87.0741934 53.5579159,86.8858895 L53.5579159,85.3764296 C53.5579159,85.1406899 53.3253326,85 53.0927494,85 C52.8132843,85 52.6275151,85.1882216 52.6275151,85.3764296 L52.6275151,86.8841077 C52.6275963,87.1199296 52.8601796,87.2623191 53.0927629,87.2623191 L53.0927629,87.2623191 Z M54.3063203,88.806112 L57.7115832,88.806112 L58.4829349,88.7895006 L58.4829349,88.7895024 C58.4719082,89.0249789 58.4664437,89.2606884 58.4665459,89.4964293 L58.4665459,95.5927243 C58.4610829,95.7867298 58.4555388,95.9087661 58.4501569,95.9586689 C58.4063853,96.080623 58.2832919,96.1915166 58.0808633,96.2913222 C57.8784618,96.3911415 57.6378192,96.4576557 57.3587733,96.490947 C57.1946669,96.5186327 56.9867076,96.5353264 56.7351255,96.5408635 C56.7187636,96.3300684 56.6941395,96.1637487 56.6612803,96.0418768 C56.6120457,95.903229 56.521798,95.698067 56.3904695,95.4263908 C56.6311121,95.4540765 56.8171382,95.4679468 56.9484801,95.4679468 C57.1234991,95.4679468 57.2520554,95.4430022 57.3341357,95.3930994 C57.3779209,95.3653315 57.4024638,95.3154287 57.4080079,95.2433774 L57.416243,93.7463486 L54.5935202,93.7463486 C54.4403397,94.4395053 54.2488507,94.9855851 54.0191206,95.3847389 L54.0191204,95.3847391 C53.8947746,95.5747781 53.7605716,95.7579985 53.6170758,95.9336287 C53.4529694,96.1054993 53.2560173,96.2912402 53.0262872,96.490865 C52.7910265,96.1525924 52.5175248,95.8837259 52.2057144,95.684101 C52.4846791,95.506611 52.7007788,95.3347541 52.8539592,95.1684343 C53.1657831,94.8357811 53.3791107,94.3700034 53.493969,93.7712111 C53.5541431,93.4385716 53.5924518,93.0726132 53.6088408,92.6733498 L53.6416999,91.1597233 L53.6170758,89.3882086 L53.5924518,88.7894026 L54.3063202,88.80611 L54.3063203,88.806112 Z M57.416243,92.8065584 L57.416243,91.8584192 L54.6673788,91.8584192 L54.6427683,92.8065584 L57.416243,92.8065584 Z M57.416243,90.8936685 L57.416243,89.7874741 L54.6673788,89.7874741 L54.6673788,90.8935863 L57.416243,90.8935863 L57.416243,90.8936685 Z" id="形状"></path>
        </g>
    </g>
</svg>