<?xml version="1.0" encoding="UTF-8"?>
<svg width="20px" height="20px" viewBox="0 0 20 20" version="1.1" xmlns="http://www.w3.org/2000/svg" xmlns:xlink="http://www.w3.org/1999/xlink">
    <!-- Generator: Sketch 58 (84663) - https://sketch.com -->
    <title>二级质控月度报告</title>
    <desc>Created with Sketch.</desc>
    <g id="继续教育" stroke="none" stroke-width="1" fill="none" fill-rule="evenodd">
        <g id="质控icon" transform="translate(-46.000000, -173.000000)" fill="#000000" fill-rule="nonzero">
            <path d="M61.5370665,177.128826 L61.5370665,177.128826 C62.3448372,177.130497 62.999047,177.785289 63,178.593059 L63,187.535333 L63,187.535345 C62.9995168,188.343385 62.3450927,188.998573 61.5370546,189 L51.4629335,189 L51.4629336,189 C50.6548955,188.998567 50.0004774,188.343373 50,187.535333 L50,178.5935 L50,178.593932 C50,177.786583 50.6538527,177.131762 51.4612019,177.130567 L52.304902,177.130567 L52.304902,176.426833 C52.304902,176.191533 52.4955687,176.000433 52.7308687,176 L52.7317354,176 C52.9666021,176 53.1568354,176.190667 53.1568354,176.425533 L53.1568354,177.128833 L59.7768662,177.128833 L59.7768662,176.457167 L59.7768662,176.457168 C59.7773444,176.204323 59.982703,175.999739 60.2355479,176.000216 C60.4883929,176.000694 60.692977,176.206053 60.6924997,176.458898 C60.6924997,176.458898 60.6924997,176.458898 60.6924997,176.458898 L60.6924997,177.128831 L61.5366331,177.128831 L61.5370665,177.128826 Z M62.0592332,187.25713 L62.0592332,180.502326 L50.9663385,180.502326 L50.9663385,187.257993 C50.9663385,187.69306 51.3208052,188.046226 51.754572,188.046226 L61.2710133,188.046226 L61.2710133,188.046226 C61.7061444,188.04551 62.0585748,187.692691 62.0588134,187.25756 L62.0592332,187.25713 Z M50.9663385,179.607071 L62.0605366,179.607071 L62.0592366,178.850469 C62.0592366,178.414969 61.7052032,178.061803 61.2714365,178.061803 L60.6933697,178.061803 L60.6933697,178.379869 L60.6933697,178.379869 C60.7011202,178.6308 60.5039844,178.840503 60.2530539,178.848254 C60.0021234,178.856004 59.7924205,178.658868 59.7846696,178.407938 C59.7843807,178.398585 59.7843807,178.389225 59.7846696,178.379871 L59.7846696,178.061803 L53.1728654,178.061803 L53.1728654,178.400671 L53.1728654,178.400671 C53.1728654,178.640115 52.9787591,178.834221 52.7393153,178.834221 C52.4998715,178.834221 52.3057653,178.640115 52.3057653,178.400671 L52.3057653,178.061803 L51.7532652,178.061803 L51.7532651,178.061803 C51.3179648,178.062283 50.9652704,178.415171 50.9650317,178.850471 L50.9663317,179.607071 L50.9663385,179.607071 Z M53.5698089,186.465433 L53.569809,186.465433 C53.4423125,186.294475 53.3543932,186.097325 53.3124089,185.888233 L53.3124089,185.888233 C53.2793821,185.737934 53.3744501,185.589319 53.524749,185.556293 C53.544246,185.552009 53.5641468,185.549832 53.5841089,185.5498 C53.7275423,185.5498 53.838909,185.641234 53.8683756,185.772534 C53.968909,186.229267 54.356309,186.537367 54.8325424,186.537367 C55.4002092,186.537367 55.7971426,186.136534 55.7971426,185.5602 C55.7971426,185.088734 55.4214425,184.588234 54.7250758,184.588234 L54.4278091,184.588234 C54.4078757,184.593867 54.3883757,184.600367 54.3658424,184.600367 L54.3658424,184.600367 C54.2378046,184.600607 54.1338161,184.497006 54.1335757,184.368967 C54.1335751,184.368678 54.1335751,184.368389 54.1335757,184.3681 C54.1335757,184.2394 54.2371424,184.135833 54.3658424,184.135833 C54.3762424,184.135833 54.3840424,184.139733 54.3948757,184.139733 L54.6496758,184.139733 C55.2780092,184.139733 55.5063759,183.699033 55.5063759,183.401333 C55.5063759,182.977966 55.2290425,182.682 54.8312424,182.682 C54.3472091,182.682 54.1903424,183.041666 54.1452757,183.195933 L54.1452757,183.195933 C54.1134578,183.318195 54.0038005,183.404077 53.8774757,183.405666 L53.8774757,183.405666 C53.789725,183.405736 53.7071181,183.364272 53.6547423,183.293866 L53.6547423,183.293866 C53.6018661,183.224823 53.5846792,183.134873 53.6083756,183.0512 C53.777809,182.448433 54.348509,182.177599 54.8377424,182.177599 C55.5501425,182.177599 56.0675426,182.667266 56.0675426,183.344566 C56.0675426,183.756233 55.8513092,184.101166 55.4587092,184.321733 C56.2959093,184.635033 56.3622093,185.354366 56.3622093,185.5706 C56.3622093,186.421666 55.7104759,187.040466 54.8126091,187.040466 C54.3164424,187.040466 53.840209,186.8199 53.5698089,186.465433 L53.5698089,186.465433 Z M58.5085062,187.041766 C57.8598061,187.041766 56.895206,186.6171 56.8965047,185.446233 L56.8965047,183.8117 C56.8965047,182.520366 57.9378061,182.1789 58.4898728,182.1789 C59.2846063,182.1789 60.0897397,182.725766 60.0897397,183.773566 L60.0897397,185.446233 C60.0897397,186.7549 58.9487729,187.041766 58.5080729,187.041766 L58.5085062,187.041766 Z M58.4833728,182.681989 C57.8823394,182.681989 57.4615727,183.134826 57.4628697,183.78526 L57.4628697,185.457926 C57.4628697,186.081926 57.8983728,186.53606 58.4963728,186.53606 C59.0046729,186.53606 59.529873,186.132193 59.529873,185.457926 L59.529873,183.760123 C59.529873,183.387023 59.3110396,182.681989 58.4833728,182.681989 L58.4833728,182.681989 Z" id="形状"></path>
        </g>
    </g>
</svg>