<?xml version="1.0" encoding="UTF-8"?>
<svg width="20px" height="20px" viewBox="0 0 20 20" version="1.1" xmlns="http://www.w3.org/2000/svg" xmlns:xlink="http://www.w3.org/1999/xlink">
    <!-- Generator: Sketch 58 (84663) - https://sketch.com -->
    <title>一级质控报告</title>
    <desc>Created with Sketch.</desc>
    <g id="继续教育" stroke="none" stroke-width="1" fill="none" fill-rule="evenodd">
        <g id="一级质控icon" transform="translate(-6.000000, -43.000000)" fill="#000000" fill-rule="nonzero">
            <g id="报告" transform="translate(10.000000, 46.000000)">
                <path d="M7.32748547,-4.4408921e-15 L8.40442032,1.07693485 L12.2867315,4.95923233 L12.2867451,12.9230813 C12.2867451,13.4781996 11.8667376,13.935227 11.3271668,13.9936968 L11.2098239,14.0000161 L1.51750601,14.0000161 L1.40016202,13.9936968 C0.899127023,13.939404 0.501183271,13.5414603 0.446890464,13.0404253 L0.440571162,12.9230813 L0.440571162,1.07693485 C0.440571162,0.521821623 0.860571578,0.0647898393 1.40013693,0.00631943802 L1.51747867,3.37507799e-14 L7.32748547,-4.4408921e-15 Z M7.32748547,1.07693501 L1.51747871,1.07693485 L1.51747871,12.9230814 L11.2098103,12.9230814 L11.2098103,4.95924584 L8.40442032,4.95924617 C7.84929689,4.95924617 7.39227395,4.53923146 7.33380478,3.99965531 L7.32748547,3.88231132 L7.32748547,1.07693501 Z M9.11519461,10.4461586 C9.41258148,10.4461586 9.65366203,10.6872392 9.65366203,10.9846261 C9.65366203,11.2522742 9.45838679,11.4743143 9.20253671,11.5160458 L9.11519461,11.5230935 L3.73057503,11.5230935 C3.43530867,11.521606 3.19631615,11.2826131 3.19482133,10.9873468 C3.19347902,10.719701 3.38763222,10.4966801 3.64326932,10.45366 L3.73057503,10.4461723 L9.11519461,10.4461586 Z M9.44853072,8.29231629 C9.5618214,8.29231629 9.65366198,8.53339684 9.65366198,8.83078371 C9.65366198,9.09099722 9.58334654,9.30810121 9.48987177,9.35831137 L9.44853072,9.36925114 L7.39723887,9.36925114 C7.28394818,9.36925114 7.1921076,9.12817058 7.1921076,8.83078371 C7.1921076,8.5705702 7.26242305,8.35346621 7.35589782,8.30325605 L7.39723887,8.29231629 L9.44853072,8.29231629 Z M6.50560612,3 L6.50560612,3.62640467 L5.87920145,3.62640467 L5.87920145,7.38481833 L6.50560612,7.38481833 L6.50560612,8.011223 L4,8.011223 L4,7.38481833 L4.62640467,7.38481833 L4.62640467,3.62640467 L4,3.62640467 L4,3 L6.50560612,3 Z M9.44867082,6.13846027 C9.56188416,6.13846027 9.65366203,6.37954082 9.65366203,6.67692769 C9.65366203,6.9371412 9.5833946,7.15424519 9.48998365,7.20445535 L9.44867082,7.21539511 L7.39877945,7.21539511 C7.28637338,7.21390761 7.1953904,6.97491476 7.19482133,6.6796484 C7.19432452,6.41943728 7.2641744,6.20140621 7.35748803,6.14996037 L7.39877945,6.13847394 L9.44867082,6.13846027 Z M8.40442032,2.60077646 L8.40442032,3.88231116 L9.68595502,3.88231116 L8.40442032,2.60077646 Z" id="形状结合"></path>
            </g>
        </g>
    </g>
</svg>