<?xml version="1.0" encoding="UTF-8"?>
<svg width="20px" height="20px" viewBox="0 0 20 20" version="1.1" xmlns="http://www.w3.org/2000/svg" xmlns:xlink="http://www.w3.org/1999/xlink">
    <!-- Generator: Sketch 58 (84663) - https://sketch.com -->
    <title>一级质控记录</title>
    <desc>Created with Sketch.</desc>
    <g id="继续教育" stroke="none" stroke-width="1" fill="none" fill-rule="evenodd">
        <g id="一级质控icon" transform="translate(-6.000000, -6.000000)">
            <g id="jilu" transform="translate(10.000000, 9.000000)" fill="#000000" fill-rule="nonzero">
                <path d="M1.19980633,0.960667785 L1.19980632,0.960667785 C0.670230187,0.959508668 0.239824608,1.38756997 0.238091533,1.91714468 L0.238091533,12.9653541 C0.238091533,13.4954502 0.669711697,13.9239288 1.19980632,13.9239288 L10.8001964,13.9239288 L10.8001964,13.9239288 C11.3301794,13.9250839 11.7607525,13.4963869 11.7619115,12.966404 C11.7619115,12.9660539 11.7619115,12.9657037 11.7619115,12.9653535 L11.7619115,1.91820397 L11.7619115,1.91820144 C11.7607542,1.38821853 11.3301811,0.959521675 10.8001982,0.960678968 C10.8001966,0.960678971 10.8001951,0.960678975 10.8001936,0.960678978 L9.36076743,0.960678978 L9.84162554,1.44048865 L9.84162554,0.719725703 L9.84162557,0.719746507 C9.84106006,0.322498519 9.5191791,0.000599186077 9.12193112,9.73215296e-06 L2.87809182,9.73215296e-06 L2.87809185,9.73215296e-06 C2.48118332,-0.000568512499 2.15895599,0.320719611 2.15837734,0.717628145 C2.15837632,0.71832707 2.15837632,0.719025995 2.15837734,0.719724923 L2.15837734,1.44048787 L2.63923545,0.960678198 L1.1998093,0.960678198 L1.19980633,0.960667785 Z M3.11905075,1.92028856 L3.11905075,0.719715841 L3.11905075,0.719715841 C3.11905075,0.852790458 3.01117257,0.960669217 2.87809748,0.960669217 C2.87809748,0.960669217 2.87809748,0.960669217 2.87809748,0.960669217 L9.12190813,0.960669217 L9.12190812,0.960669217 C8.98941354,0.961249065 8.88153492,0.854310981 8.88095484,0.721815684 C8.88095178,0.721115741 8.88095178,0.720415787 8.88095484,0.719715841 L8.88095484,1.92028846 L10.8001993,1.92028846 C10.8022945,1.92028846 10.8012469,12.9663925 10.8012469,12.9663925 C10.8012469,12.9642972 1.19981124,12.9642972 1.19981124,12.9642972 C1.19771599,12.9642972 1.19876361,1.91819322 1.19876361,1.91819322 C1.19876361,1.92028846 2.63923534,1.92028846 2.63923534,1.92028846 L3.11904501,1.92028846 L3.11905075,1.92028856 Z M8.88096631,2.16124184 L8.88096631,2.16124187 C8.88096629,2.02816736 8.9888445,1.9202886 9.12191959,1.9202886 L2.87810894,1.9202886 C3.01220439,1.9202886 3.11906221,2.02819343 3.11906221,2.16124187 L3.11906221,1.44047893 L3.11906221,1.44047893 C3.11906221,1.17519815 2.9040091,0.960145034 2.63872832,0.960145034 C2.37344754,0.960145034 2.15839443,1.17519815 2.15839443,1.44047893 L2.15839443,2.16124187 C2.15839443,2.55724233 2.48106147,2.88095638 2.87810894,2.88095638 L9.12191959,2.88095638 C9.52001549,2.88095638 9.8416341,2.55933635 9.8416341,2.16124187 L9.8416341,1.44047893 L9.8416341,1.44047893 C9.8416341,1.17519815 9.62658098,0.960145034 9.36130021,0.960145034 C9.09601943,0.960145034 8.88096631,1.17519815 8.88096631,1.44047893 L8.88096631,2.16124187 L8.88096631,2.16124184 Z M5.16676946,6.00182183 L5.16676945,6.00182183 C5.27420568,6.00182183 5.36130018,5.78676871 5.36130018,5.52148794 C5.36130018,5.25620716 5.27420568,5.04115404 5.16676945,5.04115404 L2.83324756,5.04115404 L2.83324755,5.04115404 C2.72581132,5.04115404 2.63871682,5.25620716 2.63871682,5.52148794 C2.63871682,5.78676871 2.72581132,6.00182183 2.83324755,6.00182183 L5.16676944,6.00182183 L5.16676946,6.00182183 Z M2.83324758,7.44229356 L2.83324757,7.44229356 C2.72581134,7.44229356 2.63871684,7.65734667 2.63871684,7.92262745 C2.63871684,8.18790823 2.72581134,8.40296134 2.83324757,8.40296134 L5.16676944,8.40296134 L5.16676943,8.40296134 C5.27420566,8.40296134 5.36130016,8.18790823 5.36130016,7.92262745 C5.36130016,7.65734667 5.27420566,7.44229356 5.16676943,7.44229356 L2.83324756,7.44229356 L2.83324758,7.44229356 Z M6.96067628,9.84343307 C7.22595705,9.84343307 7.44101017,10.0584862 7.44101017,10.323767 C7.44101017,10.5890477 7.22595705,10.8041009 6.96067628,10.8041009 L6.96067628,10.8041009 L3.11905073,10.8041009 C2.85376996,10.8041009 2.63871684,10.5890477 2.63871684,10.323767 C2.63871684,10.0584862 2.85376996,9.84343307 3.11905073,9.84343307 L3.11905073,9.84343307 Z M9.50560612,4 L9.50560612,4.62640467 L8.87920145,4.62640467 L8.87920145,8.38481833 L9.50560612,8.38481833 L9.50560612,9.011223 L7,9.011223 L7,8.38481833 L7.62640467,8.38481833 L7.62640467,4.62640467 L7,4.62640467 L7,4 L9.50560612,4 Z" id="形状"></path>
            </g>
            <g id="一级" transform="translate(15.000000, 13.000000)"></g>
        </g>
    </g>
</svg>