<?xml version="1.0" encoding="UTF-8"?>
<svg width="20px" height="20px" viewBox="0 0 20 20" version="1.1" xmlns="http://www.w3.org/2000/svg" xmlns:xlink="http://www.w3.org/1999/xlink">
    <!-- Generator: Sketch 58 (84663) - https://sketch.com -->
    <title>二级质控</title>
    <desc>Created with Sketch.</desc>
    <g id="继续教育" stroke="none" stroke-width="1" fill="none" fill-rule="evenodd">
        <g id="质控icon" transform="translate(-46.000000, -51.000000)" fill="#333333" fill-rule="nonzero">
            <path d="M56.7501018,58.7499885 L55.2499922,58.7499885 L55.2499922,63.2500115 L56.7501018,63.2500115 L56.7501018,58.7499885 L56.7501018,58.7499885 Z M59,58.7499885 L58.2499997,58.7499885 L58.2499997,63.2500115 L59,63.2500115 L59,64 L53,64 L53,63.2500115 L53.7500003,63.2500115 L53.7500003,58.7499885 L53,58.7499885 L53,58 L59,58 L59,58.7499885 Z" id="形状"></path>
            <path d="M50.1666662,57.1733379 L50.1666662,61 L50.1666662,61.0000009 C50.1666662,64.2216552 52.7783361,66.8333388 56.0000041,66.8333388 C59.2216584,66.8333388 61.833342,64.2216688 61.833342,61.0000009 L61.833342,57.1733388 L56.0000041,55.2308388 L50.1666662,57.1745009 L50.1666662,57.1733379 Z M49,56.3333379 L56,54 L63,56.3333379 L63,61 L63,61 C63,64.8659961 59.8659961,68 56,68 C52.1340039,68 49,64.8659961 49,61 L49,56.3333379 Z" id="形状"></path>
        </g>
    </g>
</svg>