<?xml version="1.0" encoding="UTF-8"?>
<svg width="20px" height="20px" viewBox="0 0 20 20" version="1.1" xmlns="http://www.w3.org/2000/svg" xmlns:xlink="http://www.w3.org/1999/xlink">
    <!-- Generator: Sketch 58 (84663) - https://sketch.com -->
    <title>文件书写统计表</title>
    <desc>Created with Sketch.</desc>
    <g id="继续教育" stroke="none" stroke-width="1" fill="none" fill-rule="evenodd">
        <g id="质控icon" transform="translate(-46.000000, -232.000000)" fill="#333333" fill-rule="nonzero">
            <path d="M57.3462674,236.071179 C57.6343563,236.071179 57.8864338,236.311126 57.8864338,236.585352 C57.8864338,236.859578 57.6343563,237.099526 57.3462674,237.099526 L52.1246527,237.099526 C51.5484748,237.099526 51.0443198,237.545142 51.0443198,238.093594 L51.0443198,246.046135 C51.0443198,246.560308 51.5484748,247.040203 52.1246527,247.040203 L60.515243,247.040203 C61.091421,247.040203 61.5955759,246.594587 61.5955759,246.046135 L61.5955759,240.01317 C61.5955759,239.738944 61.8476534,239.498996 62.1357424,239.498996 C62.4238313,239.498996 62.6759088,239.738944 62.6759088,240.01317 L62.6759088,246.011861 C62.6398978,247.108763 61.7036089,248 60.5512561,248 L52.1246527,248 C50.9722984,248 50,247.074486 50,246.011859 L50,238.059318 C50,236.962416 50.9362884,236.071179 52.1246527,236.071179 L57.3462674,236.071179 Z M60.0470919,244.88069 C60.3351808,244.88069 60.5872583,245.120638 60.5872583,245.394864 C60.5872583,245.66909 60.3351808,245.909037 60.0470919,245.909037 L52.7008245,245.909037 C52.4127355,245.909037 52.160658,245.66909 52.160658,245.394864 C52.160658,245.120638 52.4127355,244.88069 52.7008245,244.88069 L60.0470919,244.88069 Z M62.4598336,235.488465 C62.819944,235.796969 63,236.208307 63,236.653924 C63,237.09954 62.819944,237.510879 62.4598336,237.853661 L61.0554017,239.190514 L61.052,239.187 L56.3739613,243.612389 C56.2299169,243.749502 56.0858723,243.818058 55.9418278,243.852336 L55.9058168,243.852336 L54.5013849,244.160841 C54.3933516,244.195121 54.3213289,244.195121 54.2493075,244.195121 C53.9612165,244.195121 53.709139,244.092286 53.529083,243.886616 C53.2770055,243.646669 53.1689726,243.269609 53.2770055,242.961104 L53.637116,241.624254 C53.673127,241.52142 53.7451493,241.350028 53.8891935,241.212915 L59.2908579,236.105456 L59.9390589,235.488465 C60.6232698,234.837178 61.7756257,234.837178 62.4598336,235.488465 Z M54.611,241.93 L54.6094051,241.932759 L54.2853154,243.201053 L55.65,242.893 L54.611,241.93 Z M59.314,237.556 L55.249,241.337 L56.285,242.299 L60.329,238.509 L59.314,237.556 Z M60.6592813,236.174033 L60.0470919,236.79104 L61.0554017,237.75083 L61.7396127,237.133822 C61.8476459,236.996709 61.9196687,236.859596 61.9196687,236.653927 C61.9196687,236.448259 61.8476466,236.311146 61.7036027,236.174033 C61.4155137,235.899807 60.9473703,235.899807 60.6592813,236.174033 Z" id="形状结合"></path>
        </g>
    </g>
</svg>