<?xml version="1.0" encoding="UTF-8"?>
<svg width="20px" height="20px" viewBox="0 0 20 20" version="1.1" xmlns="http://www.w3.org/2000/svg" xmlns:xlink="http://www.w3.org/1999/xlink">
    <!-- Generator: Sketch 59.1 (86144) - https://sketch.com -->
    <title>抄送我的</title>
    <desc>Created with Sketch.</desc>
    <g id="继续教育" stroke="none" stroke-width="1" fill="none" fill-rule="evenodd">
        <g id="病区日志菜单icon" transform="translate(-6.000000, -75.000000)" fill="#000000" fill-rule="nonzero">
            <g id="抄送" transform="translate(9.000000, 77.000000)">
                <path d="M7.77321919,9.03088732 L1.06351694,9.03088732 L1.06351691,9.03088732 C0.768197841,9.03088731 0.528794069,8.79148355 0.528794069,8.49616447 C0.528794069,8.49616447 0.528794069,8.49616447 0.528794069,8.49616447 L0.528794069,1.11698922 L0.528794069,1.1169893 C0.528794069,0.82167023 0.768197841,0.582266457 1.06351691,0.582266457 L7.69728852,0.582266457 L7.6972885,0.582266457 C7.99260757,0.582266457 8.23201134,0.82167023 8.23201134,1.1169893 L8.23201134,3.26657514 L12.8284889,3.26657514 L12.8284889,3.26657514 C13.123808,3.26657512 13.3632117,3.50597891 13.3632117,3.80129798 L13.3632117,12.8808919 L13.3632117,12.8808919 C13.3632117,13.176211 13.123808,13.4156147 12.8284889,13.4156147 L3.93818688,13.4156147 L3.93818685,13.4156147 C3.64286778,13.4156147 3.40346401,13.176211 3.40346401,12.8808919 C3.40346401,12.8808919 3.40346401,12.8808919 3.40346401,12.8808919 L3.40346401,11.5750987 L3.40346401,11.5750988 C3.40346397,11.2797797 3.64286778,11.0403759 3.93818685,11.0403759 C4.23350593,11.0403759 4.4729097,11.2797797 4.4729097,11.5750988 C4.4729097,11.5750988 4.4729097,11.5750988 4.4729097,11.5750988 L4.4729097,12.3472386 L12.293766,12.3472386 L12.293766,4.33602091 L4.4729097,4.33602091 L4.4729097,5.58834181 L4.4729097,5.58834181 C4.4729097,5.88366088 4.23350593,6.12306465 3.93818685,6.12306465 C3.64286778,6.12306465 3.40346401,5.88366088 3.40346401,5.58834181 L3.40346401,3.80129806 L3.40346401,3.80129814 C3.40346397,3.50597907 3.64286778,3.2665753 3.93818685,3.2665753 L7.16256561,3.2665753 L7.16256561,1.65171231 L1.59930913,1.65171231 L1.59930913,7.96144187 L7.77214965,7.96144187 L7.02781545,7.19999654 L7.02781542,7.19999651 C6.81808041,6.99209126 6.81659656,6.65352648 7.02450126,6.44379147 C7.23240652,6.23405646 7.5709713,6.2325726 7.78070631,6.44047731 C7.78432252,6.44406197 7.78788735,6.4476981 7.79139971,6.45138458 L9.42765162,8.12292819 L9.42765162,8.1229282 C9.63145789,8.33085184 9.63145789,8.66361655 9.42765161,8.87154018 L7.79139971,10.5409449 L7.79139972,10.5409449 C7.58166471,10.7488501 7.24309993,10.7473663 7.03519468,10.5376307 C6.83147697,10.33212 6.8282068,10.0018367 7.02781545,9.79233232 L7.77428854,9.03088699 L7.77321919,9.03088732 Z" id="路径"></path>
            </g>
        </g>
    </g>
</svg>