<svg xmlns="http://www.w3.org/2000/svg" width="16" height="16" viewBox="0 0 16 16">
  <defs>
    <style>
      .cls-1 {
        fill: #333;
      }
    </style>
  </defs>
  <g id="病区登记本相关指导" transform="translate(-162 -143.001)">
    <path id="路径_295" data-name="路径 295" class="cls-1" d="M173.69,151.819l-1.969.657a.389.389,0,0,0-.246.246l-.657,1.969a.389.389,0,0,0,.369.512.4.4,0,0,0,.123-.02l1.969-.657a.386.386,0,0,0,.246-.246l.657-1.969a.389.389,0,0,0-.492-.492Zm-.841,2.031-1.047.349.349-1.047,1.047-.349Z"/>
    <path id="路径_296" data-name="路径 296" class="cls-1" d="M172.5,150a3.5,3.5,0,1,0,3.5,3.5A3.5,3.5,0,0,0,172.5,150Zm0,6.222a2.722,2.722,0,1,1,2.722-2.722A2.725,2.725,0,0,1,172.5,156.223Z"/>
    <path id="路径_297" data-name="路径 297" class="cls-1" d="M171.778,149.22a.445.445,0,0,0-.445-.445h-6.222a.445.445,0,0,0,0,.89h6.222A.445.445,0,0,0,171.778,149.22Z"/>
    <path id="路径_298" data-name="路径 298" class="cls-1" d="M164.668,151.885a.444.444,0,0,0,.443.444h3.7a3.912,3.912,0,0,1,.4-.887h-4.1A.444.444,0,0,0,164.668,151.885Z"/>
    <path id="路径_299" data-name="路径 299" class="cls-1" d="M165.111,147h6.222a.444.444,0,1,0,0-.888h-6.222a.444.444,0,0,0,0,.888Z"/>
    <path id="路径_300" data-name="路径 300" class="cls-1" d="M163.779,154.559a.892.892,0,0,1-.89-.89v-8.446a.89.89,0,0,1,.89-.889h.444a.444.444,0,0,0,0-.889h-.444A1.78,1.78,0,0,0,162,145.223v8.446a1.779,1.779,0,0,0,1.779,1.776h5.373a3.822,3.822,0,0,1-.376-.886Z"/>
    <path id="路径_301" data-name="路径 301" class="cls-1" d="M166.927,144.334h2.247a.663.663,0,0,0,.666-.643.67.67,0,0,0-.642-.69h-2.274a.667.667,0,0,0,0,1.333Z"/>
    <path id="路径_302" data-name="路径 302" class="cls-1" d="M172.187,144.334h.479a.891.891,0,0,1,.891.889v4.554a3.829,3.829,0,0,1,.887.376v-4.93a1.779,1.779,0,0,0-1.773-1.778h-.464a.445.445,0,0,0-.02.889Z"/>
  </g>
</svg>
