<svg xmlns="http://www.w3.org/2000/svg" width="16" height="16" viewBox="0 0 16 16">
  <g id="病区管理相关指导" transform="translate(-160.992 -272.999)">
    <path id="路径_341" data-name="路径 341" d="M167.991,279.155a1.963,1.963,0,1,0-1.871-1.953A1.909,1.909,0,0,0,167.991,279.155Zm0-2.8a.844.844,0,1,1-.808.844A.829.829,0,0,1,167.991,276.358Z"/>
    <path id="路径_342" data-name="路径 342" d="M165.689,281.081l1.764,1.785a.677.677,0,0,0,.982,0l1.71-1.7a4.41,4.41,0,0,0,2.14-3.781,4.295,4.295,0,1,0-6.6,3.7Zm2.3-6.958a3.253,3.253,0,0,1,3.2,3.289,3.3,3.3,0,0,1-1.616,2.84l-.067.028-1.521,1.532-1.575-1.574-.054-.043-.053-.028a3.272,3.272,0,0,1,1.682-6.044Z"/>
    <path id="路径_343" data-name="路径 343" d="M174.963,286.254l-1.426-4.484a.542.542,0,0,0-.539-.38h-1.79a.563.563,0,0,0,0,1.125h1.4l1.063,3.359H162.3l1.076-3.359h1.4a.563.563,0,0,0,0-1.125h-1.79a.538.538,0,0,0-.538.38l-1.427,4.484a.563.563,0,0,0-.027.21.548.548,0,0,0,.172.384.542.542,0,0,0,.393.15h12.868a.505.505,0,0,0,.2-.028A.575.575,0,0,0,174.963,286.254Z"/>
    <path id="路径_344" data-name="路径 344" d="M166.376,283.639a.563.563,0,0,0,0,1.125h3.23a.563.563,0,0,0,0-1.125Z"/>
  </g>
</svg>
