<svg xmlns="http://www.w3.org/2000/svg" width="16" height="16" viewBox="0 0 16 16">
  <g id="档案管理相关指导" transform="translate(-162 -204)">
    <path id="路径_336" data-name="路径 336" d="M173.69,212.818l-1.969.657a.389.389,0,0,0-.246.246l-.657,1.969a.389.389,0,0,0,.369.512.4.4,0,0,0,.123-.02l1.969-.657a.386.386,0,0,0,.246-.246l.657-1.969a.389.389,0,0,0-.492-.492Zm-.841,2.031-1.047.349.349-1.047,1.047-.349Z"/>
    <path id="路径_337" data-name="路径 337" d="M172.5,211a3.5,3.5,0,1,0,3.5,3.5A3.5,3.5,0,0,0,172.5,211Zm0,6.222a2.722,2.722,0,1,1,2.722-2.722A2.725,2.725,0,0,1,172.5,217.222Z"/>
    <path id="路径_338" data-name="路径 338" d="M163.247,215.011c-.372,0-.48-.119-.481-.514l.936-5.378c0-.407.112-.531.48-.531H173.2c.372,0,.479.119.481.514l-.283,1.623a3.888,3.888,0,0,1,.708.242l.34-2.267a.9.9,0,0,0-.863-.934h-.072V206.53a.9.9,0,0,0-.863-.934h-4.7v-.662a.9.9,0,0,0-.863-.934h-4.22a.9.9,0,0,0-.863.934V214.9a.9.9,0,0,0,.863.934h6a3.87,3.87,0,0,1-.2-.822Zm-.48-9.658c0-.407.112-.531.48-.531H166.7c.372,0,.479.119.479.531v1.065h5.084c.371,0,.479.119.479.53v.818H163.8a.9.9,0,0,0-.862.921l-.169,1.2Z"/>
  </g>
</svg>
