<svg xmlns="http://www.w3.org/2000/svg" width="16" height="16" viewBox="0 0 16 16">
  <g id="二级质控相关指导" transform="translate(-204 -178.001)">
    <path id="路径_319" data-name="路径 319" d="M215.69,186.819l-1.969.657a.389.389,0,0,0-.246.246l-.657,1.969a.389.389,0,0,0,.369.512.4.4,0,0,0,.123-.02l1.969-.657a.386.386,0,0,0,.246-.246l.657-1.969a.389.389,0,0,0-.492-.492Zm-.841,2.031-1.047.349.349-1.047,1.047-.349Z"/>
    <path id="路径_320" data-name="路径 320" d="M214.5,185a3.5,3.5,0,1,0,3.5,3.5A3.5,3.5,0,0,0,214.5,185Zm0,6.222a2.722,2.722,0,1,1,2.722-2.722A2.725,2.725,0,0,1,214.5,191.223Z"/>
    <path id="路径_321" data-name="路径 321" d="M210.222,189.668a5.451,5.451,0,0,1-5.444-5.445v-3.587l5.444-1.815,5.445,1.815v3.587a5.52,5.52,0,0,1-.032.578,3.826,3.826,0,0,1,.738.314,6.242,6.242,0,0,0,.071-.892v-4.147L210.222,178,204,180.076v4.147a6.179,6.179,0,0,0,7.114,6.151,3.826,3.826,0,0,1-.314-.738A5.52,5.52,0,0,1,210.222,189.668Z"/>
    <path id="路径_322" data-name="路径 322" d="M211.778,182.668a.389.389,0,1,0,0-.778h-3.111a.389.389,0,1,0,0,.778h.389v3.111h-.389a.389.389,0,1,0,0,.778h2.485a3.881,3.881,0,0,1,.578-.778h-.341v-3.111Zm-1.167,3.111h-.778v-3.111h.778Z"/>
  </g>
</svg>
