<svg xmlns="http://www.w3.org/2000/svg" width="14" height="16" viewBox="0 0 16 16">
  <defs>
    <style>
      .cls-1 {
        fill: #333;
      }
    </style>
  </defs>
  <g id="护理制度相关指导" transform="translate(-246 -143.001)">
    <path id="路径_330" data-name="路径 330" class="cls-1" d="M257.69,151.819l-1.969.657a.389.389,0,0,0-.246.246l-.657,1.969a.389.389,0,0,0,.369.512.4.4,0,0,0,.123-.02l1.969-.657a.386.386,0,0,0,.246-.246l.657-1.969a.389.389,0,0,0-.492-.492Zm-.841,2.031-1.047.349.349-1.047,1.047-.349Z"/>
    <path id="路径_331" data-name="路径 331" class="cls-1" d="M256.5,150a3.5,3.5,0,1,0,3.5,3.5A3.5,3.5,0,0,0,256.5,150Zm0,6.222a2.722,2.722,0,1,1,2.722-2.722A2.725,2.725,0,0,1,256.5,156.223Z"/>
    <path id="路径_332" data-name="路径 332" class="cls-1" d="M254.2,150.38h-5.339a.408.408,0,0,0-.121,0,.478.478,0,1,0,.121.949h4.412A3.9,3.9,0,0,1,254.2,150.38Z"/>
    <path id="路径_333" data-name="路径 333" class="cls-1" d="M255.573,146.543a.957.957,0,1,0-.958-.957.581.581,0,0,0,.026.16.58.58,0,0,1,.019.077l-1.244,1.244a.8.8,0,0,0-.237-.045.558.558,0,0,0-.151.027l-.04.011-.8-.8a.144.144,0,0,0,.011-.042.537.537,0,0,0,.027-.149.957.957,0,1,0-1.914-.007.709.709,0,0,0,.038.214v.012l-1.244,1.256a.824.824,0,0,0-.23-.046.957.957,0,1,0,.957.957.707.707,0,0,0-.041-.218v-.012l1.244-1.245a.812.812,0,0,0,.238.047.7.7,0,0,0,.2-.04l.019-.006.777.781c-.005.026-.012.052-.019.077a.516.516,0,0,0-.027.145.958.958,0,1,0,1.915-.007.723.723,0,0,0-.039-.216l-.006-.023,1.244-1.244A.8.8,0,0,0,255.573,146.543Z"/>
    <path id="路径_334" data-name="路径 334" class="cls-1" d="M248.743,152.39a.478.478,0,0,0,.121.949h3.763a3.866,3.866,0,0,1,.165-.949h-3.928A.489.489,0,0,0,248.743,152.39Z"/>
    <path id="路径_335" data-name="路径 335" class="cls-1" d="M247.89,154.338a.946.946,0,0,1-.944-.944v-8.5a.946.946,0,0,1,.944-.944h8.5a.945.945,0,0,1,.945.944v4.817a3.848,3.848,0,0,1,1.106.445v-5.237A1.928,1.928,0,0,0,256.522,143h-8.607A1.915,1.915,0,0,0,246,144.916v8.615a1.914,1.914,0,0,0,1.915,1.914h5.237a3.854,3.854,0,0,1-.445-1.107Z"/>
  </g>
</svg>
