<svg xmlns="http://www.w3.org/2000/svg" width="16" height="16" viewBox="0 0 16 16">
  <g id="排班管理相关指导" transform="translate(-204 -108.001)">
    <path id="路径_310" data-name="路径 310" d="M215.69,116.819l-1.969.657a.386.386,0,0,0-.246.246l-.657,1.969a.388.388,0,0,0,.369.511.373.373,0,0,0,.123-.02l1.969-.656a.389.389,0,0,0,.246-.246l.657-1.969a.389.389,0,0,0-.492-.492Zm-.841,2.031-1.047.349.349-1.047,1.047-.349Z"/>
    <path id="路径_311" data-name="路径 311" d="M214.5,115a3.5,3.5,0,1,0,3.5,3.5A3.5,3.5,0,0,0,214.5,115Zm0,6.222a2.722,2.722,0,1,1,2.722-2.722A2.725,2.725,0,0,1,214.5,121.223Z"/>
    <path id="路径_312" data-name="路径 312" d="M212.19,114.4a.969.969,0,0,1,.8.52,3.826,3.826,0,0,1,.523-.163,1.48,1.48,0,0,0-1.385-.839c-.038,0-.076,0-.114,0a1.486,1.486,0,0,0-1.408,1.561v1.564a1.454,1.454,0,0,0,.108.6,3.85,3.85,0,0,1,.431-1.075V115.45a1.089,1.089,0,0,1,.3-.785.935.935,0,0,1,.68-.27v0Z"/>
    <path id="路径_313" data-name="路径 313" d="M205.68,119.529a.755.755,0,0,1-.754-.754v-6.466h10.617v2.463a3.825,3.825,0,0,1,.9.381v-4.67a1.406,1.406,0,0,0-1.4-1.4h-.807v-.641a.438.438,0,0,0-.877,0v.644h-6.342v-.67a.408.408,0,1,0-.815,0v.67h-.8a1.4,1.4,0,0,0-1.4,1.4v8.559a1.4,1.4,0,0,0,1.4,1.4h5.752a3.862,3.862,0,0,1-.385-.916Zm-.755-8.8a.757.757,0,0,1,.754-.755l.528,0v.324a.415.415,0,0,0,.83,0v-.324h6.331v.331a.433.433,0,0,0,.435.423h.013a.438.438,0,0,0,.422-.449v-.308h.553a.755.755,0,0,1,.754.755v.724h-10.62Z"/>
    <path id="路径_314" data-name="路径 314" d="M208.624,118.087a.922.922,0,0,1-.922-.732.269.269,0,0,0-.272-.212.22.22,0,0,0-.057.005.269.269,0,0,0-.2.318,1.408,1.408,0,0,0,.246.553,1.516,1.516,0,0,0,1.19.55c.031,0,.061,0,.092,0a1.4,1.4,0,0,0,1.388-1.41,1.256,1.256,0,0,0-.861-1.2,1.053,1.053,0,0,0,.583-.935c0-.024,0-.049,0-.074a1.113,1.113,0,0,0-1.176-1.043,1.192,1.192,0,0,0-1.176.837.245.245,0,0,0-.009.066.265.265,0,0,0,.523.072.65.65,0,0,1,.656-.492.579.579,0,0,1,.059,0,.641.641,0,0,1,.588.688c0,.016,0,.032,0,.048a.74.74,0,0,1-.816.657h-.272a.222.222,0,1,0,0,.444.2.2,0,0,0,.06-.012h.287l.045,0a.957.957,0,0,1,.981.932.632.632,0,0,1,0,.087A.888.888,0,0,1,208.624,118.087Z"/>
  </g>
</svg>
