<svg xmlns="http://www.w3.org/2000/svg" width="16" height="16" viewBox="0 0 16 16">
  <g id="审核管理相关指导" transform="translate(-162 -178.001)">
    <path id="路径_303" data-name="路径 303" d="M173.69,186.819l-1.969.657a.389.389,0,0,0-.246.246l-.657,1.969a.389.389,0,0,0,.369.512.4.4,0,0,0,.123-.02l1.969-.657a.389.389,0,0,0,.246-.246l.657-1.969a.389.389,0,0,0-.492-.492Zm-.841,2.031-1.047.349.349-1.047,1.047-.349Z"/>
    <path id="路径_304" data-name="路径 304" d="M172.5,185a3.5,3.5,0,1,0,3.5,3.5A3.5,3.5,0,0,0,172.5,185Zm0,6.222a2.722,2.722,0,1,1,2.722-2.722A2.725,2.725,0,0,1,172.5,191.223Z"/>
    <path id="路径_305" data-name="路径 305" d="M162.871,189.557V178.89h10.667V184.5a3.849,3.849,0,0,1,.906.518V178.89a.924.924,0,0,0-.9-.889H162.873a.883.883,0,0,0-.873.889v10.667a.889.889,0,0,0,.889.888h6.131a3.861,3.861,0,0,1-.513-.888Z"/>
    <path id="路径_306" data-name="路径 306" d="M167.886,180.947a.457.457,0,0,0-.074-.606.413.413,0,0,0-.278-.107.427.427,0,0,0-.332.158l-1.163,1.431-.467.534-.969-.969a.253.253,0,0,0-.03-.027l-.023-.027a.445.445,0,0,0-.328-.142.473.473,0,0,0-.3.107.454.454,0,0,0-.149.314.435.435,0,0,0,.114.315l.977,1.117a.92.92,0,0,0,.394.254l.061.06h0l0,0a.351.351,0,0,0,.495.023.4.4,0,0,0,.1-.079l.093-.11a.8.8,0,0,0,.2-.187l.553-.679,1.038-1.188A.36.36,0,0,0,167.886,180.947Z"/>
    <path id="路径_307" data-name="路径 307" d="M163.778,186.658a1.989,1.989,0,1,0,1.989-1.989A1.991,1.991,0,0,0,163.778,186.658Zm3.11,0a1.117,1.117,0,0,1-1.117,1.118h0a1.119,1.119,0,0,1-1.117-1.121h0a1.134,1.134,0,0,1,1.119-1.114A1.117,1.117,0,0,1,166.888,186.661Z"/>
    <path id="路径_308" data-name="路径 308" d="M172.212,180.673h-2.934a.437.437,0,0,0,0,.873h2.934a.437.437,0,0,0,0-.873Z"/>
    <path id="路径_309" data-name="路径 309" d="M172.212,182.451h-2.934a.437.437,0,0,0,0,.873h2.934a.437.437,0,0,0,0-.873Z"/>
  </g>
</svg>
