<svg xmlns="http://www.w3.org/2000/svg" width="16" height="16" viewBox="0 0 16 16">
  <g id="三级指控相关指导" transform="translate(-246 -178.001)">
    <path id="路径_323" data-name="路径 323" d="M257.69,186.819l-1.969.657a.389.389,0,0,0-.246.246l-.657,1.969a.389.389,0,0,0,.369.512.4.4,0,0,0,.123-.02l1.969-.657a.386.386,0,0,0,.246-.246l.657-1.969a.389.389,0,0,0-.492-.492Zm-.841,2.031-1.047.349.349-1.047,1.047-.349Z"/>
    <path id="路径_324" data-name="路径 324" d="M256.5,185a3.5,3.5,0,1,0,3.5,3.5A3.5,3.5,0,0,0,256.5,185Zm0,6.222a2.722,2.722,0,1,1,2.722-2.722A2.725,2.725,0,0,1,256.5,191.223Z"/>
    <path id="路径_325" data-name="路径 325" d="M252.222,189.668a5.451,5.451,0,0,1-5.444-5.445v-3.587l5.444-1.815,5.445,1.815v3.587a5.524,5.524,0,0,1-.032.578,3.825,3.825,0,0,1,.738.314,6.238,6.238,0,0,0,.071-.892v-4.147L252.222,178,246,180.076v4.147a6.179,6.179,0,0,0,7.114,6.151,3.826,3.826,0,0,1-.314-.738A5.52,5.52,0,0,1,252.222,189.668Z"/>
    <path id="路径_326" data-name="路径 326" d="M250.278,186.168a.389.389,0,0,0,.389.389h2.485a3.925,3.925,0,0,1,.626-.826v-3.063a.389.389,0,1,0,0-.778h-3.111a.389.389,0,1,0,0,.778v3.111A.389.389,0,0,0,250.278,186.168Zm2.333-3.5H253v3.111h-.389Zm-1.167,0h.389v3.111h-.389Z"/>
  </g>
</svg>
