<svg xmlns="http://www.w3.org/2000/svg" width="16" height="16" viewBox="0 0 16 16">
  <g id="首页相关指导" transform="translate(-162.01 -108.001)">
    <path id="路径_292" data-name="路径 292" d="M173.7,116.819l-1.971.657a.386.386,0,0,0-.246.246l-.658,1.969a.389.389,0,0,0,.369.512.412.412,0,0,0,.124-.02l1.971-.657a.389.389,0,0,0,.246-.246l.657-1.969a.389.389,0,0,0-.492-.492Zm-.842,2.031-1.048.349.349-1.047,1.048-.349Z"/>
    <path id="路径_293" data-name="路径 293" d="M172.506,115a3.5,3.5,0,1,0,3.5,3.5A3.5,3.5,0,0,0,172.506,115Zm0,6.222a2.722,2.722,0,1,1,2.725-2.722A2.726,2.726,0,0,1,172.506,121.223Z"/>
    <path id="路径_294" data-name="路径 294" d="M169.284,116.065v.257a3.911,3.911,0,0,1,.7-.762.879.879,0,0,0-.835-.668h-1.843c-.453,0-.91.363-.91,1.173v3.582h-1.3c-.415,0-.834-.209-.834-.675v-4.613h-.924c-.4,0-.537-.113-.55-.143-.029-.069.031-.235.229-.447l4.332-4.611a1.206,1.206,0,0,1,.875-.379,1.178,1.178,0,0,1,.88.386l4.324,4.6c.2.214.26.379.233.446-.014.031-.153.146-.572.146h-.9v.285c.1-.009.206-.032.314-.032a3.863,3.863,0,0,1,1.518.309.883.883,0,0,0,.362-.409,1.159,1.159,0,0,0-.381-1.276l-4.326-4.6a1.978,1.978,0,0,0-2.9,0l-4.325,4.6a1.162,1.162,0,0,0-.382,1.276c.1.231.4.625,1.27.625h.145v3.835a1.489,1.489,0,0,0,1.613,1.453h2.074v-4.36c0-.211.059-.4.132-.4h1.843C169.225,115.67,169.284,115.854,169.284,116.065Z"/>
  </g>
</svg>
