<?xml version="1.0" encoding="UTF-8"?>
<svg width="19px" height="19px" viewBox="0 0 19 19" version="1.1" xmlns="http://www.w3.org/2000/svg" xmlns:xlink="http://www.w3.org/1999/xlink">
    <!-- Generator: Sketch 61 (89581) - https://sketch.com -->
    <title>使用手册设置</title>
    <desc>Created with Sketch.</desc>
    <g id="页面-1" stroke="none" stroke-width="1" fill="none" fill-rule="evenodd">
        <g id="提醒内容" transform="translate(-1212.000000, -15.000000)" fill="#FFFFFF" fill-rule="nonzero">
            <g id="设置" transform="translate(1212.000000, 15.000000)">
                <path d="M9.47522196,6.86412908 C10.8997486,6.86412908 12.0587425,8.02322506 12.0587425,9.44746412 C12.0587425,10.8716104 10.8997412,12.0307064 9.47522196,12.0307064 C8.05107568,12.0307064 6.89188693,10.8716104 6.89188693,9.44746412 C6.89169693,8.0232232 8.05107753,6.86412908 9.47522196,6.86412908 M9.47522196,5.71586349 C7.41429476,5.71586349 5.7436102,7.38653506 5.7436102,9.44747525 C5.7436102,11.5082169 7.41418714,13.1788829 9.47522196,13.1788829 C11.5363533,13.1788829 13.2070193,11.5082113 13.2070193,9.44747525 C13.2070193,7.38654805 11.5363477,5.71586349 9.47522196,5.71586349 M18.700679,11.725474 L18.7006795,11.7254717 C18.8656288,11.0203464 18.9487003,10.2985478 18.9482513,9.57438718 C18.9482513,8.84298096 18.8645543,8.12269087 18.7006795,7.42300578 L18.7006795,7.42300588 C18.6282225,7.11410523 18.3190723,6.92243137 18.0101716,6.99488751 C17.701271,7.06734458 17.5095971,7.37649479 17.5820532,7.68539544 L17.5820535,7.6853964 C17.7269756,8.30462456 17.7999117,8.93851465 17.7994126,9.57446988 C17.7994126,10.217051 17.7260725,10.849466 17.5820516,11.4633578 L17.5820516,11.4633578 C17.5084944,11.771982 17.6990537,12.0818011 18.0076781,12.1553575 C18.3163023,12.2289147 18.6261214,12.0383554 18.6996778,11.729731 C18.7000167,11.7283094 18.7003501,11.7268864 18.7006781,11.7254622 L18.700679,11.725474 Z M18.0218086,12.1664638 C18.0582886,12.1664638 18.0887836,12.1670338 18.1164287,12.1681738 L18.1164287,12.1681738 C18.4331984,12.1850051 18.7036351,11.9418583 18.7204661,11.6250886 C18.7372975,11.3083189 18.4941506,11.0378821 18.1773809,11.0210511 C18.1737219,11.0208567 18.1700612,11.0206973 18.1663992,11.020573 L18.166399,11.020573 C18.1182605,11.018635 18.0700856,11.0177482 18.0219083,11.017913 L18.0219083,11.017913 C17.7048492,11.0178605 17.4477792,11.2748456 17.4477272,11.5919029 C17.4477272,11.5919662 17.4477272,11.5920296 17.4477272,11.5920929 L17.4477272,11.5921296 C17.4475377,11.909135 17.7043686,12.1662735 18.0213739,12.1664628 C18.0215323,12.1664629 18.0216907,12.1664629 18.0218491,12.1664629 L18.0218086,12.1664638 Z M16.1465027,15.6217217 L16.1465027,15.6217217 C15.9102456,15.2591683 15.7847953,14.8356088 15.7855023,14.4028703 C15.7855023,13.1676796 16.7867088,12.1664712 18.0218086,12.1664712 L18.0218086,12.1664712 C18.3390254,12.1722409 18.6008565,11.9197641 18.606627,11.6025472 C18.6123967,11.2853304 18.3599199,11.0234993 18.042703,11.0177288 C18.0357389,11.0176338 18.0287731,11.0176338 18.0218091,11.0177288 C16.1524036,11.0177288 14.6366672,12.5332663 14.6366672,14.4028685 L14.6366672,14.4028898 C14.635919,15.0582329 14.8260666,15.6996042 15.1838812,16.2486436 L15.1838812,16.2486437 C15.3568633,16.5144195 15.7125476,16.589644 15.9783234,16.4166616 C15.9784016,16.4166106 15.9784799,16.4165597 15.9785581,16.4165087 L15.9785581,16.4165087 C16.2443895,16.243515 16.3196474,15.8877775 16.1466543,15.621946 C16.1466089,15.6218763 16.1465636,15.6218067 16.1465182,15.621737 L16.1465027,15.6217217 Z M12.2595694,18.5755572 C13.6887515,18.1462513 14.9909154,17.380645 16.0633776,16.3491405 L16.0633776,16.3491405 C16.2877634,16.1248419 16.2878358,15.7611102 16.0635364,15.5367226 C15.8453664,15.3184672 15.4937343,15.311576 15.2671813,15.5211187 C14.3253498,16.4270394 13.1825968,17.0987848 11.9289664,17.4751708 L11.9289665,17.4751708 C11.6265544,17.5712914 11.4593208,17.8943662 11.5554416,18.1967802 C11.6494097,18.4924198 11.9610902,18.6600857 12.2595669,18.5755578 L12.2595694,18.5755572 Z M7.52591061,18.2700372 L7.5259106,18.2700372 C7.89434589,17.4854309 8.68317894,16.9845707 9.54998815,16.984875 L9.54998806,16.984875 C10.4169234,16.9846072 11.2059068,17.4854217 11.5746223,18.2700372 L11.5746223,18.2700373 C11.7145587,18.5548372 12.0588742,18.67227 12.3436742,18.5323341 C12.6217165,18.395718 12.7413869,18.0632692 12.6142092,17.7807867 C12.0604532,16.6039246 10.8743768,15.8360305 9.54997325,15.8360305 C8.22576634,15.8360305 7.04017053,16.6037261 6.48631246,17.7807867 L6.48631247,17.7807867 C6.3560432,18.0701344 6.48500239,18.4103034 6.77435021,18.5405723 C7.05683267,18.6677508 7.3892811,18.5480792 7.52589757,18.2700372 L7.52591061,18.2700372 Z M3.06214858,16.3736531 C4.13004445,17.3927186 5.42280856,18.1492998 6.84068521,18.575559 L6.84068518,18.575559 C7.14449257,18.6668454 7.46478581,18.4945987 7.55613064,18.1908086 L7.55613065,18.1908086 C7.64747381,17.8871923 7.47539243,17.5670141 7.17177727,17.4756711 C7.17164519,17.4756314 7.17151309,17.4755917 7.17138098,17.475552 C5.92754379,17.1015373 4.79296415,16.4374866 3.85530192,15.5425781 L3.85530193,15.5425781 C3.62259434,15.3269241 3.25912614,15.3407493 3.04347218,15.5734557 C2.83228248,15.8013447 2.84055603,16.1558491 3.06214638,16.3736387 L3.06214858,16.3736531 Z M1.11702132,12.1664842 C2.35211739,12.1664842 3.35342041,13.1676907 3.35342041,14.4028833 L3.35342039,14.4028764 C3.3542101,14.8430554 3.2244134,15.2735784 2.98045404,15.639969 L2.98045406,15.639969 C2.80480275,15.9041212 2.87650798,16.2606481 3.14062424,16.4363556 L3.14062427,16.4363557 C3.4045817,16.6120064 3.76095272,16.5404205 3.93660459,16.276464 C3.93670848,16.2763079 3.93681229,16.2761517 3.93691602,16.2759955 L3.93691604,16.2759954 C4.30620299,15.7211261 4.50286064,15.0693048 4.50207443,14.4027862 C4.50207443,12.5331766 2.98643993,11.0176466 1.11702516,11.0176466 C0.79981942,11.0176466 0.542560234,11.2746219 0.542560234,11.5919222 C0.542560234,11.9092226 0.799821275,12.1664836 1.11702516,12.1664836 L1.11702132,12.1664842 Z M0.990576172,12.1696192 L0.990576302,12.1696192 C1.03272165,12.1674741 1.07491673,12.1664604 1.11711645,12.1665792 L1.11711647,12.1665792 C1.43433334,12.1665791 1.69148677,11.9094239 1.69148677,11.5922089 C1.69148677,11.274992 1.43433149,11.0178386 1.11711647,11.0178386 C1.05109139,11.0178386 0.988486322,11.0193586 0.927591251,11.0225886 L0.927591219,11.0225886 C0.610847491,11.0399815 0.368176017,11.3108527 0.385567346,11.6275964 C0.402960215,11.9443401 0.673831451,12.1870116 0.990575179,12.1696203 L0.990576172,12.1696192 Z M0.399770114,7.42150623 L0.399769685,7.42150807 C0.234578037,8.12724942 0.151283165,8.84967887 0.151534937,9.57450374 L0.151534937,9.57408476 C0.151285328,10.2988373 0.234547743,11.0212036 0.399675191,11.7268949 L0.399675167,11.7268948 C0.472079724,12.0357416 0.781145143,12.2274173 1.08999384,12.1550132 C1.39884069,12.0826086 1.5905164,11.7735432 1.51811221,11.4646945 L1.51811183,11.4646929 C1.37310567,10.8449563 1.30001236,10.2105708 1.30027769,9.57409789 C1.30027769,8.93199177 1.37390278,8.29900715 1.51811369,7.68322459 L1.51811371,7.68322449 C1.58482513,7.37304913 1.38745831,7.06752172 1.07728351,7.00081012 C0.775125639,6.93582299 0.475704587,7.12154914 0.399678522,7.42112067 L0.399770114,7.42150623 Z M1.11702095,6.98203609 C1.07113589,6.98203609 1.02924085,6.98108609 0.990480801,6.97899609 L0.9904808,6.97899609 C0.673391955,6.96833743 0.407699653,7.21674871 0.397039973,7.53383756 C0.386701605,7.84139856 0.620561132,8.10248001 0.927402211,8.12593131 C0.988392282,8.12935132 1.05090235,8.13087132 1.11692743,8.13087132 L1.11692745,8.13087132 C1.43407011,8.13081886 1.69115117,7.8737383 1.69120315,7.55659565 L1.69120315,7.55660393 C1.69131264,7.23938706 1.43424637,6.98214457 1.11703135,6.9820351 C1.11703133,6.9820351 1.11703131,6.9820351 1.11703129,6.9820351 L1.11702095,6.98203609 Z M2.98045183,3.50844611 L2.98045186,3.50844616 C3.22449082,3.8750464 3.35429028,4.30580324 3.35342192,4.74620298 C3.35342192,5.98120441 2.35212076,6.98202687 1.11702284,6.98202687 L1.11702284,6.98202687 C0.799833802,6.98610642 0.546007237,7.24654651 0.550085562,7.56373741 C0.554091115,7.87517263 0.805585762,8.12666873 1.11702284,8.13067469 C2.98663244,8.13067469 4.50207268,6.61570867 4.50207268,4.74620298 L4.50207268,4.74611659 C4.50293117,4.07940322 4.3062546,3.42737961 3.93686559,2.87235074 L3.93686561,2.87235077 C3.76123193,2.60823191 3.40474253,2.5364994 3.14062182,2.71213308 C2.87650295,2.88776676 2.80477045,3.24425616 2.98040413,3.50837688 L2.98045183,3.50844611 Z M6.84077761,0.573035471 C5.42290096,0.99939671 4.13004594,1.75588148 3.06214821,2.77494135 L3.06214825,2.77494132 C2.83587357,2.99733435 2.83272669,3.36105303 3.05512069,3.58732771 C3.2729103,3.80891918 3.62741472,3.81719087 3.85530365,3.6060021 C4.79295475,2.71119568 5.92754923,2.04705028 7.17138271,1.67323227 L7.17138273,1.67323226 C7.47514002,1.58199171 7.64741678,1.26178344 7.55617771,0.958026157 C7.55616313,0.957977617 7.55614854,0.957929079 7.55613395,0.957880543 L7.55613395,0.957880529 C7.46500695,0.654145508 7.14490778,0.481790815 6.84117091,0.572918558 C6.84104136,0.572957424 6.84091183,0.572996337 6.84078231,0.573035295 L6.84077761,0.573035471 Z M11.5745292,0.878555456 L11.5745292,0.878555438 C11.2059622,1.6630003 10.4172683,2.16379746 9.55054444,2.16371768 L9.55054454,2.16371768 C8.68354793,2.16419617 7.89446068,1.66331573 7.52591035,0.878555438 L7.52591036,0.878555451 C7.38494634,0.594263909 7.04020745,0.478074321 6.75591591,0.619038157 C6.47987008,0.755913462 6.36093254,1.0861678 6.48632341,1.36761676 L6.48632334,1.36761662 C7.04444342,2.55500296 8.23853543,3.31285521 9.55055932,3.31237302 C10.8743859,3.31237302 12.0604548,2.54448615 12.6141273,1.36761662 L12.6141273,1.36761662 C12.7491776,1.08054373 12.6259383,0.73834294 12.3388645,0.60329249 C12.0517916,0.468242226 11.7095908,0.591481509 11.5745404,0.878555311 L11.5745292,0.878555456 Z M16.0633772,2.7993575 C14.9909206,1.76832055 13.6888569,1.00290541 12.2597546,0.573033616 L12.2597546,0.57303361 C11.9559695,0.481662059 11.6356336,0.653856995 11.5442609,0.957641187 C11.4528893,1.26142631 11.6250843,1.58176223 11.9288685,1.67313489 C11.9288685,1.67313489 11.9288685,1.67313489 11.9288685,1.67313489 C13.1825842,2.05009607 14.3254318,2.72203074 15.2672689,3.62739107 L15.2672688,3.62739104 C15.493139,3.85012177 15.856802,3.84757607 16.0795309,3.6217067 C16.3022616,3.39583651 16.2997159,3.03217349 16.0738466,2.80944462 C16.0703967,2.80604267 16.0669039,2.80268453 16.063369,2.79937097 L16.0633772,2.7993575 Z M18.0218082,6.98201568 C16.7867121,6.98201568 15.7855019,5.98118952 15.7855019,4.74619179 C15.7855019,4.30653054 15.912137,3.88701042 16.1465023,3.52677074 L16.1465023,3.52677076 C16.3195899,3.26106361 16.2445072,2.90535129 15.9788002,2.73226368 C15.9787142,2.73220766 15.9786282,2.73215167 15.9785422,2.73209569 L15.9785421,2.73209568 C15.712989,2.55905966 15.3574437,2.63405928 15.1844062,2.89961205 C15.1842892,2.8997916 15.1841723,2.89997123 15.1840555,2.90015091 L15.1840553,2.90015112 C14.8260756,3.44926475 14.6358602,4.09079196 14.6366629,4.74628716 C14.6366629,6.61589675 16.1522029,8.13085164 18.0218051,8.13085164 L18.0218051,8.13085164 C18.3390479,8.13085164 18.5962236,7.87367595 18.5962236,7.5564331 C18.5962236,7.23919025 18.3390479,6.98201456 18.0218051,6.98201456 L18.0218082,6.98201568 Z M18.1164283,6.98030568 C18.0887833,6.98154068 18.0582882,6.98201568 18.0218082,6.98201568 L18.0218082,6.98201568 C17.7046191,6.9820157 17.4474843,7.2391487 17.4474843,7.55633959 C17.4474843,7.87352863 17.7046173,8.1306635 18.0218082,8.1306635 L18.0218083,8.1306635 C18.0699874,8.13081728 18.1181638,8.12986709 18.1662993,8.12781367 L18.1662993,8.12781367 C18.4831748,8.11404107 18.7288874,7.84599733 18.7151142,7.52912371 C18.7013416,7.21224825 18.4332979,6.96653566 18.1164243,6.98030882 L18.1164283,6.98030568 Z" id="形状"></path>
            </g>
        </g>
    </g>
</svg>