<svg xmlns="http://www.w3.org/2000/svg" width="14" height="13" viewBox="0 0 14 13">
  <g id="使用手册" transform="translate(-205 -203.525)" fill="#ffffff">
    <path id="路径_345" data-name="路径 345" d="M217.95,203.525h-5.064a.558.558,0,0,0-.545.431.351.351,0,0,1-.679.013.6.6,0,0,0-.582-.443h-5.03a1.051,1.051,0,0,0-1.05,1.05v8.4a1.051,1.051,0,0,0,1.05,1.05h4.959a1.051,1.051,0,0,0,1.982,0h4.959a1.051,1.051,0,0,0,1.05-1.05v-8.4A1.05,1.05,0,0,0,217.95,203.525Zm.348,9.449a.348.348,0,0,1-.348.347h-5.456l-.165.469a.349.349,0,0,1-.658,0l-.165-.469h-5.489a.348.348,0,0,1-.315-.346v-8.4a.348.348,0,0,1,.348-.348h4.958a1.053,1.053,0,0,0,1.984,0h4.958a.348.348,0,0,1,.348.347Z"/>
    <path id="路径_346" data-name="路径 346" d="M212,210.715a.474.474,0,1,0,.474.474A.475.475,0,0,0,212,210.715Z"/>
    <path id="路径_347" data-name="路径 347" d="M212,206.58a1.377,1.377,0,0,0-1.379,1.37.346.346,0,0,0,.691,0,.675.675,0,0,1,.688-.675.692.692,0,0,1,.689.693c0,.135-.212.347-.4.533a1.634,1.634,0,0,0-.635,1.092v.438a.345.345,0,1,0,.69,0v-.438c0-.17.23-.4.433-.6a1.525,1.525,0,0,0,.6-1.022A1.385,1.385,0,0,0,212,206.58Z"/>
  </g>
</svg>
 