<svg xmlns="http://www.w3.org/2000/svg" width="16" height="16" viewBox="0 0 16 16">
  <g id="通知公告相关指导" transform="translate(-246.008 -108.019)">
    <path id="路径_327" data-name="路径 327" d="M257.7,116.827l-1.971.658a.391.391,0,0,0-.246.246l-.657,1.973a.389.389,0,0,0,.369.513.4.4,0,0,0,.123-.02l1.971-.658a.391.391,0,0,0,.246-.246l.657-1.973a.389.389,0,0,0-.492-.493Zm-.842,2.035-1.048.349.35-1.049,1.048-.35Z"/>
    <path id="路径_328" data-name="路径 328" d="M256.505,115a3.507,3.507,0,1,0,3.5,3.507A3.5,3.5,0,0,0,256.505,115Zm0,6.234a2.728,2.728,0,1,1,2.725-2.727A2.729,2.729,0,0,1,256.505,121.239Z"/>
    <path id="路径_329" data-name="路径 329" d="M252.23,119.681a1.974,1.974,0,0,1-1.25-.413,1.092,1.092,0,0,1-.439-.847v-.78h-3.317c-.272,0-.437-.15-.437-.216,0-.039.05-.083.071-.1a.574.574,0,0,1,.275-.109l.417-.057.181-.38a3.476,3.476,0,0,0,.255-1.051c.051-.453.052-.847.052-.851v-1.4a3.259,3.259,0,0,1,.82-2.121,5.988,5.988,0,0,1,1.814-1.256l.438-.165.06-.465a1.175,1.175,0,0,1,2.119,0l.063.47.446.16a4.431,4.431,0,0,1,.871.42,4.009,4.009,0,0,1,.94.81,3.3,3.3,0,0,1,.812,2.151v1.15c.028,0,.055-.009.084-.009a3.78,3.78,0,0,1,.694.071v-1.212a4.079,4.079,0,0,0-.995-2.655,4.8,4.8,0,0,0-1.123-.967,5.256,5.256,0,0,0-1.021-.493,1.919,1.919,0,0,0-3.662.007,6.8,6.8,0,0,0-2.092,1.436l-.013.015a4.048,4.048,0,0,0-1.034,2.656v1.4s0,.362-.047.762a2.675,2.675,0,0,1-.184.805,1.345,1.345,0,0,0-.657.273.908.908,0,0,0-.363.709,1.124,1.124,0,0,0,1.216,1h2.538v.024a1.846,1.846,0,0,0,.726,1.427,2.755,2.755,0,0,0,1.742.588,2.971,2.971,0,0,0,.854-.129,3.84,3.84,0,0,1-.3-.726A2.217,2.217,0,0,1,252.23,119.681Z"/>
  </g>
</svg>
