<svg xmlns="http://www.w3.org/2000/svg" width="16" height="16" viewBox="0 0 16 16">
  <defs>
    <style>
      .cls-1 {
        fill: none;
      }
    </style>
  </defs>
  <g id="我的档案相关指导" transform="translate(-162.059 -239.056)">
    <rect id="矩形_15" data-name="矩形 15" class="cls-1" width="8.718" height="8.502" transform="translate(167.247 244.467)"/>
    <path id="路径_339" data-name="路径 339" d="M167.753,250H163.3c-.37,0-.477-.118-.478-.511l.93-5.345c0-.4.112-.527.477-.527h8.957c.369,0,.476.118.478.51l-.146.837a2.549,2.549,0,0,1,.547,1.01l.021.007.338-2.253a.9.9,0,0,0-.857-.928h-.072V241.57a.9.9,0,0,0-.857-.928h-4.669v-.658a.9.9,0,0,0-.858-.928h-4.192a.9.9,0,0,0-.858.928v9.9a.9.9,0,0,0,.858.929h4.358A5,5,0,0,1,167.753,250Zm-4.932-9.6c0-.4.112-.527.477-.527h3.43c.37,0,.477.118.477.527v1.058h5.05c.369,0,.476.119.476.528v.813h-8.885a.891.891,0,0,0-.857.915l-.168,1.188Z"/>
    <rect id="矩形_16" data-name="矩形 16" class="cls-1" width="8.718" height="8.502" transform="translate(167.247 244.467)"/>
    <path id="路径_340" data-name="路径 340" d="M176.035,252.018a4.567,4.567,0,0,0-2.227-3.127l-.127-.066c-.072-.037-.155-.078-.3-.137a3.83,3.83,0,0,0-.46-.16,2.159,2.159,0,0,0,.284-.231,2.3,2.3,0,1,0-2.985.215,4.4,4.4,0,0,0-1.618.949,4.733,4.733,0,0,0-1.432,2.555l-.009.032a.883.883,0,0,0,.176.7.9.9,0,0,0,.658.312h7.169a1.034,1.034,0,0,0,.638-.265l.017-.018A.785.785,0,0,0,176.035,252.018ZM171.29,249a4.544,4.544,0,0,1,1.813.333l.024.008a2.294,2.294,0,0,1,.248.115l.026.015c.019.01.039.021.05.025a3.878,3.878,0,0,1,1.887,2.665l.005.024a.084.084,0,0,1-.022.067.313.313,0,0,1-.157.085h-7.169a.185.185,0,0,1-.106-.05.194.194,0,0,1-.024-.131,4.1,4.1,0,0,1,1.217-2.18A3.666,3.666,0,0,1,171.29,249Zm-1.3-2.336a1.586,1.586,0,1,1,3.172,0,1.608,1.608,0,0,1-1.587,1.586A1.587,1.587,0,0,1,169.994,246.667Z"/>
  </g>
</svg>
