<svg xmlns="http://www.w3.org/2000/svg" width="16" height="16" viewBox="0 0 16 16">
  <g id="一级质控相关指导" transform="translate(-204 -143.001)">
    <path id="路径_315" data-name="路径 315" d="M215.69,151.819l-1.969.657a.389.389,0,0,0-.246.246l-.657,1.969a.389.389,0,0,0,.369.512.4.4,0,0,0,.123-.02l1.969-.657a.386.386,0,0,0,.246-.246l.657-1.969a.389.389,0,0,0-.492-.492Zm-.841,2.031-1.047.349.349-1.047,1.047-.349Z"/>
    <path id="路径_316" data-name="路径 316" d="M214.5,150a3.5,3.5,0,1,0,3.5,3.5A3.5,3.5,0,0,0,214.5,150Zm0,6.222a2.722,2.722,0,1,1,2.722-2.722A2.725,2.725,0,0,1,214.5,156.223Z"/>
    <path id="路径_317" data-name="路径 317" d="M210.222,154.668a5.451,5.451,0,0,1-5.444-5.445v-3.587l5.444-1.815,5.445,1.815v3.587a5.52,5.52,0,0,1-.032.578,3.826,3.826,0,0,1,.738.314,6.242,6.242,0,0,0,.071-.892v-4.147L210.222,143,204,145.076v4.147a6.179,6.179,0,0,0,7.114,6.151,3.826,3.826,0,0,1-.314-.738A5.52,5.52,0,0,1,210.222,154.668Z"/>
    <path id="路径_318" data-name="路径 318" d="M211.778,147.668a.389.389,0,1,0,0-.778h-3.111a.389.389,0,1,0,0,.778h1.166v3.111h-1.166a.389.389,0,1,0,0,.778h2.485a3.881,3.881,0,0,1,.578-.778h-1.119v-3.111Z"/>
  </g>
</svg>
