<?xml version="1.0" encoding="UTF-8"?>
<svg width="20px" height="20px" viewBox="0 0 20 20" version="1.1" xmlns="http://www.w3.org/2000/svg" xmlns:xlink="http://www.w3.org/1999/xlink">
    <!-- Generator: Sketch 58 (84663) - https://sketch.com -->
    <title>查房计划表</title>
    <desc>Created with Sketch.</desc>
    <g id="继续教育" stroke="none" stroke-width="1" fill="none" fill-rule="evenodd">
        <g id="质控icon" transform="translate(-47.000000, -289.000000)" fill="#333333" fill-rule="nonzero">
            <path d="M58.841163,297.539455 C61.1381658,297.539592 63.0001422,299.433662 63,301.76998 C62.9998697,304.035305 61.2490995,305.88469 59.0487256,305.994812 L58.8411741,306 C56.5441713,306.000137 54.6819817,304.106284 54.6818396,301.76998 C54.6817093,299.50446 56.4325505,297.654797 58.6330975,297.544645 L58.8409197,297.539455 L58.841163,297.539455 Z M59.3610592,292 C59.6481167,292 59.8808492,292.236638 59.8809444,292.528609 L59.88,292.787 L61.9636029,292.787796 C62.2507272,292.787796 62.4834881,293.024541 62.4834881,293.316579 L62.4834881,297.539529 C62.4834881,297.831568 62.2507272,298.068313 61.9636029,298.068313 C61.7083813,298.068313 61.4961135,297.881255 61.4520937,297.634579 L61.4437177,297.539354 L61.4437177,297.539354 L61.4437177,293.845356 L59.88,293.845 L59.8809444,294.347717 C59.8809444,294.639756 59.6481835,294.8765 59.3610592,294.8765 C59.0739349,294.8765 58.841174,294.639756 58.841174,294.347717 L58.841,293.845 L53.642,293.845 L53.6423152,294.347717 C53.6423152,294.639756 53.4095543,294.8765 53.12243,294.8765 C52.8353057,294.8765 52.6025448,294.639756 52.6025448,294.347717 L52.602,293.845 L51.0397733,293.845356 L51.0397733,304.41575 L54.7101671,304.415758 C54.9972914,304.415709 55.2300907,304.652414 55.230139,304.944454 C55.2301812,305.204044 55.046307,305.420015 54.803788,305.464804 L54.7101672,305.473326 L54.7101672,305.473326 L50.5198852,305.473326 C50.2327609,305.473326 50,305.236581 50,304.944543 L50,293.316579 C50,293.024541 50.2327609,292.787796 50.5198852,292.787796 L52.602,292.787 L52.6025448,292.528784 C52.6025448,292.236745 52.8353057,292 53.12243,292 C53.4094875,292 53.6422199,292.236638 53.6423152,292.528609 L53.642,292.787 L58.841,292.787 L58.841174,292.528784 C58.841174,292.236745 59.0739349,292 59.3610592,292 Z M58.8411738,298.597012 C57.1184252,298.597012 55.7218541,300.017479 55.7218541,301.769722 C55.7218541,303.461535 57.0237639,304.844073 58.6641651,304.937409 L58.8411739,304.942431 C60.5639224,304.942431 61.9604936,303.521964 61.9604936,301.769722 C61.9604936,300.077908 60.6585837,298.69537 59.0181825,298.602034 L58.8411738,298.597012 Z M58.8411725,299.240992 C59.096394,299.240992 59.3086619,299.428049 59.3526816,299.674726 L59.3610576,299.76995 L59.3610576,301.221902 L59.8518292,300.855984 L59.8518295,300.854926 C60.0832527,300.68204 60.4086512,300.732702 60.5786302,300.968086 C60.7297214,301.177317 60.707153,301.46207 60.5377368,301.644191 L60.4673746,301.707327 L59.1489454,302.690866 C58.9175406,302.863753 58.592155,302.813104 58.4221774,302.577739 C58.3566267,302.486972 58.3212873,302.377289 58.3212873,302.264665 L58.3212873,299.769775 C58.3212873,299.477736 58.5540482,299.240992 58.8411725,299.240992 Z M53.5872082,298.049206 C53.8743324,298.049158 54.1071317,298.285863 54.1071801,298.577903 C54.1072275,298.869942 53.8745059,299.106725 53.5873802,299.106775 L52.5827892,299.106775 C52.2956649,299.106726 52.0629424,298.869943 52.0629893,298.577903 C52.0630368,298.285932 52.2957317,298.049255 52.5827892,298.049206 L53.5872082,298.049206 Z M55.7228921,295.95311 C56.0100164,295.953062 56.2428157,296.189767 56.242864,296.481807 C56.2429115,296.773846 56.0101898,297.010629 55.7230641,297.010679 L52.5827892,297.010679 C52.2956649,297.01063 52.0629424,296.773847 52.0629893,296.481807 C52.0630368,296.189836 52.2957317,295.953159 52.5827892,295.95311 L55.7228921,295.95311 Z" id="形状结合"></path>
        </g>
    </g>
</svg>