<?xml version="1.0" encoding="UTF-8"?>
<svg width="31px" height="30px" viewBox="0 0 31 30" version="1.1" xmlns="http://www.w3.org/2000/svg" xmlns:xlink="http://www.w3.org/1999/xlink">
    <!-- Generator: Sketch 53.2 (72643) - https://sketchapp.com -->
  
    <desc>Created with Sketch.</desc>
    <defs>
        <radialGradient cx="50%" cy="0%" fx="50%" fy="0%" r="109.408353%" gradientTransform="translate(0.500000,0.000000),scale(0.510968,1.000000),rotate(84.373343),scale(1.000000,3.123794),translate(-0.500000,-0.000000)" id="radialGradient-1">
            <stop stop-color="#FFFFFF" offset="0%"></stop>
            <stop stop-color="#6FD29F" offset="100%"></stop>
        </radialGradient>
        <path d="M1.3582193,4.20382375 L4.58325193,6.32262627 C6.22924584,7.40402185 8.35971564,7.40677671 10.0085007,6.32964152 L13.260054,4.20543344 C13.7177937,3.90639662 13.8464477,3.2929081 13.5474109,2.83516849 C13.4434956,2.67610409 13.296003,2.55030204 13.1225384,2.47277867 L10.9393033,1.49706537 C8.61996068,0.460524044 5.96844707,0.463315526 3.65129212,1.5047381 L1.49597436,2.47342455 C0.997266006,2.69756413 0.774684036,3.28354817 0.998823619,3.78225652 C1.07606433,3.95411633 1.20074475,4.10036511 1.3582193,4.20382375 Z" id="path-2"></path>
        <radialGradient cx="50%" cy="0%" fx="50%" fy="0%" r="207.514804%" gradientTransform="translate(0.500000,0.000000),scale(1.000000,0.524874),rotate(88.486445),scale(1.000000,3.123794),translate(-0.500000,-0.000000)" id="radialGradient-4">
            <stop stop-color="#FFFFFF" offset="0%"></stop>
            <stop stop-color="#6FD29F" offset="100%"></stop>
        </radialGradient>
        <path d="M0.471399151,1.64197045 L0.471399151,7.51524979 C0.471399151,8.79492578 1.08978173,9.99572629 2.13151703,10.7389344 L6.42705816,13.803514 C6.87215611,14.1210615 7.49040238,14.0176614 7.80794983,13.5725634 C7.92767597,13.4047465 7.99202869,13.2037406 7.99202869,12.9975929 L7.99202869,6.94182888 C7.99202869,5.62160437 7.33409014,4.38820735 6.23759221,3.65289447 L2.01279003,0.819736849 C1.55868295,0.515212074 0.943690324,0.636472491 0.639165549,1.09057957 C0.529796461,1.25367066 0.471399151,1.44560268 0.471399151,1.64197045 Z" id="path-5"></path>
        <path d="M0.130541303,1.64197045 L0.130541303,7.51524979 C0.130541303,8.79492578 0.748923884,9.99572629 1.79065918,10.7389344 L6.08620031,13.803514 C6.53129827,14.1210615 7.14954453,14.0176614 7.46709198,13.5725634 C7.58681812,13.4047465 7.65117084,13.2037406 7.65117084,12.9975929 L7.65117084,6.94182888 C7.65117084,5.62160437 6.99323229,4.38820735 5.89673436,3.65289447 L1.67193218,0.819736849 C1.2178251,0.515212074 0.602832476,0.636472491 0.298307701,1.09057957 C0.188938613,1.25367066 0.130541303,1.44560268 0.130541303,1.64197045 Z" id="path-7"></path>
        <linearGradient x1="50%" y1="0%" x2="50%" y2="55.8434619%" id="linearGradient-9">
            <stop stop-color="#FFFFFF" offset="0%"></stop>
            <stop stop-color="#FFFFFF" stop-opacity="0" offset="100%"></stop>
        </linearGradient>
    </defs>
    <g id="宸瑞护理管理系统" stroke="none" stroke-width="1" fill="none" fill-rule="evenodd">
        <g id="护理管理系统-首页" transform="translate(-18.000000, -8.000000)">
            <g id="Group-4" transform="translate(12.000000, 1.000000)">
                <g id="Group-3">
                    <g id="Group-2" transform="translate(5.987342, 6.450000)">
                        <g id="Bitmap" transform="translate(8.006533, 0.000000)">
                            <mask id="mask-3" fill="white">
                                <use xlink:href="#path-2"></use>
                            </mask>
                            <use id="Mask" fill="url(#radialGradient-1)" xlink:href="#path-2"></use>
                            <ellipse id="Oval-3" fill="#FFFFFF" opacity="0.360054348" mask="url(#mask-3)" cx="5.44303797" cy="1.6125" rx="7.62025316" ry="2.6875"></ellipse>
                        </g>
                        <g id="Bitmap" transform="translate(15.512658, 4.447379)">
                            <mask id="mask-6" fill="white">
                                <use xlink:href="#path-5"></use>
                            </mask>
                            <use id="Mask" fill="url(#radialGradient-4)" transform="translate(4.231714, 7.338131) scale(-1, 1) translate(-4.231714, -7.338131) " xlink:href="#path-5"></use>
                        </g>
                        <g id="Group" transform="translate(6.504515, 19.487202) scale(-1, 1) translate(-6.504515, -19.487202) translate(0.121703, 8.737202)" fill="#FFFFFF">
                            <path d="M8.64799421,9.75228965 L6.07058037,12.4043819 C5.81055796,12.6719382 5.81666542,13.0996253 6.08422176,13.3596477 C6.08501329,13.360417 6.08580671,13.3611843 6.08660201,13.3619496 C6.35712405,13.6222881 6.78717629,13.6150557 7.04879142,13.3457681 L9.43932679,10.885125 C9.52963279,10.8049998 9.61380073,10.7183767 9.69105884,10.6260104 L9.71308479,10.6033385 L9.71138439,10.6013817 C10.0447547,10.1919576 10.2439683,9.67340058 10.2439683,9.10933764 C10.2439683,8.21702577 9.74543135,7.43859365 9.00590765,7.02592963 L9.00590765,1.63195816 C9.00590765,0.738680608 9.73005218,0.0145360753 10.6233297,0.0145360753 C11.5166073,0.0145360753 12.2407518,0.738680608 12.2407518,1.63195816 L12.2407518,8.36378162 C12.2407518,10.5165382 11.3644293,12.5765441 9.81352886,14.0695507 L2.20849861,21.3906909 C0.230426105,18.0711124 0.888292419,13.814535 3.77623331,11.2470129 L4.9004679,10.2475128 L4.95781532,10.1965281 L5.43672891,9.77075031 C5.43691152,9.77137377 5.43709439,9.77199712 5.43727751,9.77262037 L7.02683244,8.36724433 C7.05494612,8.33947883 7.08462611,8.31323341 7.11573225,8.28864517 L7.12462287,8.2807847 C7.30881273,8.13937523 7.54084203,8.05466326 7.79310161,8.05466326 C8.38867519,8.05466326 8.87148297,8.52685707 8.87148297,9.10933764 C8.87148297,9.35134477 8.78814025,9.57431409 8.64799421,9.75228965 Z" id="Combined-Shape"></path>
                        </g>
                        <g id="Group" transform="translate(17.753617, 8.737202)" fill="#FFFFFF">
                            <path d="M8.68402271,9.70084694 L6.09487499,12.3387893 C5.83613715,12.6024033 5.84009003,13.0258531 6.103704,13.2845909 C6.10605677,13.2869002 6.10842658,13.289192 6.11081324,13.2914662 C6.38336226,13.5511736 6.81393685,13.5439331 7.0775999,13.275209 L9.47900618,10.8277067 C9.56972883,10.7480042 9.65428508,10.6618379 9.73189963,10.5699589 L9.7540272,10.5474065 L9.75231895,10.5454601 C10.0872273,10.1381956 10.28736,9.62237401 10.28736,9.06128647 C10.28736,8.17368148 9.786523,7.39935554 9.04358742,6.9888683 L9.04358742,1.63934364 C9.04358742,0.741944852 9.77107287,0.0144593984 10.6684717,0.0144593984 C11.5658704,0.0144593984 12.2933559,0.741944852 12.2933559,1.63934364 L12.2933559,8.27875793 C12.2933559,10.4451053 11.4059683,12.5168971 9.83787173,14.011599 L2.21481779,21.2778564 C0.231937353,17.9829638 0.888652375,13.7415483 3.77511964,11.2005959 L4.91920677,10.1934579 L4.97681878,10.1427421 L5.45794188,9.71921022 C5.45812534,9.71983039 5.45830905,9.72045046 5.45849302,9.72107043 L7.05538153,8.32310764 C7.08362491,8.29548861 7.11344184,8.26938164 7.14469149,8.2449231 L7.15362313,8.23710409 C7.33866276,8.09644055 7.57176256,8.01217543 7.82518596,8.01217543 C8.42350729,8.01217543 8.90854256,8.48187844 8.90854256,9.06128647 C8.90854256,9.30201702 8.82481533,9.5238102 8.68402271,9.70084694 Z" id="Combined-Shape"></path>
                        </g>
                        <g id="Bitmap" transform="translate(7.005717, 4.447379)">
                            <mask id="mask-8" fill="white">
                                <use xlink:href="#path-7"></use>
                            </mask>
                            <use id="Mask" fill="url(#radialGradient-4)" xlink:href="#path-7"></use>
                        </g>
                    </g>
                </g>
                <path d="M16.8343539,13.4804486 C19.0336058,11.7385893 20.5845521,10.9025101 21.4871929,10.972211 C22.3898337,11.0419119 23.9170423,11.9549959 26.0688187,13.7114629 C23.7301951,12.2006539 22.2065706,11.4159606 21.4979452,11.357383 C20.7893197,11.2988054 19.2347893,12.006494 16.8343539,13.4804486 Z" id="Path-2" fill="url(#linearGradient-9)" opacity="0.500283062" transform="translate(21.451586, 12.339826) scale(1, -1) translate(-21.451586, -12.339826) "></path>
            </g>
        </g>
    </g>
</svg>
