<?xml version="1.0" encoding="UTF-8"?>
<svg width="21px" height="22px" viewBox="0 0 21 22" version="1.1" xmlns="http://www.w3.org/2000/svg" xmlns:xlink="http://www.w3.org/1999/xlink">
    <!-- Generator: Sketch 54.1 (76490) - https://sketchapp.com -->
    <desc>Created with Sketch.</desc>
    <g id="统计查询/敏感指标" stroke="none" stroke-width="1" fill="none" fill-rule="evenodd">
        <g id="默认状态页面" transform="translate(-941.000000, -40.000000)" fill="#747474" fill-rule="nonzero">
            <g id="物流" transform="translate(941.000000, 40.000000)">
                <g id="编组" transform="translate(0.000000, 0.368341)">
                    <path d="M6.2903591,12.4312164 L4.38007746,11.1188178 L5.02098997,10.1846255 L6.12956479,10.9466999 L8.6048912,8.30491745 L9.43037746,9.07944776 L6.2903591,12.4312164 Z M15.6696494,11.7687891 L16.8020037,11.7687891 L16.8020037,12.9011434 L15.6696494,12.9011434 L15.6696494,11.7687891 Z M15.7024877,18.2209437 C14.4999275,18.2209437 13.5227057,17.243722 13.5227057,16.0411617 C13.5227057,14.8386015 14.4999275,13.8613798 15.7024877,13.8613798 C16.9050479,13.8613798 17.8822696,14.8386015 17.8822696,16.0411617 C17.8822696,17.243722 16.9050479,18.2209437 15.7024877,18.2209437 Z M15.7024877,14.8238809 L15.7024877,14.8238809 C15.0302019,14.8528855 14.5087192,15.4213942 14.5377234,16.0936782 C14.5649747,16.7253266 15.0708375,17.23119 15.7024877,17.2584426 L15.7024877,17.2584426 C16.3747735,17.229438 16.8962563,16.6609293 16.8672521,15.9886453 C16.8400008,15.3569968 16.3341379,14.8511335 15.7024877,14.8238809 L15.7024877,14.8238809 Z M6.54966822,18.2209437 C5.347108,18.2209437 4.36988627,17.243722 4.36988627,16.0411617 C4.36988627,14.8386015 5.34824035,13.8613798 6.54966822,13.8613798 C7.75109609,13.8613798 8.72945017,14.8386015 8.72945017,16.0411617 C8.72945017,17.243722 7.75109609,18.2209437 6.54966822,18.2209437 Z M6.54966822,14.8238809 L6.54966825,14.8238809 C5.87738245,14.8528855 5.3558997,15.4213942 5.38490389,16.0936782 C5.41215524,16.7253266 5.91801805,17.23119 6.54966825,17.2584426 L6.54966826,17.2584426 C7.22195406,17.229438 7.74343681,16.6609293 7.71443262,15.9886453 C7.68718128,15.3569968 7.18131847,14.8511335 6.54966826,14.8238809 L6.54966822,14.8238809 Z" id="形状"></path>
                    <path d="M19.0790973,16.3401033 L17.1518304,16.3401033 L17.1518304,15.207749 L17.9535372,15.207749 L17.9795813,11.0973031 L12.7231929,9.50408061 L13.052708,8.42041758 L19.1187297,10.2593609 L19.0790973,16.3401033 Z M7.98089323,15.2032196 L14.2439446,15.2032196 L14.2439446,16.3355739 L7.98089323,16.3355739 L7.98089323,15.2032196 Z" id="形状"></path>
                    <polygon id="路径" points="5.148946 16.3310444 1.00113235 16.3253827 1.00113235 5.00523714 13.4558968 5.00523714 13.4558968 15.9528381 12.3235426 15.9528381 12.3235426 6.1375914 2.13348661 6.1375914 2.13348661 15.1952931 5.15007836 15.1986902"></polygon>
                </g>
            </g>
        </g>
    </g>
</svg>