<?xml version="1.0" encoding="UTF-8"?>
<svg width="150px" height="150px" viewBox="0 0 150 150" version="1.1" xmlns="http://www.w3.org/2000/svg" xmlns:xlink="http://www.w3.org/1999/xlink">
    <!-- Generator: Sketch 55.2 (78181) - https://sketchapp.com -->
    <title>已拒绝</title>
    <desc>Created with Sketch.</desc>
    <g id="宸瑞护理管理系统" stroke="none" stroke-width="1" fill="none" fill-rule="evenodd">
        <g id="状态icon" transform="translate(-708.000000, -58.000000)" fill="#E26666">
            <g id="已拒绝备份-3" transform="translate(73.000000, 67.000000)">
                <path d="M681.914377,21.042772 L681.996704,20.8779703 C681.996704,20.8779703 681.83205,21.1801078 681.530184,20.9878383 C681.36553,21.2899759 681.502742,21.7294478 681.145991,22.333723 L680.267836,21.8393161 C677.962678,23.8169404 675.492872,25.1353667 673.160266,27.8820679 L674.038421,28.3764747 C674.038421,28.3764747 674.203075,28.0743371 674.504941,28.2666065 C674.669595,27.9644689 674.889134,26.9207219 675.328211,26.8108535 L675.630077,26.9756553 C676.096597,26.8657871 675.465424,27.2777929 676.041713,27.6073964 C676.206367,27.3052588 676.947311,27.3601938 677.166849,26.3164452 C679.005483,25.7945709 680.405041,23.3225428 682.408337,22.8830724 C682.188797,21.9491937 682.627876,22.5809348 683.094399,21.7019895 L681.914377,21.042772 Z M673.434692,30.1618331 L674.093308,28.9807502 C673.050499,28.1842058 672.282108,29.475157 671.815589,29.6124914 C672.117455,29.7772946 672.858398,29.8047621 673.434692,30.1618331 Z M641.546627,43.0164076 C641.711281,43.0988086 641.93082,43.0438746 642.095474,42.7417375 L641.793608,42.5769357 L642.369897,41.5606546 C642.068031,41.3958528 641.656396,42.1099948 641.628954,41.5331876 C643.961561,38.7864863 643.87923,34.5016311 645.059242,31.0682433 C644.647606,30.4365022 644.729933,31.645051 644.318299,31.0407763 C644.647608,30.4639686 645.964836,29.8596934 645.333666,29.2828797 L644.592722,30.6012969 C644.290856,30.4364951 644.126203,30.7111651 643.851779,30.5738299 C644.181088,29.9970222 643.879222,29.8322204 643.604799,29.6674171 C643.165722,29.9695547 642.91874,30.2716923 642.726643,30.1892914 C642.891297,30.6012973 642.699201,30.9309009 642.397336,31.5077086 C642.507105,31.974648 643.138279,31.9197145 642.946182,32.2218521 C642.616873,32.7986598 642.205239,31.8098462 642.040584,32.4690548 C642.150354,34.6664218 640.284267,37.2757857 641.299641,39.2259516 C640.284274,39.6104901 639.927523,42.3297329 640.119619,43.0164044 C639.954965,43.318542 639.653099,43.1262726 639.488446,43.4284104 C638.637733,46.614582 637.951674,49.9106325 637.01864,53.261615 C638.088892,53.0968132 638.610295,51.8333294 639.680542,51.6685292 C640.695909,48.9218279 641.436859,46.257517 641.217314,43.5932212 L641.546627,43.0164076 Z M643.1782,30.4764502 C643.07841,30.2433971 642.779039,30.0103435 642.479669,29.7772901 C642.679249,30.1851327 642.87883,30.418186 643.1782,30.4764502 Z M762.073477,41.2309774 C762.485112,41.8627186 762.402786,40.6541697 762.81442,41.2584444 C762.786978,42.0000539 762.23813,40.9288394 762.183245,41.6704504 C762.869304,43.2086043 762.512554,45.1587701 764.543285,46.696924 C764.378632,46.9990616 763.829783,45.9003796 763.802342,46.669457 C764.104208,46.8342588 764.213978,47.3011982 763.884669,47.8780059 C763.939554,48.1252085 764.186535,48.0428076 764.186535,48.0428076 C764.351189,48.1252087 764.351189,48.1252087 764.570728,48.0702747 C763.829785,49.0041534 766.052616,49.8831032 764.845151,49.9654936 C765.147018,50.1302953 765.311671,49.8556254 765.723307,50.4599004 C765.723307,50.4599004 765.613538,49.992961 765.887961,50.1577628 C765.860518,50.8993723 766.189827,50.3225646 766.46425,50.4873678 C766.299597,50.7895054 766.711231,51.3937806 765.915404,52.1079271 L765.339114,51.7783236 L765.009805,52.3551313 C765.586095,52.6847364 765.586095,52.6847364 766.354481,52.7396698 C766.189827,53.0418074 765.723307,53.1516757 765.147018,52.8220708 C765.393998,53.7284836 765.119575,53.5636803 765.339114,54.497562 L768.906616,55.3765073 C768.60475,55.2117056 768.165673,55.3490403 768.330326,55.0469038 L768.659635,54.4700961 C768.248,53.8383549 768.275442,53.096744 768.330326,52.3551345 C768.220557,51.8881951 767.699153,52.7671404 767.754037,52.0255294 C767.754037,52.0255294 768.055903,52.1903312 768.220557,51.9156612 C768.110787,51.4487219 767.808921,51.2839201 767.973576,51.0092484 C767.863807,50.5423091 767.067978,51.2564511 767.095421,50.5148416 L767.67171,50.8444467 C767.836364,50.5423091 767.42473,49.9380339 767.754037,49.3612262 L766.875882,48.8668194 L767.369844,47.9878741 C765.558644,45.4059686 766.985651,42.164865 763.774894,40.324578 C763.774894,40.324578 763.747451,41.0661875 763.445585,40.9013857 C764.076758,40.4893798 763.363258,39.6928369 764.104201,39.7203028 C764.076759,40.4619123 764.570721,39.6104346 764.817703,40.5168473 C765.311665,39.637902 764.653049,38.0722791 763.280931,38.0997526 C763.143719,38.3744227 763.884663,38.4018901 763.720008,38.6765603 C762.869301,39.1434848 761.003214,40.0498975 762.073477,41.2309774 Z M651.480761,69.2199303 C659.850674,72.2413062 668.055986,73.8069186 676.370912,76.2240283 C676.837432,76.1141601 676.700221,75.6472206 677.002086,75.8120223 C677.688145,76.9931052 679.224912,76.6909677 680.377491,77.3501763 C680.844011,77.2403081 680.7068,76.7733685 681.008664,76.9381703 C682.271013,78.4488507 687.018538,78.6136615 690.119531,80.0144781 C690.366511,79.9595441 690.201858,79.8496763 690.284184,79.7123405 C690.339069,79.9320772 690.860474,80.0419456 691.025127,80.1243465 C691.436763,80.0144783 691.793513,79.4376704 692.424687,79.0531319 C692.479572,79.5475388 692.095378,80.1518139 691.87584,80.0144781 C693.330285,81.223027 694.263329,80.5912858 695.580556,81.3328953 C696.211729,80.9208894 694.839613,80.9208894 695.333575,80.4264841 C694.92194,79.7947429 695.004266,81.0032918 694.592632,80.3990169 C694.620075,79.6574074 695.168922,80.7286219 695.223806,79.987011 C695.059152,79.9046099 694.839613,79.9595439 694.482863,79.9595439 C694.894498,79.2179345 695.662884,79.2728679 696.23918,79.2179345 C695.937314,80.3990173 697.227105,80.5638191 698.242476,81.1406268 C698.352245,80.6187525 698.489456,80.7011549 698.626669,80.7835558 C698.654111,80.3990173 698.654111,80.0419463 698.242476,79.7672762 C698.077822,80.0694138 698.077822,80.0694138 697.775956,79.8771444 C697.144783,80.2891503 698.352246,80.2067495 697.748514,80.6187539 C697.638744,80.1518145 697.007571,80.206748 697.199667,79.9046104 C697.364321,79.6024728 697.666187,79.7947422 697.830841,79.4926044 C696.348953,79.0256651 695.086607,78.8883293 693.467504,77.981924 C693.193081,79.108072 692.095386,77.6797864 692.260041,78.5312642 C692.067945,78.2840616 692.095387,78.0368574 692.47958,78.00939 C691.738637,77.597384 690.393968,77.240313 690.750712,77.9819229 C690.915366,77.6797854 690.915366,77.6797854 691.217232,77.8720547 C690.750712,77.9819229 690.805596,78.6136642 690.50373,78.421395 C690.39396,77.9544556 690.092094,77.7896539 690.119537,77.4051154 C690.284191,77.1029778 690.586057,77.2952472 690.750711,76.9931094 C690.201864,76.2789659 689.570689,76.6909719 689.104174,76.8283077 C688.418114,75.6472248 685.756202,75.8944289 684.164547,74.9605472 C683.698028,75.0704154 683.835239,75.5373549 683.533374,75.3725532 C682.792431,75.3450861 682.984527,74.6584096 682.682661,74.4936078 C682.271025,75.2352173 681.228216,74.6584096 680.597049,75.0429481 C680.624491,74.3013386 681.063568,74.9330799 681.310549,74.4936078 C680.569606,74.4661408 679.856104,74.6584096 679.526798,73.8618652 C678.895625,74.2738711 678.15468,73.8618652 677.276523,73.3674584 C673.928551,72.4335797 670.278718,71.7194406 666.436788,70.2911506 C665.695845,70.2636836 666.10748,70.8679583 665.723287,70.8404908 C665.88794,70.5383532 665.750729,70.0988813 665.476306,69.9340781 C665.009786,70.0439463 665.146997,70.5108858 664.845132,70.346084 C665.009786,70.0439464 664.735363,69.8791446 664.296286,69.6319405 C652.962593,67.1324404 650.931863,65.5942865 639.406134,62.7102479 C639.708,62.8750497 639.708,62.8750497 639.515904,63.1771873 C638.610305,63.0673191 639.268923,62.2707745 638.363325,62.1334402 C637.732151,62.5454461 637.183303,62.8201163 636.716788,63.3145231 C636.113056,61.9961059 637.732154,61.5566265 637.814483,60.045946 C637.347963,60.1558142 636.661904,60.3755511 636.634461,59.7438085 C636.96377,59.1670007 637.375404,59.7712755 637.540058,59.8536767 L638.116347,58.8373955 C637.814481,58.6725938 637.649827,58.9472637 637.375404,58.8099285 C638.939625,57.7661814 638.473099,55.5413515 639.708011,53.3439845 C639.598241,52.8770451 639.131721,53.0143794 639.296375,52.7122433 C639.461029,52.4101057 639.323817,51.9706338 639.186606,52.245304 C638.884739,53.4263869 637.869373,52.8495791 637.457737,53.5911886 L637.430295,53.5637216 C637.457737,53.4538534 637.430295,53.316519 637.485179,53.2066506 C637.238199,53.2615846 637.100987,53.1791836 637.100987,53.1791836 C637.046102,53.2890518 637.073544,53.5087886 637.26564,53.646123 C636.716794,55.5962888 636.305158,57.6563035 635.783752,59.6064693 C635.893522,60.0734087 636.524696,60.0184753 636.332599,60.3206129 C635.866079,60.4304811 636.00329,60.8974206 635.701426,60.7326188 C635.536772,60.6502178 635.728868,60.3480803 635.427002,60.1832785 C634.850713,61.1995582 634.411636,61.9411752 635.015366,62.6553052 C633.945114,62.8201069 634.274423,63.9737224 634,64.4132018 C640.448949,66.3633676 636.799116,65.6217506 643.275514,67.5444415 L646.211844,67.8465791 C647.858381,68.0113809 649.724463,68.5057877 651.508214,69.1100629 C651.645426,68.5332552 650.630058,67.9564475 651.316117,67.7641782 C651.508203,68.4508534 651.645416,68.9177927 651.480761,69.2199303 Z M694.455424,80.0968685 C693.851692,80.1518025 693.165633,80.3440712 692.561908,80.3715386 C693.440064,79.5200608 693.440064,79.5200608 693.687044,79.0805874 C693.796808,79.5475282 694.235885,79.7947324 694.455424,80.0968685 Z M690.533714,79.4093187 L690.032494,79.9972723 C689.781884,79.5162209 689.61481,79.0886178 690.533714,79.4093187 Z M749.12058,43.5657567 C749.312677,43.8678943 750.492699,44.5545704 750.382929,45.4335172 C750.410371,44.6919077 751.014102,45.0215112 751.178758,44.7193736 C750.300602,44.2249668 749.998736,44.0876325 749.587103,43.4558899 C749.69687,43.9228279 749.010811,43.1262834 749.12058,43.5657567 Z M732.051457,22.7731696 C732.627746,23.1027747 732.874727,24.0366534 733.505902,23.59718 C733.478459,24.3387895 735.262219,24.6134596 735.371984,25.437467 C735.262215,24.6134566 736.305024,24.8057259 736.744102,25.437467 L736.579449,25.7396046 C736.277582,25.5748028 735.865947,24.9430602 735.536639,25.5473353 C736.881315,25.9318738 736.359909,26.8108191 737.869246,27.2777585 C737.896688,26.536149 738.500419,26.8657525 738.665075,26.563615 C737.951573,25.7670705 738.033901,26.9756209 737.457612,26.6460161 L738.116228,25.4649333 C735.920835,24.2289169 735.646422,24.0641152 734.219416,22.4710308 C733.752896,22.580899 733.313817,22.7182335 732.710093,22.3886298 L733.039402,21.8118221 L732.133803,21.2899478 C732.106342,22.0315586 731.96913,21.5920867 732.051457,22.7731696 Z M748.955904,40.159844 C749.065674,40.6267834 748.654038,39.9950422 748.324731,40.5718499 C748.626597,40.7366517 747.995422,41.1486576 748.132634,41.615597 C748.708924,41.9452021 748.846136,42.4121414 749.148001,42.5769432 C749.449867,42.741745 749.47731,42.0001355 749.888944,42.6044102 L750.382907,41.7254649 C749.806617,41.3958599 750.135926,40.8190521 749.093115,40.5993169 L749.422424,40.0225092 C748.928462,40.1598444 749.285212,39.5555699 748.983347,39.4182341 C748.654038,39.9950422 748.955905,40.159844 748.955904,40.159844 Z M699.175537,14.9175758 L698.434593,14.5055699 C698.26994,14.8077075 697.968074,14.6154381 697.69365,14.4781029 C697.419227,15.3021132 697.035034,15.6591857 696.568514,16.1535941 C697.91319,16.5381326 698.681575,15.823989 699.751823,16.016259 C699.94392,14.9725119 700.712305,14.9999794 701.288595,13.9837028 C700.629979,13.7914336 700.575093,14.533043 699.998804,14.2309055 C699.36763,14.6429114 700.575093,14.5605105 699.971361,14.9725149 C699.148091,14.9175809 700.245784,14.3682398 699.504841,14.3407738 C699.504845,14.3407681 699.477403,15.0823776 699.175537,14.9175758 Z M717.067912,15.8239841 C716.903258,16.1261217 716.903258,16.1261217 717.177681,16.2909234 C718.851667,16.0986542 721.458687,17.9664147 723.132672,17.7466764 C724.257808,19.1474945 727.13925,19.2298969 729.005332,20.7131204 C729.169986,20.4109828 729.169986,20.4109828 729.032774,19.9715109 L729.362083,19.3947032 C729.060217,19.2299014 728.182062,18.7354946 728.017408,19.0101647 C727.770427,18.103752 725.684801,17.2797416 724.943864,17.2522681 C724.77921,17.5544057 724.916422,17.9938776 724.312691,17.6642741 C723.736401,17.334669 724.943864,17.2522681 724.340133,16.9226646 C724.038267,16.7578628 723.708959,17.3346705 723.13267,17.0050658 C723.050343,15.7965169 720.800063,15.2746426 719.482837,14.9175776 C718.851663,15.3295836 720.059126,15.2471827 719.455394,15.6591871 C719.043759,15.027446 719.126086,16.2359948 718.714451,15.6317201 C719.51028,14.9175766 718.714451,15.6317201 718.467471,14.7253073 C718.302817,15.0274449 718.275374,15.7690544 717.973508,15.6042526 L718.302817,15.0274449 C716.107424,13.7914286 714.84508,14.615439 712.81435,13.4343591 C712.92412,13.9012984 712.347831,13.5442273 712.183177,13.846365 C708.451012,13.2695573 704.88351,13.3794257 701.700202,13.873832 C702.002068,14.0386338 702.441145,13.901299 702.276491,14.2034371 C701.947182,14.7802448 701.178796,14.7527773 700.876932,15.3295851 C705.240268,15.4669203 709.905466,14.4506398 714.625547,15.9887937 C715.531138,15.7415832 716.43674,16.2359885 717.067912,15.8239841 Z M726.727619,18.8226946 C726.261099,19.0407289 725.82202,19.3132702 725.218296,18.659169 C725.849469,17.8415399 726.261105,19.0407289 726.727619,18.8226946 Z M738.884581,26.4811945 L738.061311,27.9369476 C739.10412,28.1292168 739.21389,29.3377656 740.256704,29.1729639 C740.174377,30.6561844 741.354399,31.3428574 742.506979,32.386609 C742.671633,32.0844714 742.699076,31.3428619 743.000942,31.5076637 C742.836288,31.8098013 743.247922,32.4140765 743.083269,32.7162125 C742.342326,32.6887455 743.412578,32.1394048 742.671633,32.0844714 C742.342324,32.6612791 743.055826,33.4578235 743.933982,33.9522319 C744.098635,33.6500943 744.098635,33.6500943 744.565157,33.5402259 C744.263291,33.3754242 744.263291,33.3754242 744.455387,33.0732866 C744.37306,33.2380883 744.290733,33.3754242 744.153521,33.2655558 C744.153521,33.2655558 743.851655,33.100754 744.043752,32.7986164 L744.482829,33.0458191 L744.812138,32.4690114 C744.071194,32.4415444 743.220483,31.1780601 743.110718,30.3540498 C742.808852,30.189248 742.644198,30.463918 742.644198,30.463918 C742.973507,29.8871103 741.820928,29.2004342 741.27208,29.4751043 C741.985582,28.9257641 740.174385,29.0356324 739.159019,28.0742847 C739.268788,27.854548 738.966922,27.7172137 739.598096,27.2777403 C739.021794,26.9481339 739.625525,26.5361295 738.884581,26.4811945 Z M752.962516,50.789563 C753.59369,50.377557 752.386227,50.4599579 752.715536,49.8831502 C752.386227,50.4599579 751.974592,49.8282162 751.919707,50.5972922 C752.495996,50.9268988 752.55088,50.1852878 752.962516,50.789563 Z M746.952636,36.122169 C746.925194,36.8637785 747.199617,37.0285817 747.336829,37.4955211 C746.87031,37.6053893 746.595886,37.4680541 746.431231,37.7427238 C746.842867,38.3744649 746.980078,38.8414058 747.391714,39.4731469 C747.556367,39.1710093 747.858233,39.3632787 748.434523,39.6654161 C748.461965,38.9238066 748.324753,39.1984768 748.928485,38.7864708 C748.105215,38.896339 749.257794,38.2096631 748.51685,38.1547297 C748.352196,38.4568673 747.885676,38.5667356 747.721021,38.8688717 C747.309385,38.2645965 748.214984,38.0173939 748.379637,37.7152563 C747.501483,37.220848 748.297312,36.5067059 746.952636,36.122169 Z M751.425744,48.7570022 C751.096435,49.33381 751.398302,49.4986117 751.233648,49.8007493 C751.809937,50.1303544 751.974591,49.8282163 752.441111,49.7183483 C752.139245,49.526079 752.139245,49.526079 752.303899,49.2514089 L751.425744,48.7570022 Z M750.822012,46.022788 C750.971697,45.7000992 751.370859,45.6463167 751.520544,45.3236279 C751.121382,45.4849726 750.971697,45.8076611 750.822012,46.022788 Z M746.45868,37.3856482 C747.089853,36.9736423 746.211699,36.4792355 746.842873,36.0397636 L747.172182,35.4629559 C746.431239,35.4354888 746.45868,34.6664114 745.88239,34.3368079 C745.553082,34.9136156 746.294026,34.968549 745.690294,35.380555 L745.114005,35.0509514 C744.647485,35.1608196 744.949351,35.353089 744.784696,35.6277591 C745.141446,36.2595003 745.498197,35.6826932 745.772621,35.8474958 C745.443312,36.424302 746.019601,36.7539071 746.45868,37.3856482 Z M751.535515,46.8617818 C750.959226,46.5321768 750.492706,46.6695126 750.328052,46.9441829 C750.739688,47.575924 751.343419,47.9055291 751.014111,48.4823368 C751.480631,48.3724686 752.111806,47.9329965 752.413671,47.3561888 C751.315976,47.9329965 752.468556,45.8729683 751.151322,45.4884283 C751.12388,46.2300392 751.398303,46.3948425 751.535515,46.8617818 Z M670.333545,15.192291 C670.635411,15.3570928 669.373062,16.2085706 670.141448,16.2360381 C670.690295,14.6154788 671.541008,15.1098901 672.144744,14.0661445 C672.034975,13.5992052 672.08986,13.4618694 672.117302,13.0773309 C672.364282,13.0223969 672.419168,12.8850616 672.666149,12.8026608 C673.105226,13.0498634 672.638706,13.5442702 673.37965,13.5992052 C674.010824,13.1871992 672.803361,13.2696001 673.407093,12.8575957 C673.516862,13.324535 673.736402,12.280788 674.038266,12.4455897 C674.038266,12.4455897 673.873613,12.7477273 674.148036,12.9125291 C677.358793,10.6602302 680.651867,8.62767395 684.219384,7.77619161 L684.713347,6.8972463 L685.289636,7.22685136 C686.112906,5.77109834 687.402698,6.8972463 688.610159,5.44149629 L689.186449,5.77110134 C689.982277,5.05695782 691.354392,4.67241934 692.781399,4.53508503 C694.455385,4.31534833 695.80006,3.35400214 697.254501,3.79347554 C697.885674,3.3814696 698.352196,3.24413529 698.791273,3.13426694 C699.504775,3.93081135 699.696871,2.88706428 700.602472,3.3814696 C702.770416,2.2827876 706.255602,3.32653558 709.027269,2.55745923 C714.405971,3.68360719 719.757223,3.43640453 725.794591,6.1007109 C726.261111,5.9908427 725.382955,5.46896976 726.1239,5.52390319 C729.609085,7.91353944 734.932889,9.78129989 739.598102,12.8026608 C739.762756,12.5005232 739.927411,12.225853 740.339045,12.8301278 C739.872526,12.939996 740.448815,13.2970671 740.311603,13.5717373 C741.656278,13.9562757 742.479547,15.576835 743.385147,15.3296339 C743.632127,16.2360466 745.196346,17.9115394 746.184263,16.9227197 L745.6903,17.801665 C746.266589,18.1312701 746.870322,18.4608736 746.980091,18.927813 C747.611265,18.515807 747.007534,18.1862035 747.172188,17.8840659 C747.583824,18.515807 747.501497,17.3072582 747.913131,17.9115329 C747.885689,18.6531424 747.336841,17.5819278 747.281957,18.3235388 C747.583824,18.4883406 747.391727,18.7904782 747.254515,19.0651483 C748.434537,19.7243569 749.422459,21.0702461 750.135962,21.8667815 C750.135962,21.8667815 750.300616,21.5646439 750.602482,21.7569133 C750.190846,21.1251722 751.233656,21.3449074 750.986675,20.4110286 L751.562965,20.7406337 C751.398311,21.0427713 751.398311,21.0427713 751.535522,21.4822432 C750.794579,21.4547762 750.629924,21.7294458 750.135963,22.6083911 C750.245732,23.0753305 750.465272,22.0315834 750.767136,22.1963852 C750.767136,22.1963852 751.233656,22.086517 751.069002,22.361187 C751.069002,22.361187 750.767136,22.1963852 750.602483,22.471055 C750.904349,22.6358568 750.904349,22.6358568 750.712252,22.9379944 C750.822022,23.4049338 751.178772,22.8281262 751.453195,22.9654614 L751.123886,23.5422691 C755.130464,27.7721923 757.188642,32.6338552 759.740779,37.3581808 C759.905433,37.0560432 760.646378,37.1109781 760.783589,37.55045 C760.618935,37.4405818 760.509165,37.605384 760.399396,37.7427192 L760.344511,37.6877851 C760.317069,37.7427191 760.317069,37.7976533 760.344511,37.8525868 C760.289626,37.9075209 760.234741,37.962455 760.179857,37.962455 L760.756147,38.2920586 C761.551975,37.5779151 762.292919,36.2595024 762.786877,35.3805466 C761.963607,35.4904148 762.70455,34.1719977 761.661741,33.9797285 C762.12826,33.8698603 761.826394,33.6775909 761.991049,33.4029208 C759.631009,29.7223318 757.627713,26.0692162 755.240224,22.7731807 C754.938358,22.608379 754.910915,23.3499885 754.499281,22.7457137 L754.828589,22.168906 C753.374144,21.3448956 753.182052,19.2848675 751.370853,19.0376663 C751.672719,19.2024681 751.672719,19.2024681 751.480622,19.5046057 C750.739679,19.4771386 750.135947,19.1200672 749.39501,19.0925997 C749.724319,18.515792 750.135953,19.1200667 750.492705,18.5432595 C750.959224,18.4333913 749.861531,18.9552654 750.602474,19.0101988 C750.767128,18.7080612 751.178763,19.3398039 751.233648,18.5981929 C749.367565,16.7579059 747.638697,15 745.333539,13.2970596 C745.168885,13.5991972 745.00423,13.8738673 744.702364,13.7090656 C745.333538,13.2970596 744.455384,12.8026528 743.879094,12.4455818 C743.71444,12.7477194 743.247921,12.8575877 742.671631,12.5279828 L743.247921,11.5117032 C741.958129,10.3855552 739.954832,10.8250271 740.339025,9.47914698 C739.296215,9.28687775 739.460869,8.98474016 738.41806,8.76500346 C737.869213,7.66632145 735.344516,7.00710684 733.423551,6.32043529 C733.094242,6.897243 732.380742,6.12816605 732.627722,7.03457881 C732.463069,6.95217778 732.106317,6.92471061 731.969106,6.84230958 L732.051433,6.6775078 L731.804453,6.73244183 C731.639799,6.65004079 731.639799,6.65004079 731.749568,6.51270512 C731.914222,6.21056754 732.490511,6.54017214 732.380741,6.10069919 C729.910936,4.31534412 728.23695,4.50761336 726.206205,2.96945946 C726.315975,3.43639882 725.739685,3.07932766 725.575032,3.3814654 C724.559665,2.42011921 721.787984,2.20038251 720.278661,2.11798162 C719.537718,2.09051461 720.60797,1.5411739 719.867026,1.48624048 C718.385138,1.40383944 717.040461,0.662230104 715.558572,0.579827715 C715.393918,0.881965303 715.531129,1.3214372 715.229263,1.15663543 C715.421359,0.112888351 714.049241,0.497426827 713.774818,0.332625052 C713.610164,0.634762641 713.582721,1.37637213 713.280855,1.21157035 C712.978989,1.04676858 714.241338,0.195290741 713.472952,0.167823278 L712.567353,0.41502594 C702.441122,-0.875925301 693.824289,0.991833654 684.768291,3.98573607 C684.603637,4.28787366 685.179926,4.6174772 685.015271,4.89214883 C684.603635,4.26040769 684.685962,5.46895655 684.274328,4.86468182 C684.438982,4.56254423 684.905502,4.45267588 684.30177,4.12307233 C684.219443,4.28787411 684.109674,4.78228093 683.972462,4.69988004 L683.807808,4.61747886 C683.807808,4.61747886 683.725481,4.78228063 683.505942,4.80974809 C683.039422,4.9196163 682.463132,4.61747886 682.298479,4.89214928 L681.969171,5.468957 C681.667305,5.30415522 681.392882,5.13935194 680.926362,5.27668776 C680.761708,5.57882535 680.432399,6.15563306 679.96588,6.29296737 C679.334706,6.70497331 679.49936,6.40283557 678.868186,6.84230762 L677.907704,6.89724165 C677.74305,7.19937924 677.413741,7.77618695 676.947221,7.91352126 C677.358857,8.5452624 677.441184,7.03457596 677.85282,7.6663186 C677.523511,8.24312631 677.056991,8.38046213 676.727684,8.95726984 L675.712317,8.38046213 C674.449969,9.2044725 673.407159,10.3580864 672.336912,10.9074357 C672.638778,11.0722375 672.144815,11.9511828 671.678296,12.0885186 C671.678296,12.0885186 671.842949,11.786381 671.568526,11.6215792 C671.623411,11.8413159 671.458757,12.1434535 671.541084,12.3631887 C670.964794,12.0335837 670.251292,13.9562745 669.70245,12.885063 C670.333624,12.4730571 670.498279,12.1709195 671.10201,11.758915 L670.223854,11.2645082 C670.0592,11.5666458 669.839661,12.6103929 669.263372,12.2807878 C669.098718,12.5829254 669.675007,12.912529 669.071275,13.3245349 L668.19312,12.8301281 C668.165677,13.5717376 667.561946,13.242134 667.397291,13.5442716 C668.138234,13.5717386 667.808927,14.1760127 668.110793,14.340816 C668.577313,14.2309478 668.604755,13.4618707 669.208488,13.7914758 C668.412659,14.5056193 668.248005,14.8077554 667.973582,15.9888428 C667.671716,15.824041 666.930773,15.7965735 667.095426,15.4944359 C666.985657,15.0274966 667.561946,15.3845677 667.7266,15.08243 C666.683791,14.8901608 667.314964,14.4506889 666.711232,14.1210838 C666.327039,15.4669685 665.586096,15.4120351 665.311672,16.5931104 L664.570729,16.1811045 C663.335823,18.3784715 661.606951,19.3398177 660.15251,21.2350366 C658.615738,23.2675928 658.560856,24.0366698 656.831987,25.7396345 L659.631103,27.3327203 C662.841861,21.5921166 665.970287,19.5046135 669.839666,16.0712407 C669.839582,16.0712363 669.867024,15.3296268 670.333545,15.192291 Z M677.161699,10.0409727 L676.562959,9.89115267 L677.261491,9.34181267 L677.161699,10.0409727 Z M695.059085,16.4283118 C695.168854,16.3184436 695.333508,16.2085751 695.47072,16.0987068 L695.553047,16.1536408 C695.58049,16.0987068 695.58049,16.0712398 695.58049,16.0437727 C695.607932,16.0163057 695.607932,16.0163057 695.635374,16.0163057 C695.607932,16.0163057 695.58049,16.0163057 695.58049,15.9888386 C695.553047,15.9613716 695.47072,15.9613716 695.388393,15.9613716 C694.53768,15.8515034 694.153488,16.1536408 693.604642,16.2085742 C693.439989,16.5107118 693.412546,17.2523213 693.11068,17.0875195 C693.494873,15.7416349 691.738562,17.472058 691.29948,16.8403169 C691.107384,17.8840639 689.186419,17.1699219 689.460847,18.7080773 C688.719903,18.6806103 689.790155,18.1312696 689.049211,18.0763362 L688.555248,18.9552815 C687.841746,18.1587371 687.457553,19.5046217 686.606835,19.0102155 C686.277526,19.5870232 685.701236,19.2574182 685.646352,20.0264951 C685.948218,20.1912969 686.387295,20.0539621 686.222642,20.3561002 L686.057988,20.6582378 C685.481698,20.3286327 685.015179,20.4659685 684.5761,20.5758366 C684.5761,20.5758366 685.371929,19.861693 684.905409,19.9990289 C684.411446,20.8779742 683.807714,20.5483691 683.176541,20.960375 C683.478407,21.1251768 684.21935,21.1526443 684.054696,21.4547819 C683.75283,21.2899801 683.75283,21.2899801 683.423523,21.8667878 C687.622197,20.960375 690.640858,18.4059415 694.64745,17.7742019 C694.537681,17.3896634 694.592565,17.0875258 694.729777,16.8677891 L694.784662,16.8952561 C695.004201,16.8403221 695.251182,16.7853879 695.388394,16.8403221 C695.525606,16.5381845 695.607933,16.4008502 695.553048,16.153646 C695.388393,16.4283118 695.223738,16.4557793 695.059085,16.4283118 Z M729.828548,19.6144865 C729.663894,19.9166241 729.801106,20.356096 729.499239,20.1912942 L729.197373,20.0264924 C729.773663,20.3560975 729.910875,20.8230368 729.169931,20.7681019 L730.624376,21.5921123 C730.789029,21.2899747 730.21274,20.9603711 730.377395,20.6856995 C730.679261,20.8505013 731.118338,20.7131665 731.282993,20.4384968 L729.828548,19.6144865 Z M696.827868,16.2023272 L696.578393,16.0712346 L696.129338,16.7703945 C696.279022,16.5082101 696.678183,16.4645118 696.827868,16.2023272 Z M695.82747,16.7304434 L695.360951,16.8403116 C695.196297,17.1424492 694.976758,17.1973826 694.812104,17.4995202 C695.196297,17.1424493 695.525606,16.9501801 695.82747,16.7304434 Z M750.355452,46.2325774 L750.782332,46.407367 C750.782332,46.407367 750.82114,45.9995235 751.053983,45.708207 C750.704719,45.7664703 750.588295,45.9412608 750.355452,46.2325774 Z M710.321188,44.4848763 C709.793445,43.9339113 709.996422,44.5635855 709.631062,44.6422949 C709.874635,44.7997136 710.402381,45.3506787 710.321188,44.4848763 Z M710.399447,43.2361758 C710.344563,42.9889732 710.509217,42.7143015 710.673871,42.4121655 C710.262235,41.7804243 709.932928,42.3846984 709.466408,42.4945665 C709.521293,42.7417692 709.438966,42.879105 709.576177,42.9615059 C709.878042,43.1263075 710.097581,43.0713739 710.399447,43.2361758 Z M662.360421,31.5352153 C662.046082,31.6750473 661.696814,31.2555509 661.661889,32.2343753 C661.976228,32.0246273 662.290569,31.8148801 662.360421,31.5352153 Z M644.428111,28.7610466 L644.729977,28.9258483 C644.64765,29.0906501 644.345784,28.8983813 644.18113,29.2005185 L644.482996,29.3653202 C644.318343,29.6674578 644.592766,29.8322596 644.592766,29.8322596 C645.004401,29.0906501 645.059285,28.3490391 645.635575,27.305286 C645.498363,27.222885 645.498363,27.0580834 645.470921,26.8932801 C645.882557,27.305286 645.745345,26.206604 646.294191,26.5087416 L645.882555,27.2503511 C646.239306,27.6348896 646.623499,27.662357 646.843038,27.6074221 C647.007692,27.6898232 647.035134,27.9095597 647.199788,27.9919606 L647.446769,27.5524887 C647.666308,27.4975547 647.913288,27.4426205 648.270039,27.4426205 C648.105385,27.7447581 647.968172,28.6237034 648.242596,28.18423 C648.709116,28.0743618 648.654232,27.4426205 648.956098,27.6348897 C649.532388,27.9644948 648.928656,28.3764992 648.846329,28.5413025 C649.751927,28.6511707 650.794742,28.8709075 651.810107,29.4477153 C652.276627,29.3378471 652.441281,29.0357093 652.825474,29.0631768 C653.12734,29.2279786 652.496165,29.6399845 653.072454,29.9695896 C653.676187,29.9146555 654.087821,29.5850511 654.472015,29.2279801 C654.5269,29.4477168 654.5269,29.4477168 654.664112,29.5301177 C654.197592,29.6399859 654.197592,29.6399859 653.95061,30.0794579 C654.691553,30.1069249 655.734361,30.711199 656.612512,30.8210674 C657.079032,30.7111992 656.365531,29.9146546 656.941821,30.2442597 C657.545553,31.5626769 658.807903,30.711199 660.536771,30.7386665 C660.701425,30.8210675 660.920964,30.7661335 661.058177,30.8485347 L661.360043,31.0133365 L661.44237,30.8485347 C661.963775,30.9584029 662.26564,31.1232048 662.704719,31.370409 C662.704719,31.370409 662.787046,31.2056072 662.951699,31.315475 L662.759603,31.9746836 L663.19868,32.2218862 C663.363333,31.9197486 663.08891,31.7549469 663.226122,31.4802767 C664.13172,31.5901449 663.116353,32.3866895 663.912181,32.6613596 C664.543355,32.2493537 663.802412,32.1944203 664.02195,31.7549469 C663.720084,31.5901451 662.841929,31.4528093 663.637757,30.7386673 C661.113054,29.6949202 663.802411,30.4365297 661.414931,29.859722 L661.16795,30.2991939 C661.003297,30.2167928 660.646545,30.1893257 660.262352,30.1893257 C660.564218,29.9970564 660.975854,29.6399854 661.414931,29.8597221 L662.787049,29.8597221 C660.481891,29.5026511 657.682775,27.9095563 655.487383,28.0468936 C655.185517,27.8820918 655.377613,27.5799542 655.075747,27.4151524 C654.609227,27.5250206 654.746438,27.9919601 654.444574,27.8271584 C654.27992,26.7559438 652.82547,26.9207456 652.194298,27.3327515 C651.727778,27.4426197 652.935241,27.3602186 652.605934,27.9644927 L652.276625,28.5413004 L651.535682,28.1292945 C652.249184,27.5799542 651.288701,27.2228817 651.837548,26.9482116 C650.46543,26.9482116 649.779369,25.7671287 649.20308,26.8108765 C649.367734,26.5087389 649.614716,26.069267 648.956099,25.9044637 C648.62679,26.4812715 648.050501,26.1516664 647.80352,26.2340688 C647.474212,25.0804534 646.321633,25.7671294 645.470914,24.9156516 C645.059278,25.0255198 645.114164,25.4100584 644.922067,25.3551235 C644.729971,25.1903217 644.812298,24.9156516 644.263451,24.613514 C643.687161,25.6297936 643.714604,26.2340733 643.604835,27.1404876 C644.01647,26.3988781 644.290894,25.6023337 644.976953,25.4100644 C645.388588,25.712202 645.306262,25.9594047 645.690455,26.2066088 L645.388588,26.7284831 C645.333704,26.6735491 645.223935,26.6186149 645.059281,26.6186151 C644.592761,26.7284833 644.482992,27.6348947 644.181126,27.4700929 L643.604836,27.1404879 C643.495067,27.6623622 643.330413,27.9644982 643.001104,28.5413075 L643.879259,29.0357143 L643.796932,29.1730495 C644.263457,29.0631843 644.126246,28.5962448 644.428111,28.7610466 Z M660.576732,30.6501473 C660.386223,31.0428191 660.005207,30.7810381 659.8782,30.2574756 C660.386224,30.0611393 660.386224,30.0611393 660.576732,30.6501473 Z M653.374358,27.6348926 C653.895763,27.7447608 654.032974,28.1842328 654.197628,28.8983764 C653.484126,28.4863704 653.182261,28.2941012 653.374358,27.6348926 Z M662.594983,31.5560863 L662.67731,31.3704052 L662.457771,31.4322992 C662.238231,31.494193 662.155904,31.6489277 661.908924,31.7417682 C662.348001,32.0202898 662.485213,32.1131321 662.732194,32.0512372 C662.56754,31.9893434 662.430328,31.8965026 662.375444,31.6179803 C662.540097,31.710821 662.540097,31.710821 662.594983,31.5560863 Z M669.784875,34.2544431 C670.416049,33.8424371 669.373239,33.6227019 669.894645,33.3480303 L670.635588,33.7600362 C670.470934,34.0621738 670.306279,34.3368439 670.608145,34.5016457 C671.788167,34.8037833 672.913303,34.8587167 674.257979,35.6003262 C685.893533,38.3470275 697.556581,41.6705364 709.30193,44.8841816 L709.466584,44.582044 L709.164718,44.4172422 L709.741007,43.4009626 C709.439141,43.2361608 709.384257,43.0164241 709.219602,42.9340232 C708.560985,42.741754 707.655381,42.6318856 706.914444,42.1924137 C701.096667,40.8190616 694.428172,38.9513102 687.95182,37.0286178 C685.289918,36.2870083 682.353573,35.9848707 679.636788,34.6115231 C677.386513,34.1171163 675.108804,33.3755068 672.995743,32.9909638 C672.529223,33.100832 672.666434,33.5677715 672.364569,33.4029697 C669.894764,31.6176147 666.930985,32.0570851 664.131869,30.8485377 C663.500696,31.2605436 664.241639,31.3154771 664.0221,31.7549505 C664.625832,33.0733677 666.629119,34.0072494 667.726815,33.0733677 C667.89135,34.1445747 669.208584,33.5402995 669.784875,34.2544431 Z M736.716819,111.134692 C736.414953,110.96989 736.085646,111.546698 735.67401,110.942423 C734.878181,111.656566 734.082356,112.370708 733.341403,113.689124 L733.231634,113.222184 C733.5335,113.386986 733.5335,113.386986 733.862808,112.810179 C732.765113,113.359519 731.859511,113.606723 730.679499,114.320859 C730.212979,114.430727 730.926479,115.227272 730.487402,115.364606 C730.487402,115.364606 730.185536,115.199804 730.514845,114.622997 C729.609246,114.870199 728.676211,115.144871 728.099922,116.16115 C727.633402,116.271019 727.798056,115.996349 727.523632,115.831545 C727.358979,116.133683 727.02967,116.710491 726.151514,116.216084 C724.889166,117.040094 722.117488,116.820359 722.035157,118.331045 L721.788176,117.424633 L721.458867,118.00144 C718.934164,117.342232 716.793669,119.045187 714.241532,118.74305 C714.159205,118.907852 714.159205,118.907852 714.21409,119.127588 C713.85734,118.74305 713.308491,119.01772 712.732202,118.660649 L712.402893,119.237457 C708.313984,119.237457 704.664151,118.907852 700.877104,119.072655 C700.767334,118.605716 698.956139,118.358511 698.187753,118.688116 C698.187753,118.688116 698.352407,118.385979 698.077984,118.221177 C696.403998,118.413446 694.043958,117.479568 692.122993,116.765424 C691.491819,117.17743 692.232762,117.232363 691.930896,117.809171 C691.62903,117.644369 691.189953,117.781704 691.052741,117.314764 C691.354607,117.479566 691.354607,117.479566 691.519261,117.204896 C690.778317,117.177429 691.84857,116.628089 691.107625,116.573155 C689.900162,116.655556 688.034081,114.815259 686.936385,115.364606 C686.689404,114.458194 684.740992,114.12859 684.137269,113.77152 C684.384249,114.677933 683.506095,114.183526 683.313999,115.227274 C683.286557,115.254741 683.286557,115.337142 683.259114,115.392075 C683.56098,115.556877 683.780519,115.501943 683.67075,115.639278 C683.588423,115.80408 683.643307,116.380887 683.341441,116.216086 C683.341441,116.216086 683.039575,116.051284 683.368883,115.474476 L683.231671,115.419542 C683.149344,115.611811 683.039575,115.804081 682.847478,115.392075 C683.478652,114.980069 682.435843,114.760334 682.600498,114.485664 C682.490728,114.018724 683.067018,114.375796 683.231671,114.073658 C682.353516,113.579251 681.832112,115.227273 680.981396,113.96379 C681.14605,113.661652 681.008839,113.22218 681.310704,113.386982 C682.051647,113.414449 680.816741,114.265927 681.557684,114.293395 L682.380954,112.837642 C681.969318,112.2059 681.173491,112.920043 681.200932,112.178433 C680.871624,112.755241 679.856257,111.793895 679.581829,111.629093 C679.417176,111.93123 679.389733,112.67284 679.087867,112.508038 C679.279963,111.464291 678.456693,112.920044 678.346923,112.480571 C678.374366,111.738962 679.252522,112.233368 679.307406,111.464291 L677.852961,110.640281 C677.688307,110.942419 678.566463,111.436825 678.401808,111.738963 C678.401808,111.738963 678.072499,112.315771 677.770634,112.150969 C677.468768,111.986167 678.099943,111.574161 677.358998,111.519226 C677.468768,111.986166 677.441325,112.727775 676.535727,112.974979 L677.990172,113.79899 C677.770633,113.853924 677.523652,113.908858 677.249229,113.771523 C677.084575,114.07366 676.91992,114.34833 677.221786,114.513132 C677.551095,113.936325 678.429249,114.430731 678.593904,114.128594 C680.432538,114.980072 681.914427,115.447011 682.545599,116.380893 C683.643294,116.820365 684.90564,117.342239 686.085667,117.616909 C685.866128,117.671843 685.783801,117.809178 685.619148,118.138783 L686.195437,118.468388 C686.360091,118.166251 686.524746,117.891581 686.744284,117.80918 L687.86942,117.864114 C687.979189,118.331053 687.4029,117.973982 687.238246,118.27612 C688.281056,118.468389 689.598287,119.237466 690.229459,118.82546 C690.531325,118.990262 690.531325,118.990262 690.339228,119.292399 C690.915517,119.622004 691.244826,119.045197 691.821116,119.3748 C691.656462,119.676938 691.491807,119.951608 691.793673,120.11641 C692.534617,120.143877 693.001136,120.034009 693.879286,120.528416 C694.04394,120.226278 694.071382,119.484669 694.373249,119.64947 C694.181152,120.693218 695.388615,120.610817 695.964903,120.940422 C695.992345,120.885488 695.964903,120.693219 695.910018,120.528416 L695.964903,120.555883 L695.910018,120.30868 L695.882576,120.363614 C695.855134,120.226279 695.827691,120.116411 695.855134,120.061477 L695.69048,119.979075 L696.184442,119.10013 C696.925386,119.127597 696.596078,119.731871 697.199809,120.061476 C696.952828,120.500948 696.650962,120.720685 696.266769,120.693217 C696.788175,120.803086 697.227252,121.050288 697.748657,121.160157 C697.66633,121.324959 697.66633,121.324959 698.050523,121.324959 L698.13285,121.160157 C699.312872,121.462294 700.602656,121.599629 701.865015,121.736964 C701.837573,122.121503 701.974784,122.203904 702.38642,122.203904 L702.633401,121.764432 C703.895749,121.901767 705.267869,121.901767 706.639978,121.901767 L706.557651,122.066569 L707.435807,122.560976 C707.600461,122.258838 707.902327,122.039101 707.984653,121.901767 C708.231634,121.846833 708.368846,121.929234 708.588386,121.846833 C708.753039,121.929234 708.972579,121.8743 709.192118,121.791899 C709.79585,121.736965 710.317254,121.846833 710.838655,121.956701 C711.003309,121.654563 710.866097,121.215091 711.332618,121.077755 C711.167964,121.379893 711.003309,121.654563 711.305175,121.819365 C713.994526,122.203903 716.382015,121.407359 718.796938,121.242557 C719.428111,120.830551 718.220648,120.912952 718.82438,120.500948 C719.565324,120.528415 718.495072,121.077755 719.236016,121.132689 C719.40067,120.830551 719.428113,120.088942 719.729979,120.253744 C720.031845,120.418545 718.93415,120.967887 719.702536,120.995353 C722.885845,119.484673 726.480796,119.622001 729.526906,117.671844 L729.362252,117.973982 C730.405061,118.166251 731.365548,117.177437 732.545561,116.490761 C733.012081,116.380893 733.286504,116.518228 733.753024,116.40836 C734.219544,116.298492 734.246987,115.529415 734.713506,115.392079 C735.180026,115.282211 735.920969,115.309678 736.387492,115.19981 C737.018666,114.787804 737.347975,114.18353 737.979147,113.771524 C738.1438,113.469387 738.555436,114.101129 738.72009,113.798991 L739.049399,113.222184 L740.421517,112.837645 C741.217346,112.123502 742.26015,110.969885 742.891322,110.557888 C743.193189,110.722689 743.467612,110.887493 743.632266,110.585355 C743.796919,110.283217 743.824362,109.541608 744.290882,109.404272 C744.455536,109.102134 745.031825,109.431739 745.19648,109.157069 L745.690443,108.278124 C745.690443,108.278124 746.266732,108.607729 746.431386,108.305591 L746.925349,107.426646 C746.925349,107.426646 747.666292,107.454113 747.830947,107.179443 C748.32491,106.300498 748.846313,105.421546 749.697029,104.570079 C749.697029,104.570079 750.437972,104.597546 750.602628,104.322876 C751.892419,102.729791 753.127331,100.532424 754.554322,99.4062816 L752.386378,97.4011839 C747.913277,103.36153 742.64434,108.525326 736.744172,110.393087 C736.113088,110.805088 737.320551,110.722687 736.716819,111.134692 Z M707.024234,121.918768 C707.323604,122.302307 707.423396,121.663075 707.722766,122.046614 C707.273711,122.302307 707.273711,122.302307 707.024234,121.918768 Z M728.89577,117.382699 C729.197636,117.719561 729.362289,117.158123 729.636713,117.438842 L729.472059,118.056425 C729.170193,117.719564 728.731116,118.000282 728.89577,117.382699 Z M715.064866,44.6084967 L714.900213,44.472195 C714.763001,44.926534 714.461136,44.6539309 714.159269,45.0174008 C714.598345,45.4263055 714.763,44.9265333 715.064866,44.6084967 Z M714.004654,45.8305638 C714.004654,45.6308039 714.132385,45.3311636 714.132385,45.1314038 C713.876922,45.4310435 713.876922,45.6308039 714.004654,45.8305638 Z M714.40994,45.6258106 C713.976069,45.5708766 713.795291,45.4610088 713.722978,45.323673 C713.722978,45.680744 713.650666,46.0927499 713.867602,46.3674201 L714.40994,45.6258106 Z M763.775089,57.3267711 C762.814606,56.9697001 761.909006,56.8598318 760.948524,56.5027608 C760.893639,56.2555581 760.591774,56.1182223 760.427119,56.0358214 L760.262465,56.337959 L759.960599,56.1731572 C759.329425,56.5851631 760.372235,56.8048983 759.850829,57.07957 C759.109886,57.052103 759.878272,56.3379605 759.466636,56.0632904 C744.894752,52.0256364 730.542459,48.3175889 716.272391,44.4722042 L716.354718,44.3074024 C716.080295,44.3348694 715.943083,44.4722042 715.833313,44.5546051 C715.943082,44.5820721 716.052852,44.6095391 716.190063,44.6095391 L716.107736,44.7743408 L715.80587,44.6095391 C715.833312,44.6095391 715.833312,44.5820721 715.833312,44.5820721 C715.778428,44.5546051 715.723543,44.5546051 715.668659,44.527138 L715.504005,44.4447368 C715.531447,44.4722039 715.531447,44.4722039 715.531447,44.499671 C715.504005,44.472204 715.476563,44.472204 715.421678,44.472204 C715.476563,44.5546051 715.531447,44.6095392 715.586332,44.6370058 C715.668659,45.1314126 713.967228,45.0215443 714.570964,46.0652913 C715.037483,45.9554231 714.982599,45.3236819 715.284465,45.5159511 C716.135178,46.3948964 716.931002,45.6807529 717.177981,46.6146331 C717.809155,46.2026272 717.644501,46.5047649 717.589617,45.8730236 L718.33056,46.2850295 L717.918925,47.026639 C718.303118,47.054106 718.44033,47.1365072 718.824523,47.1365071 C719.730121,47.2463753 720.772937,47.4661121 720.937584,48.1527882 C721.404104,48.04292 721.568758,47.7407823 721.952951,47.7682497 C722.392028,49.388809 724.34044,48.3450574 725.767432,49.5536048 C737.457868,52.1355103 749.505004,55.5139512 761.250354,58.7001228 C761.963855,58.1507826 761.826643,57.6838432 761.716873,57.2169023 C762.01874,57.3817041 762.183393,57.1070341 762.457817,57.2443693 L761.881527,58.260649 C768.165829,60.4854744 774.532446,61.5841579 781.036248,63.726593 L781.118575,63.5617912 C780.706939,63.451923 780.212977,63.2321862 779.66413,62.9575161 L779.691572,62.930049 C779.581803,62.875115 779.554361,62.875115 779.499476,62.8751149 C779.444591,62.8476479 779.389706,62.8201808 779.307379,62.7927138 C779.334822,62.7927138 779.362264,62.7652468 779.389707,62.7652468 C779.19761,62.4631092 778.84086,62.0511033 779.362264,61.7764332 C776.398486,60.8700204 773.764017,60.7326861 770.443495,59.0297319 L767.699261,58.4254567 C766.683895,58.0409183 765.641083,57.8211816 764.598269,57.6014464 C764.296493,57.4366395 764.159282,57.3542386 763.775089,57.3267711 Z M713.796962,44.0876612 C713.748126,44.2799304 713.55278,44.3073979 713.308598,44.3348638 C713.748125,44.4721991 713.894637,44.7194023 713.992309,44.9116716 C713.894635,44.6919349 714.187655,44.3897973 713.796962,44.0876612 Z M713.505238,44.454026 C713.377507,44.5818723 713.377507,44.5818723 713.377507,44.7097186 C713.505238,44.7097186 713.63297,44.5818723 713.760701,44.5818723 C713.63297,44.5818723 713.505238,44.5818723 713.505238,44.454026 Z M710.893675,43.7031227 C710.783905,44.6095355 711.579734,44.8842056 711.634618,45.4610193 C712.101138,45.3511511 712.375561,45.4884863 712.814639,45.7631569 L713.143948,45.1863492 C712.732313,44.5546081 711.991369,45.5159542 711.963927,44.8842116 C712.403004,44.7743434 712.979293,44.7194098 713.226275,44.3348714 C713.17139,44.3348714 713.143948,44.3623384 713.089063,44.3623384 C713.363487,44.0327333 712.512774,43.8404641 712.375562,43.7855307 C711.909042,43.8953989 712.046253,44.3623384 711.744388,44.1975366 C711.222983,43.7305972 710.811348,43.4559271 710.37227,43.2087229 C710.289943,43.7580632 710.427155,44.2250026 710.482039,44.4447393 C710.646692,44.1425946 710.235058,43.5383194 710.893675,43.7031227 Z M678.346998,114.952566 C678.863304,114.842697 678.316627,115.694175 678.681079,115.117367 C678.559595,114.650428 678.863304,114.81523 679.04553,114.54056 L678.71145,114.375758 L678.346998,114.952566 Z M781.228322,64.2044247 L781.926854,63.9487321 C781.490273,63.5651931 781.228322,64.2044247 781.228322,64.2044247 Z M784,63.0123828 C783.53348,62.9299818 783.149287,62.7102452 782.874864,62.5729109 C782.902306,62.4355757 782.902306,62.3257082 782.765094,62.133439 C782.188805,61.8038339 782.353459,62.8750485 782.133921,62.5454449 C781.557631,62.2158399 782.298575,62.2433073 782.161363,61.8038354 C781.612517,61.0896919 781.091111,61.9686372 780.514826,61.6390337 C780.405057,61.8587704 780.405057,62.0510396 780.432499,62.2158414 C780.240403,62.1609074 780.048306,62.1334403 779.74644,61.9686387 C779.362247,62.3257097 779.801325,62.5729139 779.856209,62.7926491 C780.240402,62.8201161 780.459942,62.7377151 780.597152,62.8201161 C780.652037,62.7102479 780.734364,62.5729134 780.706922,62.4355776 C782.216245,62.8201161 781.530192,62.3806436 782.380908,62.7377152 C782.353465,62.7651822 782.326023,62.7926492 782.326023,62.8475833 L782.161369,62.7651822 C781.914389,62.8201163 781.859503,62.9574515 781.777176,63.1222532 C781.94183,63.2046543 782.133927,63.5067917 782.133927,63.5067917 L781.886946,63.9462636 C782.188812,64.1110654 781.722292,63.8638626 781.22833,63.7539944 C780.981349,64.1934663 780.816694,64.4956039 781.47531,64.6604071 C782.106484,64.2484012 782.216253,63.3419899 782.51812,63.5067917 C782.490677,64.2484012 782.40835,64.4132045 782.847428,64.6604071 C782.106485,64.2484012 781.502753,65.6492208 781.11856,64.63294 C780.103194,68.1212597 779.499457,71.2799579 778.456658,74.7682777 C778.566428,75.235217 779.032948,75.0978827 778.868294,75.4000188 C778.70364,75.7021564 777.962696,75.6472215 777.990138,76.2514967 C777.962696,76.6360351 777.880369,76.7733709 777.880369,77.1579094 C777.715715,77.0755084 777.66083,77.2128434 777.715715,77.460047 L777.962696,77.405113 C777.880369,77.5699148 777.935253,77.7896515 777.852926,77.9269873 C777.770599,78.091789 777.770599,78.091789 777.825484,78.3115257 C777.139425,81.6075763 775.959402,84.9860172 775.65754,87.9524611 C776.12406,87.8425929 776.069176,87.2108516 776.371042,87.4031209 C776.480811,87.8700602 777.111985,87.8151268 776.919889,88.1172644 C776.755235,88.419402 776.755235,88.419402 776.453369,88.2271324 C776.288715,88.52927 776.837562,89.2434121 776.343599,89.1335452 C775.76731,88.8039402 776.755235,88.3919357 776.096619,88.2271324 C773.626813,90.8914283 774.477516,94.8741504 772.556551,98.2251328 C773.105397,98.9392763 772.968186,97.4835233 773.571919,97.8405943 C774.120765,98.5547379 773.407265,99.4886121 772.66632,99.4611536 C770.910003,97.0989909 767.068074,98.4174066 764.021979,96.274982 C763.720112,96.1101802 763.308477,96.8243222 762.8694,96.604587 C762.896842,95.8629775 763.445689,96.9341921 763.500573,96.1925811 C762.841957,96.0003119 762.457764,96.0003119 762.457764,96.0003119 C762.29311,95.9179108 762.155898,95.8355101 762.101014,95.6157734 C761.771705,96.1925811 761.195415,95.5059052 760.920992,95.3136358 C760.289819,95.7256417 761.497282,95.6432408 760.89355,96.0552453 C759.740971,95.0114982 756.886972,94.5720248 755.322752,94.2424167 C755.652061,93.665609 754.417153,94.1325485 753.703648,93.3360055 C753.237129,93.4458737 753.292013,94.077615 752.990147,93.8853457 C752.68828,93.720544 753.401782,93.1437362 752.605954,92.8690646 L752.4413,93.1712022 C750.383121,91.9901193 747.584005,92.5119936 746.596074,91.1935779 C745.141629,91.3583797 742.809027,90.012495 741.217373,90.4519684 C736.799153,88.3370068 733.286534,88.0623322 729.362273,86.7988529 C728.895753,86.9087211 728.950637,87.5404624 728.648773,87.3481931 C728.072483,87.0185881 728.676215,86.6065837 728.758542,86.4417804 C728.127369,86.8537863 728.017599,86.0297744 727.276656,85.974841 C726.206404,86.1396428 725.328242,86.9911206 724.916615,86.386847 C725.383135,86.2769788 725.657559,86.7988529 725.822214,86.1396443 C724.504981,85.3980348 722.885884,85.8375067 722.282146,84.903628 C720.553277,84.876161 718.90674,84.7113587 717.287637,83.804946 C712.759653,82.5689297 708.341434,81.8273217 703.978097,80.2891678 C703.511577,80.399036 703.648788,80.8659755 703.346924,80.7011737 C703.511577,80.3990361 702.935288,80.0694326 702.496211,79.8222284 C702.166902,80.3990361 701.782709,80.3715687 701.755268,79.7947614 C701.425959,80.3715691 701.453402,80.9758443 701.288748,81.2779819 C700.877112,80.6462407 700.657574,81.6899878 700.383149,81.5251845 C700.081283,81.3603828 700.27338,81.0582452 699.834303,80.8110425 C699.724533,81.7174553 698.928704,80.7011743 698.681724,81.1406476 C700.136169,82.3491964 702.221792,82.3766639 704.362287,83.3929465 C704.828807,83.2830783 704.773923,82.651337 705.075789,82.8436062 C705.377655,83.008408 704.74648,83.420414 705.322769,83.750019 C715.997841,86.3319245 726.700407,89.3258269 737.402882,91.9626643 C737.869402,91.8527961 737.732191,91.3858566 738.034057,91.5506584 C739.955022,93.6106881 743.604855,93.3634869 746.10211,94.379765 C746.733283,93.9677591 746.211879,93.4733523 746.403976,93.1986821 C746.980265,93.5282872 746.952822,93.9128257 746.733285,94.3522976 C749.532401,95.5608464 752.304083,96.1651261 754.938551,96.3024634 C754.197608,96.2749964 754.69157,95.3960506 754.965993,95.5608539 C754.636684,96.1376616 755.51484,96.2749975 755.130647,96.6320685 C755.87159,97.0440744 756.036245,96.7419367 756.914398,97.2638096 L760.289803,99.186502 C766.930849,100.807061 767.150394,100.367585 774.230515,102.26281 C774.971458,99.9555789 774.916574,97.6208746 776.398459,94.379771 C775.794727,91.7154752 778.456638,88.3644927 777.935231,85.5628596 C779.417119,84.6564468 778.703617,82.5140252 779.691548,81.1131936 C779.142701,80.3990501 779.279912,81.8548031 778.676182,81.4977321 C779.965973,79.9046463 780.459933,77.6798208 779.554337,76.1965988 C780.29528,76.2240658 779.664107,76.6635382 780.103184,76.9107409 C780.103184,75.5373887 781.200879,73.6421638 780.87157,72.5160219 C782.518107,71.334939 782.051591,68.725569 783.121845,66.8028766 C782.902306,66.3084698 782.463229,66.4183382 782.627882,66.1162006 C783.643248,65.7316256 783.259055,64.330809 784,63.0123828 Z M714.927528,44.8417396 L715.092182,44.1425796 C714.900085,44.4603795 714.543335,44.5239383 714.159142,44.3968192 C714.406123,44.5874996 714.680548,44.8417396 714.927528,44.8417396 Z M714.555808,44.6273021 C714.301796,44.4994558 714.111288,44.3716095 713.857276,44.3716095 C714.111288,44.4994558 714.301796,44.4994558 714.555808,44.6273021 Z M714.144172,44.7044047 C713.911328,44.5046449 713.631915,44.3048845 713.44564,44.0052447 L713.957897,44.6045232 C714.004466,44.6045248 714.097603,44.6045248 714.144172,44.7044047 Z M715.845598,44.9199511 C715.782095,44.7921048 715.718592,44.6642585 715.655089,44.4085658 L715.147066,44.6642585 C715.401077,44.6642585 715.591586,44.7921048 715.845598,44.9199511 Z M781.540537,63.7265757 L781.981716,63.149768 C781.577303,62.9574988 781.356715,62.8750979 781.283184,63.0398998 C781.540537,63.3420373 781.430243,63.506839 781.540537,63.7265757 Z M666.848607,104.54261 L667.34257,103.663665 C666.76628,103.33406 666.29976,103.471396 665.997894,103.279126 C666.5193,103.388995 666.244875,103.224192 666.382087,102.922055 C664.049481,101.219106 662.512709,99.159076 660.893621,96.906777 L660.728967,97.2089146 C661.058276,96.6321069 659.850811,96.7145078 660.481986,96.3025019 C659.905697,95.9728968 659.439177,96.1102326 659.46662,95.3411557 C659.46662,95.3411557 659.46662,95.3960897 659.439177,95.4510239 C659.439177,95.4235569 659.439177,95.3960899 659.46662,95.3411557 C659.219639,94.4347429 658.945214,93.5008687 657.65542,92.7592502 C657.490766,93.0613878 657.024247,93.1712561 656.749822,93.0064529 C656.914476,92.7043153 657.490765,93.0339199 657.545651,92.2923093 C656.832149,91.4957649 656.749822,90.2872116 655.899114,89.4082708 L654.993515,89.6554734 C654.883746,89.1885341 654.581879,89.0237323 654.444669,88.5567914 C655.405151,87.5405118 653.978149,85.9748859 652.907897,84.7663386 C653.703725,84.0521951 652.194395,83.9697942 652.990224,83.2831181 C652.880454,82.8161787 652.523704,83.3929863 652.249281,83.2556511 C652.331608,83.0908493 652.057184,82.9535135 652.139511,82.7887117 C651.508338,83.2007177 651.316241,84.2444647 650.739952,83.9148597 C651.371125,83.5028538 650.328316,83.2831186 650.492971,83.0084469 L650.82228,82.4316392 L651.398569,82.7612443 C650.986934,82.1295031 651.316242,81.5526954 652.057186,81.5801614 C652.386495,81.0033537 651.590666,81.6900296 650.849723,81.6625624 C650.383203,81.7724306 651.261359,82.2943035 650.520414,82.2393701 C650.520414,82.2393701 650.685068,81.9372325 650.410644,81.7724308 C649.944125,81.882299 649.614816,82.4865743 649.285508,83.063382 C650.163664,83.5577888 649.834355,84.162064 650.245991,84.7938051 C650.410644,84.4916676 650.5753,84.2169974 650.877164,84.3817992 L650.383202,85.2607445 C651.343684,86.9911676 652.194401,89.2159931 653.456745,91.0837536 C654.417228,90.067474 654.280015,92.3472373 655.37771,91.7978971 C655.213057,92.1000347 655.48748,92.2648365 655.350268,92.5395066 C654.773978,92.2099015 654.609325,92.5120396 654.252573,93.0888468 C655.597248,93.4733853 655.542364,94.2149948 655.953993,95.2038084 C656.420512,95.0939402 655.707012,94.2973957 656.447955,94.3248631 C656.557725,94.7918025 656.420513,95.0664726 656.063762,95.6707478 C657.079129,96.632094 657.929845,97.5110348 658.753113,98.7745291 C659.384287,98.3625232 658.506132,97.8681163 658.83544,97.2913086 C659.576383,97.3187756 658.506131,97.8681163 659.247076,97.9230513 C659.713596,97.8131831 659.878249,97.5110453 660.207558,96.9067701 C660.317328,97.3737095 660.866175,98.444924 659.960578,98.7195987 C659.960578,98.7195987 660.125231,98.4174611 659.850808,98.2526593 C659.521499,98.829467 659.658712,99.2964064 659.466615,99.598544 C660.811291,99.9830824 660.481982,100.55989 661.497345,101.136698 C661.661999,100.83456 662.128519,100.724692 662.293174,100.422556 C662.293174,100.422556 662.402944,100.889495 662.101078,101.466303 L662.979233,101.96071 C662.34806,102.372716 662.649924,102.537517 662.485271,102.839655 C663.143887,103.388995 663.637849,103.883402 664.049491,104.515146 L664.214145,104.597547 C664.570895,104.982086 664.872761,105.146888 665.229513,105.558894 C665.256955,104.817284 666.025342,104.84475 666.189995,104.542614 C666.491861,104.707416 665.394167,105.256757 666.162553,105.284223 C666.683958,104.817284 666.080226,104.487679 666.272322,104.213009 L666.848607,104.54261 Z M658.866165,95.8558621 C659.046179,95.4628577 659.436212,96.2095654 659.526219,95.4235566 C659.496216,95.737961 659.436212,96.2488665 659.196192,96.0916643 C659.196192,96.0916643 658.686151,96.2488663 658.866165,95.8558621 Z M740.147163,93.5008747 C739.433661,92.7043303 738.775044,93.8854132 738.06155,93.0888688 C733.807979,97.8406678 730.789332,99.4062801 726.069237,101.576189 C725.739928,102.152996 725.355735,103.498881 724.834331,103.773556 C724.724561,103.306616 724.422695,103.141815 723.818964,102.81221 C719.592842,104.487701 715.284388,105.915991 710.674072,106.19065 L710.509419,106.492788 C709.494052,105.531442 707.984715,105.833579 706.887034,106.38292 C704.526994,105.421574 701.974857,106.492788 699.477603,105.476507 C699.312949,105.778645 699.45016,106.218117 699.148294,106.053315 C698.956197,105.284238 697.556639,104.927167 696.651039,105.229305 C695.443576,105.284239 693.879357,104.405294 692.973757,104.652497 C693.0012,103.910887 692.095602,104.15809 691.629082,104.267958 C690.20208,102.674873 687.046215,102.427671 684.741057,100.724707 C684.741057,100.724707 684.576404,101.026844 684.274538,100.834575 C684.439191,100.532437 684.741057,100.724707 684.741057,100.724707 C682.98474,99.708427 681.832161,98.6921504 680.322838,98.609745 L680.652147,98.0329373 C679.773992,97.5385305 679.197702,97.208927 678.621417,96.4947834 C677.880474,96.4673164 677.715819,96.7419861 677.523724,97.0441237 C677.688378,96.7419861 677.413954,96.5771843 677.413954,96.5771843 C677.715821,96.7419861 677.880474,96.4673161 678.045128,96.1651784 C677.166972,95.6707715 676.755337,95.0390304 676.179046,94.3248914 C676.014392,94.627029 676.151603,95.0665009 675.849737,94.9016991 C675.602756,93.9952863 674.889254,93.171276 674.312965,92.4846044 C674.148311,92.786742 674.285523,93.2262139 673.983656,93.0614121 C673.983656,93.0614121 673.517136,93.1712803 673.68179,92.8966103 C673.68179,92.8966103 673.983656,93.0614121 674.14831,92.7867423 C673.270154,92.2923355 672.858518,91.6605943 671.980366,90.7816445 C671.6785,90.6168427 671.651057,91.3584522 671.349192,91.1936505 C671.349192,91.1936505 670.882672,91.3035187 671.047326,91.0288487 C671.349192,91.1936505 671.349192,91.1936505 671.6785,90.6168427 C671.266864,89.9851016 670.333824,90.2323043 669.922183,89.6005616 C670.086836,89.298424 670.635684,90.397106 670.663126,89.6280286 C669.071471,88.3370774 669.153803,86.441857 667.671913,85.0135669 C667.50726,85.3157045 667.04074,85.4255729 666.766315,85.2607696 C666.793757,84.5191601 667.397488,84.8487637 667.562144,84.5466261 C666.464449,82.7887295 665.750944,81.0583063 665.037441,79.3278832 C665.14721,79.3004162 665.25698,79.2729491 665.366749,79.218015 C664.845344,78.7510756 664.598364,78.2017354 664.406267,77.4875918 C664.241613,77.7897294 664.076958,78.0643995 663.500669,77.7347945 C662.869495,78.1468004 664.076958,78.0643995 663.473226,78.476404 C663.775092,78.6412058 663.802535,77.8995963 664.378825,78.2292013 C664.351382,78.9708108 663.473226,78.476404 663.418342,79.2454809 C664.159285,79.2729479 663.829978,79.8772221 664.131844,80.0420253 C664.32394,79.7124203 664.570921,79.5201511 664.817903,79.3828167 C664.516037,79.7673552 664.488594,80.0694928 664.406267,80.2068271 L663.829978,79.8772221 C663.802536,80.6188316 664.214171,81.2505742 664.625807,81.8823198 C665.25698,81.4703139 664.049517,81.5527148 664.653249,81.1407104 L665.229539,81.4703154 C664.90023,82.0471231 665.037442,82.5140625 664.845346,82.8162001 C665.147212,82.9810018 665.311865,82.7063319 665.311865,82.7063319 C665.394192,83.9148807 665.778385,85.2882374 667.671906,86.3869209 C667.205386,86.4967891 667.507252,86.6890584 667.342597,86.9637286 C667.918886,87.2933336 668.056099,87.760273 668.357963,87.9250748 C668.522617,87.6229372 669.263562,87.6778721 669.400773,88.117344 C669.098907,87.9525422 668.934253,88.2272122 668.604944,88.831486 C669.181233,89.1610911 669.784966,89.4906946 669.73008,90.2323041 C670.141716,90.8640453 670.059389,89.6554964 670.471023,90.2597711 C669.83985,90.6717771 671.047313,90.5893762 670.443581,91.0013806 C672.885953,93.1712742 675.026448,96.9067951 678.511633,97.9230732 C678.813499,98.087875 678.182324,98.4998809 678.758614,98.8294844 C679.334903,99.1590895 679.389787,98.4174785 679.966077,98.7470834 L679.636769,99.3238911 C680.679579,99.5161604 681.393086,100.340171 682.243789,101.191652 C682.271231,100.450042 682.874962,100.779646 683.039617,100.477508 C682.737751,100.312706 682.134019,100.724711 682.161462,99.9831012 C682.627982,99.873233 682.902405,100.010568 683.368925,99.9007002 C683.204271,100.202838 683.945214,100.230305 683.780561,100.532441 L683.615907,100.834579 C683.039617,100.504974 683.039617,100.504974 682.710309,101.081782 C684.466626,102.098061 686.250377,102.702341 688.582968,104.048226 C688.747622,103.746088 688.610411,103.306616 688.912277,103.471418 L688.582968,104.048226 C689.488567,103.801023 690.943009,105.009572 691.876057,104.734902 C691.876057,104.734902 691.711403,105.037039 691.985827,105.201841 C694.977039,105.751181 698.078032,107.09706 700.904596,106.575193 C701.782752,107.0696 703.566498,107.701341 704.362333,106.987199 C704.362333,106.987199 704.197679,107.289337 704.472102,107.454138 C706.146088,107.261869 707.929839,107.481605 709.603825,107.289337 L709.768479,107.371738 L711.140597,106.987199 C711.607117,106.877331 710.399654,106.959732 711.030827,106.52026 C711.744329,107.316804 712.210849,107.179469 712.54015,106.602661 C712.842017,106.767463 712.375497,106.904799 712.210842,107.179469 C712.787131,107.509074 713.00667,106.465325 714.022041,107.426672 C714.488561,107.316803 713.775061,106.520259 714.516004,106.547726 C714.625773,107.014666 714.790427,107.097066 714.92764,107.179469 L714.845313,107.344271 L715.750911,107.097068 L716.052777,107.26187 L716.217431,106.959732 C716.382084,107.042133 716.601624,106.987199 716.79372,107.289337 L717.123029,106.71253 C718.934229,106.959732 720.580766,105.751183 722.529179,105.723716 C723.187796,104.542633 724.367813,105.201842 725.108765,103.910887 L725.685055,104.240492 C726.014363,103.663685 727.084614,103.114344 726.91996,102.043125 C727.633462,102.867136 728.264636,102.455131 728.73116,102.317795 C733.176807,99.6260168 736.222902,97.6483925 740.147163,93.5008747 Z M675.136263,111.381908 L675.712553,111.711513 C675.904649,111.436843 676.069303,111.134705 675.767437,110.969903 C675.877206,111.436841 675.465571,110.8051 675.136263,111.381908 Z M673.764141,113.112335 C673.956237,112.068588 674.861835,112.562995 675.026489,112.288324 C674.889277,111.821384 673.681814,111.903785 673.187851,112.78273 L673.764141,113.112335 Z M671.431541,107.316788 C671.266888,107.618925 671.404099,108.058397 671.102233,107.893596 C670.800366,107.728794 670.992463,107.426656 671.129675,107.151986 C670.388732,107.124519 669.785,106.767448 669.67523,106.327974 C669.373364,106.520243 669.126383,106.987183 668.934287,107.261853 C668.604978,107.838661 668.577537,108.223199 667.973804,108.278133 C668.38544,108.909874 668.056131,109.486681 669.09894,109.678951 C669.730114,109.266945 668.522651,109.349346 669.126383,108.937341 C670.004538,109.431748 672.227375,109.953621 670.992465,110.777628 L671.321772,110.20082 C670.580829,110.173353 670.416174,110.448023 669.949654,110.585359 C671.129676,111.244567 672.556674,112.453119 673.352508,111.738974 L672.858546,112.61792 C673.160412,112.782721 673.819028,111.60164 674.148337,111.024834 C674.395318,110.9699 674.395318,110.9699 674.53253,111.052301 C674.477645,110.448026 674.422761,110.585361 675.026493,110.173356 C674.340434,109.376811 673.462272,108.882404 671.980398,108.415459 C672.145042,108.113332 671.733408,107.509057 671.431541,107.316788 Z M667.94636,106.327976 C669.044055,105.778635 669.867325,107.042119 668.440323,105.44903 C667.94636,106.327976 667.479841,106.46531 667.150532,107.042116 C667.150532,107.042116 666.107722,106.849847 666.409589,107.014649 C667.452398,107.206918 666.958435,108.113331 668.001243,108.3056 C668.330552,107.701325 668.495206,107.426655 668.961725,107.289319 C668.220784,107.261855 668.248225,106.492777 667.94636,106.327976 Z M694.236207,82.8985271 C694.360304,83.3654664 694.205182,83.6401365 694.856695,83.9972091 C695.042841,83.6950715 694.918744,83.2281321 694.236207,82.8985271 Z M648.486686,75.8394972 C648.708581,75.5373596 649.559178,75.1253536 648.745564,74.7957501 C648.967458,75.2626895 648.116862,75.6746954 648.486686,75.8394972 Z M650.1363,75.6472279 L649.560011,75.3176229 C649.532568,76.0592324 648.928837,75.7296288 648.764182,76.0317664 C649.175818,76.6360416 649.505125,76.0317664 649.806991,76.2240356 L650.1363,75.6472279 Z" id="形状" fill-rule="nonzero"></path>
                <text id="已拒绝" transform="translate(711.000000, 63.500000) rotate(15.000000) translate(-711.000000, -63.500000) " font-family="FZZYK--GBK1-0, FZZongYi-M05" font-size="28.75" font-weight="normal" letter-spacing="9">
                    <tspan x="654" y="73">已拒绝</tspan>
                </text>
            </g>
        </g>
    </g>
</svg>